<?xml version="1.0" encoding="utf-8"?>
<!-- Generator: Adobe Illustrator 18.1.1, SVG Export Plug-In . SVG Version: 6.00 Build 0)  -->
<svg version="1.1" id="新竹" xmlns="http://www.w3.org/2000/svg" xmlns:xlink="http://www.w3.org/1999/xlink" x="0px" y="0px"
	 viewBox="0 0 612 792" enable-background="new 0 0 612 792" xml:space="preserve">
<g id="新竹縣_1_">
	<path id="五峰鄉_1_" fill="none" stroke="#000000" d="M127.6,213.7l1.9,0.1l-0.1,2.1l-0.3,2.7v1.1l2.1,0.8l1.1,1l0.4,2.3
		l0.6,3.2v1l-1.6,0.4l-0.2,2.9l-2.3,1.8v2.8l-1.2,1.2l-0.3,2.4l-1.1,2.6l-1.1,1.4l-1.4,1.5l-1.2,0.8l-1.4-1l-1.6-0.2l-1,0.7l1,0.7
		l2.6,1.1l0.9,1.1l1.3,0.9l1.6,1l1.6,1.3l0.8,0.2l0.2,1.4l0.6,1.3l1.1,1.1l1.2,0.3l0.6,0.8l-0.2,1.3l-0.8,1.5l-0.7,1.6l0.1,1.1
		l0.1,1.7l-0.9,0.6l-2.7,1l-1.6,1l-0.7,0.5v1.8l1.2,2.8l-0.2,2.3v1l-0.8,1.7l1.3,1l1.2,1.3l0.3,2.1l0.5,0.2l3.1-0.2l1.8-0.9l1.8-0.2
		l1.4,1.3l2.6,0.9l2.6,0.5l1.5-0.6l1.1-0.6l1.1-0.7l1.3-0.9l1.7-0.1l1.5-2.5l1.5-1.1l1.2-0.5l1.2,0.4l1.1-0.8l1.9,0.6l2.1,1.2
		l2.5-0.3h1.3l2.6-1.5l1.2-0.3l2.3,1.9l2.3,0.4h1.8l2,1.2l1.5,0.3l2.6,0.2l1.3-0.4l2.1-0.3l1.2-1.2l1-0.7l0.7-0.6l1.4-0.3l1.3,0.3
		v1.2l1.6,0.2l3.3-0.7l2.1-0.4l0.9-1.5l1.1-0.3l0.7-1.1l-0.5-0.5l-0.3-0.4v-0.7l0-0.6l-0.1-0.5l0.2-0.7l0.5-0.8l0.4-0.6l0.2-0.6
		l-0.3-0.7l-0.6-0.8l-0.9-0.1l-0.1-0.4l0.2-0.4l0.6-0.3l0.4-0.4l-0.6-0.8l-0.2-1.2l0-1l0.4-1.3l-0.3-0.8l-0.8-0.1l-0.6-0.1l-0.9-1.1
		l-1-0.9l-0.2-0.6l0-0.6l0.4-0.4l0.6-0.6l0.3-0.5l0.4-0.2h0.5l0.6,0.3l0.5-0.1l0.2-0.3v-0.5l-0.4-1.1l-0.8-1.1l0-0.4l-0.5-0.9
		l-0.3-0.5l-0.5-1l-0.6-0.6l-0.8-0.2l-0.5-0.1l-0.1-0.4l0.8-3.2l0.2-0.5l0.7-1.3l0.8-0.9l-0.2-0.8l0-1l-0.5-0.6l0-1l0.4-1.3l0.1-0.6
		l0.3-0.6l-0.2-0.8l-0.1-1l0.4-0.9l0.8-1.2l0.4-0.8l0.2-0.8l0.2-0.3l0.5-0.1h1.2l0.8,0.2l0.7-0.1l0.6-0.3l0.6-1l0.4-0.9l0.2-1.1
		l0.6-0.4l0.6-1l1.7-0.1h0.4l0.4-0.3l0.4-0.1l0.9-1.3l0.8-1.4l-0.8-0.4l-0.9-1.1l-0.4-0.2l-0.2-0.7l-0.7-0.9l-0.4-0.4l-1.2-1.4v-3
		l-0.3-0.4l-0.8-0.3l-0.9-0.5l-0.1-1.3l-0.4-0.5l-0.7-0.6l-1.2-0.4l-0.4-0.1l-0.8-0.4l-0.6-0.4l-0.7-0.4l-0.2-0.5l-0.2-0.3l-0.8-0.8
		l-0.7-1l-0.8-0.7l-0.7-0.5l-1.5-1.2l-1.3-1.2l-0.6-0.4l-0.2-0.1L188,201l-0.1-0.5l-0.1-0.9V199l0.2-0.6l1.7-2.5l0.3-1l0-1l-0.1-0.6
		l-0.3-1.1l-0.2-1.2l-0.2-0.6l-0.8-1l-0.5-0.3l-0.6-0.6l-0.4-0.4l-0.2-0.5l-0.3-0.7l0-0.3v-0.4l-0.2-0.2l-0.5-0.2l-0.4-0.1l-0.6-0.2
		l-0.3,0l-0.3,0.1l-0.3,0.1l-0.3,0.1l-0.2,0l-0.4,0l-0.7-0.1l-0.6-0.2l-0.4-0.2l-0.2-0.2l-0.4-0.2l-0.2-0.1l-0.3-0.1l-0.3-0.1
		l-0.1-0.4l-0.1-0.8l0-0.6l-0.1-0.5l-0.1-1.2l-0.2-0.3l-0.1-0.1l-1.9,0.5l-0.5,0.1l-1.2,0l-0.7,0l-0.3,0l-0.4-0.1l-0.3-0.1l-0.4,0.2
		l-0.5,0.3l-0.4,0.1l-0.2,0.3L172,182l-0.3-0.1l-0.2,0l0-0.6l0-0.4l-0.1-0.2l-0.6-0.2l-0.1-0.2l-0.3-0.3l-0.2-0.2l-0.2-0.2l-0.1-0.2
		l-0.4,0l-0.2,0.1l-0.2,0.2l-0.2,0.1l-0.3,0.6l-0.4,0.2l-0.1,0.1l-0.2,0.3l-0.2,0.2l-0.1,0.1l-0.1,0.1h-0.1l-0.1,0l-0.1,0l-0.1,0
		l-0.1,0.2l-0.1,0.2l-0.1,0.2l0,0.1l-0.1,0l-0.4,0H166l-0.5,0.5l-0.1,0.3l0,0.4l-0.1,0.1l-0.2,0.1l-0.3-0.2l-0.2-0.2l-0.1-0.1
		l-0.3,0l-0.1,0.1l-0.3,0.2h-0.3l-0.6-0.2l-0.2,0.3l-0.2,0.2l-0.4,0.2l-0.5,0.1l-0.3-0.1l-0.4,0.2l-0.2,0.3l-0.2,0.4l-0.1,0.3
		l-0.2,0.3l-0.3,0.3l-0.1,0.1l-0.2,0.3l-0.1,0.3l-0.2,0.2l-0.2,0.4l-0.2,0l-0.1,0.2l-0.1,0.3l-0.1,0.2l0,0.3l0,0.4l0,0.3H158
		l-0.3,0.1l-0.4,0.2l-0.1,0.5l-0.5,0.8l0.4,0.3l0.3,0.5l0.2,0.4l0,0.2l-0.2,0.4l-0.2,0.3l-0.2,0.1l-0.2,0.1l-0.4,0.5l-0.3,0.4
		l-0.5,1.5l-0.3,0.2l-0.4,0l-0.4,0l-0.4-0.1l0-0.2l-0.1-0.1l-0.6-0.1l-0.4-0.5l-1.5-0.7l-1.3-1.4l-0.9,0.4l-1.2,0.9l-0.2,1.2
		l-1.5,1.3l-1,0.4l-0.2,0.8l-0.8,0.1l-0.8,0.7l-0.6-0.2l-0.9,0.7l-1-0.6l-1.1,0.8l-0.8,0.5l-1.6,1.1v1.1l-0.5,1l-2,1.1l-2.3,0.7
		l-0.7,0.6l-0.4,1.8l-2.1,2.7l-1,1L127.6,213.7z"/>
	<path id="尖石鄉_1_" fill="none" stroke="#000000" d="M194.7,207.5l0.2,0.3l0.2,0.5l0.7,0.4l0.6,0.4l0.8,0.4l0.4,0.1l1.2,0.4
		l0.7,0.6l0.4,0.5l0.1,1.3l0.9,0.5l0.8,0.3l0.3,0.4v3l1.2,1.4l0.4,0.4l0.7,0.9l0.2,0.7l0.4,0.2l0.9,1.1l0.8,0.4l-0.8,1.4l-0.9,1.3
		l-0.4,0.1l-0.4,0.3h-0.4l-1.7,0.1l-0.6,1l-0.6,0.4l-0.2,1.1l-0.4,0.9l-0.6,1l-0.6,0.3l-0.7,0.1l-0.8-0.2h-1.2l-0.5,0.1l-0.2,0.3
		l-0.2,0.8l-0.4,0.8l-0.8,1.2l-0.4,0.9l0.1,1l0.2,0.8L194,236l-0.1,0.6l-0.4,1.3l0,1l0.5,0.6l0,1l0.2,0.8l-0.8,0.9l-0.7,1.3
		l-0.2,0.5l-0.8,3.2l0.1,0.4l0.5,0.1l0.8,0.2l0.6,0.6l0.5,1l0.3,0.5l0.5,0.9l0,0.4l0.8,1.1l0.4,1.1v0.5l-0.2,0.3l-0.5,0.1l-0.6-0.3
		h-0.5l-0.4,0.2l-0.3,0.5l-0.6,0.6l-0.4,0.4l0,0.6l0.2,0.6l1,0.9l0.9,1.1l0.6,0.1l0.8,0.1l0.3,0.8l-0.4,1.3l0,1l0.2,1.2l0.6,0.8
		l-0.4,0.4l-0.6,0.3l-0.2,0.4l0.1,0.4l0.9,0.1l0.6,0.8l0.3,0.7l-0.2,0.6l-0.4,0.6l-0.5,0.8l-0.2,0.7l0.1,0.5l0,0.6v0.7l0.3,0.4
		l0.5,0.5l-0.5-0.5l-0.3-0.4v-0.7l0-0.6l-0.1-0.5l0.2-0.7l0.5-0.8l0.4-0.6l0.2-0.6l-0.3-0.7l-0.6-0.8l-0.9-0.1l-0.1-0.4l0.2-0.4
		l0.6-0.3l0.4-0.4l-0.6-0.8l-0.2-1.2l0-1l0.4-1.3l-0.3-0.8l-0.8-0.1l-0.6-0.1l-0.9-1.1l-1-0.9l-0.2-0.6l0-0.6l0.4-0.4l0.6-0.6
		l0.3-0.5l0.4-0.2h0.5l0.6,0.3l0.5-0.1l0.2-0.3v-0.5l-0.4-1.1l-0.8-1.1l0-0.4l-0.5-0.9l-0.3-0.5l-0.5-1l-0.6-0.6l-0.8-0.2l-0.5-0.1
		l-0.1-0.4l0.8-3.2l0.2-0.5l0.7-1.3l0.8-0.9l-0.2-0.8l0-1l-0.5-0.6l0-1l0.4-1.3l0.1-0.6l0.3-0.6l-0.2-0.8l-0.1-1l0.4-0.9l0.8-1.2
		l0.4-0.8l0.2-0.8l0.2-0.3l0.5-0.1h1.2l0.8,0.2l0.7-0.1l0.6-0.3l0.6-1l0.4-0.9l0.2-1.1l0.6-0.4l0.6-1l1.7-0.1h0.4l0.4-0.3l0.4-0.1
		l0.7-1.1c0.1-0.2,0.2-0.3,0.3-0.5l0.6-1.2l-0.8-0.4l-0.9-1.1l-0.4-0.2l-0.2-0.7l-0.7-0.9l-0.4-0.4l-1.2-1.4v-3l-0.3-0.4l-0.8-0.3
		l-0.9-0.5l-0.1-1.3l-0.4-0.5l-0.7-0.6l1.2,1l0.1,1.3l0.9,0.5l0.8,0.3l0.3,0.4v3l1.2,1.4l0.4,0.4l0.7,0.9l0.2,0.7l0.4,0.2l0.9,1.1
		l0.8,0.4l-0.8,1.4l-0.9,1.3l-0.4,0.1l-0.4,0.3h-0.4l-1.7,0.1l-0.6,1l-0.6,0.4l-0.2,1.1l-0.4,0.9l-0.6,1l-0.6,0.3l-0.7,0.1l-0.8-0.2
		h-1.2l-0.5,0.1l-0.2,0.3l-0.2,0.8l-0.4,0.8l-0.8,1.2l-0.4,0.9l0.1,1l0.2,0.8l-0.3,0.6l-0.1,0.6l-0.4,1.3l0,1l0.5,0.6l0,1l0.2,0.8
		l-0.8,0.9l-0.7,1.3l-0.2,0.5l-0.8,3.2l0.1,0.4l0.5,0.1l0.8,0.2l0.6,0.6l0.5,1l0.3,0.5l0.5,0.9l0,0.4l0.8,1.1l0.4,1.1v0.5l-0.2,0.3
		l-0.5,0.1l-0.6-0.3h-0.5l-0.4,0.2l-0.3,0.5l-0.6,0.6l-0.4,0.4l0,0.6l0.2,0.6l1,0.9l0.9,1.1l0.6,0.1l0.8,0.1l0.3,0.8l-0.4,1.3l0,1
		l0.2,1.2l0.6,0.8l-0.4,0.4l-0.6,0.3l-0.2,0.4l0.1,0.4l0.9,0.1l0.6,0.8l0.3,0.7l-0.2,0.6l-0.4,0.6l-0.5,0.8l-0.2,0.7l0.1,0.5l0,0.6
		v0.7l0.3,0.4l0.5,0.5l0.9,0.2l1-0.6l1.7,1.2l2.1-1.2l1.1-0.9l0.7,0.8l0.1,1.7l0.1,1.2l1.9,0.3l1.3,0.6l-0.4,0.9l-0.8,1.6l-1.1,2.7
		l0.2,0.1c0.9,0.5,1.6,1.1,2.1,1.9l0,0l1.6,1.2l1.4,0.4l0.8,2.1l1.1,0.8l1.3-0.6l-0.2,2.7l2.1,1.5l0.2,0.4l0.6,0.4l0.6,0.5l0.7,0.5
		l0,0.2l0.8,3.2l0.1,1.1l0.1,0.9l1.3,0.4l1.3,1.5l1.7,0.7l1.6,0.4l1.4,0.2l0.2,1.7l-0.4,2.4l1.4,0.4l0.9,0.6l-0.5,1.7v1.2l-0.1,1.7
		l-0.8,1.2l0.7,1.2l-0.7,1.1l-1,0.7l0.1,1.1l0.4,0.2l0.3,0.4l0.1,0.1l0.1,0.1l0,0.2l0,0.2l0,0.5v0.4l-0.1,0.4l0,0.7l0,0.4l0,0.3
		l-0.1,0.2l-0.1,0.1l0,0.1l0,0.2l0.1,0.1l0.1,0.3l0.1,0.3l0.1,0.1l0.1,0.1l0.3,0.2l0.3,0l0.3,0l0.2,0l0.1,0l0.3-0.1l0.3,0h0.4l0.3,0
		l0.1,0l0.1,0.1l0.1,0l0.2,0.1h0.1h0.3h0.1l0.1,0l0.1,0l0.1,0l0.4,0.2l0.5,0.2l0.3,0l0.2,0l0.2-0.1l0.1-0.1l0,0l0,0l0.1-0.1v-0.1
		v-0.1l0-0.1v-0.1v-0.1v0V322v-0.2v0v0l0-0.1l0-0.1v0l0-0.1l0,0l0,0l0.1,0l0.1,0l0.2,0l0.2,0.1l0.3,0h0.1h0.8l0.3,0l0.3,0l0.3,0h0.3
		l0.2,0l0.3,0l0.2,0h0.2l0.2,0l0.1,0l0.3-0.1l0.4-0.1l0.3-0.1l0.2,0l0.2,0l0.1,0l0.2,0l0.3,0l0.2-0.1l0.3-0.1l0.2,0l0.2,0l0.2,0
		l0.1,0l0.1,0h0.1l0.2,0h0.1l0.2,0l0.2,0l0.3-0.1l0.2-0.1l0.2,0l0.3,0h0.1h0.2l0.2,0l0.2,0l0.2,0l0.1,0h0.2l0.1,0l0.2-0.1l0.1,0
		l0.1,0l0.2,0l0.2,0l0.2,0l0.1,0h0.1l0.1,0l0.1,0l0-0.1l0,0v0l0-0.1l0,0l0-0.1l0-0.1l0,0l0,0l0-0.1l0,0l0,0l0,0l0.1,0l0,0h0l0.1-0.1
		l0.1,0l0.2-0.1l0.5-0.1l0.4-0.1l0.5,0l0.2,0l0.3,0l0.6,0l0.7,0l0.5,0h0.3l0.3,0l0.4,0l0.2,0l0.2,0l0.3,0l0.2,0l0.1,0.1l0,0l0.1,0v0
		l0,0l0,0l0.1,0h0l0,0v0l0.1-0.1l0,0l0.1-0.1l0,0l0,0l0,0l0,0l0,0l0.1,0l0.1,0l0,0l0,0l0,0l0.1,0h0l0.1,0l0.1,0l0,0l0,0l0,0l0,0l0,0
		l0,0v0l0,0v0l0,0v0l0,0l0,0l0,0l0,0l0,0v0l0,0l0,0l0,0l0,0l0.1-0.1l0,0l0.1,0l0.1-0.1l0.1-0.1v0l0.2-0.2l0.2-0.2l0.1-0.1l0.2-0.1
		l0.2,0h0.2l0.2,0l0.3-0.2l0.2-0.1l0.1-0.1l0.1-0.1l0.2-0.2l0.4-0.4l0.4-0.4l0.1-0.1l0.3-0.3l0.1-0.2l0.2-0.3l0.2-0.2l0.1-0.2
		l0.1-0.1l0-0.1l0.1-0.2l0.1-0.2l0.1-0.4l0.1-0.5l0.1-0.2l0.1-0.2l0.4-0.5v-0.5l0.3-0.7l0.2-0.4l0.4-0.4l0.1-0.1l0.1-0.2l0.6-1.2
		l0.3-0.8l0.3-1l0.3-0.9l0.2-0.5l0.2-0.4l0.4-0.6l0.6-0.8l0.3-0.4l0.9-0.8l0.3-0.2l0.2-0.1l0.1-0.1l0.1-0.1l0-0.1l0.1-0.6l0-0.2
		l0.1-0.1l0.4-0.4l0.1-0.1l0.1-0.1l0.2,0l0.4,0l0.1,0l0.1-0.1l0.1-0.1l0.1-0.1l0.2-0.1l0.6-0.2l0.2-0.1l0.3-0.2l0.2-0.2l0.1-0.2
		l0-0.1l0-0.1l-0.1-0.2l0-0.2v-0.8l0-0.2l-0.2-0.7v-0.1l0-0.1l0.1-0.2l0.5-0.4l0.1-0.1l0.1-0.2l0.1-0.2l0.2-0.1l0.3-0.1l0.5-0.2
		l0.2-0.1l0.2-0.1l0.1-0.1l0.2-0.3l0.3-0.6l0.1-0.3l0.1-0.3l0-0.2l0-0.2l0-0.8l0-0.4l0-0.2l0.2-0.5l0.2-0.4l0.2-0.1l0.2-0.1l0.1,0
		h0.2l0.1,0l0.3-0.4l0.3-0.4l0.1-0.1l0.3-0.2l0.2-0.1l0.2-0.1l0.2,0h0.5l0.3,0.1l0.6,0.2l0.1,0l0.2,0l0.1,0l0.1-0.1l0.6-0.4l0.1-0.1
		l0.2-0.1l0.5-0.1l0.4-0.1l0.6,0l0.5-0.1l0.3-0.1l0.2-0.1l0.1-0.1l0.3-0.4l0.4-0.5l0.3-0.3l0.6-0.6l0.2-0.1l0.3-0.2l0.2-0.3l0.1-0.2
		l0.3-0.6l0-0.2l0-0.4l0.1-0.3l0.1-0.3l0.1-0.1l0.1-0.1l0.2-0.2l0.4-0.3l0.2-0.2l0.4-0.1l0.6-0.1l0.3-0.1l0.4-0.3l0.4-0.3l0.3-0.1
		l0.4-0.1l0.2-0.1l0.2-0.1l0.1-0.1l0.2-0.4l0.1-0.4l0.2-0.8l0.1-0.4l0-0.2l0.1-1l0-0.2l0-0.4l0-0.4l0-0.5l0-0.4l0.1-0.7l0.1-0.8
		l0-0.2l0-0.1l0.1-0.1l0.1,0l0.6,0h0.5l0.4,0l0.8,0.2l0.3,0l0.4,0l0.3,0l0.3-0.1l0.2,0h0.1l0.2,0.1l0.2,0l0.4,0l0.3-0.1l0.3-0.1
		l0.1-0.1l0.1-0.1l0.2-0.6l0.3-0.4l0.1-0.2l0.1-0.4l0.1-0.3l0.1-0.4l0-0.2l0-0.1l-0.1-0.3l0-0.7l0-0.2l0-0.1h0h0.7l0.3,0l0.1,0
		l0.2-0.1l0.1,0l0.2-0.2l0.1-0.2l0.2-0.5l0.1-0.3l0.1-0.3l0.1-0.4l0.1-0.5l0.1-0.3l0.1-0.4l0.1-0.2l0.1-0.2l0.4-0.4l0.4-0.3l0.2-0.1
		l0.3-0.1l0.4-0.1l0.3,0h0.2l1.1,0l0.5,0l0.1,0l0.1,0l0.2-0.3l0.1-0.2l0,0l0.2-0.1l0.3-0.2l0.1-0.1l0.2-0.3l0.1-0.3l0.1-0.2l0.2-0.2
		l0.4-0.4l0.1-0.1l0.1-0.2l0-0.1l0-0.2l0-0.1l-0.1-0.2l-0.2-0.2l-0.5-0.4l-0.6-0.6l-0.1-0.1l-0.1-0.5l-0.1-0.3l0-0.2v-0.2l0.1-0.3
		l0-0.4l0-0.3l-0.1-0.3l-0.5-0.8l-0.1-0.2l-0.2-0.5l0-0.3l0-0.4l0.1-0.6l0.2-0.5l0.2-0.6l0.4-1.3l0.2-1l0-0.4v0l-0.1-0.1l-0.1-0.4
		l-0.1-0.4l-0.4-0.4l-0.1-0.2l-0.1-0.2l-0.2-0.3l-0.1-0.3l-0.4-0.5l0-0.1l0-0.2l0-0.5l0-0.1l-0.2-0.5l0-0.2l0-0.2l0-0.1l0.1-0.1
		l0.7-0.7l0.2-0.2l0.4-0.7l0.2-0.5l0.1-0.1l0.2-0.2l0.2-0.2l0.2-0.2l0.5-0.1l0.2,0l0.2-0.1l0.2-0.2l0.1-0.2l0.1-0.2l0-0.2L303,243
		l0-0.3v-0.3l0-0.2l0.2-0.6l0.1-0.1l0.3-0.3l0.4-0.7l0-0.2l0-0.3l0-0.1l0,0l0.1-0.1l1.1-0.5l0.1,0l0.5,0h0.1l0.2,0l0.1,0l0.1-0.1
		l0.1-0.2l0.1-0.1l0.4-0.4l0.3-0.2l0.8-0.3l0.4-0.2l0.2-0.1l0.1-0.1l0-0.1l0-0.3l-0.1-0.4l-0.2-0.6l-0.3-0.8l-0.2-0.4l-0.1-0.5
		l-0.2-0.5l-0.4-0.9l-0.2-0.4l-0.3-0.4l-0.4-0.5l-0.3-0.4l-0.2-0.4l-0.4-0.6l-0.4-0.6l-0.2-0.4l-0.2-0.5l-0.3-0.5l-0.3-0.6l-0.2-0.5
		l0-0.2l0-0.2l-0.9,0.2l-1.2,0.7l-0.9,0.8l-0.6,0l-0.6-0.1l-0.3,0.4l0,0.2l-0.2,0.4l-0.4,0.3l-0.4,0.1l-1.5,0.2l-0.8,0.1l-0.6-0.1
		l-0.4-0.3l-0.3-0.5l-0.4-0.5l-0.4-0.4l-0.7-0.3l-0.7-0.2l-0.3-0.1l-0.3-0.2l-0.4-0.2l-0.3,0l-0.8-0.3l-0.5,0l-0.7-0.4l-0.4-0.3
		l-0.2-0.1l-0.6-0.5l-0.4-0.2l-0.1-0.1l-0.2-0.2l-0.1-0.3l0-0.2l0-0.4l0.1-0.4l0-0.3l-0.1-0.3l-0.4-0.2l-0.2,0l-0.7-0.1l-0.4-0.1
		l-0.2-0.1l-0.5-0.3l-0.4-0.2l-0.2-0.1l-0.1-0.1l-0.2-0.3l0-0.1l-0.3-0.5l-0.1-0.1l-0.5-0.5l-0.2-0.5l0-0.2l0.4-1l0.1-0.4l0-0.2
		l-0.1-0.5l-0.1-0.1l-0.1-0.2l-0.2-0.2l-0.8-0.6l-0.2-0.1l-0.2-0.5l-0.1-0.9l-0.1-0.3l-0.1-0.4l-0.3-0.3l-0.2-0.1l-0.2-0.2l-0.1-0.7
		v-0.4l-0.1-0.5l0-0.4v-0.1l0.3-0.5l0.7-1l0.5-0.6l0.3-0.3l0.3-0.4l0.3-0.5l0.4-1.4l0.2-0.3l0-0.4l0.1-0.3l0.2-0.3l0-0.3l-0.1-0.4
		v-0.4l0.3-0.6l0.2-0.3l0.1-0.2l-0.1-0.2l-0.1-0.1h-0.1l-0.3-0.1l-0.4-0.1l-0.3-0.1l-0.5-0.3l-0.4-0.3l-0.4-0.1h-0.4l-0.3,0
		l-0.3,0.1l-1.6,0.3l-0.9,0.3l-0.4-0.2l-0.8-0.1l-0.4-0.2l-0.2-0.1l-0.3-1v-0.3l0-0.8l-0.1-0.4l0-0.5l0-0.3l-0.2-0.6l-0.1-0.5
		l-0.1-0.2l0-0.3v-0.3l0.1-0.7l0.2-0.7l0.2-0.4l0.1-0.4l0.1-0.2l0.4-0.3l0.3-0.4l0.1-0.4l0.1-0.3l0-0.3l0-0.4l-0.1-0.5l-0.2-0.9
		l-0.1-0.7l0-0.2l0.1-0.2l0.3-0.2l0.2-0.2l0.1-0.2l0-0.2l-0.1-0.4v-0.3l0.1-0.2l0-0.4l-0.1-0.8l-0.1-0.5l0-0.6l0-0.3l0-0.6l0-0.3
		l0.1-0.3l0-0.3l-0.1-0.3l-0.1-0.2l0-0.2l0.1-0.2l0.2-0.3l0.1-0.3v-0.2l-0.1-0.1h-0.2l-0.4,0.3l-0.1,0.1l-0.2,0.2l-0.3,0.1l-0.2-0.1
		l-0.2-0.1l-0.1-0.1l-0.1-0.2l-0.2-0.2l-0.4-0.4h-0.2l-0.4,0.1l-0.9,0.6l-0.4,0.1l-0.3-0.1l-0.2-0.1l-0.1-0.2l-0.1-0.4l0-0.2v-0.3
		l-0.1-0.2l-0.1-0.1l-0.2,0L272,181l-0.1,0.1l-0.2,0.2l-0.6,0.7l-0.3,0.4l-0.2,0.3l-0.2,0.2l-0.2,0.1l-0.4-0.1l-0.2-0.1l0-0.1
		l0.1-0.2l0.4-0.5l0.1-0.3l0-0.6l0.1-0.8l-0.1-0.6l-0.1-0.3l0-0.2l0-0.6V178l-0.1-0.4l0-0.4l0-0.4l-0.2-1.3v-0.4l-0.1-0.2l-0.1-0.3
		l-0.2-0.3l-0.1-0.2l-0.2-0.2l-0.2-0.2l-0.2-0.3l-0.2-0.2L268,173l-0.1-0.2l-0.3-0.4l-1-1.8l-0.4-0.5l-0.2-0.3l-0.3-0.3l-0.2-0.4
		l-0.2-0.3l-0.2-0.2l-0.4-0.4l-0.5-0.4l-0.4-0.6l-0.4-0.4l-0.2-0.3l-0.1-0.4l-0.7-0.8l-0.2-0.2l0-0.1l-0.2,0l-0.6,0.2l-0.3,0.1
		l-0.7,0l-0.3,0l-0.4-0.2l-0.7-0.5l-0.2-0.2l-0.3-0.2l-0.2-0.1l-0.5-0.3l-0.4,0l-0.4,0l-0.3,0.1l-0.4,0.1l-0.4,0.2l-0.6,0.3
		l-0.5,0.3l-0.4,0.1l-0.9,0.5l-0.3,0.3l-0.9,0.6l-0.4,0.2l-0.3,0.1l-0.2,0l-0.6,0l-1-0.1l-0.4-0.1l-0.5-0.3l-0.2-0.3l-0.1-0.4l0-0.4
		l0.1-0.4l0.2-0.8l0.5-1.2l0.4-1.3v-0.6l0.2-1.1l0.1-0.6l0.3-0.9l0.1-0.4l0.2-0.5l0.1-0.4l0.3-0.3l0.3-0.3l0.3-0.3l0.1-0.3l0.7-1.1
		l0.2-0.4l0.4-0.7l0.3-0.3l0.1-0.4l-0.1-0.8l-0.1-0.4l-0.3-0.6l-0.1-0.4l0-0.3l0-0.8l0.1-1.2l0-0.4l-0.1-0.3l-0.2-0.2l-0.3-0.2
		l-0.8-0.2l-0.6-0.3l-0.4-0.1l-0.1-0.2l-0.4-0.2l-0.1-0.2l-0.4-0.3l-0.2-0.3l-0.3-0.4l-0.3-0.3l-0.2-0.1l-0.7-0.4l-0.1-0.3l-0.1-0.3
		l-0.1-0.8l0.2-0.9l0.2-0.5l0.3-0.4l0.2-0.3l0.5-1.2l0.2-0.8l0.1-0.6l0.4-0.8l0.2-0.3l0.3-0.3l0.3-0.3l0.6-0.6l0.2-0.3l0.1-0.3
		l0-0.3l0-1.1l0.1-0.7l0.1-0.2l0.2-0.3l0.2-0.5l0.1-0.2l0.1-0.1l0-0.3l0.1-0.2l0.3-0.5l0.2-0.5l0.2-0.4l-0.2,0l-0.4-0.3l-0.2-0.1
		l-0.4-0.3l-0.2-0.1l-0.1-0.1l-0.1-0.1l-0.3-0.4l-0.4-0.8l-0.3-0.9l-0.1-0.4l-0.6-0.9l0-0.1l-0.3-0.3l-0.2-0.2l-0.2-0.1l-0.1,0h-0.5
		l-0.3,0.1l-0.1,0h-0.4l-0.4,0l-0.2,0l-0.3,0l-0.1-0.1l-0.1,0l-0.4,0.1l-0.3,0l-0.2,0l-0.3-0.2l-0.4-0.8l-0.5,0.1l-0.2,0.3l-0.4,0.4
		l-0.3,0.5l-0.3,0.4l-0.3,0.5l-0.5,0.1l-0.6,0.8l-0.9,0.9l-1.6,0.4l-1.7-0.3l-1.3,0.1l-1.2-0.1l-1.9,0.2l-1.8,0.3l-1.8,1.4l-1.7,1.9
		l-1.7,1l-1.6,1.2l-0.3,0.4l-0.3,0.8l-0.5,0.4l-0.4-0.1l-1,0.1l-0.9,0.8l-0.8-0.7L220,136l-0.4-0.5l-0.6-0.2l-0.4,0l-0.3,0.4
		l-0.3,0.5l-0.6,0.2l-0.8,0.5l-1.1,0.4l-1,0.7l-1.4,0l-0.2,0.1l-0.8,0.5l-0.5,0l-0.2,0.1l-0.4,0.2h-1H209l-0.9,0.4l-0.8,0.6
		l-1.3,0.7l-0.3,0.4l-1.1,0.1l-0.2,0.2l-0.2,0.3l-0.5,1.1l-0.3,0.2l-0.4,0.7l-0.1,0.2l-1,1.4l-0.2,0.4l-0.7,0.2l-1.2,1.2l-0.2,0.4
		l-0.6,0.3l-0.4,0.6l-0.7,0l-0.2,0.4l0.1,0.8l-0.1,1.1l-0.6,0.5l-0.5-0.1l-0.4,0.2l-0.7,0l-0.6,0.2l-0.5,1.1l0.1,0.7l-0.1,1.4
		l-0.6,0.2l-0.4,0.2l-0.2,0.3l-0.4,0.2l-0.3,0.7l-0.8,0.3l-0.5,0.4l0.1,0.3h0.6l0.1,0.4l0.3,0.3l0.5-0.1l0,0.7l0.2,0.7l-0.7,0.7
		l-0.3,0.6L191,161l-0.3,0.5v0.4l-0.2,0.4l-0.4,0.6l0,0.4l-0.4,0.5l-1.2,0l-0.8,0.1l-0.8,0.1l-1.6,0l-1.2-0.1l-0.7,0.1l-0.9,0.6
		l-0.4,0.3l-0.6,0.3l-0.3,0.2l-0.6,0.3l-0.6,0.4l-0.7,0.3l-0.4,0l-0.4,0l-0.5-0.1l-0.3,0.2l-0.3,0.6l-0.6,1l-0.4,1.1l-0.2,1.1
		l-0.1,0.6l0.1,0.9l-0.7,0.5l-1.1,0.7l-0.6,0.4l-0.4,0.4l-0.6,0l-0.2,0.3l-0.2,0.5l-0.1,0.5l-0.5,0.9l-0.3,0.6l-0.4,0.5l-0.4,0.4
		l-0.2,0.4l-0.1,0.3l-0.3,0.5l0,0.3l0,0.3l-0.1-0.1l0.1,0.2l0.2,0.2l0.2,0.2l0.3,0.3l0.1,0.2l0.6,0.2l0.1,0.2l0,0.4l0,0.6l0.2,0
		l0.3,0.1l0.1,0.2l0.2-0.3l0.4-0.1l0.5-0.3l0.4-0.2l0.3,0.1l0.4,0.1l0.3,0l0.7,0l1.2,0l0.5-0.1l1.9-0.5l0.1,0.1l0.2,0.3l0.1,1.2
		l0.1,0.5l0,0.6l0.1,0.8l0.1,0.4l0.3,0.1l0.3,0.1l0.2,0.1l0.4,0.2l0.2,0.2l0.4,0.2l0.6,0.2l0.7,0.1l0.4,0l0.2,0l0.3-0.1l0.3-0.1
		l0.3-0.1l0.3,0l0.6,0.2l0.4,0.1l0.5,0.2l0.2,0.2v0.4l0,0.3l0.3,0.7l0.2,0.5l0.4,0.4l0.6,0.6l0.5,0.3l0.8,1l0.2,0.6l0.2,1.2l0.3,1.1
		l0.1,0.6l0,1l-0.3,1l-1.7,2.5l-0.2,0.6v0.6l0.1,0.9l0.1,0.5l0.2,0.6l0.2,0.1l0.6,0.4l1.3,1.2l1.5,1.2l0.7,0.5l0.8,0.7l0.7,1
		L194.7,207.5l0.2,0.3l0.2,0.5l0.7,0.4l0.6,0.4l0.8,0.4"/>
	<path id="峨眉鄉_1_" fill="none" stroke="#000000" d="M74.9,155.8L74.9,155.8l0.2,0.3l0.1,0.1l0.1,0h0.1h0.1l0.1,0.1l0.1,0.3
		l0.2,0.5l0,0.1l0,0.1l-0.4,0.3l-0.1,0.1v0.1l0.2,0.3l0.1,0.1l0.1,0.2l0.1,0.1l0.4,0.4l0,0l0,0l-0.1,0.2l-0.1,0.2l-0.1,0.3l-0.1,0.2
		l-0.1,0l-0.1,0l-0.1,0l-0.1,0.1l-0.1,0.1l-0.1,0.1l-0.2,0l-0.4-0.1l-0.1,0l-0.1,0.1l-0.3,0.1l-0.1,0.2l-0.1,0.3l0.2,0.3l0.2,0.2
		l0.1,0.1l0,0.1l0,0.1v0.1l0.2,0.2l0.1,0.1l0,0.1l0,0.1l0.1,0.1v0.2l0,0.1l0.2,0.3l0,0.2l0,0.3l-0.1,0.2l0,0.2v0.1v0.1l0,0.2l0,0.2
		l-0.1,0h-0.2h-0.3h-0.1l0-0.1l-0.1,0l-0.3,0.1l-0.1,0.1l-0.1,0.5l-0.2,0.2l-0.2,0.1l-0.1,0l-0.1,0.1l0,0.3l-0.4,0.4l-0.4,0.2
		l-0.3,0.2l-0.1,0.1l-0.1,0.3l-0.1,0.2l0,0.1l-0.4,0.1l-0.1,0.1l-0.3,0l-0.2,0.8l0.1,0.1l0,0.2l0.1,0.2l0,0.2v0.1l-0.4,0.2l-0.3,0.2
		l0,0.1v0.1l0.1,0.2l0.2,0.2l0.2,0.3l0.1,0.2l0.2,0.2l0,0.1l0,0.1l-0.1,0.1l-0.1,0.1l-0.1,0.3l-0.1,0.1l-0.1,0.1l-0.1,0l-0.3-0.1h0
		l-0.2,0.2l0,0.1l-0.1,0.3l0,0.1h0.1l0.2-0.1l0.1-0.1l0.1,0l0.2,0h0h0.1l0.3,0h0.1l0.2-0.1l0.1-0.1h0.3h0.1h0l0.2,0h0.1h0.7h0.1
		l0.2,0l0.1,0.1h0.1l0.1-0.1l0.2-0.3l0.1-0.1l0.1-0.1l0.1-0.2l0.1-0.1l0.2,0l0.2-0.2l0.5,0l0.1,0.1l0.2,0.3l0.1,0.1l0.1,0l0.6,0.1
		l0.1,0.2l0.1,0.1l0.2,0.5l0,0.1l0,0.2v0.1l0,0.1l0,0.2l0,0.2l0,0.1v0.1v0.1l0.3,0.2l0,0.4l0,0.5l0,0.2l0,0l0.1,0.1l0.2,0.2l0,0.1
		l0,0.1l-0.1,0.1l-0.1,0.2l-0.1,0.2l0,0.2l0,0.2l-0.1,0.1l-0.1,0l0,0.1v0.2l0,0.3l0.2,0.2l0.1,0.1l0,0.1v0.2l-0.1,0.3l0,0.1h0.1
		l0.1-0.1l0.1-0.1h0.2h0.1l0.2,0l0.3,0.1l0.2,0.1l0.2,0.1l0.2,0.3l0.3,0.4l0.4,0.3l0.1,0.1l0,0l0,0.2l0,0.2v0l0.3,0.2l0.2,0.1l0,0.1
		l0.2,0.2l0.1,0.2l0,0.1l0,0.1v0.2l0,0.2l0,0.2l0,0.2l0,0.3v0.1l0,0.1l0.1,0.1l0.1,0l0.3,0l0.4,0H81l0.1,0l0.1,0.1l0,0.1l0.1,0.2
		v0.1v0.3v0.1l0.1,0.3l0.1,0.1l0.3,0.3l0.2,0.2l0.1,0.1l0.4,0.2l0.2,0.1l0.3,0.1h0.1l0.1-0.1l0.2-0.2l0.2-0.3l0-0.2l0.1-0.2v-0.1
		l0.2,0H84v0.2v0.2l0,0.5l0,0.2l0,0.1l-0.1,0.4l0,0.3l0,0.4l0.1,0.3l0.4,0.4l0.4,0.1l0.4,0l0.4,0l0.1,0l0.3,0l0.2,0.1l0.1,0.2
		l0.3,0.4l0.1,0.1l0,0l0,0.1l0,0.1l-0.2,0.1l-0.2,0.1l0,0.1l0.2,0.1l0,0.2l0,0.3l0.1,0.3l0.1,0.3l0.1,0.1l0.2,0.1l0.1,0.1l0.1,0.1
		l0.1,0l0.1,0l0.1-0.1h0.1l0.3,0.1l0.5-0.1h0.2l0.2,0h0.1l0.3-0.1l0.1-0.1l0.4-0.3l0.1,0l0.1,0h0.1l0.1-0.1l0.3-0.2l0.3-0.1l0.3-0.1
		h0.1l0.1,0.1l0.1,0.2l0.1,0l0.2,0.1l0.2,0.1l0.2,0.1l0.1,0l0.1-0.1l0.2-0.1l0.1,0l0.2,0l0.9-0.1l0.4-0.1l0.1,0l0-0.1l0.1,0l0,0
		l0,0.2l0,0.2l0.1,0.4l0.1,0.1l0,0v0.1l0,0.3l0,0.2l0,0.4v0.1l-0.1,0.2l-0.1,0.2l-0.2,0.1l-0.2,0.1h-0.1H94h-0.2l-0.1,0l-0.1,0.1
		l-0.1,0.2l-0.1,0.3l0,0.3l0.1,0.3l0.1,0.2l0.1,0.2l0,0l0,0.3l0.1,0.1l0.1,0.1l0,0.2l0,0.2l-0.1,0.2l-0.1,0.3l-0.1,0.6l0,0.3
		l-0.1,0.3l0,0.1l0,0l0.3,0.1l0.7,0.2l0.3,0.1l0.2,0.1l0.2,0.2l0.2,0.2l0.1,0.2l0.1,0.1l0.3,0.1l0.2,0.2l0.1,0.1l0.2,0.1l0.1,0.1
		l0.1,0.1l0.1,0h0.4l0.5,0l0.2,0.1l1.2-0.1l0.6-0.1l0.2,0l2.2-0.6l0.5,1.2l0.3,1.8l1,0.4l1.2,1l2.3,0.1l2.3,1.2l2,1.6l1.5,0.3
		l0.8-1.7l1.6-1.8l-0.7-1.5l0.4-1.5l-2.5-1.8l-2.7-0.2l0.9-2.3l-0.5-1.6l0.8-1.1l0.3-1.1l0.4-2l0.6-2.1l0.2-2.3l0.9-0.9l-0.7-0.8
		l-0.5,0.1l-1.3-0.6l-1.1,0.9l-0.6-0.1l-0.3-0.8l-0.3-0.2l-0.3-0.1l-0.3-0.7L108,180l-0.3-0.7l0.4-0.6l0.3,0l0.4-0.4l0-0.3l-0.1-0.4
		l0.4-0.5l-0.2-0.6l0.4-0.4l0-2.1l0.3-0.1l0-0.5l-0.2-0.6l-1.2-1.3l-0.2,0l-0.8-0.1l0-0.4l-0.2-0.2l0.8-1.2l0-0.2l0.1-0.4l0.2-0.2
		l1.1,0l0.3,0l0.2-0.6l0.1-1.7l-0.7-0.4l-0.7-0.6l-0.1-0.8l0.7-0.3l0.9-0.8l0.3-1v-0.3l0-0.5l0-0.1l0.5,0l0.2-0.1l0.3-0.4l0.1-0.4
		l-0.2,0l-0.4,0l-0.2-0.1l-0.3-0.6l-0.3-0.4l-1.3-0.7l0.4-1.2l-0.4-0.8l-0.1,0.2l-0.5,0.2h-0.7l-2.3,0.8l-0.6,0.6l-0.3,0l-0.2-0.1
		l-0.6-0.7l-0.4-0.4l-0.4-0.4l-0.2-0.1h-0.1l-0.1,0.1l-0.2,0l-0.3,0l-0.1-0.1l-0.1,0l-0.7,0.1l-0.3-0.4l-0.1,0l-0.1,0l-0.2,0.2
		l-0.3,0.1l-0.1-0.2l-0.5-0.2l-0.4,0.3l-0.3,0.6l-0.1,0.2l-0.1,0.1l-0.1,0l-0.2,0l-0.2-0.1l0,0.1l-0.1,0.1l-0.1,0.1l0,0.3l-0.1,0.2
		l0,0.2l-0.2,0l-0.3-0.1l-0.2-0.1l-0.1,0l-0.1,0.2l-0.1,0.2l-0.1,0.2l-0.2,0.1l-0.2,0.1l-0.2,0l-0.1,0.2l-0.1,0.1l-0.1,0l0-0.2
		l-0.1-0.2l-0.1-0.3l-0.1-0.1l-0.2-0.1l-0.2-0.1l0-0.2l0-0.2l0-0.1l0.1-0.3l0-0.3l-0.1-0.1l-0.1-0.1l-0.1-0.3l0-0.2l-0.1,0.1
		l-0.2,0.1l-0.1,0.1l-0.4,0.1l-0.4,0l-0.5-0.1l-0.1-0.2l0-0.2l0-0.3l0-0.1l-0.3-0.1l-0.1,0l-0.1-0.1l0-0.2l-0.1-0.2l-0.2-0.2
		l-0.3-0.2l-0.2-0.1l-0.2-0.2l-0.2-0.2l-0.3,0l-0.3-0.1l-0.3,0l-0.6-0.1l-0.1,0.1l-0.2,0l-0.2,0l-0.1,0l-0.2-0.1l-0.1-0.2l0-0.2
		l0-0.1l-0.3,0.1l-0.3,0l-0.3,0.1l-0.1,0.1l-0.1,0l-0.1,0l-0.1-0.1l-0.1-0.1l-0.2-0.1l-0.3-0.1l0-0.1l-0.1-0.1l-0.2-0.1l-0.2-0.1
		l-0.1-0.2l0-0.2v-0.2l0-0.2l-0.1-0.2l-0.1,0l0,0.2l0,0.2l-0.1,0.1l-0.1,0l-0.1,0l-0.2,0.2l-0.1,0.1l-0.2,0l-0.3,0h-0.1l0,0.2l0,0.2
		l-0.1,0.2l-0.2,0.2l-0.2,0.1l-0.2,0.1l-0.2,0.1l-0.1,0l-0.1,0.5l-0.2,0.1l-0.3,0.1l0,0.1l0.1,0.3v0.2l-0.1,0.2l0,0.2l-0.2,0.2
		l-0.2,0.2l-0.3,0.1h-0.2l-0.2-0.1l-0.1-0.2l-0.2-0.2l-0.1-0.1l-0.2-0.1h-0.2l-0.2-0.2l-0.1-0.3l-0.2-0.2l-0.2-0.3l-0.3-0.3
		l-0.2-0.1h-0.2l-0.4,0l-0.3,0l-0.3-0.1l-0.1,0l0-0.1l0-0.2l0-0.2l-0.1-0.2v-0.2l0-0.2l0-0.2l0-0.2l-0.1-0.2l-0.1-0.1l-0.1,0.2
		l-0.1,0.2l-0.1,0.1l-0.1,0.1l0.1,0.1l0,0.2v0.2v0.1l0,0.2l0,0.1l0,0.2l-0.1,0.1l-0.1,0.1l-0.1,0l0,0.1l0,0.1l0,0.1v0.2l-0.1,0.2
		l-0.1,0.1h-0.2l-0.2,0.1l-0.2,0l-0.2,0l-0.1,0l-0.1,0.1l-0.1,0.1L74.9,155.8z"/>
	<path id="北埔鄉_1_" fill="none" stroke="#000000" d="M108.7,156.5l0.4,0.8l-0.4,1.2l1.3,0.7l0.3,0.4l0.3,0.6l0.2,0.1l0.4,0
		l0.2,0l-0.1,0.4l-0.3,0.4l-0.2,0.1l-0.5,0l0,0.1l0,0.5v0.3l-0.3,1l-0.9,0.8l-0.7,0.3l0.1,0.8l0.7,0.6l0.7,0.4l-0.1,1.7l-0.2,0.6
		l-0.3,0l-1.1,0l-0.2,0.2l-0.1,0.4l0,0.2l-0.8,1.2l0.2,0.2l0,0.4l0.8,0.1l0.2,0l1.2,1.3l0.2,0.6l0,0.5l-0.3,0.1l0,2.1l-0.4,0.4
		l0.2,0.6l-0.4,0.5l0.1,0.4l0,0.3l-0.4,0.4l-0.3,0l-0.4,0.6l0.3,0.7l0.2,0.2l0.3,0.7l0.3,0.1l0.3,0.2l0.3,0.8l0.6,0.1l1.1-0.9
		l1.3,0.6l0.5-0.1l0.7,0.8l-0.9,0.9l-0.2,2.3l-0.6,2.1l-0.4,2l-0.3,1.1l-0.8,1.1l0.5,1.6l-0.9,2.3l2.7,0.2l2.5,1.8l-0.4,1.5l0.7,1.5
		l-1.6,1.8l-0.8,1.7v1l1.4,1.3l0.1,1.1l0.2,1.9l1.3,1.4l0.8,1.2h1l1.5-1.1l1.1-0.8l1.7-1.1l0.8-0.9l0.4,1.5l1.3,0.4l0.5,2.3l2.6,1.1
		l0.6-3.8l1-1l2.1-2.7l0.4-1.8l0.7-0.6l2.3-0.7l2-1.1l0.5-1v-1.1l1.6-1.1l0.8-2.8l-0.2-1.3l-1.3-0.6l-1.4-0.8l0.2-1.5v-1.7l-0.7-0.8
		l-0.1-1.3l-0.4-0.9l-0.6-1.8l-0.3-2l0.3-1.3l-0.1-1.5l-0.3-1.1v-2.9l0.5-1.3l0.7-1.9l1-0.9l1.3-0.7l-0.3-1.6l-0.4-1.9l-1.7-3
		l-0.4-1.9l-1.3-1.7l-0.5-3.5l-0.8-3l-0.8,0.1l-0.9,0l-0.9-0.6l-0.6,0l-1.1-0.5l-1-1.1l-0.7-1.4l-0.3-1.3l0-1.4l0.3-0.8l0.6-0.5
		l0.1-0.5l-0.5-0.4l1-1.3l-0.7,0l0.5-0.7l-0.6-0.3h-0.8l-0.6,0.5l-0.2,0.1l-0.2,0h-0.2L125,145l-0.2,0.2l-0.1,0.1l-0.2,0l-0.1-0.1
		l-0.2-0.1l-0.2,0.1l-0.3,0l-0.1,0l-0.1-0.1l-0.1-0.1l-0.2,0H123l-0.2,0l-0.2,0l-0.1,0l-0.2-0.1l-0.1-0.1l-0.3,0l-0.1,0.1l-0.2,0.1
		l-0.2,0l-0.3,0l-0.3,0h-0.1l-0.2,0l-0.1,0.1l-0.1,0.2l0,0.2l-0.1,0.2l-0.2,0.3l-0.2,0.3l-0.3,0.1l-0.2,0.1l-0.2,0.3l-0.1,0.2
		l-0.1,0.2l0,0.3l-0.3,0.4l-0.2,0.2l-0.3,0.1l-0.2,0.1l-0.2,0.3v0.3l-0.1,0.2l-0.2,0l-0.1,0l-0.1,0.2l-0.1,0.2l-0.3,0.1l-0.1,0.1
		l-0.1,0.3l-0.4,0.2l-0.2,0.2l0,0.2l0,0.4l-0.2,0.2h-0.3l-0.3,0.1l-0.1,0.2l0,0.4l-0.2,0.3l-0.2,0.4l-0.1,0.2l-0.1,0.1l-0.1,0.1
		l-0.1,0.1l-0.2,0h-0.2h-0.1l-0.1,0l-0.1-0.1l-0.1-0.1l-0.1-0.1l-0.2-0.1l-0.1,0l-0.2,0h-0.2l-0.2,0l-0.1-0.1l-0.1,0l-0.1,0h-0.2
		l-0.1-0.1l-0.3,0v0.2l0,0.1l-0.1,0.1l-0.1,0l-0.1,0l-0.1,0l-0.2,0.9l-1,0.9l0.1,0.3l0,0.3v0.3l-0.1,0.1h-0.3l-0.3-0.1l-0.2,0.1
		l-0.4,0.2l-0.1,0.2v0.2L108.7,156.5z"/>
	<path id="寶山鄉_1_" fill="none" stroke="#000000" d="M54.5,155.5l0.3,0.4l0.1,0.3l0,0.1l0,0.1l0.3,0h0.2h0.1l0,0.1l0,0.2v0.1
		l0.1,0.2l0.4,0.4l0.3,0.3l0.2,0l0.1,0.1l0.1,0.1l0.3,0l0.2,0l0.1,0.1l0.1,0l0.2,0.2l0.1,0.1l0.2,0.1l0.1,0l0.2,0l0.1,0l0.2-0.1
		l0.3,0l0.2,0l0.1,0l0.2-0.1l0.1-0.1l0.2,0l0.2,0l0.1-0.1l0.1-0.1l0-0.1v-0.1l-0.1-0.2l0-0.1l0-0.2l0-0.1l0,0l0,0l0,0h0l0,0l0.1,0
		l0,0h0h0.1h0l0.1,0l0.1-0.1l0.1-0.1l0,0l0.1-0.1l0,0l0.2-0.1l0.1-0.1l0,0l0-0.1v0l0,0h0.1h0.1h0.3l0.1,0h0.3l0.1,0l0.2,0.4l0.1,0.2
		l0,0l0.1,0.1l0,0.1l0,0.1l0.1,0.3v0.1l0,0.3l0,0.2v0l0,0v0l0.2,0h0.1l0.1,0l0.1,0.1l0.1,0.2l0.1,0.3l0,0.1l0.1,0.1l0.1,0l0.2,0
		l0.1,0.1l0,0.1v0.1l0,0.1l-0.1,0.2l0,0.1l0,0.2l0,0.1v0.1v0l0,0l0.1,0.1l0,0l0,0l0.1,0l0.3,0l0.2,0l0.3-0.1l0.3-0.2l0.2-0.3
		l0.1-0.2l0.1-0.1l0.1-0.1l0.1-0.1l0.2-0.3l0.4,0l0.2,0l0.4-0.1l0.1,0l0.1,0l0.1,0l0.1,0l0.1-0.1l0,0l0.1-0.2l0-0.2l0-0.1l0.1-0.2
		l0.1-0.2l0-0.1l0.1,0l0-0.1v-0.2v-0.1l0-0.1l0.1-0.1l0.1-0.1l0.1,0l0.1,0l0.2,0l0.1-0.1l0.1-0.1l0-0.5l0-0.1l0.1,0l0.1,0l0.2-0.1
		l0.1-0.1l0.1-0.1l0.1,0h0.1h0l0,0.1l0,0.1l0.2,0.3l0,0l0,0l0.2,0.1l0.1,0l0.2,0.2l0.1,0.1l0.1,0.1l0.2,0l0.3-0.1l0.2-0.1l0.1-0.1
		l0.2-0.2l0.1-0.1l0.1-0.1l0.2-0.1h0.1l0.1,0.1l0.1,0.1l0.1,0l0.2,0l0.1,0l0.2,0h0.1l0.1,0l0-0.1l0.1-0.1l0-0.1l0-0.1l-0.1-0.1
		l0.1-0.1l0.1-0.1l0.2-0.1l0.1,0h0l0.1,0.1l0.1,0.1l0.1,0.1h0.1l0.1,0l0.1-0.1l0,0h0.1l0.1,0.1l0.2,0l0.2,0l0.2-0.1l0.1-0.1l0.1-0.1
		l0.1,0l0.2,0l0.2,0l0.2-0.1h0.2l0.1-0.1l0.1-0.2v-0.2l0-0.1l0-0.1l0-0.1l0.1,0l0.1-0.1l0.1-0.1l0-0.2l0-0.1l0-0.2v-0.1v-0.2l0-0.2
		l-0.1-0.1l0.1-0.1L77,153l0.1-0.2l0.1-0.2l0.1,0.1l0.1,0.2l0,0.2l0,0.2l0,0.2v0.2l0.1,0.2l0,0.2l0,0.2l0,0.1l0.1,0l0.3,0.1l0.3,0
		l0.4,0H79l0.2,0.1l0.3,0.3l0.2,0.3l0.2,0.2l0.1,0.3l0.2,0.2h0.2l0.2,0.1l0.1,0.1l0.2,0.2l0.1,0.2l0.2,0.1h0.2l0.3-0.1l0.2-0.2
		l0.2-0.2l0-0.2l0.1-0.2v-0.2l-0.1-0.3l0-0.1l0.3-0.1l0.2-0.1l0.1-0.5l0.1,0l0.2-0.1l0.2-0.1l0.2-0.1l0.2-0.2l0.1-0.2l0-0.2l0-0.2
		h0.1l0.3,0l0.2,0l0.1-0.1l0.2-0.2l0.1,0l0.1,0l0.1-0.1l0-0.2l0-0.2l0.1,0l0.1,0.2l0,0.2v0.2l0,0.2l0.1,0.2l0.2,0.1l0.2,0.1l0.1,0.1
		l0,0.1l0.3,0.1l0.2,0.1l0.1,0.1l0.1,0.1l0.1,0l0.1,0l0.1-0.1l0.3-0.1l0.3,0l0.3-0.1l0,0.1l0,0.2l0.1,0.2l0.2,0.1l0.1,0l0.2,0l0.2,0
		l0.1-0.1l0.6,0.1l0.3,0l0.3,0.1l0.3,0l0.2,0.2l0.2,0.2l0.2,0.1l0.3,0.2l0.2,0.2l0.1,0.2l0,0.2l0.1,0.1l0.1,0l0.3,0.1l0,0.1l0,0.3
		l0,0.2l0.1,0.2l0.5,0.1l0.4,0l0.4-0.1l0.1-0.1l0.2-0.1l0.1-0.1l0,0.2l0.1,0.3l0.1,0.1l0.1,0.1l0,0.3l-0.1,0.3l0,0.1l0,0.2l0,0.2
		l0.2,0.1l0.2,0.1l0.1,0.1l0.1,0.3L95,159l0,0.2l0.1,0l0.1-0.1l0.1-0.2l0.2,0l0.2-0.1l0.2-0.1l0.1-0.2l0.1-0.2l0.1-0.2l0.1,0
		l0.2,0.1l0.3,0.1l0.2,0l0-0.2l0.1-0.2l0-0.3l0.1-0.1l0.1-0.1l0-0.1l0.2,0.1l0.2,0l0.1,0l0.1-0.1l0.1-0.2l0.3-0.6l0.4-0.3l0.5,0.2
		l0.1,0.2l0.3-0.1l0.2-0.2l0.1,0l0.1,0l0.3,0.4l0.7-0.1l0.1,0l0.1,0.1l0.3,0l0.2,0l0.1-0.1h0.1l0.2,0.1l0.4,0.4l0.4,0.4l0.6,0.7
		l0.2,0.1l0.3,0l0.6-0.6l2.3-0.8h0.7l0.5-0.2l0.1-0.2l-0.1-0.4v-0.2l0.1-0.2l0.4-0.2l0.2-0.1l0.3,0.1h0.3l0.1-0.1v-0.3l0-0.3
		l-0.1-0.3l1-0.9l0.2-0.9l0.1,0l0.1,0l0.1,0l0.1-0.1l0-0.1v-0.2l0.3,0l0.1,0.1h0.2l0.1,0l0.1,0l0.1,0.1l0.2,0h0.2l0.2,0l0.1,0
		l0.2,0.1l0.1,0.1l0.1,0.1l0.1,0.1l0.1,0h0.1h0.2l0.2,0l0.1-0.1l0.1-0.1l0.1-0.1l0.1-0.2l0.2-0.4l0.2-0.3l0-0.4l0.1-0.2l0.3-0.1h0.3
		l0.2-0.2l0-0.4l0-0.2l0.2-0.2l0.4-0.2l0.1-0.3l0.1-0.1l0.3-0.1l0.1-0.2l0.1-0.2l0.1,0l0.2,0l0.1-0.2v-0.3l0.2-0.3l0.2-0.1l0.3-0.1
		l0.2-0.2l0.3-0.4l0-0.3l0.1-0.2l0.1-0.2l0.2-0.3l0.2-0.1l0.3-0.1l0.2-0.3l0.2-0.3l0.1-0.2l0-0.2l0.1-0.2l0.1-0.1l0.2,0h0.1l0.3,0
		l0.3,0l0.2,0l0.2-0.1l0.1-0.1l0.3,0l0.1,0.1l0.2,0.1l0.1,0l0.2,0l0.2,0h0.2l0.2,0l0.1,0.1l0.1,0.1l0.1,0l0.3,0l0.2-0.1l0.2,0.1
		l0.1,0.1l0.2,0l0.1-0.1l0.2-0.2l0.3-0.1h0.2l0.2,0l0.2-0.1l-0.2-0.9l0-0.8l-0.2-0.6l-0.4-1.1l-0.4-0.6l-0.8-0.7l-0.6-0.4l-0.2-1.1
		l-0.5-0.9l-0.8-1.1l-0.2-0.9l-0.4-0.5l-0.9-0.2l-1.2-0.2l-0.9-1.4l-0.4,0L118,133l-0.2-0.4l-0.2-0.2l-0.4-0.3l-0.1-0.2v-0.4h-0.5
		l-0.4,0l-0.2-0.2v-0.5l-0.2,0.1l-0.1,0l-0.1-0.2l-0.1-0.1l-0.1,0l-0.1,0.1l0,0.2l0,0.2l-0.1,0.1l-0.1,0.1l-0.2,0.1l-0.1,0.1l-0.1,0
		h-0.1l-0.1,0l0,0.1l-0.1,0.1l-0.3,0.2l-0.1,0l-0.3,0l-0.2,0h-0.2h-0.2l-0.2,0.5l-0.1,0.2l-0.4,0.3l-0.2,0.1l-0.3,0.2l-0.2-0.1v-0.3
		l-0.1-0.2l-0.2-0.1l-0.4,0.2l-0.5,0.8l-0.3,0l-0.4,0.3l-0.3,0.2l-0.2,0l-0.3,0.1l-0.1,0.1v0.2l-0.2,0.2l0,0l0,0l-0.1,0.1l0,0h0l0,0
		l0,0l0,0l0,0l0,0h0h-0.1l-0.1,0l0,0l0,0l0,0l0,0l-0.2-0.3l-0.1-0.4l0,0l0,0l0,0l0,0l0,0l-0.2-0.1l0,0l0,0l0,0l0,0l-0.1-0.2
		l-0.1-0.4l-0.1-0.2l0,0l-0.1-0.1l0,0l-0.1-0.1l0,0l0,0l0,0l0,0l0,0l0,0l0,0v0l-0.1-0.3l0,0l0,0l-0.1-0.1l-0.1-0.1l-0.1-0.1l0,0
		L105,131l0,0l0,0l0,0l0,0l0,0l0,0l0,0l0,0l0,0v0l0-0.1l0-0.1l-0.1-0.2l0-0.1l0-0.1l0-0.1l0-0.1l-0.1-0.1l0,0l-0.4-0.4l-0.2-0.2
		l-0.1-0.1l0,0l-0.1,0h-0.1h-0.1h-0.1h-0.1l-0.1,0l-0.1,0l-0.1,0h-0.1l-0.1,0l-0.1,0l-0.1,0l-0.3,0.2l-2.7,0.2l-0.1-1.1L99,127
		l0-1.6l0-0.2l-0.3,0.1l-0.3-0.2l-0.1-0.4l-0.1-0.4l-0.8-1l-0.7-1.2l-0.5-0.8l-1-0.7l-1.2-0.7l-2.7-1.2l-1.6-1.1l-1-0.7l-0.9-0.1
		l-0.5-0.4l-2-0.8l-1.2,1.9l-0.2,0.2l-0.1,0.1l-0.4,0l-0.7-0.3l-0.4,0l-0.9,0.3l-0.1,0.5l-0.4,0.1l0.1,0.1l0,0l0.2,0.3l-0.3,0.4
		l-0.2,0.1l0,0.1v0.1l0,0l-0.5,0.6l0,0.1l0.3,0.1l0.7,0l0.4,0.1l0.3,0l0,0.7l0,0l0.5,1.4l0.4,0.4l0.1,0.4v0.2l-0.6-0.3l-0.4-0.1
		l-0.3,0l-0.4,0l-0.5,0l-0.3,0.1l-0.3,0.3l-0.1,0.1l-0.5,0l-0.2,0l-0.6,0.8l-0.1,1.1l-0.5,0.7l-0.5-0.2l-0.9,0.3l0-0.3l-0.2-0.5
		l-0.3,0.1l-0.5,0.1l-0.1-0.2l0-0.4l-0.2-0.2l-0.4,0.3l-0.1,0.3l-0.1,0.1l-0.1,0l-0.4-0.2l-0.2,0l-0.1,0l-0.1-0.2l-0.1-0.4l0-0.1
		l-0.1,0.1l-0.2,0.2l-0.3,0.1l-0.4,0.6l-0.2,0.3l-0.1,0.8l-0.2,0.3l-0.1,0.5l-0.3,0.2v0.2l0,0.3l0,0.4l0,0.6l0,0l-0.1,0l0,0.1v0.1
		l0.1,0.2l0,0.3l0,0.3l-0.5,0.4l-0.1,0l-0.3-0.3l-0.6,0.6l-0.2,0.1l-0.2-0.2l-0.1,0l-0.4,0.3l-0.1,0.1v0.1l0,0.1l-0.4,1.3l-0.1,0.6
		H68L68,133l-0.1,0.1l-0.2,0.3l-0.8,0.6l-0.8-0.2l0,0.2l-0.1,0.3l0,0.4l0.1,0.1l0,0.3v0.3l0.1,0.4l0,0.4l-0.3,0.3l-0.4,0.1l-0.4,0.3
		l-0.4,0.1l-0.3,0.4h-0.1l-0.1-0.1l-0.2-0.1l-0.2-0.1l-0.1,0l-0.5,0.3l-0.4-0.3l-0.2-0.1l-0.6,0l-0.7,0.2l-0.2-0.2l-0.2-0.3
		l-0.6,0.2l-0.3-0.1l-0.2-0.2l-0.2,0l-0.1,0.1l-0.1,0.1l-0.2,0.3l-0.3,0.1l-0.2,0.4l-0.1,0.5v0.5l-0.2,0.5l-0.3,0.8l0.1,0.3v0.2
		l-0.2,0.3l-0.1,0.2l-0.1,0.1l-0.1,0.1l0,0.2v0.3v0.3l-0.1,0.1l0.1,0.4v0.2l-0.5,0.4l-0.1,0.5l-0.2,0.2l-0.1,0.1l-0.1,0.2l0,0.2
		l0.2,0.1l0.3,0l0.4,0.1l0.1,0.1l0.5,0.6l0,0.1l-0.2,0.4l-0.1,0.3l-0.1,0.4l-0.6,0l-0.1-0.3l-0.2-0.2l-0.2-0.2l-0.3-0.2l-0.4,0
		l-0.2,0.1l0,0.2l0.1,0.1l0.2,0.1l0.1,0.6l0,0.2l-0.5,0l-0.1,0.1l0.1,0.1l0.1,0.1l0.3,0.2l0.3,0.7l0,0.1l-0.3,0.2l0.1,0.8l0,0.2
		l0.1,0.1v0.1l-0.4,0.2l-0.1,0.3l-0.1,0.2l0.1,0.2l0.3,0.3l-0.1,0.2l0,0.1v0.1l0,0.2l0,0.1l-0.1,0.2l-0.1,0.2v0.2l0.2,0.4l0.1,0.4
		l-0.3,0.3l-0.6,0.5l-0.3,0.2l-0.2,0.1v0.1l0,0.1l0.1,0.1l-0.1,0.4L54.5,155.5z"/>
	<path id="竹東鎮_1_" fill="none" stroke="#000000" d="M100.3,103.1l5.6,0.1l2.2,0.4l0.9,0.6l0.7,0.4l1.3,0.9l3.1,1.9l2.8,1.4
		l2.2,1.3l2,1.5l0.5,0.4l0.1,0.1l-0.3,0.9l-0.2,0.5l0,1.8l0.7,0.8l3.5,1.4l0.8,1.5l1.3,0.6l0.8,0.1l0.5,0.9l1,1.7l0.8,1.4l1.3,2.1
		l2.3,3.4l0.4,0.8l-1.4,0.4l2.2,1.1l2.6,1.7l2.1,1.1l2.1,0.9l1.8,1l0.2,3.1l0.7,1.6l0.2,1.3l1.1,1.9l-0.1,2.9l-0.9,2.1l-0.7,2.7
		l-1.1,3.2l-0.6,2.1v2.9l-0.9,0.5l-0.6,0.9l-0.2,1.6l0.9,0.8l1.4-0.3l1.7,0.7l0.7,1.5v2.4l-0.7,0.9l-0.4,1l-0.6,1.1v1.3l-0.3,1.3
		l-0.6,2.2l-0.8,1.7v1.4l1.3,0.2l1.3,0.7l0.3,0.9l-0.1,1.3l0.7,0.4l1.6-0.7l0.7-0.8l1.3-0.4l1.7,0.1l1.9,0.8l1.5,1.4l0.7,1.5
		l0.3,2.1l0.2,2.7l1.2,0.7l0.4,0.3l0.3,0.5l0.2,0.4l0,0.2l-0.2,0.4l-0.2,0.3l-0.2,0.1l-0.2,0.1l-0.4,0.5l-0.3,0.4l-0.5,1.5l-0.3,0.2
		l-0.4,0l-0.4,0l-0.4-0.1l0-0.2l-0.1-0.1l-0.6-0.1l-0.4-0.5l-1.5-0.7l-1.3-1.4l-0.9,0.4l-1.2,0.9l-0.2,1.2l-1.5,1.3l-1,0.4l-0.2,0.8
		l-0.8,0.1l-0.8,0.7l-0.6-0.2l-0.9,0.7l-1-0.6l-1.1,0.8l-0.8,0.5l0.8-2.8l-0.2-1.3l-1.3-0.6l-1.4-0.8l0.2-1.5v-1.7l-0.7-0.8
		l-0.1-1.3l-0.4-0.9l-0.6-1.8l-0.3-2l0.3-1.3l-0.1-1.5l-0.3-1.1v-3.1l0.5-1.3l0.7-1.9l1-0.9l1.3-0.7l-0.3-1.6l-0.4-1.9l-1.7-3
		l-0.4-1.9l-1.3-1.7l-0.5-3.5l-0.8-3l-0.8,0.1l-0.9,0l-0.9-0.6l-0.6,0l-1.1-0.5l-1-1.1l-0.7-1.4l-0.3-1.3l0-1.4l0.3-0.8l0.6-0.5
		l0.1-0.5l-0.5-0.4l1-1.3l-0.7,0l0.5-0.7l-0.6-0.3h-0.8l-0.6,0.5l-0.2-0.9l0-0.8l-0.2-0.6l-0.4-1.1l-0.4-0.6l-0.8-0.7l-0.6-0.4
		l-0.2-1.1l-0.5-0.9l-0.8-1.1l-0.2-0.9l-0.4-0.5l-0.9-0.2l-1.2-0.2l-0.9-1.4l-0.4,0l-0.1-0.3l-0.2-0.4l-0.2-0.2L117,132l-0.1-0.2
		v-0.4h-0.5l-0.4,0l-0.2-0.2v-0.5l-0.2,0.1l-0.1,0l-0.1-0.2l-0.1-0.1l-0.1,0l-0.1,0.1l0,0.2l0,0.2l-0.1,0.1l-0.1,0.1l-0.2,0.1
		l-0.1,0.1l-0.1,0h-0.1l-0.1,0l0,0.1l-0.1,0.1l-0.3,0.2l-0.1,0l-0.3,0l-0.2,0h-0.2h-0.2l-0.2,0.5l-0.1,0.2l-0.4,0.3l-0.2,0.1
		l-0.3,0.2l-0.2-0.1v-0.3l-0.1-0.2l-0.2-0.1l-0.4,0.2l-0.5,0.8l-0.3,0l-0.4,0.3l-0.3,0.2l-0.2,0l-0.3,0.1l-0.1,0.1v0.2l-0.2,0.2l0,0
		l0,0l-0.1,0.1l0,0h0l0,0l0,0l0,0l0,0l0,0h0h-0.1l-0.1,0l0,0l0,0l0,0l0,0l-0.2-0.3l-0.1-0.4l0,0l0,0l0,0l0,0l0,0l-0.2-0.1l0,0l0,0
		l0,0l0,0l-0.1-0.2l-0.1-0.4l-0.1-0.2l0,0l-0.1-0.1l0,0l-0.1-0.1l0,0l0,0l0,0l0,0l0,0l0,0l0,0v0l-0.1-0.3l0,0l0,0l-0.1-0.1l-0.1-0.1
		l-0.1-0.1l0,0l-0.3-0.3l0,0l0,0l0,0l0,0l0,0l0,0l0,0l0,0l0,0v0l0-0.1l0-0.1l-0.1-0.2l0-0.1l0-0.1l0-0.1l0-0.1l-0.1-0.1l0,0
		l-0.4-0.4l-0.2-0.2l-0.1-0.1l0,0l-0.1,0h-0.1h-0.1h-0.1h-0.1l-0.1,0l-0.1,0l0.7-0.1l0.1-0.2l0.1-0.4l0.2-0.5l0.2-0.4l0.4-0.4
		l0.4-0.2l0.6-0.2l0.3-0.3l0.1-0.5l0.2-0.4l0.4-0.2l-0.2-0.4l-0.5-0.2l-0.4-0.1l-0.5-0.4l-0.4-0.2l-0.1-0.1l0-0.1l0-0.7l-0.1-0.1
		l-0.1-0.2l-0.2-0.1l0-0.2l0.1-0.1l0-0.3v-0.2l0.1-0.1l0.5,0l0.3,0v-0.4l-1.6-0.5l0-0.1l0-0.1l0.7-1.4l0.2-0.5l0.1-0.2l0-0.2l0-0.1
		l0-0.1l0,0l-0.1,0.1l-0.2,0.1h-0.2l-0.3-0.1l-0.2-0.1l-0.1-0.1v-0.1v-0.2l0.1-0.3l0.1-0.2l0-0.2l0-0.1l-0.1,0l-0.1,0l-0.1,0.1
		l-0.3,0h-0.1l-0.1,0l-0.1,0l0,0l-0.1-0.2l0-0.1l-0.1-0.1l-0.2-0.2l0-0.1l0-0.1v-0.1l0,0h0h0l0.1,0l0.1,0.1h0.1l0.1,0l0.1-0.1
		l0.2-0.2l0.3-0.3l0.1-0.3l0.1-0.4l0.1-0.2l-0.1-0.1l-0.6-0.4l-0.4-0.3l-0.3-0.2l-0.8-0.3l-0.2-0.1l0-0.1l0-0.1l0.1-0.2l0.1-0.1
		l0.1,0l0.3-0.1h0.3l0.1,0l0,0l0-0.1l-0.1-0.2l-0.1-0.1l-0.1-0.2l-0.1-0.2l0-0.2v-0.2l0-0.2l0-0.2v-0.1l-0.1-0.2l-0.3-0.4l-0.3-0.3
		l-0.1-0.1l-0.1,0l-0.1,0l-0.1,0l-0.2,0.1h-0.1l0-0.1l0-0.2l0,0l-0.3-0.7l-0.4-1l0-0.1v-0.1l0.1-0.1l0.1-0.1l0.1-0.1l0.2-0.1
		l0.3-0.1l0.3-0.1l0.1-0.1l0.1-0.1v-0.1l-0.1-0.1l-0.2-0.1l-0.2-0.1l-0.1-0.1l-0.2-0.3l-0.3-0.4l-0.1-0.1l-0.2-0.1l-0.1-0.1l0-0.1
		l0.2,0l0.8,0.1l0.4-0.1l0.9,0l0.4,0l0-0.1l-0.5-0.4l-0.5-0.3l-0.5-0.3L100.3,103.1z"/>
	<path id="橫山鄉_1_" fill="none" stroke="#000000" d="M146,144.1l-0.1,2.9l-0.9,2.1l-0.7,2.7l-1.1,3.2l-0.6,2.1v2.9l-0.9,0.5
		l-0.6,0.9l-0.2,1.6l0.9,0.8l1.4-0.3l1.7,0.7l0.7,1.5v2.4l-0.7,0.9l-0.4,1l-0.6,1.1v1.3l-0.3,1.3l-0.6,2.2l-0.8,1.7v1.4l1.3,0.2
		l1.3,0.7l0.3,0.9l-0.1,1.3l0.7,0.4l1.6-0.7l0.7-0.8l1.3-0.4l1.7,0.1l1.9,0.8l1.5,1.4l0.7,1.5l0.3,2.1l0.2,2.7l1.2,0.7l0.5-0.8
		l0.1-0.5l0.4-0.2l0.3-0.1h0.7l0-0.3l0-0.4l0-0.3l0.1-0.2l0.1-0.3l0.1-0.2l0.2,0l0.2-0.4l0.2-0.2l0.1-0.3l0.2-0.3l0.1-0.1l0.3-0.3
		l0.2-0.3l0.1-0.3l0.2-0.4l0.2-0.3l0.4-0.2l0.3,0.1l0.5-0.1l0.4-0.2l0.2-0.2l0.2-0.3l0.6,0.2h0.3l0.3-0.2l0.1-0.1l0.3,0l0.1,0.1
		l0.2,0.2l0.3,0.2l0.2-0.1l0.1-0.1l0-0.4l0.1-0.3l0.5-0.5h0.2l0.4,0l0.1,0l0-0.1l0.1-0.2l0.1-0.2l0.1-0.2l0.1,0l0.1,0l0.1,0h0.1
		l0.1-0.1l0.1-0.1l0.2-0.2l0.2-0.3l0.1-0.1l0.4-0.2l0.3-0.6l0.2-0.1l0.2-0.2l0.2-0.1l0.4,0l0-0.3l0-0.3l0.3-0.5l0.1-0.3l0.2-0.4
		l0.4-0.4l0.4-0.5l0.3-0.6l0.5-0.9l0.1-0.5l0.2-0.5l0.2-0.3l0.6,0l0.4-0.4l0.6-0.4l1.1-0.7l0.7-0.5l-0.1-0.9l0.1-0.6l0.2-1.1
		l0.4-1.1l0.6-1l0.3-0.6l0.3-0.2l0.5,0.1l0.4,0l0.4,0l0.7-0.3l0.6-0.4l0.6-0.3l0.3-0.2l0.6-0.3l0.4-0.3l0.9-0.6l0.7-0.1l1.2,0.1
		l1.6,0l0.8-0.1l0.8-0.1l1.2,0l0.4-0.5l0-0.4l0.4-0.6l0.2-0.4v-0.4l0.3-0.5l0.6-0.9l0.3-0.6l0.7-0.7l-0.2-0.7l0-0.7l-0.5,0.1
		l-0.3-0.3l-0.1-0.4H191l-0.1-0.3l0.5-0.4l0.8-0.3l0.3-0.7l0.4-0.2l0.2-0.3l0.4-0.2l0.6-0.2l0.1-1.4l-0.1-0.7l0.5-1.1l0.6-0.2l0.7,0
		l0.4-0.2l0.5,0.1l0.6-0.5l0.1-1.1l-0.1-0.8l0.2-0.4l-0.3-0.2l-0.5-0.4l-0.4-0.2l-0.3-0.2l-0.4-0.5l-0.1-0.3l-0.1-0.5l0-0.2
		l-0.2-0.1l-0.6-0.3l-0.1-0.3l-0.5,0.1l-0.1-0.1l-0.5-0.2l-0.3-1.3l0.1-0.1l0.3-0.3l0.1-0.2l0-0.4l0.1-0.3v-0.5l-0.1-0.2l-0.3-0.2
		l-0.1-0.2l0-0.2l-0.1-0.1l-0.2,0l0.1-0.3v-0.1l-0.1-0.3l0-0.1l0-0.1h0.2l0.1,0l0.1-0.1l0-0.3l0-0.1l0.3-0.3l0-0.3l0-0.4v-0.2l0-0.4
		l-0.3,0.1l-0.2,0l-0.4-0.1l-0.3-0.2l-0.3-0.2l-0.1,0H192l-0.2,0l-0.1,0.1l-0.1,0l-0.1,0l-0.2,0l-0.3-0.1l-0.1,0h-0.2l-0.2,0.3
		l-0.1,0.1l-0.2,0.3l-0.1,0.1l-0.2,0.2l-0.2,0l-0.1,0l-0.2,0.2l-0.4,0.4l-0.1,0.1l-0.1,0.3l-0.1,0.2l-0.1,0h-0.1l-0.3,0l-0.8,0.5
		l-0.1-0.1l-0.1-0.1l-0.2-0.2l-0.3,0l-0.4,0l-0.3-0.3l-0.1,0l-0.2,0l-0.3-0.2l-0.1,0h-0.1l-0.1,0l-0.1,0l-0.1-0.1l-0.1-0.1l-0.2-0.1
		l-0.4-0.6l0-0.5l-0.1-0.2l-0.2,0l-0.1-0.2l0-0.4l0-0.3l0.1-0.2l0.3-0.2l0.2-0.2l0-0.2l0-0.2l-0.2-0.2l-0.3,0.2l-0.3,0.2l-0.1,0
		l-0.3-0.1l-0.1,0l-0.2,0l-0.1,0.1l-0.3,0l-0.1-0.1l-0.1,0l-0.2,0h-0.1l-0.2-0.1l-0.2-0.1l-0.2-0.1l-0.1,0l-0.1,0l-0.1-0.1l0-0.1
		l0.1-0.3l0-0.1v-0.1l-0.1-0.1l-0.1-0.1l-0.1-0.3l-0.1,0l-0.1,0l-0.1,0l-0.1,0v-0.2v-0.3l0-0.3l0-0.3l-0.1-0.3l0-0.2v-0.1l0.1-0.1
		l-0.1-0.2l-0.1-0.1l-0.2,0l-0.1,0.1l-0.2,0.2l-0.1,0l-0.1,0l-0.2,0.1l-0.2,0l-0.1-0.1l0-0.2l-0.1,0l-0.2-0.1l-0.3,0.1l-0.1,0
		l-0.2-0.1l0-0.1v-0.1l0,0l-0.2,0l-0.2,0l-0.3-0.1l-0.2-0.1l-0.3-0.1l-0.2-0.1l-0.1-0.2l0.1-0.1l0.1-0.1l-0.4-0.3l-0.1,0l-0.2,0
		l-0.4-0.1l-0.4-0.1l-0.2-0.1l-0.2,0h-0.2l-0.1,0l-0.1-0.1l-0.2-0.1l-0.1-0.1l-0.1-0.1l-0.1,0.1l-0.3,0.1l-0.3,0.1h-0.1l-0.2-0.1
		l-0.2,0l-0.2-0.1l-0.1,0l-0.4-0.2l-0.1-0.1l-0.2,0l-0.2-0.2l-0.1,0l-0.3,0.1h-0.3l-0.2-0.1l-0.2-0.1l-0.1-0.1l-0.1-0.2l0-0.2
		l-0.1,0.2l-0.2,0.4l-0.1,0.4l0,0.4v0.2l0,0.1l-0.1,0.2l0,0.1v0.2v0.1l-0.1,0.2l-0.1,0.2l-0.1,0.2l0,0l0.1,0.2l0,0.1v0.1l-0.1,0.1
		l-0.1,0.1l-0.1,0.1l0,0.1l-0.1,0.2l-0.2,0.1l-0.2,0.2l0,0.4l0.1,0.4l-0.4,0.3l0.1,0.1l0,0.1l0.1,0.1l0.1,0.1l0.1,0l0.2,0.7l0.1,0.2
		l0,0.1l0,0.2l0,0.1l-0.2,0.4l-0.3,0.3l0,0l-0.1,0.2l-0.1,0.1l-0.1,0.1l-0.1,0.1l-0.1,0.1l0,0.1l0,0.2l0.2,0.2l-0.2,0h0l-0.5,0.3
		l-0.2,0.1v0.3l-0.2,0.1l0,0.2l0,0.1l-0.1,0.2l0,0.1v0.1l0,0.1l0,0.2l0.1,0.3l0,0.2l0.1,0l0.1,0l0.1,0l0.1,0l0.1,0l0,0.1l0,0.1
		l0,0.1l0,0.1l0,0.1l-0.2,0.2v0.1l0,0.4l-0.2,0.2l-0.1,0.1l-0.1,0.1l-0.1,0.1l-0.1,0.2v0.1l0,0.2l0,0.1l0,0l0,0.1l0,0.1l0,0.1
		l-0.1,0.1l-0.1,0.1l-0.1,0.1h-0.1l-0.2-0.1l-0.3-0.2l-0.2-0.1l-0.1,0l-0.1,0l0,0v0.1v0.2l0,0.2v0.1l0,0.1l0,0.1v0l0,0.1l0.1,0.1
		l0.1,0.1l0,0.1l0,0.1l-0.1,0l-0.1,0.1v0.1h-0.1l-0.1-0.1l-0.1-0.1l-0.1-0.1l-0.1,0l-0.1,0l-0.1,0.1l-0.1,0.1l0,0.2l0,0.2l0,0
		l-0.7,0.4l-1.3,0.2l-0.4,1.3l-0.9,0.2v-1.2l-0.6-1.2l-1.7-0.2h-3.9l-1.3,1.9l2,1.3l-1.3,1.4l-1.2,0.1l-1.7-0.2l-2-0.1l-2.7-2.9
		L146,144.1z"/>
	<path id="芎林鄉_1_" fill="none" stroke="#000000" d="M120.3,95.3l0.8,0.2l1.3,0.7h1.1l0.4,0.5l0.9,0.4l1.3,0.4l0.9,0.5l0.4,0.8
		l0.8,1.5l0,1.2l0.3,0.8l0.2,0.1l0.3,0.4l0.7,0.3l0.8,0l1.1-0.5l0.7,0.3l0.2,0.9l-0.2,0.6l-0.3,0.9l-0.1,1.2l0.8,0.2l0.4,0.3
		l0.2,0.8l0.3,0.3l0.6,0.2l-0.1,0.3l-0.1,0.3l0.2,0.3h0.4l0.7-0.1l1.1,0l0.6,0.1l0.5,0l0.2-0.3l0.1-0.3l1.2-0.6l1.2-0.4l1.2-0.3
		l1,0.5l1,0.5l1.6,0.4l1.9-0.1l0.1,1.8l1.1,0.7l0.4,0.5l-0.1,1.3l1,1l-0.5,1.1l0.1,1.1l0.7-0.1l-0.2,2l-0.3,2.2l1.2,1.6l0.8,2.5
		l1.2-0.2l1.5-0.1h2.3l1.4,0.5h3.9l2.5,0l0.1,0l0.1,0.1l0.1,0l0.2,0.1h0.1l0.1-0.1l0.1-0.1l0.1-0.1h0.1h0.1l0,0l0.2,0.1l0.4,0.4
		l0.2,0.1l0.2,0.1l0.1,0.1l0.2,0.2l0,0l0.1,0.2l0.1,0.1l0.1,0.3l0.2,0.2l0.1,0.4l0,0.1l0.1,0.1l0.1,0.1l0,0.1v0h0l0.1-0.1l0.1-0.1
		l0.1-0.1h0.2l0,0.2l0.1,0.4l0.2,0.2l0.1,0.1l0.1,0l0.2-0.1l0.3-0.2l0.1-0.1h0.1l0,0.1l0.1,0.1l0.1,0.1l0,0.1l0,0.2l0.2,0.1l0.1,0.2
		l0.1,0.2l0.1,0.1h0l0.1-0.1l0.1-0.1l0.3,0l0.1,0.1l0,0.1l0.1,0l0.1,0.1l0.1,0.2l-0.1,0.2l-0.2,0.4l-0.1,0.4l0,0.4v0.2l0,0.1
		l-0.1,0.2l0,0.1v0.2v0.1l-0.1,0.2l-0.1,0.2l-0.1,0.2l0,0l0.1,0.2l0,0.1v0.1l-0.1,0.1l-0.1,0.1l-0.1,0.1l0,0.1l-0.1,0.2l-0.2,0.1
		l-0.2,0.2l0,0.4l0.1,0.4l-0.4,0.3l0.1,0.1l0,0.1l0.1,0.1l0.1,0.1l0.1,0l0.2,0.7l0.1,0.2l0,0.1l0,0.2l0,0.1l-0.2,0.4l-0.3,0.3l0,0
		l-0.1,0.2l-0.1,0.1l-0.1,0.1l-0.1,0.1l-0.1,0.1l0,0.1l0,0.2l0.2,0.2l-0.2,0h0l-0.5,0.4l-0.2,0.1v0.3l-0.2,0.1l0,0.2l0,0.1l-0.1,0.2
		l0,0.1v0.1l0,0.1l0,0.2l0.1,0.3l0,0.2l0.1,0l0.1,0l0.1,0l0.1,0l0.1,0l0,0.1l0,0.1l0,0.1l0,0.1l0,0.1l-0.2,0.2v0.1l0,0.4l-0.2,0.2
		l-0.1,0.1l-0.1,0.1l-0.1,0.1l-0.1,0.2v0.1l0,0.2l0,0.1l0,0l0,0.1l0,0.1l0,0.1l-0.1,0.1l-0.1,0.1l-0.1,0.1h-0.1l-0.2-0.1l-0.3-0.2
		l-0.2-0.1l-0.1,0l-0.1,0l0,0v0.1v0.2l0,0.2v0.1l0,0.1l0,0.1v0l0,0.1l0.1,0.1l0.1,0.1l0,0.1l0,0.1l-0.1,0l-0.1,0.1v0.1h-0.1
		l-0.1-0.1l-0.1-0.1l-0.1-0.1l-0.1,0l-0.1,0l-0.1,0.1l-0.1,0.1l0,0.2l0,0.2l0,0l-0.7,0.4l-1.3,0.2l-0.4,1.3l-0.9,0.2v-1.2l-0.6-1.2
		l-1.7-0.2h-3.9l-1.3,1.9l2,1.3l-1.3,1.4l-1.2,0.1l-1.7-0.2l-2-0.1l-2.7-2.9l-0.7-1l-1.1-1.9l-0.2-1.3l-0.7-1.6l-0.2-3.1l-1.8-1
		l-2.1-0.9l-2.1-1.1l-2.6-1.7l-2.2-1.1l1.4-0.4l-0.4-0.8L132,126l-1.3-2.1l-0.8-1.4l-1-1.7l-0.5-0.9l-0.8-0.1l-1.3-0.6l-0.8-1.5
		l-3.5-1.4l-0.7-0.8l0-1.8l0.2-0.5l0.3-0.9l1.5,0.8l0.3-1.6l-0.7-1.2l-2.5-1.1V107l-0.7-0.9l1-1l0.8-1.6l0.5-1.1l0.1-1.2l-0.2-1
		l-1.1-1l-1-0.2l-0.5-1l-0.9-0.6l-1.4-1.8l1.2,0l1.3-0.3l0.6,0.1L120.3,95.3z"/>
	<path id="竹北市_1_" fill="none" stroke="#000000" d="M51.8,72.2l2.6,1.6l2.9,0.9l1,1.8l0.6,1.4l0.1,0.2l0.5,1.6l0.9,0.7
		l0.7,0.4l2.9,2.2l0.9,0.6l1.6,0.8l1,0.2l1.1,0.2l1.7,0l0.8-0.1l0.9,0.2l1.8,0.8l1.1,0.3l0.8,0.3l0.9,0.2l0.4,0l0.4,0l0.7-0.2
		l0.4-0.3l0.4-0.4l0.3,0.1h0.2l0.4,0.1l0.5,0.2l0.8,0.6l0.4,0.5l0.2,0.4l0.2,0.6l0.3,0.8l0.1,0.1l1.7,0.8l0.5,0.2l0.2,0.1l0.2,0.1
		l1.8,0.1l0.6,0.2l1.1,0.3l0.5,0.1l0.2,0.1l0.7,0.6l0.2,0.5l0.1,0l1.2,0.5l0.2,0.1l0.7,0.8l0.8,0.8l0.4,0.2l1.8,2.1l0.1,0.2l1.6,2.1
		L97,99l1,0.3l0.6,0.4l0.1,0.3l0.1,0.2L99,101l0.2,0.2l0.4,0.4l0.4,0.5l0.3,0.9l5.6,0.1l2.2,0.4l0.9,0.6l0.7,0.4l1.3,0.9l3.1,1.9
		l2.8,1.4l2.2,1.3l2,1.5l0.5,0.4l0.1,0.1l1.5,0.8l0.3-1.6l-0.7-1.2l-2.5-1.1v-2.3l-0.7-0.9l1-1l0.8-1.6l0.5-1.1l0.1-1.2l-0.2-1
		l-1.1-1l-1-0.2l-0.5-1l-0.9-0.6l-1.4-1.8l1.2,0l1.3-0.3l0.6,0.1l0.3,0v-0.2l-0.2-0.1l-0.2,0l-0.4-0.2v-0.2l-1.1-0.4l0.7-0.5
		l-1.3-0.5l-0.8-0.8l-1.1-0.6l-1.3-0.3l-0.7-0.1l-1.5-0.2l-0.6-0.1l-1.2-0.8v-1.6l-1.4-1.1l-1.1-0.3l-0.1,0l-1-0.7l-1-0.1h-0.7
		l-1-0.5l-0.5-0.5l-0.1,0.1l0-0.1l-0.2-0.4l-0.1-0.2l0-0.2l0-0.2l0-0.1V84V84v-0.1l0-0.2l0-0.2l0-0.2l0.2-0.3l0-0.2l-0.1-0.1
		l-0.1-0.2l0-0.3l0-0.2l0-0.2l0-0.4l0.1-0.4l0.1-0.1l0.2-0.8l0-0.2l-0.2-0.1l-0.7-0.3l-0.3-0.1l-0.5-0.1l-0.1-0.1l-0.2-0.2l-0.1-0.3
		l-0.1-0.4l-0.1-0.3l0-0.3l-0.1-0.7l-0.2-0.4l-0.2-0.5l-0.1-0.4l-0.2-0.4l-0.2-0.2l-0.8-0.3l-0.6-0.2l-0.6-0.2l-0.4,0.1l-0.6,0.1
		h-0.2l-0.3-0.1l-0.2-0.1l-0.4-0.2l-0.1-0.1l0-0.1l-0.1-0.3l-0.1-0.3L95.7,73l0-0.4l-0.3-0.3l-0.6-0.3l-0.4-0.2L94,71.8l-1-0.2
		l-0.5-0.2L91.6,71l-1.5-0.7l-0.2-0.1l-1.1-0.7l-0.1-0.1l-1.1-0.7l-0.8-0.5l-1-0.6l-0.4-0.3l-0.2-0.3l-0.1-0.4L85,66.4v-0.5
		l-0.3,0.3l-0.2,0.3l-0.2,0.2l0,0.1l-0.1,0.3l-0.1,0.3l-0.1,0.1l-0.1,0.1l-0.1,0.1l0,0l-0.1,0.1l-0.1,0l-0.2-0.1l-0.1,0l0,0L83,67.5
		l-0.2-0.1l-0.2,0l-0.3-0.1l-0.2-0.1L82,67.1l-0.2,0L81.7,67l0-0.1l0-0.1l0-0.1l0,0h-0.1l-0.2,0.1l-0.1,0.1l-0.1,0.1L80.9,67
		l-0.2,0.1l-0.1,0.1l0,0v0.1v0.2v0.1l-0.1,0.2l-0.1,0.1l-0.1,0L80,67.8l-0.1-0.2l-0.1-0.4l0-0.1l-0.1-0.1l-0.1-0.1l-0.1-0.1l0,0
		l-0.2-0.2l-0.2-0.2L78.6,66l-0.1-0.1l-0.2-0.2l-0.2-0.2l-0.1,0v-0.3l0-0.2l0-0.3l0-0.3l-0.1-0.3l0-0.1L77.7,64l-0.1-0.1l-0.1-0.1
		l-0.1-0.1l-0.2,0l-0.3-0.2l-0.3-0.2l-0.1-0.1l0,0l0-0.1v-0.2l0-0.2l0-0.2l-0.1-0.1l-0.1-0.1l-0.1-0.1l-0.1,0l-0.1,0L75.7,62l0,0
		l-0.1-0.2l0.1-0.1l0,0l-0.1-0.3l-0.2-0.2l-0.1-0.2l-0.1-0.1l-0.1-0.1l-0.2,0l-0.2,0.2l-0.2-0.1l-0.1,0l-0.1,0l-0.1,0l-0.3-0.2
		l-0.2-0.2l0-0.2l0-0.1L73.5,60l-0.2,0l-0.1,0l-0.2,0l-0.2,0l-0.1,0.1l-0.1,0l-0.1,0.4l-0.1,0l-0.1,0l0-0.2l0-0.3l0-0.3l-0.1-0.2
		l-0.3-0.3l-0.3-0.4l-0.7-0.7l-0.4-0.4l-0.2-0.2L70,57.4l-0.1-0.1l-0.2,0l-0.1-0.1L69.3,57l-0.2-0.1h-0.3l-0.2,0l-0.1,0l-0.1,0
		l-0.4,0l-0.4-0.1l-0.3-0.2l-0.7,0h-0.3h-0.3h-0.1l-0.1,0l-0.2-0.1l-0.2-0.2l0,0l-0.2,0H65l-0.3-0.1l-0.3-0.1l-0.2,0h-0.2h-0.1
		l-0.6,0.1h-0.3l0.1,0.2l-0.4,0.9L62.6,58l-0.3,0.4l-0.1,0.3L62,58.7L61.8,59l-0.2,0.4l-0.1,0.2L61.2,60L61,60.3L61,60.5l-0.1,0.1
		l-0.1,0.2l-0.2,0.3l-0.2,0.3l-0.2,0.3L60.1,62l-0.2,0.2l-0.1,0.3l-0.1,0.2L59.7,63l-0.1,0.2l-0.2,0.3l-0.2,0.2l-0.2,0.3l-0.2,0.2
		l-0.1,0.2l-0.3,0.3l-0.2,0.3L58,65.1l-0.1,0.2l-0.2,0.2l-0.1,0.2l-0.2,0.2l-0.2,0.2l-0.3,0.3l-0.2,0.3L56.4,67l-0.2,0.3l-0.3,0.2
		l-0.1,0.2L55.5,68l-0.2,0.2l-0.3,0.2L55,68.6l-0.1,0.1l-0.1,0.1l-0.1,0.1l-0.2,0.3l-0.2,0.2L54,69.5l-0.1,0.1l-0.3,0.4l-0.1,0.3
		l-0.2,0.4l-0.1,0.3L51.8,72.2z"/>
	<path id="關西鎮_1_" fill="none" stroke="#000000" d="M147,108.5l0.7-0.4l0.1-2l0.2-0.9l0.1-0.4l0.6-1.5l0.4-1.1l0.4-0.9l0-0.8
		l-0.2-0.9l-0.8-1.5l-0.3-0.4l0.2-0.4l-0.3-0.2l-0.2-1.1l-0.4-0.4l0.8-0.3l0.2-0.3L149,95l0.3-1l-0.4,0l-0.9,0.3l-0.7-0.3l-0.4-0.1
		v-0.5l0.1-0.5l-0.8-0.8l-0.2-0.7l0.5-1.3l0.5-1.1l-0.2-2l-0.4,0.1l-0.1-0.4l-0.4-0.9l-0.4-0.4l-0.4,0.1l-0.5,0.3l-0.3-0.2V85
		l1.6-0.4h0h0.1l2.4,0.1l1.5,0.5l0.9-0.7l0.1,1.2l1.2-1l1.2-0.2l0.9-0.9l1.4-0.9l1.6-0.3l2-0.3h3.4l1.2,0.2l1.2-0.4l0.2-0.1l0.2,0.1
		l0.2,0.4l1.1,0.3l2.4-0.5l0-0.5l-0.2-0.4l-0.1-0.5l-0.3-0.3l0-0.4l-0.3-0.2l0.1-0.4v-0.3l-0.2-0.1l0-0.2L168,79l0,0.2l-0.4,0
		l-0.3,0h-0.4l-0.2-0.1l-0.4,0l-0.2-0.1l0-0.2l0.6,0l0.3,0.1l1-0.5l0.3,0.1l0.3-0.2l0.4-0.2l0.2,0.1l0.1,0l0.2,0.1l0.3,0.1l0.3,0
		l0.4,0l0.2,0l0.2-0.1l0.2,0l0.2,0l0.2,0.2l0,0.5V79l0,0.1l0.1,0l0.2,0h0.2l0.1,0.1l0.1,0.2l0.1,0.5l0.2,0.3l0.3,0.1l0.2,0.2
		l0.2,0.1l0.2,0.3l0.1,0.1l0.2,0.1l0.2,0.1l0.2,0l0.1,0.1l0,0.2l0.1,0.2l0.2,0.2l0.3,0l0.3,0l0.2,0l0.1,0l0.1,0l0.2,0.1l0.2,0.1
		l0.2,0l0.3,0l0.3,0.1l0.8,0.4l0.3,0.1l0.1-0.1l0.1-0.1l0.1,0l0.1,0.1l0.2,0.2l0.1,0.3l0.1,0.1l0.2,0.1l0.2,0l0.1,0.2l0,0.1l0.1,0.1
		h0.1l0.1-0.2l0-0.1l0.1-0.1l0.1,0l0.2,0.1l0.4,0.2l0.3,0.2l0.2,0l0.2,0L181,84l0.2,0.1l0.2,0l0.2,0.1l0.1,0.1l0.1,0.1l0,0.2l0,0.1
		L182,85l0.3,0.1l0.2,0l0.2,0l0.2,0l0.1,0l0,0.1l-0.2,0.3l0,0.2l-0.1,0.1l-0.2,0.3l-0.2,0.4l-0.2,0.1l-0.2,0.3v0.2l-0.1,0.2
		l-0.1,0.1l0,0.2h0.2h0.5l0.3,0l0.5,0.1l0.6,0.2l0.8,0.4l0.3,0.1l0.4,0.1l0.6,0.2l0.4,0.1l0.4,0.1l0.3,0.1l0.3,0.2l0.3,0.1l0.6,0.3
		l0.5,0.3l0.4,0.2l0.4,0.2l0.5,0.3l0.2,0.1l0.2,0.3l0.6,0.5l0.5,0.4l0.7,0.3l0.7,0.4l0.5,0.3l0.5,0.3L194,94l0.1,0.2l0.4,0.5
		l0.4,0.3l0.3,0.3l0.2,0l0.3-0.1l0-0.1l-0.2-0.4l0.4-0.4l0.1-0.2l0.1-0.3l0.1-0.1l0.4-0.1l0.2,0.1l0.5,0.2l0.2,0.1l-0.1,0.1
		l-0.2,0.1l-0.3,0.1l-0.1,0.1l0,0.2l0.3,0l0.2,0.3l0,0.3l-0.1,0.2l0.1,0.2l0.1,0.2l0.2,0.1l0.5,0.2l0.5,0.3l0.1,0.3l-0.1,0.2
		l-0.2,0.1l-0.6,0l-0.6,0.6l-0.1,0.5l0.9,1l-0.1,0.6h0.5l0.2-0.2l0.3,0.2l0.5,0.1l0.5-0.2l0-0.4l0.3-0.3l0.3-0.2v-0.4l0.6-0.1l0.3,0
		l0.3-0.3l0.7-0.1l0.4-0.4l0.5-0.2L204,97l0.5,0l0.4-0.1l0.4,0.1l0.5,0.2l0.4,0l0.2,0.4l-0.1,0.4l-0.4,0.5l-0.1,0.7l0.3,0.4l0.3,0.2
		l-0.1,1.2l0,0.8l0.1,0.4l0.5,0.3l0,0.3l0.2,0.4l-0.1,0.5l0.2,0.5l0.2,0.5l0.2-0.2l0.5-0.1l0.3-0.1l0.4-0.2l0.7-0.4l0.8-0.7l0.8-0.4
		l0.9-0.1l0.6-0.3l0.7-0.2l0.5,0l0.4-0.3h0.4h0.6l0.1-0.2l0.5,0l0.3,0l0.6-0.3l0.3-0.3l0.3-0.1l0.5,0l0.4-0.3l0.4-0.5l0.3-0.7
		l0.1-0.2l0.1,0L219,99l0.3,0.3l0.3,0.3l0.1,0.2l0.2,0.2l0,0.2v0.3v0.2l0.3,0.4l0.3,0.1l0.4,0.8l0.1,0.5l0.1,0.3l0,0.6v0.2l-0.4,0.4
		l-0.1,0.2l0,0.1l0.1,0.3l0,0.3l0,0.3l0.1,0.2l0.1,0.4l0.2,0.4l0.3,0.3l0.7,0.2l0.2,0.2h0.2l0.2,0l0.4,0.7l0.5,0.3l0.7,0.3l0.8-0.2
		l0.4,0.3l1,0.4h0.3l0.3-0.1l0.6-0.4l0.3,0.2l0.2,0.4l0.3,0.6l0.1,0.6l0,0.5l-0.1,0.6l-0.1,0.4l-0.1,0.2l-0.3,0.3l-0.7,0.5l0,0.5
		l-0.1,0.6l0.1,0.3l0.2,0.5l0.3,0.5l0.3,0.3l0.4,0.2l0.4,0.1l1.4,0.2l0.4,0.1l0.4,0.2l0.3,0.4l0.2,0.2l0.2,0l0.2,0l0.2,0l0.5,0.1
		l0.5,0.4l0.4,0.2l0.6,0.5l0.1,0.1l0,0.8l0,0.3l0.1,0.1l0.9,0.4l0.3,0.2l0.2,0.1l0.1,0.2l1.1,1.2l0.3,0.1l0.4,0.1l1.2,0.2l1,0l0.6,0
		l0.8,0l0.1,0h0.4l0.1,0l0.3,0.1l0.1,0.1l0.2,0.2l0.2,0.4l0.1,0.1l0.7,0.3l0.4,0l0.5,0.1l0.6,0.2l0.6-0.2l0.1,0l0.1,0l0.1,0.1
		l0.1,0.2v0.1l-0.1,0.6l-0.1,0.4v0.3l-0.5,0.1l-0.2,0.3l-0.4,0.4l-0.3,0.5l-0.3,0.4l-0.3,0.5l-0.5,0.1l-0.6,0.8l-0.9,0.9l-1.6,0.4
		l-1.7-0.3l-1.3,0.1l-1.2-0.1l-1.9,0.2l-1.8,0.3l-1.8,1.4l-1.7,1.9l-1.7,1l-1.6,1.2l-0.3,0.4l-0.3,0.8L224,136l-0.4-0.1l-1,0.1
		l-0.9,0.8l-0.8-0.7l-0.4-0.2l-0.4-0.5l-0.6-0.2l-0.4,0l-0.3,0.4l-0.3,0.5l-0.6,0.2l-0.8,0.5l-1.1,0.4l-1,0.7l-1.4,0l-0.2,0.1
		l-0.8,0.5l-0.5,0l-0.2,0.1l-0.4,0.2h-1h-0.9l-0.9,0.4l-0.8,0.6l-1.3,0.7l-0.3,0.4l-1.1,0.1l-0.2,0.2l-0.2,0.3l-0.5,1.1l-0.3,0.2
		l-0.4,0.7l-0.1,0.2l-1,1.4l-0.2,0.4l-0.7,0.2l-1.2,1.2l-0.2,0.4l-0.6,0.3l-0.4,0.6l-0.7,0l-0.3-0.2l-0.5-0.4l-0.4-0.2l-0.3-0.2
		l-0.4-0.5l-0.1-0.3l-0.1-0.5l0-0.2l-0.2-0.1l-0.6-0.3l-0.1-0.3l-0.5,0.1l-0.1-0.1l-0.5-0.2l-0.3-1.3l0.1-0.1l0.3-0.3l0.1-0.2l0-0.4
		l0.1-0.3v-0.5l-0.1-0.2l-0.3-0.2l-0.1-0.2l0-0.2l-0.1-0.1l-0.2,0l0.1-0.3v-0.1l-0.1-0.3l0-0.1l0-0.1h0.2l0.1,0l0.1-0.1l0-0.3l0-0.1
		l0.3-0.3l0-0.3l0-0.4v-0.2l0-0.4l-0.3,0.1l-0.2,0l-0.4-0.1l-0.3-0.2l-0.3-0.2l-0.1,0h-0.2l-0.2,0l-0.1,0.1l-0.1,0l-0.1,0l-0.2,0
		l-0.3-0.1l-0.1,0h-0.2l-0.2,0.3l-0.1,0.1l-0.2,0.3l-0.1,0.1l-0.2,0.2l-0.2,0l-0.1,0l-0.2,0.2l-0.4,0.4l-0.1,0.1l-0.1,0.3l-0.1,0.2
		l-0.1,0H189l-0.3,0l-0.8,0.5l-0.1-0.1l-0.1-0.1l-0.2-0.2l-0.3,0l-0.4,0l-0.3-0.3l-0.1,0l-0.2,0l-0.3-0.2l-0.1,0h-0.1l-0.1,0l-0.1,0
		l-0.1-0.1l-0.1-0.1l-0.2-0.1l-0.4-0.6l0-0.5l-0.1-0.2l-0.2,0l-0.1-0.2l0-0.4l0-0.3l0.1-0.2l0.3-0.2l0.2-0.2l0-0.2l0-0.2l-0.2-0.2
		l-0.3,0.2l-0.3,0.2l-0.1,0l-0.3-0.1l-0.1,0l-0.2,0l-0.1,0.1l-0.3,0l-0.1-0.1l-0.1,0l-0.2,0h-0.1l-0.2-0.1l-0.2-0.1l-0.2-0.1l-0.1,0
		l-0.1,0l-0.1-0.1l0-0.1l0.1-0.3l0-0.1v-0.1l-0.1-0.1l-0.1-0.1l-0.1-0.3l-0.1,0l-0.1,0l-0.1,0l-0.1,0l0-0.2v-0.3l0-0.3l0-0.3
		l-0.1-0.3l0-0.2v-0.1l0.1-0.1l-0.1-0.2l-0.1-0.1l-0.2,0l-0.1,0.1l-0.2,0.2l-0.1,0l-0.1,0l-0.2,0.1l-0.2,0l-0.1-0.1l0-0.2l-0.1,0
		l-0.2-0.1l-0.3,0.1l-0.1,0l-0.2-0.1l0-0.1v-0.1l0,0l-0.2,0l-0.2,0l-0.3-0.1l-0.2-0.1l-0.3-0.1l-0.2-0.1l-0.1-0.2l0.1-0.1l0.1-0.1
		l-0.4-0.3l-0.1,0l-0.2,0l-0.4-0.1l-0.4-0.1l-0.2-0.1l-0.2,0h-0.2l-0.1,0l-0.1-0.1l-0.2-0.1l-0.1-0.1l-0.1-0.1l-0.1,0.1l-0.3,0.1
		l-0.3,0.1h-0.1l-0.2-0.1l-0.2,0l-0.2-0.1l-0.1,0l-0.4-0.2l-0.1-0.1l-0.2,0l-0.2-0.2l-0.1,0l-0.3,0.1h-0.3l-0.2-0.1l-0.2-0.1
		l-0.1-0.1l-0.1-0.2l0-0.2l-0.1-0.2l-0.1-0.1l-0.1,0l0-0.1l-0.1-0.1l-0.3,0l-0.1,0.1l-0.1,0.1h0l-0.1-0.1l-0.1-0.2l-0.1-0.2
		l-0.2-0.1l0-0.2l0-0.1l-0.1-0.1l-0.1-0.1l0-0.1H169l-0.1,0.1l-0.3,0.2l-0.2,0.1l-0.1,0l-0.1-0.1l-0.2-0.2l-0.1-0.4l0-0.2h-0.2
		l-0.1,0.1l-0.1,0.1l-0.1,0.1h0v0l0-0.1l-0.1-0.1l-0.1-0.1l0-0.1l-0.1-0.4l-0.2-0.2l-0.1-0.3l-0.1-0.1l-0.1-0.2l0,0l-0.2-0.2
		l-0.1-0.1l-0.2-0.1l-0.2-0.1l-0.4-0.4l-0.2-0.1l0,0h-0.1h-0.1l-0.1,0.1l-0.1,0.1l-0.1,0.1h-0.1l-0.2-0.1l-0.1,0l-0.1-0.1l-0.1,0
		l-2.5,0h-3.9l-1.4-0.5h-2.3l-1.5,0.1l-1.2,0.2l-0.8-2.5l-1.2-1.6l0.3-2.2l0.2-2l-0.7,0.1l-0.1-1.1l0.5-1.1l-1-1l0.1-1.3l-0.4-0.5
		l-1.1-0.7L147,108.5z"/>
	<path id="新埔鎮_1_" fill="none" stroke="#000000" d="M96.2,74.2l0.1-0.5l0-0.1l0.1-0.2l0.1-0.2l0.2-0.2l0.6-0.7l0.2-0.2
		l0.2-0.1l0.1,0l0.4,0.2l0.1,0.1l0.3,0.1l0.2,0l0.3,0l0.5,0l0.4,0.2l0.2,0.1h1l1.1,0.1l1,0l1.1-0.8l0.7-0.2l0.5-0.1l0.8,0.1l0.5,0.1
		l0.2,0.4l0.4,0.4l0.7,0.2l0.4,0.1l0.8,0.1l0.2,0.2l-0.2,0.3l0.1,0.1l0.5,0l0.9-0.1l0.6,0l0.1,0.1l0.4,0.5l0.5-1.3L114,72l0.7-0.2
		l0.2-0.3l0.4-0.6l0.5-0.3l0.3-0.3l1.4-0.9l0.2,0.9l0.2-0.1l0.5-0.3l0.2,0.1l0.1,0.1l0.4-0.2l0.1-0.1l0.3,0.1h0.1l0.2-0.3l0.1-0.1
		l0.2-0.2l0.2,0l0.2-0.1l0.3-0.3l0.3-0.1l0.3-0.1l0.1-0.1h0.2h0.3l0.3,0l0.4,0.1l0.4,0.1l0.2-0.3l0.3-0.3l0.2-0.1l0.2-0.2l0.3,0
		l0.3-0.3l1.7-0.9l0.2-0.1l0.3-0.1l0.5,0l0.4,0.1l0.3,0.1l0.3,0.1l0.2-0.1l0.1-0.1h0.1l0.1,0.1l0,0.1l-0.1,0.2l0,0.1l0,0.2l0.2-0.1
		l0.3-0.1l0.3,0.1l0.1-0.1l0.1,0l0.1,0l0.1,0l0.3-0.2l0.2-0.2l0.4-0.2l0.2,0.3l0.2,0.1h0.1h0.4l0.4-0.2l0.2-0.1l0.2-0.1l0.2-0.1
		l0.2-0.2l0.2-0.6l0.3-0.2l0.5,0l1,0.4l0.3,0.1l0.2,0l0.3,0h0.2l0.1-0.2l0.1-0.2l0.2-0.3v-0.4l0.3-0.6l0.1-0.3l0.1-0.1l0.1,0h0.4
		l0.3,0l0.5,0.1l0.5,0l0.6-0.3l0.4-0.1l0.6,0l0.6,0.1l0.3,0.1l0.5,0.1l0.3,0l0.2,0l0.1-0.1l0.2,0.1l0.2,0l0-0.1l-0.1-0.4l0-0.2
		l0-0.2l0.2-0.2l0.2,0l0.2,0.1l0.1,0.1l0.2,0.1l0.4,0.2l0.3,0.2l0.2,0l0.2-0.2l0-0.2v-0.4v-0.3l0.1-0.1l0.1-0.1h0.5l0.1-0.2l0.2-0.1
		l0.2-0.1l0.3-0.1l0.6,0.1h0.2l0.2,0h0.3l0.2,0.1l0.2,0.2l0.2,0.1l0.2,0.2l0.1,0.2l0,0.3l0,0.1l0.1,0.2l0.1,0.1l0.2,0l0.2-0.1l0-0.1
		l0.1-0.1l0-0.3l0.1-0.2l0.3-0.3l0.1-0.3l0-0.4l0-0.2l0-0.2l-0.1-0.1l-0.1,0l-0.2-0.4l-0.3-0.4l0.1-0.3l0.2-0.1l0.1-0.1l0.1-0.1
		l0.2,0.1l0.3-0.1l0.2-0.3l0.2-0.1l0.3,0l0.2,0.1l0.2,0l0.2,0l0.2,0l0.2,0.2l0.1,0.2l0.2,0.1l0.2,0.1h0.1h0.4l0.4-0.1l0.3,0l0.4,0
		l0.2-0.1l0.1-0.3l-0.1-0.2l0-0.2l0.1-0.2l0.1-0.1l0.1-0.4V58l0-0.3l0-0.2l0.1-0.2v-0.2l0-0.2l0.1-0.1l0.4,0h0.2l0.3,0.1l0.1,0.1
		h0.2l0.2,0l0.3,0l0.2-0.1l0.2-0.1l0.2-0.1l0.2,0l0.1,0l0.2,0l0.2,0l0.1-0.1l0.2-0.1l0.1,0l0.2,0.2l0.1,0.1l0.2,0.2l0.1,0.1l0.1,0.1
		l0.1,0l0.1,0l0.1-0.1l0.1-0.1l0.2,0l0.3,0l0.2,0l0.3,0.1h0.4l0.3,0.1l0.2,0.2l0.1,0.4l0.1,0l0.1,0.1l0.2,0l0.1,0l0.1,0l0.3,0.1
		l0-0.2v-0.1l0-0.2l0.1-0.2l0.3-0.2l0-0.1l0-0.1l0-0.1l0-0.2l0-0.1l0.1-0.1l0.3-0.3l0.2-0.2l0.5-0.2l0.1-0.1l0.1-0.1l0.1,0h0.2
		l0.1,0l0.2,0.1l0.1,0.1l0.2,0.1l0.2,0.2l0.1,0.1h0.1l0.2-0.2l0.2,0l0.3,0.1l0.2,0.1l0.1,0.1l0.1,0l0.1,0.1l0.1,0.1l0.1,0.1l0.1,0.1
		l0.1,0.1l0.1,0.1l0.1,0l0.1,0l0.1,0l0,0v-0.1v-0.1l0,0l0,0l0.1,0l0.3,0l0.3,0h0.4l0.1-0.1l0.2-0.1l0.2-0.1h0.2l0.3,0l0.1,0.3l0.1,0
		l0.2-0.1l0.1-0.1l0.1-0.1l0.1,0h0.1l0.3,0.2l0.2,0.1l0.1,0.1l0.3,0l0.4,0l0.2-0.1l0.3,0.1l0.1,0h0.1l0.1-0.1l0.1-0.1l0.1-0.1l0.1,0
		l0.1,0h0.1l0.1,0.2l0.1,0.1l0.1,0.1l0.1,0.1l0.1,0.4l0.1,0.1l0.1,0.3l0,0.1l0.4,0.5v0.4l0.1,0.2l0.1,0.3l0,0.3l0,0.2l0,0.2
		l-0.1,0.1h-0.1h-0.5l-0.2,0l-0.1,0l0,0.1l0.1,0.1l0.2,0.2l0.2,0.2l0.1,0.4l0,0.2l-0.1,0.1l0.1,0.1l0.2-0.1l0.1,0.1l0.1,0.2l0.1,0.3
		l0.1,0.2l0.1,0.2l0,0.1l0.1,0.3l0.1,0.4l0.1,0.4l0.1,0.2l0.1,0.5l0,0.2l0,0.3l0.1,0.1l0.1,0.1v0.1l0,0l0,0.1l0,0.1l0,0l0.1,0.1l0,0
		l0,0.1l0,0.1l0,0.2v0.2l0.1,0l0.1,0l0,0l0,0.1l0,0.1l0.1,0l0,0.1l-0.1,0l0,0.1l0,0.2l0.1,0.1l0,0.1l-0.1,0.1h-0.2l-0.2,0l-0.1,0.1
		l0,0.2l0.2,0.1l0.1,0.2l0.2,0.1l0,0.3l-0.2,0.1l0,0.1l0.1,0.1l0.1,0.1l0.1,0.1l-0.1,0.1l0,0.1l0.1,0.1l0.1,0l0.2,0l0,0.1l-0.1,0.1
		l-0.2,0l-0.2,0.2l-0.1,0.2l-0.1,0l0-0.1l0-0.1l-0.1-0.1l-0.1,0l-0.1,0.1l0,0.1l0.1,0.1l0,0.1v0.1l0.1,0.1l0.2,0.1l0,0.1l-0.1,0
		h-0.1L174,70l-0.2,0l0,0.1l-0.1,0.1l-0.3,0l-0.2,0.2l-0.2,0.1l0,0.1l0.2,0.1l0,0.1l-0.1,0l-0.2,0l-0.4,0.1l-0.2,0.1v0.2l0.2,0.1
		l0.1,0.1l0,0.1l-0.3,0.7l0,0.3l0.1,0h0.1l0.1,0.1l0,0.2l0,0.4l-0.2,0.1l-0.4,0.1l-0.1,0.1v0.1l0.1,0.1l0,0.2l-0.2,0.1v0.2l-0.1,0.4
		l-0.1,0.1h-0.1l-0.3,0.2l-0.3,0.2l-0.2,0.2l-0.1,0.2l0,0.2l0,0.4l0,0.1l-0.1,0.2l-0.1,0.2l0,0.2l-0.1,0.1l-0.2,0.2l-0.1,0.1
		l-0.3,0.1l-0.4,0.2l-0.4,0.2l-0.2,0.1l-0.1,0.2l-0.4,0.2l-0.3,0.2l-0.3-0.1l-1,0.5l-0.3-0.1l-0.6,0l0,0.2l0.2,0.1l0.4,0l0.2,0.1
		h0.4l0.3,0l0.4,0l0.1-0.1l0.1-0.1l0,0.2l0.2,0.1v0.3l-0.1,0.4l0.3,0.2l0,0.4l0.3,0.3l0.1,0.5l0.2,0.4l0,0.5l-2.4,0.5l-1.1-0.3
		l-0.2-0.4l-0.2-0.1l-0.2,0.1l-1.2,0.4l-1.2-0.2h-3.4l-2,0.3l-1.6,0.3l-1.4,0.9l-0.9,0.9l-1.2,0.2l-1.2,1l-0.1-1.2l-0.9,0.7
		l-1.5-0.5l-2.4-0.1h-0.1h0l-1.6,0.4v0.4l0.3,0.2l0.5-0.3l0.4-0.1l0.4,0.4l0.4,0.9l0.1,0.4l0.4-0.1l0.2,2l-0.5,1.1l-0.5,1.3l0.2,0.7
		l0.8,0.8l-0.1,0.5v0.5l0.4,0.1l0.7,0.3l0.9-0.3l0.4,0l-0.3,1l-0.5,0.1l-0.2,0.3l-0.8,0.3l0.4,0.4l0.2,1.1l0.3,0.2l-0.2,0.4l0.3,0.4
		l0.8,1.5l0.2,0.9l0,0.8l-0.4,0.9l-0.4,1.1l-0.6,1.5l-0.1,0.4l-0.2,0.9l-0.1,2l-0.7,0.4l-1.9,0.1l-1.6-0.4l-1-0.5l-1-0.5l-1.2,0.3
		l-1.2,0.4l-1.2,0.6l-0.1,0.3l-0.2,0.3l-0.5,0l-0.6-0.1l-1.1,0l-0.7,0.1h-0.4l-0.2-0.3l0.1-0.3l0.1-0.3l-0.6-0.2l-0.3-0.3l-0.2-0.8
		l-0.4-0.3l-0.8-0.2l0.1-1.2l0.3-0.9l0.2-0.6l-0.2-0.9l-0.7-0.3l-1.1,0.5l-0.8,0l-0.7-0.3l-0.3-0.4l-0.2-0.1l-0.3-0.8l0-1.2
		l-0.8-1.5l-0.4-0.8l-0.9-0.5l-1.3-0.4l-0.9-0.4l-0.4-0.5h-1.1l-1.3-0.7l-0.8-0.2v-0.2l-0.2-0.1l-0.2,0l-0.4-0.2v-0.2l-1.1-0.4
		l0.7-0.5l-1.3-0.5l-0.8-0.8l-1.2-0.8l-1.3-0.3l-0.7-0.1l-1.5-0.2l-0.6-0.1l-1.2-0.8v-1.6l-1.4-1.1l-1.1-0.3l-0.1,0l-1-0.7l-1-0.1
		h-0.7l-1-0.5l-0.5-0.5l-0.1,0.1l0-0.1l-0.2-0.4l-0.1-0.2l0-0.2l0-0.2l0-0.1V84V84v-0.1l0-0.2l0-0.2l0-0.2l0.2-0.3l0-0.2l-0.1-0.1
		l-0.1-0.2l0-0.3l0-0.2l0-0.2l0-0.4l0.1-0.4l0.1-0.1l0.2-0.8l0-0.2l-0.2-0.1l-0.7-0.3l-0.3-0.1l-0.5-0.1l-0.1-0.1l-0.2-0.2l-0.1-0.3
		l-0.1-0.4l-0.1-0.3l0-0.3l-0.1-0.7l-0.2-0.4l-0.2-0.5l-0.1-0.4l-0.2-0.4l-0.2-0.2l-0.8-0.3l-0.6-0.2l-0.6-0.2l-0.4,0.1l-0.6,0.1
		h-0.2l-0.3-0.1l-0.2-0.1L96.2,74.2z"/>
	<path id="湖口鄉_1_" fill="none" stroke="#000000" d="M85,65.9l0.1-0.1l0.1-0.1l0.4-0.5l0.3-0.4l0.1-0.1l0.3-0.4l0.1-0.1
		l0.1-0.1l0.2-0.1l0.2-0.2l0.5-0.4l0.6-0.5l0.1-0.2l0.2-0.2l0.3-0.3l0.1-0.1l0,0l-0.1,0l-0.1,0l-0.1,0l0,0l0-0.1l0.5-0.5l0.7-0.6
		l0.1-0.1l0.2-0.3l0.1-0.1l0.3-0.2l0.7-0.7l0.2-0.2l0.2-0.2l0.1-0.2l0.1-0.1l0.2-0.2l0.1,0h0l0.2-0.3v0l-0.1-0.1v0l0.1-0.1l0.1-0.1
		l0.3-0.3l0.2-0.1L93,57l0.3-0.1l0.2-0.1l0.1-0.1l0.1-0.1l0.1-0.1l0-0.1l0.7-0.6l0,0l0-0.1l-0.1,0h0l0-0.1v-0.1v-0.1l0-0.1l0.2,0
		l0.1,0l0,0.3l0,0.3l0,0.1l0,0l0,0h0l0.1-0.1l0.1-0.1l0-0.3l0.6-0.5l1.1-0.9l0-0.1l0-0.1l0.2-0.2l0.2-0.2l0-0.1l0.3-0.3l0.2-0.2
		l0.2-0.2l0.2,0.1h0.1l0.6-0.4l0.4-0.2l-0.1-0.1l-0.4-0.2l0-0.2l0.2-0.3l0.1-0.1l0.1-0.1l0.1-0.3l0.1-0.3l0-0.1l0-0.1l0.1-0.4l0-0.5
		l0.1-0.4l0.2-0.5l0.1-0.2V48l-0.1-0.3l0.2-0.3l0.1-0.3V47L99.8,47v-0.1l0.3-0.9l0.1,0l0.1-0.4v-0.2l0.1-0.2l0.1-0.1l0-0.3l0.8-1.2
		l0-0.2l-0.2-0.3l0-0.1l0.2-0.2l0-0.1v-0.2l0.1-0.4l0.1-0.3l0.2-0.7l0.4-1.2l0.4-1.6l0.5-0.4l0.1-0.3l0.2-0.6l0.1-0.2l0.2-0.2
		l0.2-1.3l0.3-0.3l0.7-0.2h0.2l0.4-0.2l0.4-0.1l0.3-0.4l0.2-0.5l0.2-0.5l0.3-0.6l0.3-0.5l0.3-0.5l0.8-1.5l0.4-0.4l0.3-0.4l0.2-0.4
		l0.1,0l0.1-0.1l0.1-0.2l0.3-0.6l1.4-2.1l0.4-0.6l0.3-0.5l0.2-0.5l0.4-1.2l0-0.3l0-0.1l0.3-1.2l0.2-0.3l0.4-0.3l0.2-0.1l0.1,0
		l0.2,0.2l0.2,0.2l0.2,0.1l0.2,0.1l0.1,0l0,0.1l0,0.2l0,0.3l0,0.1l0.1,0.3l0.2,0.2l0.2,0.1h0.2l0.1,0l0.1,0.1l0.1,0.2l0.1,0.1l0.2,0
		l0.4-0.1l0.1,0l0.2,0.1l0.4,0.4l0.1,0.1l0.1,0l0.1,0v0.1l0,0.2l0.1,0.1l0.3,0.1l0.3,0.1l0.1,0.1l0.2,0.2l0.1,0l0.2-0.1l0.2,0l0.2,0
		l0.2-0.1l0.1,0l0.1,0l0.3,0.1h0.1l0.2,0l0.1,0l0,0.3l0.1,0.4l0.1,0.3l-0.2,0.4l-0.1,0.4l-0.1,0.2l0,0.1l0,0.1l0.1,0.1l0.2,0.1
		l0.1,0.1l-0.2,0.4l-0.1,0.2l-0.2,0.4l-0.1,0.2l0.2,0.1l0.1,0.1l0.1,0.1l0.1,0.4l0.1,0.3l0.1,0.3l0.1,0.3l0.1,0.2v0.4l0.2,0.8
		l0.3,0.3l0,0.1l0.1,0.1l0.1,0.2l0.1,0.5l0,0.2l-0.1,0.1l0,0.2l0,0.6l0,0.3l-0.2,0.3l0,0.1l0.1,0l0.2,0l0.1,0.1l0,0.1l-0.2,0.4
		l0,0.5l0,0.3l-0.2,0.3l-0.1,0.6l-0.1,0.1l-0.1,0.3l-0.1,0.2l-0.1,0.3l-0.2,0.4l-0.1,0.3V38l0,0.4l-0.1,0.7l0.1,0.5l0.1,0.3l0.3,0.7
		v0.2l0,0.3l-0.2,0.2l-0.4,0.2l-0.2,0.3l0,0.2l0.3,0.2l0.3,0.2l0.5,0.2l0.2,0.1l0.2,0.4l0.2,0.1l0.3,0l0.2-0.1l0.4-0.4l0.1,0
		l0.3,0.1l0.4,0.2l0.5,0.2l0.7,0.2l0.3,0l0.2,0l0.1,0.1l0.3,0l0.1-0.1l0.2,0l0.6,0.3l0.1,0.1l0.4,0.2l0.2,0.2l0.2,0.5l0,0.5l0,0.4
		l0.1,0l0.3,0l0.2,0.1l0.7-0.2l0.2,0l0.2,0l0.3,0.1l0.4,0.1l0.3,0l0.3,0.3l0.2,0.1l0.3,0h0.5l0.3-0.1l0.3,0.1l0.3,0l0.3,0.1l0.2,0
		l0.5-0.3h0.3l0.2-0.1l0.2,0.1l0.3,0.1l0.4,0.4l0.3,0.2l0.3,0l0.2,0.2l0.1,0.1l0.2,0.4l0.4,0.1l0.3,0.1l0.6,0.3l0.3,0.1l0.3,0.2
		l0.4,0.5l0.1,0.3l0.2,0.3l0.5,0l0.5-0.1h0.4l0.4-0.1l0.5-0.1l0.4-0.1l0.4-0.1l0.5-0.1l1.3-0.3l0.5-0.2l0.8-0.4l0.3-0.1l0.4,0
		l0.5-0.1l1.1-0.5l0.3-0.2l0.3-0.2l0.2,0l0.1,0.2l0.2,0.3l0.2,0.3l0,0.2l-0.1,0.1l0,0.2l0.1,0.3l0.1,0.1l0,0.3l0.1,0.2l0.1,0
		l0.1,0.3l-0.1,0.1l0.1,0.3V50l0,0.2l0,0.2l0.1,0.1l-0.1,0.4l-0.2,0.3l-0.1,0.3l0,0.3l-0.1,0.2l-0.2,0.3l-0.2,0.1l-0.1,0.1l0,0.2
		l0.1,0.1l-0.3,0.2l-0.3,0.2l-0.1,0.1l-0.1,0.2l0,0.1l0.1,0l0.1,0l0.2,0l0.6,0.4l0.4,0.2l0.2,0.2l0.4,0.3l0.4,0.3l0.4,0.4l0.2,0.2
		l0,0.1l0.3,0.1l0.4-0.1l0.2,0l0.2,0.2l0.2,0.1l0.1,0.1h0.3l0.3,0l0.9,0.4l0.4,0l0.2,0.1l0.3,0.1h0.2h0.2l0.2,0.1l0.1,0.1l-0.1,0.1
		l0,0.2v0.2l-0.1,0.2l0,0.2l0,0.3v0.3l-0.1,0.4l-0.1,0.1l-0.1,0.2l0,0.2l0.1,0.2l-0.1,0.3l-0.2,0.1l-0.4,0l-0.3,0l-0.4,0.1h-0.4
		h-0.1l-0.2-0.1l-0.2-0.1l-0.1-0.2l-0.2-0.2l-0.2,0l-0.2,0l-0.2,0l-0.2-0.1l-0.3,0l-0.2,0.1l-0.2,0.3l-0.3,0.1l-0.2-0.1l-0.1,0.1
		l-0.1,0.1l-0.2,0.1l-0.1,0.3l0.3,0.4l0.2,0.4l0.1,0l0.1,0.1l0,0.2l0,0.2l0,0.4l-0.1,0.3l-0.3,0.3l-0.1,0.2l0,0.3l-0.1,0.1l0,0.1
		l-0.2,0.1l-0.2,0l-0.1-0.1l-0.1-0.2l0-0.1l0-0.3l-0.1-0.2l-0.2-0.2l-0.2-0.1l-0.2-0.2l-0.2-0.1h-0.3l-0.2,0H147l-0.6-0.1l-0.3,0.1
		l-0.2,0.1l-0.2,0.1l-0.1,0.2H145l-0.1,0.1l-0.1,0.1v0.3v0.4l0,0.2l-0.2,0.2l-0.2,0l-0.3-0.2l-0.4-0.2l-0.2-0.1l-0.1-0.1l-0.2-0.1
		l-0.2,0l-0.2,0.2l0,0.2l0,0.2l0.1,0.4l0,0.1l-0.2,0l-0.2-0.1l-0.1,0.1l-0.2,0l-0.3,0l-0.5-0.1l-0.3-0.1l-0.6-0.1l-0.6,0l-0.4,0.1
		l-0.6,0.3l-0.5,0l-0.5-0.1l-0.3,0h-0.4l-0.1,0l-0.1,0.1l-0.1,0.3l-0.3,0.6v0.4l-0.2,0.3l-0.1,0.2l-0.1,0.2h-0.2l-0.3,0l-0.2,0
		l-0.3-0.1l-1-0.4l-0.5,0l-0.3,0.2l-0.2,0.6l-0.2,0.2l-0.2,0.1l-0.2,0.1l-0.2,0.1l-0.4,0.2h-0.4h-0.1l-0.2-0.1l-0.2-0.3l-0.4,0.2
		l-0.2,0.2l-0.3,0.2l-0.1,0l-0.1,0l-0.1,0l-0.1,0.1l-0.3-0.1l-0.3,0.1l-0.2,0.1l0-0.2l0-0.1l0.1-0.2l0-0.1l-0.1-0.1h-0.1l-0.1,0.1
		l-0.2,0.1l-0.3-0.1l-0.3-0.1l-0.4-0.1l-0.5,0l-0.3,0.1l-0.2,0.1l-1.7,0.9l-0.3,0.3l-0.3,0l-0.2,0.2l-0.2,0.1l-0.3,0.3l-0.2,0.3
		l-0.4-0.1l-0.4-0.1l-0.3,0h-0.3h-0.2l-0.1,0.1l-0.3,0.1L121,69l-0.3,0.3l-0.2,0.1l-0.2,0l-0.2,0.2l-0.1,0.1l-0.2,0.3h-0.1l-0.3-0.1
		l-0.1,0.1l-0.4,0.2l-0.1-0.1l-0.2-0.1l-0.5,0.3l-0.2,0.1l-0.2-0.9l-1.4,0.9l-0.3,0.3l-0.5,0.3l-0.4,0.6l-0.2,0.3l-0.7,0.2l-1.2,1.2
		l-0.5,1.3l-0.4-0.5L112,74l-0.6,0l-0.9,0.1l-0.5,0l-0.1-0.1l0.2-0.3l-0.2-0.2l-0.8-0.1l-0.4-0.1l-0.7-0.2l-0.4-0.4l-0.2-0.4
		l-0.5-0.1l-0.8-0.1l-0.5,0.1l-0.7,0.2l-1.1,0.8l-1,0l-1.1-0.1h-1l-0.2-0.1l-0.4-0.2l-0.5,0l-0.3,0l-0.2,0l-0.3-0.1l-0.1-0.1
		l-0.4-0.2l-0.1,0l-0.2,0.1l-0.2,0.2L97,73.3l-0.2,0.2l-0.1,0.2l-0.1,0.2l0,0.1l-0.1,0.5l-0.1-0.1l0-0.1l-0.1-0.3l-0.1-0.3L96,73.2
		l0-0.4l-0.3-0.3l-0.6-0.3l-0.4-0.2L94.3,72l-1-0.2l-0.5-0.2l-0.9-0.4l-1.5-0.7l-0.2-0.1l-1.1-0.7l-0.1-0.1L87.8,69L87,68.5l-1-0.6
		l-0.4-0.3l-0.2-0.3l-0.1-0.4l-0.1-0.4L85,65.9z"/>
	<path id="新豐鄉_1_" fill="none" stroke="#000000" d="M63,56.2L63,56.1l0-0.5l0.2-0.5l0.2-0.3l0.3-0.6l0.2-0.1l0.1-0.3l-0.3-0.1
		l0.4-0.9l0.3-0.7l0.3-0.5l0.1-0.3l0.1-0.2L65,51l0.1-0.3l0.1-0.3l0.2-0.3l0.2-0.3l0.2-0.1l0.2-0.2l0.1,0l0.3-0.3l0.4-0.3l0.2-0.3
		l0.2-0.3l0.2-0.5l0.2-0.3l0.2-0.2l0.2-0.2l0.1-0.2l0.2-0.2l0.1-0.1l0.1-0.2l0.2-0.2l2.3-3.4l0-0.5v-0.1l0.4-0.8l0.5-0.7l0.3-0.7
		l0.3-0.4l0-0.2l0-0.2l-0.3-0.1l-0.3-0.1l-0.4,0.1l-0.3,0L71,39.2l0-0.4l0-0.2l0.1-0.2l0.1-0.2l0.2-0.7l0.1-0.3l0.1-0.4l0.1-0.3
		l0.2-0.8l0.2-0.7l0-0.2l0.3-0.7l0.3-0.4l0.5-0.6l0.1-0.2l0.1-0.2l0.2-0.3l0.2-0.3l0.2-0.4l0.1-0.4l0.2-0.3l0.1-0.7v-0.4l-1-0.4
		l0.1-0.3l0-0.1l0.1-0.3l1.3,0.2v-0.1l0.7-0.6l0.7-0.4l0.6-0.4l0.1-0.1l0.2-0.1l0.1-0.1l0.3-0.2l0.2-0.1l0.1-0.1l0.2-0.2l0.2-0.3
		l0.2-0.3l0.2-0.4l0.2-0.3l0.2-0.3l0.2-0.2l0.2-0.2l0.3-0.3l0.2-0.1l0.2-0.1l0.2-0.1l0.5-0.4l0.6-0.3l0.3-0.2l-0.2-0.6l-0.8,0
		l0.6-0.6l0.2,0.1l0.1,0l0.2,0l0.2,0.1l0.2,0.2l0.4,0.4l0.1,0.2l0.2,0.2l0.2,0.4l0.3,0.4l0.3,0.4l0.2,0.2l0.6,0.2h0.4l0.2-0.1
		l0.1-0.1l-0.1-0.4l0-0.5l0.1-0.5l0.2-0.4l0.1-0.2l0.3-0.3l0.2-0.1l0.5-0.1l0.3,0l0.5-0.3l0.2-0.2l0.2-0.2l0.2-0.1l0.3-0.1l0.5,0.2
		l0.3,0.2l0.3,0.1l0.3,0l0.3,0.1l0.3,0l0.4,0l0.2-0.1l0.1-0.2l0.2-1l0.1-0.2l0.1-0.2l0.2-0.2l0.2-0.2l0.3-0.4l0.4-0.4l0.4-0.5L93,18
		l0.2-0.1l0.2,0.2l0.1,0.2l0.1,0.4l0.2,0.1l0.3,0.2l0.1,0.1l0.2,0h0.4l0.4-0.3l0.2,0l0.2,0l0.2,0.1l0.1,0.2l0,0.5l0.1,0.2l0.1,0.1
		l0.3,0.1h0.3l0.3,0.1l0.2,0.2l0.1,0l0.1,0.1l0.2,0l0.3,0l0.4-0.1h0.1l0.1,0l0.2,0.2l0.1,0.2l0.1,0.2l0.1,0.1l0.1,0.1l0.2,0l0.2-0.1
		l0.1-0.1L100,21l0.2-0.1l0.3-0.1l0.4,0l0.9,0.2l0.2,0l0.5,0.2l0.2,0.1h0.1l0.1,0l0.1-0.2l0-0.3l0.1-0.5l0.6-0.7l0.3-0.3l0.2-0.3
		l0.2-0.4l0.1-0.1h0.2l0.2,0.1l0.2,0.2l0.1,0.4l0.1,0.1l0.1,0l0.1-0.1l0.2-0.1l0.1,0l0.2,0l0.2,0l0.2,0l0.3-0.1l0.4,0l0.3-0.1
		l0.2-0.1l0.2-0.1l0.2-0.1l0.2-0.1l0.2-0.2l0.2-0.1l0.4-0.1l0.2,0h0.1l0.2,0.1l0.1,0.1v0.2l0,0.3l0.1,0.3l0.1,0.1l0.2,0.2l0.2,0.2
		l0.1,0.1l0.1,0.2l0.1,0.2l0.2,0l0.2-0.1l0.4-0.3l0.1-0.1h0.1l0.2,0l0.2,0.1l0.6,0.2h0.1l0.5,0h0.2l0.2,0l0,0l-0.1,0.2l0,0.1l0,0.2
		l0,0.1l-0.1,0l-0.2,0.1l-0.4,0.3l-0.2,0.3l-0.3,1.2l0,0.1l0,0.3l-0.4,1.2l-0.2,0.5l-0.3,0.5l-0.4,0.6l-1.4,2.1l-0.3,0.6l-0.1,0.2
		l-0.1,0.1l-0.1,0l-0.2,0.4l-0.3,0.4l-0.4,0.4l-0.8,1.5l-0.3,0.5l-0.3,0.5l-0.3,0.6l-0.2,0.5l-0.2,0.5l-0.3,0.4l-0.4,0.1l-0.4,0.2
		h-0.2l-0.7,0.2l-0.3,0.3l-0.2,1.3l-0.2,0.2l-0.1,0.2l-0.2,0.6l-0.1,0.3l-0.5,0.4l-0.4,1.6L102,41l-0.2,0.7l-0.1,0.3l-0.1,0.4v0.2
		l0,0.1l-0.2,0.2l0,0.1l0.2,0.3l0,0.2l-0.8,1.2l0,0.3l-0.1,0.1l-0.1,0.2v0.2l-0.1,0.4l-0.1,0l-0.3,0.9v0.1l0.2,0.1v0.1l-0.1,0.3
		l-0.2,0.3l0.1,0.3v0.2l-0.1,0.2l-0.2,0.5l-0.1,0.4l0,0.5l-0.1,0.4l0,0.1l0,0.1l-0.1,0.3l-0.1,0.3L99,51.1l-0.1,0.1l-0.2,0.3l0,0.2
		l0.4,0.2l0.1,0.1l-0.4,0.2l-0.6,0.4h-0.1L98,52.5l-0.3,0.2l-0.2,0.2l-0.3,0.3l0,0.1L97,53.4l-0.2,0.2l0,0.1l0,0.1l-1.1,0.9L95,55.2
		l0,0.3l-0.1,0.1l-0.1,0.1h0l0,0l0,0l0-0.1l0-0.3l0-0.3l-0.1,0l-0.2,0l0,0.1v0.1v0.1l0,0.1h0l0.1,0l0,0.1l0,0l-0.7,0.6l0,0.1
		l-0.1,0.1l-0.1,0.1l-0.1,0.1l-0.2,0.1l-0.3,0.1l-0.2,0.2l-0.2,0.1l-0.3,0.3l-0.1,0.1l-0.1,0.1v0l0.1,0.1v0l-0.2,0.3h0l-0.1,0
		l-0.2,0.2l-0.1,0.1l-0.1,0.2l-0.2,0.2l-0.2,0.2L90.2,60l-0.3,0.2l-0.1,0.1l-0.2,0.3l-0.1,0.1l-0.7,0.6l-0.5,0.5l0,0.1l0,0l0.1,0
		l0.1,0l0.1,0l0,0l-0.1,0.1l-0.3,0.3L88,62.6l-0.1,0.2l-0.6,0.5l-0.5,0.4l-0.2,0.2l-0.2,0.1l-0.1,0.1l-0.1,0.1L86,64.7l-0.1,0.1
		l-0.3,0.4l-0.4,0.5l-0.1,0.1L85,65.9l-0.3,0.3l-0.2,0.3l-0.2,0.2l0,0.1L84.2,67l-0.1,0.3l-0.1,0.1l-0.1,0.1l-0.1,0.1l0,0l-0.1,0.1
		l-0.1,0l-0.2-0.1l-0.1,0l0,0L83,67.5l-0.2-0.1l-0.2,0l-0.3-0.1l-0.2-0.1L82,67.1l-0.2,0L81.7,67l0-0.1l0-0.1l0-0.1l0,0h-0.1
		l-0.2,0.1l-0.1,0.1l-0.1,0.1L80.9,67l-0.2,0.1l-0.1,0.1l0,0v0.1v0.2v0.1l-0.1,0.2l-0.1,0.1l-0.1,0L80,67.8l-0.1-0.2l-0.1-0.4l0-0.1
		l-0.1-0.1l-0.1-0.1l-0.1-0.1l0,0l-0.2-0.2l-0.2-0.2L78.6,66l-0.1-0.1l-0.2-0.2l-0.2-0.2l-0.1,0v-0.3l0-0.2l0-0.3l0-0.3l-0.1-0.3
		l0-0.1L77.7,64l-0.1-0.1l-0.1-0.1l-0.1-0.1l-0.2,0l-0.3-0.2l-0.3-0.2l-0.1-0.1l0,0l0-0.1v-0.2l0-0.2l0-0.2l-0.1-0.1l-0.1-0.1
		l-0.1-0.1l-0.1,0l-0.1,0L75.7,62l0,0l-0.1-0.2l0.1-0.1l0,0l-0.1-0.3l-0.2-0.2l-0.1-0.2l-0.1-0.1l-0.1-0.1l-0.2,0l-0.2,0.2l-0.2-0.1
		l-0.1,0l-0.1,0l-0.1,0l-0.3-0.2l-0.2-0.2l0-0.2l0-0.1L73.5,60l-0.2,0l-0.1,0l-0.2,0l-0.2,0l-0.1,0.1l-0.1,0l-0.1,0.4l-0.1,0l-0.1,0
		l0-0.2l0-0.3l0-0.3l-0.1-0.2l-0.3-0.3l-0.3-0.4l-0.7-0.7l-0.4-0.4l-0.2-0.2L70,57.4l-0.1-0.1l-0.2,0l-0.1-0.1L69.3,57l-0.2-0.1
		h-0.3l-0.2,0l-0.1,0l-0.1,0l-0.4,0l-0.4-0.1l-0.3-0.2l-0.7,0h-0.3h-0.3h-0.1l-0.1,0l-0.2-0.1l-0.2-0.2l0-0.1l-0.2,0H65l-0.3-0.1
		l-0.3-0.1l-0.2,0h-0.2h-0.1l-0.6,0.1H63z"/>
</g>
<g id="新竹市">
	<path id="新竹市東區" fill="none" stroke="#000000" d="M65.5,113.1l0.3-0.1l0.6-0.1l0.8-0.1l0.2,0l0.3-0.4L68,112l0.3-0.1
		l1-0.4l-0.1-0.2l-0.1-0.8l0-0.1l0-0.1h0.1l0.3,0l0.2,0l0.1-0.1l0-0.1l0-0.1l0-0.2l0-0.1l0-0.1l-0.1,0h0l0,0l0-0.1l0-0.1l0-0.1
		l0-0.1l0,0l-0.1-0.1l-0.1-0.1l-0.1,0l-0.1,0l-0.1-0.1l0-0.1l-0.1,0.1l-0.1,0l-0.1,0.2l0,0l-0.1-0.2l-0.1-0.2l-0.1-0.2l-0.2-0.3
		l-0.1-0.1l-0.2-0.2l-0.3-0.2l-0.1-0.1l-0.3-0.1l-0.1-0.1l-0.1-0.3l-0.1-0.1v-0.5v-0.1l0.5,0l0.6,0l0.5,0l0.4,0l0.1,0h0l0.4-0.1
		l0.1,0l0.2-0.1l0.1-0.1l0,0l-0.1-0.1v-0.1l0-0.1l0-0.1l0,0l-0.1-0.1l-0.1-0.1l-0.1-0.1l-0.1-0.1l-0.1,0.1l-0.1-0.2l0.4-0.3
		l-0.3-0.3l-0.2-0.2l0.3-0.2l0.3-0.2l0.4-0.6l-0.1-0.1l0,0l-0.3-0.2l-0.1,0l0.1,0l0.1,0l0.2-0.1l0.1-0.1l0.2-0.1l0.1,0l0.5-0.4
		l0.2-0.1l0.1-0.1l0.1-0.5l2-1.5l0,0l-0.8-1.1l-0.2,0.1l0-0.2v-0.1l0.1-0.1l0-0.1l0-0.3l0-0.3l0-0.1l0.3-0.2L72,96.4l0.4-0.6l0.4,0
		l0.2-0.3l0-0.1l-0.1-0.2L73,94.9l0-0.3l0.1,0l0.2-0.1h0.1l0,0.1v0.1l0,0v0.1l0.4,0l0.2,0l0.1,0l0.8,0.2l0.2,0l0.1,0l0.1-0.1
		l0.1-0.1l0.1,0l0.2,0l0.1-0.1l0.1,0l0.1-0.1l0.5,0l0.2,0l0.2,0l0.2,0l0.1,0.1l0,0l0.2,0h0l0.1-0.1l0.3,0.3l0.1-0.1l0.4,0.4l0.1-0.1
		l0.2,0.1l0.2,0.1v-0.1l0-0.1l-0.1-0.2l0-0.1l0-0.2l-0.3-0.3l0.1-0.1l-0.2-0.3l-0.2-0.2l0.2-0.2l-0.1,0l0,0l0-0.1l0,0l0-0.1v-0.1
		l0,0l-0.1-0.1L78,92.7l0,0l0,0l-0.1-0.2l-0.1-0.3l0-0.1l0-0.1v-0.1v-0.1v0l-0.1-0.1l-0.1-0.1l0,0l0-0.1l0-0.1l0-0.2l0-0.1l0-0.1
		l0.1-0.2l0-0.1v-0.3v-0.2l-0.1-0.1l0.2-0.4l0.6,0.2l1.2,0.4l0.3,0.1l2.1,0.6l0.1-0.1l0.1-0.1l0.1,0l0.2-0.1l0,0l0.3-0.2l0.5-0.2
		l0.3-0.1l0.1-0.1l0.1-0.2l0.2-0.1l0.5,0.2l0.2,0.1l0.2,0.1l1.8,0.1l0.6,0.2l1.1,0.3l0.5,0.1l0.2,0.1l0.7,0.6l0.2,0.5l0.1,0l1.2,0.5
		l0.2,0.1l0.7,0.8l0.8,0.8l0.4,0.2l1.8,2.1l0.1,0.2l1.6,2.1l0.1,0.1l1,0.3l0.6,0.4l0.1,0.3l0.1,0.2l0.2,0.9l0.2,0.2l0.4,0.4l0.4,0.5
		l0.3,0.9l0.8,0.5l0.5,0.3l0.5,0.3l0.5,0.4l0,0.1l-0.4,0l-0.9,0l-0.4,0.1l-0.8-0.1l-0.2,0l0,0.1l0.1,0.1l0.2,0.1l0.1,0.1l0.3,0.4
		l0.2,0.3l0.1,0.1l0.2,0.1l0.2,0.1l0.1,0.1v0.1l-0.1,0.1l-0.1,0.1l-0.3,0.1l-0.3,0.1l-0.2,0.1l-0.1,0.1l-0.1,0.1l-0.1,0.1v0.1l0,0.1
		l0.4,1l0.3,0.7l0,0l0,0.2l0,0.1h0.1l0.2-0.1l0.1,0l0.1,0l0.1,0l0.1,0.1l0.3,0.3l0.3,0.4l0.1,0.2v0.1l0,0.2l0,0.2v0.2l0,0.2l0.1,0.2
		l0.1,0.2l0.1,0.1l0.1,0.2l0,0.1l0,0l-0.1,0h-0.3l-0.3,0.1l-0.1,0l-0.1,0.1l-0.1,0.2l0,0.1l0,0.1l0.2,0.1l0.8,0.3l0.3,0.2l0.4,0.3
		l0.6,0.4l0.1,0.1l-0.1,0.2l-0.1,0.4l-0.1,0.3l-0.3,0.3l-0.2,0.2l-0.1,0.1l-0.1,0h-0.1l-0.1-0.1l-0.1,0h0h0l0,0v0.1l0,0.1l0,0.1
		l0.2,0.2l0.1,0.1l0,0.1l0.1,0.2l0,0l0.1,0l0.1,0h0.1l0.3,0l0.1-0.1l0.1,0l0.1,0l0,0.1l0,0.2l-0.1,0.2l-0.1,0.3v0.2v0.1l0.1,0.1
		l0.2,0.1l0.3,0.1h0.2l0.2-0.1l0.1-0.1l0,0l0,0.1l0,0.1l0,0.2l-0.1,0.2l-0.2,0.5l-0.7,1.4l0,0.1l0,0.1l1.6,0.5v0.4l-0.3,0l-0.5,0
		l-0.1,0.1v0.2l0,0.3l-0.1,0.1l0,0.2l0.2,0.1l0.1,0.2l0.1,0.1l0,0.7l0,0.1l0.1,0.1l0.4,0.2l0.5,0.4l0.4,0.1l0.5,0.2l0.2,0.4
		l-0.4,0.2l-0.2,0.4l-0.1,0.5l-0.3,0.3l-0.6,0.2l-0.4,0.2l-0.4,0.4l-0.2,0.4l-0.2,0.5l-0.1,0.4l-0.1,0.2L103,129l-0.1,0h-0.1l-0.1,0
		l-0.1,0l-0.1,0l-0.3,0.2l-2.7,0.2l-0.1-1.1l-0.4-1.4l0-1.6l0-0.2l-0.3,0.1l-0.3-0.2l-0.1-0.4l-0.1-0.4l-0.8-1l-0.7-1.2l-0.5-0.8
		l-1-0.7l-1.2-0.7l-2.7-1.2l-1.6-1.1l-1-0.7l-0.9-0.1l-0.5-0.4l-2-0.8l-1.2,1.9l-0.2,0.2l-0.1,0.1l-0.4,0l-0.7-0.3l-0.4,0l-0.9,0.3
		l-0.1,0.5l-0.4,0.1l0.1,0.1l0,0l0.2,0.3l-0.3,0.4l-0.2,0.1l0,0.1v0.1l0,0l-0.5,0.6l0,0.1l0.3,0.1l0.7,0l0.4,0.1l0.3,0l0,0.7l0,0
		l0.5,1.4l0.4,0.4l0.1,0.4v0.2l-0.6-0.3l-0.4-0.1l-0.3,0l-0.4,0l-0.5,0l-0.3,0.1l-0.3,0.3l-0.1,0.1l-0.5,0l-0.2,0l-0.6,0.8l-0.1,1.1
		l-0.5,0.7l-0.5-0.2l-0.9,0.3l0-0.3l-0.2-0.5l-0.3,0.1l-0.5,0.1l-0.1-0.2l0-0.4l-0.2-0.2l-0.4,0.3l-0.1,0.3l-0.1,0.1l-0.1,0L74,125
		l-0.2,0l-0.1,0l-0.1-0.2l-0.1-0.4l0-0.1l-0.1,0.1l-0.2,0.2l-0.3,0.1l-0.4,0.6l-0.2,0.3l-0.1,0.8l-0.2,0.3l-0.1,0.5l-0.3,0.2v0.2
		l0,0.3l0,0.4l0,0.6l0,0l-0.1,0l0,0.1v0.1l0.1,0.2l0,0.3l0,0.3l-0.5,0.4l-0.1,0l-0.3-0.3l-0.6,0.6l-0.2,0.1l-0.2-0.2l-0.1,0
		l-0.4,0.3l-0.1,0.1v0.1l0,0.1l-0.4,1.3l-0.1,0.6h-0.3l-0.5-0.3l-0.1-0.1l-0.2-0.3l-0.1-0.3l-0.1-0.2l0-0.1l0.1-0.2l0.2-0.4
		l-0.1-0.6l-0.3-0.2l-0.4-0.1l-0.1-0.1v-0.3l0.3-0.6l0.4-1l0.2-0.3l0.1-0.2l0.2-0.1l0.3-0.1l0.2-0.1l0.2-0.2l0.1-0.3l-0.1-0.2l0-0.3
		l0.2-0.2l0.2-0.1l0.1-0.2l0.1-0.2l0.3-0.1l0.2-0.5l0.1-0.3l-0.1-0.2l0-0.2l0-0.4l-0.1-0.2l0-0.3v-0.1l-0.2,0.1l-0.2,0.1l-0.2,0.1
		l-0.2,0.1l-0.3,0l-0.1-0.1l-0.1-0.2l0-0.2l0.1-0.2l0.1-0.1l0.1-0.2l-0.1-0.2l-0.1-0.3l0-0.2l0-0.3l0-0.3l0-0.2l0-0.1l0-0.3v-0.2
		l0-0.1v-0.2l-0.1-0.3l-0.1-0.3l0.2,0v-0.1h0.2v-0.1l0-0.1l0-0.1l-0.1,0h-0.2l-0.1-0.2l0-0.2l0-0.3v-0.1l0.1-0.2l0.3-0.3l0.1-0.1
		l-0.1-0.4l0-0.2l-0.3-0.2l-0.4-0.3l-0.1,0l-0.1-0.1l0-0.2l0-0.3l-0.1-0.2l-0.1-0.2v-0.2l-0.1-0.4l-0.2-0.4l-0.1-0.3l-0.1-0.3
		l-0.1-0.2l-0.2-0.1l-0.5-0.2L65.5,113.1z"/>
	<path id="新竹市北區" fill="none" stroke="#000000" d="M41.6,88.1l0.2-0.3l-0.1-0.3l0-0.1l1.2-1.8l0.1,0l0.2,0.1l0.1-0.1
		l-0.2-0.2l0-0.1l0.8-1.3l0.2-0.4l0.2-0.4l0.2-0.3l0.3-0.3l0.1-0.2l0.2-0.4l0.1,0l0.2-0.7l0.1-0.5l0-0.2l0-0.1l-0.3-0.3l0.2-0.6
		l0.1-0.4l0.2-0.3l0.1-0.7l0-0.5l-0.5-0.3l0.1,0l0.1-0.2l0.2-0.5l0,0l0.1-0.1l0-0.1l0.2-0.5h0l0,0l0.1,0l0.3-0.3l-0.1,0l0,0l0,0
		l1.6-1.7l0.4-0.4l2.4,0.2l1.2-1.3l2.6,1.6l2.9,0.9l1,1.8l0.6,1.4l0.1,0.2l0.5,1.6l0.9,0.7l0.7,0.4l2.9,2.2l0.9,0.6l1.6,0.8l1,0.2
		l1.1,0.2l1.7,0l0.8-0.1l0.9,0.2l1.8,0.8l1.1,0.3l0.8,0.3l0.9,0.2l0.4,0l0.4,0l0.7-0.2l0.4-0.3l0.4-0.4l0.3,0.1h0.2l0.4,0.1l0.5,0.2
		l0.8,0.6l0.4,0.5l0.2,0.4l0.2,0.6l0.3,0.8l0.1,0.1l1.7,0.8l-0.2,0.1L83.7,90l-0.1,0.1l-0.3,0.1l-0.5,0.2l-0.3,0.2l0,0l-0.2,0.1
		l-0.1,0l-0.1,0.1L82,90.9l-2.1-0.6l-0.3-0.1l-1.2-0.4l-0.6-0.2L77.6,90l0.1,0.1v0.2v0.3l0,0.1l-0.1,0.2l0,0.1l0,0.1l0,0.2l0,0.1
		l0,0.1l0,0l0.1,0.1l0.1,0.1v0v0.1v0.1l0,0.1l0,0.1l0.1,0.3l0.1,0.2l0,0l0,0l0.2,0.1l0.1,0.1l0,0v0.1l0,0.1l0,0l0,0.1l0,0l0.1,0
		l-0.2,0.2l0.2,0.2l0.2,0.3l-0.1,0.1l0.3,0.3l0,0.2l0,0.1l0.1,0.2l0,0.1v0.1L78.8,95l-0.2-0.1l-0.1,0.1l-0.4-0.4l-0.1,0.1l-0.3-0.3
		l-0.1,0.1h0l-0.2,0l0,0l-0.1-0.1l-0.2,0l-0.2,0l-0.2,0l-0.5,0l-0.1,0.1l-0.1,0l-0.1,0.1l-0.2,0l-0.1,0l-0.1,0.1l-0.1,0.1l-0.1,0
		l-0.2,0l-0.8-0.2l-0.1,0l-0.2,0l-0.4,0v-0.1l0,0v-0.1l0-0.1h-0.1l-0.2,0.1l-0.1,0l0,0.3l0.1,0.3l0.1,0.2l0,0.1L73,95.7l-0.4,0
		l-0.4,0.6l0.9,1.2l-0.3,0.2l0,0.1l0,0.3l0,0.3l0,0.1l-0.1,0.1v0.1l0,0.2l0.2-0.1l0.8,1.1l0,0l-2,1.5l-0.1,0.5l-0.1,0.1l-0.2,0.1
		l-0.5,0.4l-0.1,0l-0.2,0.1l-0.1,0.1l-0.2,0.1l-0.1,0l-0.1,0l0.1,0l0.3,0.2l0,0l0.1,0.1l-0.4,0.6l-0.3,0.2l-0.3,0.2l0.2,0.2l0.3,0.3
		l-0.4,0.3l0.1,0.2l0.1-0.1l0.1,0.1l0.1,0.1l0.1,0.1l0.1,0.1l0,0l0,0.1l0,0.1v0.1l0.1,0.1l0,0l-0.1,0.1l-0.2,0.1l-0.1,0l-0.4,0.1h0
		l-0.1,0l-0.4,0l-0.5,0l-0.6,0l-0.5,0v0.1v0.5l0.1,0.1l0.1,0.3l0.1,0.1l0.3,0.1l0.1,0.1l0.3,0.2l0.2,0.2l0.1,0.1l0.2,0.3l0.1,0.2
		l0.1,0.2l0.1,0.2l0,0l0.1-0.2l0.1,0l0.1-0.1l0,0.1l0.1,0.1l0.1,0l0.1,0l0.1,0.1l0.1,0.1l0,0l0,0.1l0,0.1l0,0.1l0,0.1l0,0h0l0.1,0
		l0,0.1l0,0.1l0,0.2l0,0.1l0,0.1l-0.1,0.1l-0.2,0l-0.3,0h-0.1l0,0.1l0,0.1l0.1,0.8l0.1,0.2l-1,0.4l-0.3,0.1l-0.3,0.3l-0.3,0.4
		l-0.2,0l-0.8,0.1l-0.6,0.1l-0.3,0.1l-0.8,1.6l-0.5-0.2l-0.5-0.2l-0.3-0.1l-0.4-0.1l-0.4-0.1l-0.3,0l-0.7-0.2l-1.6-0.4l-0.8-0.2
		l-0.3-0.1v-0.1l0.1-0.1l0.2,0h0.3l0.5,0l0.6-0.2l0.4-0.1l0.4-0.2l0.5-0.7l0.2-0.4l0.2-0.4l0-0.3l0-0.3l0-0.2l0-0.2l0.1-0.1l0.1-0.1
		l0.2-0.1l0.1-0.1l0.1-0.4l0-0.1l-0.2,0.1l-0.2-0.7l0-0.1l0.1-0.1l0.1-0.1l0.3,0l0.1-0.2v-0.1h0.2l0.1-0.2l0.4-0.4l0.3-0.3l0.6-0.9
		l1.1-1.6l-0.1-0.1l-0.2-0.1l-0.3-0.1l-0.3-0.1l-0.4-0.2l-0.5-0.4l-0.4-0.2l-0.6-0.1l-0.5-0.1l-0.4,0h0l-0.7,0.1l-0.9,0.1l-0.3-0.1
		l-0.3-0.1l-0.5-0.6l-0.2-0.5l-0.1-0.3l-0.2-0.2l-0.2,0h0v0v-0.4l0,0v-0.2v-0.3v-0.2v0V100l-0.1-0.1l0.2-0.3l0.2,0.1l0-0.3l0.1-0.7
		l0-0.3l0.1-0.5l0.1-0.3l0.1-0.4l-0.4-0.4l-0.4-0.4l0-1.2l-0.6,0l-0.5,0.3L57,95.8l-2.3,2.1l-0.9,0.8l-0.5,0.4l-0.2,0.2L53,99.3h0
		l-0.2-0.2L52.6,99L52.5,99l-0.1,0l-0.7,0.7l-0.5,0.5l-0.3,0.2l-0.6,0.6l-0.2,0.2l-0.3,0.1l-0.2,0.1l0,0.1l-0.4,0l-0.4-0.2l-0.2-0.1
		v-0.4l0.2-0.2l0.3-0.4V100l-0.6-0.5L48,98.9l0,0l0,0l1.6-1.6l0.5-0.5l0.2-0.3l0.3-0.3l0.4-0.3l0.1-0.2l0-0.1l0-0.3l0-0.2l0.8-0.2
		l1.5-1.5l-0.8-0.8v-1.4v-2V89l-0.4,0.2l-0.2,0.1l-0.3,0l-0.3,0.1l-0.2,0H51l-0.3,0L50.3,89v-0.1l-0.2-0.1l-0.2-0.1l-0.1,0l-0.1,0
		l-0.1,0l-0.1,0.1L49.2,89l-0.1,0H49l-0.1,0l-0.1-0.1l-0.1-0.1l-0.2,0h-0.3l-0.2,0h-0.1l-0.1,0l0,0l-0.1,0.1l-0.1,0.1L47.3,89L47,89
		l-0.1,0l-0.1,0.1l-0.2,0l-0.2,0.1l-0.2,0l-0.4-0.1l-1-0.3l-1.5-0.4L41.6,88.1z"/>
	<path id="新竹市香山區" fill="none" stroke="#000000" d="M24.6,142.4l0.8,0.9l0.3-0.2l1-0.6l0.7,1.1l1.2-0.4l0.2-0.3l1.1,0.7
		l0.9,0.6l0.3-0.2l0.3-0.4l0.1-0.3l0.1-0.1l0.1,0.1l0.1,0.3l0.4,0.1l0,0.1l0.4,0l0.6-0.1l0.4-0.3l0.4-0.1l0.3,0l0.2-0.2l0.2-0.2
		l0.2,0l0.2-0.2l0-0.1l0.2-0.1l0.6-0.5l0.2-0.2l0.3-0.1l0.1-0.1l0.5-0.6l0.2-0.3l0.1-0.3l0.2-0.2l0.2-0.1l0.4-0.2l0.3-0.3l0.2-0.3
		l0.1-0.3l0.2,0l1-0.2l0.4,0.4l0,1.2l-0.1,0.8l0.1,0.5l0.3,0.4l0.4,0.4l0.9,1.2l0.4,0.9l0.1,1l0.2,0.6l0.2,0.2l0.1,0.3l-0.1,0.1
		l0.1,0.1l0.3,0l-0.2,1.1l0,0.6l0.2,0.4l0.6,0.4l0.3,0.3l0.2,0.3l0,0.2l-0.3,0.7l-0.6,0.5l-0.1,0.3l0.1,0.1l0.1,0.2l-0.1,0.2
		l-0.1,0.1l-0.2,0.1l0.1,0.2l0.4,0l0.1,0.1l0.4,0.1l1.2,0.2l0.2-0.1l0.1,0l0.3-0.1l0.4-0.2l0.2,0l0.7,0.2l0,0.1v0.3l0.1,0H47
		l0.2-0.1l0.1,0l0,0.1l0,0.2l0.2,0.2l0.1,0.1l0.3,0.1l0.4,0.1l0.1-0.1l0.2-0.2l0.2-0.1l0.2-0.2l0.5,0.3l0.2-0.1l0,0.1l0.2,0.1
		l0.3-0.1l0.2-0.2l0.1-0.1l0.1,0.1l0.1,0.2l0.2,0l0.2-0.2l0.2-0.3l0.1-0.1l0.3-0.2l0,0.1l0,0.4l0.1,0.2l0.1,0.3l0.3,0.3l0.6,0.5
		l0.2,0.1l0.7,0l0.3,0.1l0.2,0.2l0.1,0.1l0.3-0.7l0.1-0.4l-0.1-0.1l0-0.1v-0.1L55,154l0.3-0.2l0.6-0.5l0.3-0.3l-0.1-0.4l-0.2-0.4
		v-0.2l0.1-0.2l0.1-0.2l0-0.1l0-0.2V151l0-0.1l0.1-0.2l-0.3-0.3l-0.1-0.2l0.1-0.2l0.1-0.3l0.4-0.2v-0.1l-0.1-0.1l0-0.2l-0.1-0.8
		l0.3-0.2l0-0.1l-0.3-0.7l-0.3-0.2l-0.1-0.1l-0.1-0.1l0.1-0.1l0.5,0l0-0.2l-0.1-0.6l-0.2-0.1l-0.1-0.1l0-0.2l0.2-0.1l0.4,0l0.3,0.2
		l0.2,0.2l0.2,0.2l0.1,0.3l0.6,0l0.1-0.4l0.1-0.3l0.2-0.4l0-0.1l-0.5-0.6l-0.1-0.1l-0.4-0.1l-0.3,0l-0.2-0.1l0-0.2l0.1-0.2l0.1-0.1
		l0.2-0.2l0.1-0.5l0.5-0.4v-0.2l-0.1-0.4l0.1-0.1v-0.3v-0.3l0-0.2l0.1-0.1l0.1-0.1l0.1-0.2l0.2-0.3v-0.2l-0.1-0.3l0.3-0.8l0.2-0.5
		v-0.5l0.1-0.5l0.2-0.5l0.3-0.1l0.2-0.3l0.1-0.1l0.1-0.1l0.2,0l0.2,0.2l0.3,0.1l0.6-0.2l0.2,0.3l0.2,0.2l0.7-0.2l0.6,0l0.2,0.1
		l0.4,0.3l0.5-0.3l0.1,0l0.2,0.1l0.2,0.1l0.1,0.1h0.1l0.3-0.4l0.4-0.1l0.4-0.3l0.4-0.1l0.3-0.3l0-0.4l-0.1-0.4v-0.3l0-0.3l-0.1-0.1
		l0-0.4l0.1-0.3l0-0.2l0.8,0.2l0.8-0.6l0.2-0.3l0.1-0.1l0.1-0.1l-0.5-0.3l-0.1-0.1l-0.2-0.3l-0.1-0.3l-0.1-0.2l0-0.1l0.1-0.2
		l0.2-0.4l-0.1-0.6l-0.3-0.2l-0.4-0.1l-0.1-0.1v-0.3l0.3-0.6l0.4-1l0.2-0.3l0.1-0.2l0.2-0.1l0.3-0.1l0.2-0.1l0.2-0.2l0.1-0.3
		l-0.1-0.2l0-0.3l0.2-0.2l0.2-0.1l0.1-0.2l0.1-0.2l0.3-0.1l0.2-0.5l0.1-0.3l-0.1-0.2l0-0.2l0-0.4l-0.1-0.2l0-0.3v-0.1l-0.2,0.1
		l-0.2,0.1l-0.2,0.1l-0.2,0.1l-0.3,0l-0.1-0.1L68,123l0-0.2l0.1-0.2l0.1-0.1l0.1-0.2l-0.1-0.2l-0.1-0.3l0-0.2l0-0.3l0-0.3l0-0.2
		l0-0.1l0-0.3v-0.2l0-0.1v-0.2l-0.1-0.3l-0.1-0.3l0.2,0v-0.1h0.2v-0.1l0-0.1l0-0.1l-0.1,0H68l-0.1-0.2l0-0.2l0-0.3V118l0.1-0.2
		l0.3-0.3l0.1-0.1l-0.1-0.4l0-0.2l-0.3-0.2l-0.4-0.3l-0.1,0l-0.1-0.1l0-0.2l0-0.3l-0.1-0.2l-0.1-0.2v-0.2l-0.1-0.4l-0.2-0.4
		l-0.1-0.3l-0.1-0.3l-0.1-0.2l-0.2-0.1l-0.5-0.2l-0.3-0.2l-0.8,1.6l-0.5-0.2l-0.5-0.2l-0.3-0.1l-0.4-0.1l-0.4-0.1l-0.3,0l-0.7-0.2
		l-1.6-0.4l-0.8-0.2l-0.3-0.1V113l0.1-0.1l0.2,0h0.3l0.5,0l0.6-0.2l0.4-0.1l0.4-0.2l0.5-0.7l0.2-0.4l0.2-0.4l0-0.3l0-0.3l0-0.2
		l0-0.2l0.1-0.1l0.1-0.1l0.2-0.1l0.1-0.1l0.1-0.4l0-0.1l-0.2,0.1l-0.2-0.7l0-0.1l0.1-0.1l0.1-0.1l0.3,0l0.1-0.2v-0.1h0.2l0.1-0.2
		l0.4-0.4l0.3-0.3l0.6-0.9l1.1-1.6l-0.1-0.1l-0.2-0.1l-0.3-0.1l-0.3-0.1l-0.4-0.2l-0.5-0.4l-0.4-0.2l-0.6-0.1l-0.5-0.1l-0.4,0h0
		l-0.7,0.1l-0.9,0.1l-0.3-0.1l-0.3-0.1l-0.5-0.6l-0.2-0.5l-0.1-0.3l-0.2-0.2l-0.2,0h0v0V101l0,0v-0.2v-0.3v-0.2v0v-0.1l-0.1-0.1
		l0.2-0.3l0.2,0.1l0-0.3l0.1-0.7l0-0.3l0.1-0.5l0.1-0.3l0.1-0.4L59,96.9l-0.4-0.4l0-1.2l-0.6,0l-0.5,0.3l-0.6,0.3L54.5,98l-0.9,0.8
		l-0.5,0.4l-0.2,0.2l-0.1,0.1h0l-0.2-0.2l-0.1-0.1l-0.1-0.1l-0.1,0l-0.7,0.7l-0.5,0.5l-0.3,0.2l-0.6,0.6l-0.2,0.2l-0.3,0.1l-0.2,0.1
		l0,0.1l-0.4,0l-0.4-0.2l-0.2-0.1v-0.4l0.2-0.2l0.3-0.4v-0.1l-0.6-0.5L47.8,99l0,0l0,0l1.6-1.6l0.5-0.5l0.2-0.3l0.3-0.3l0.4-0.3
		l0.1-0.2l0-0.1l0-0.3l0-0.2l0.8-0.2l1.5-1.5l-0.8-0.8v-1.4v-2V89L52,89.2l-0.2,0.1l-0.3,0l-0.3,0.1l-0.2,0h-0.2l-0.3,0l-0.5-0.3V89
		l-0.2-0.1l-0.2-0.1l-0.1,0l-0.1,0l-0.1,0l-0.1,0.1l-0.1,0.2l-0.1,0h-0.1l-0.1,0L48.7,89l-0.1-0.1l-0.2,0H48l-0.2,0h-0.1l-0.1,0l0,0
		l-0.1,0.1L47.3,89l-0.2,0.1l-0.2,0l-0.1,0l-0.1,0.1l-0.2,0l-0.2,0.1l-0.2,0l-0.4-0.1l-1-0.3l-1.5-0.4L41.6,88l-0.8,1.4l-0.4,1
		l-1,1.9L39.2,94l0,0.8l0.2,0L39.2,96l0.2,0.6l0.2,0.3l0.2,0.3l0.2,0.4l0.2,0.3l0.4,0.2l0.7,0.1l1.1-0.3l0.5-0.1l0.4-0.2l0.3-0.2
		l0.2,0.1l0.1,0l0.3,0.2l0.3,0l1.1,0.2l-0.1,0.2l-0.4,0.2l-0.4,0.2l-0.3,0.1l0.1,0.3l-0.1,0.4h0.3l0.1,0.3l-0.4,0.1l-0.2,0l-0.6,0
		l-1.1-0.1l-1.4-0.1l-0.1,0.6v0.8l0,1.1l0.4,0.4l0.1,0.1l0.7,0.1l0.1,0.1l1.7,0l-0.1,0.2l-0.1,0.3l-0.1,0.3l-1,0.5l-0.1,0.3l0,0.8
		l0.1,0.8l0.1,0.2l0.1,0.4l0.3,0l0.3,0.1l0.2,0.1l-0.4,0.2h-0.3l0.1,0.4v0.1l-0.1,0.1v0.3v0.6l-0.1,0.6l-0.1,1.1l-0.1,0.3v0.3v0.1
		v0.6l0.1,0.3l0.2,0.1l0.1,0l0.1,0.2l0.1,0.1l0.1,0.1v0.6l-0.1,0.1h-0.6l0.1,0.3l0.1,0.1l0.1,0.1l0,0.1h0.3l-0.1,0.3l-0.1,0.2l0,1.1
		v0.1l0.1,0.3v0.1l0,0.2l0,0.2v0.4v0.1v0.2l-0.1,0.8l-0.2,0.9v0.1l-0.1,0.7l-0.1,0.9l0.1,0.8l0,0.2l0,0.3l-0.1,0.7l-0.2,0.8
		l-0.2,0.5l-0.1,0.2l-0.4,0.4l-0.2,0.1l-0.2,0.2l-0.2,0.1l-0.3,0l-0.3,0l-0.9,0.2l-0.2-0.2l-0.2,0.1l-0.3,0.3l0.1-0.3l0-0.1
		l-0.2-0.3l0-0.1l0.1,0.1l0.4-0.2l0.2-0.3l0.1,0l0.1,0l0.1-0.2l0.1,0l0.1,0.1l0-0.1l0-0.1l0.1-0.1h-0.2l-0.9,0.7l-0.5,0.2h-0.4
		l-0.1-0.1l-0.1,0.1l0,0l-0.6-0.4l-0.4,0.4l-0.6,0.7l1,0.8l-0.4,0.9l-0.3,0.9l1.2,0.3l0.4-0.7l0.8,0.2v1l-0.1,0.4l0,0.3l0,0.4l0,0.3
		v0.4l0,0.5l-0.1,0.3l-0.1,0.4l-0.1,0.3l-0.1,0.1l-0.1,0.3l0,0.2v0.4l-0.1,0.3l-0.1,0.4l-0.2,0.6l-0.2,0.5l-0.1,0.2l-0.2,0.2
		l-0.4,0.3l-0.5,0.3l-0.5,0.2l-0.2-0.2l-0.2-0.1l-0.2,0l-0.1,0.1l0,0.1l-2.3,1.5l-1,0.4l-0.2,0.3l-0.4,0.3l-1.5,0l-0.3,0.4l-0.4,0.3
		l-0.4,0.3l-0.5,0.4l-0.5,0.4l-0.4,0.3l-0.3,0.2l-0.5,0.5l-0.3,0.2l-0.2,0.2l-0.1,0.1l-0.1,0.1l-0.2,0.2l-0.2,0.2l-0.2,0.2
		L24.6,142.4z"/>
</g>
</svg>
