<?xml version="1.0" encoding="utf-8"?>
<!-- Generator: Adobe Illustrator 18.1.1, SVG Export Plug-In . SVG Version: 6.00 Build 0)  -->
<svg version="1.1" id="圖層_1" xmlns="http://www.w3.org/2000/svg" xmlns:xlink="http://www.w3.org/1999/xlink" x="0px" y="0px"
	 viewBox="997 -337 2605 1466" enable-background="new 997 -337 2605 1466" xml:space="preserve">
<g id="surface1">
	<path fill="none" stroke="#000000" stroke-width="0.25" d="M2102.3,603.5l8.3,0.3l-0.3,9l-1.3,11.5v4.5l9,3.5l4.8,4.2l1.6,9.9
		l2.6,13.5v4.2l-7,1.9l-1,12.2l-9.9,7.7V698l-5.1,5.1l-1.3,10.3l-4.5,10.9l-4.5,5.8l-6.1,6.4l-5.1,3.5l-6.1-4.2l-6.7-1l-4.2,2.9
		l4.2,2.9l10.9,4.5l3.8,4.5l5.4,3.8l6.7,4.2l6.8,5.5l3.3,0.7l1,6l2.7,5.4l4.7,4.7l5,1.3l2.7,3.4l-0.7,5.7l-3.3,6.4l-3,6.7l0.3,4.7
		l0.3,7.4l-4,2.7l-11.4,4.4l-7,4.4l-3,2.3l0,7.7l5.1,12l-1,9.9v4.4l-3.4,7.2l5.5,4.4l5.1,5.5l1.1,9.1l2.3,0.8l13.4-1l7.5-3.8l7.5-1
		l5.8,5.5l11,3.8l11,2.1l6.5-2.7l4.5-2.7l4.8-3.1l5.5-3.8l7.2-0.3l6.2-10.6l6.5-4.8l5.1-2.1l5.3,1.9l4.6-3.5l8,2.4l9.1,5.3l10.5-1.1
		h5.6l11.2-6.3l4.9-1.1l9.8,8.1l9.8,1.8h7.7l8.4,4.9l6.3,1.4l10.9,0.7l5.6-1.8l8.8-1.1l5.3-5.3l4.2-3.1l3.1-2.4l5.9-1.4l5.6,1.4v4.9
		l6.6,0.7l14-2.8l8.8-1.8l3.8-6.3l4.6-1.4l3.1-4.6l-2.2-2.2l-1.2-1.8v-2.9l-0.1-2.7l-0.3-2.2l0.8-3l2.1-3.6l1.9-2.6l0.7-2.5l-1.2-3
		l-2.4-3.4l-3.8-0.4l-0.6-1.5l1-1.9l2.5-1.1l1.5-1.5l-2.6-3.6l-0.7-4.9l0.2-4.1l1.7-5.6l-1.2-3.3l-3.4-0.5l-2.6-0.5l-3.9-4.6
		l-4.2-3.8l-0.8-2.4l0.2-2.7l1.5-1.8l2.4-2.5l1.2-2.1l1.5-1h2l2.6,1.1l2.2-0.5l1-1.2v-2.2l-1.8-4.7l-3.6-4.6l-0.1-1.8l-2.2-3.7
		l-1.2-2.1l-2.2-4.2l-2.6-2.6l-3.5-0.9l-2.1-0.6l-0.4-1.5l3.5-13.7l0.8-2.2l2.8-5.6l3.3-3.7l-0.7-3.2l-0.2-4.4l-2.1-2.6l-0.2-4.3
		l1.6-5.5l0.4-2.6l1.2-2.4l-0.9-3.5l-0.6-4.1l1.7-3.8l3.6-5.1l1.6-3.3l1-3.4l1-1.4l2-0.5h5l3.2,0.7l3.1-0.3l2.6-1.4l2.5-4.1l1.6-3.7
		l1-4.8l2.5-1.5l2.4-4.2l7.3-0.4h1.8l1.8-1.3l1.7-0.5l3.7-5.6l3.2-6l-3.2-1.5l-3.8-4.7l-1.9-1l-0.8-3.1l-3-3.7l-1.6-1.8l-5.3-6.1
		v-12.8l-1.4-1.7l-3.2-1.4l-3.9-2l-0.5-5.4l-1.9-2.1l-3-2.4l-4.9-1.7l-1.7-0.5l-3.6-1.6l-2.4-1.7l-3-1.7l-1-2.1l-0.7-1.4l-3.6-3.5
		l-3-4.1l-3.3-2.9l-2.8-2.1l-6.5-5.3l-5.6-5l-2.5-1.7l-0.8-0.6l-0.7-2.6l-0.6-2.3l-0.4-3.7v-2.4l0.9-2.5l7.3-10.6l1.1-4.3l-0.1-4.2
		l-0.5-2.5l-1.2-4.7l-0.9-5.1l-0.7-2.4l-3.6-4.4l-2.1-1.2l-2.4-2.4l-1.7-1.9l-1-2.3l-1.2-2.8l-0.2-1.4v-1.6l-1-0.8l-2.3-0.7
		l-1.7-0.6l-2.4-0.8l-1.2,0.2l-1.3,0.3l-1.1,0.3l-1.4,0.5l-1,0.2l-1.5-0.1l-3-0.6l-2.7-0.8l-1.9-0.8l-0.9-0.7l-1.6-0.7l-0.8-0.4
		l-1.1-0.5l-1.2-0.3l-0.6-1.8l-0.3-3.2l-0.2-2.7l-0.3-2.2l-0.3-5.1l-0.7-1.3l-0.6-0.6l-7.9,2.3l-2.2,0.4l-5.1,0.2l-3,0.1l-1.4-0.2
		l-1.9-0.5l-1.4-0.5l-1.6,0.7l-2.1,1.1l-1.5,0.6l-0.9,1.4l-0.5-0.7l-1.4-0.4l-0.9-0.1l-0.2-2.6l-0.1-1.8l-0.4-1l-2.4-1l-0.3-0.9
		l-1.1-1.2l-1-0.8l-0.9-1l-0.3-0.9l-1.5,0.1l-1,0.4l-0.9,0.8l-0.9,0.5l-1.1,2.4l-1.5,0.8l-0.5,0.5l-0.9,1.1l-0.8,0.7l-0.6,0.4
		l-0.5,0.4l-0.4,0l-0.4-0.1l-0.6,0.1l-0.4,0.2l-0.6,0.8l-0.6,1l-0.4,0.7l-0.2,0.4l-0.4,0.2l-1.5-0.1l-0.9,0l-2,2l-0.6,1.4l-0.2,1.9
		l-0.5,0.6l-1,0.3l-1.3-0.7l-0.7-1l-0.4-0.3l-1.1-0.1l-0.4,0.3l-1.2,0.9l-1.2,0l-2.4-0.9l-1,1.2l-1,1l-1.5,0.8l-2,0.3l-1.1-0.3
		l-1.8,0.8l-0.7,1.1l-0.8,1.9l-0.4,1.2l-0.8,1.3l-1.1,1.1l-0.5,0.6l-0.7,1.3l-0.5,1.1l-0.7,0.8l-0.7,1.6l-0.9,0.2l-0.3,0.8l-0.5,1.2
		l-0.5,1l-0.1,1.3l-0.2,1.5l-0.1,1.3h-3.1l-1.2,0.4l-1.7,1l-0.3,2.2l-2.3,3.4l1.5,1.2l1.1,2.1l0.7,1.8l0.2,0.9l-0.9,1.6l-1,1.4
		l-0.8,0.5l-1,0.6l-1.7,2l-1.2,1.7l-2.2,6.5l-1.3,0.7l-1.9,0.1l-1.9-0.2l-1.6-0.3l-0.2-1l-0.6-0.6l-2.6-0.3l-1.7-2.3l-6.4-3l-5.4-6
		l-3.8,1.8l-5,4l-0.9,5.3l-6.3,5.5l-4.2,1.7l-0.8,3.4l-3.6,0.4l-3.6,3l-2.7-0.8l-3.8,3l-4.4-2.5l-4.5,3.4l-3.4,2.3l-7,4.7l0,4.8
		l-2.1,4.2l-8.5,4.5l-10,2.8l-2.9,2.5l-1.9,7.6l-9.1,11.4l-4.2,4.2L2102.3,603.5"/>
	<path fill="none" stroke="#000000" stroke-width="0.25" d="M2180.6,307.2l-0.3,12.4l-4,9.1l-3,11.4l-4.7,13.8l-2.7,9.1v12.4l-4,2
		l-2.7,4l-1,6.7l3.7,3.4l6-1.3l7.1,3l3,6.4v10.1l-3,3.7l-1.7,4.4l-2.4,4.7v5.4l-1.3,5.7l-2.4,9.4l-3.4,7.1v6.1l5.5,1l5.5,3.1
		l1.4,3.8l-0.5,5.5l3.1,1.7l6.9-3.1l2.9-3.3l5.7-1.9l7.4,0.5l8.1,3.6l6.4,5.9l2.9,6.4l1.2,8.8l0.9,11.6l5.2,3l2.3-3.4l0.3-2.2l1.7-1
		l1.2-0.4h3.1l0.1-1.3l0.2-1.5l0.1-1.3l0.5-1l0.5-1.2l0.3-0.8l0.9-0.2l0.7-1.6l0.7-0.8l0.5-1.1l0.7-1.3l0.5-0.6l1.1-1.1l0.8-1.3
		l0.4-1.2l0.8-1.9l0.7-1.1l1.8-0.8l1.1,0.3l2-0.3l1.5-0.8l1-1l1-1.2l2.4,0.9l1.2,0l1.2-0.9l0.4-0.3l1.1,0.1l0.4,0.3l0.7,1l1.3,0.7
		l1-0.3l0.5-0.6l0.2-1.9l0.6-1.4l2-2l0.9,0l1.5,0.1l0.4-0.2l0.2-0.4l0.4-0.7l0.6-1l0.6-0.8l0.4-0.2l0.6-0.1l0.4,0.1l0.4,0l0.5-0.4
		l0.6-0.4l0.8-0.7l0.9-1.1l0.5-0.5l1.5-0.8l1.1-2.4l0.9-0.5l0.9-0.8l1-0.4l1.5-0.1l0.2-1.3l0.2-1.4l1.4-2.2l0.6-1.3l1-1.6l1.6-1.6
		l1.9-2l1.3-2.6l2.3-3.9l0.6-2.2l0.8-2l1-1.3l2.7-0.1l1.7-1.6l2.4-1.7l4.5-2.8l2.8-2l-0.6-3.7l0.3-2.7l0.8-4.7l1.7-4.6l2.6-4.4
		l1.4-2.5l1.3-0.7l2.3,0.5l1.8,0.1l1.7-0.2l2.8-1.2l2.4-1.8l2.4-1.2l1.2-0.9l2.5-1.4l1.9-1.4l3.8-2.5l3-0.3l4.9,0.6l6.8,0.1l3.2-0.4
		l3.6-0.5l4.9-0.1l1.6-2.1l0.1-1.6l1.8-2.7l0.8-1.9v-1.8l1.4-2.3l2.7-3.7l1.4-2.5l2.9-2.9l-0.7-3l-0.1-2.8l-2.2,0.3l-1.1-1.2
		l-0.3-1.5h-2.5l-0.5-1.4l2.1-1.9l3.4-1.1l1.2-3l1.9-0.7l0.7-1.3l1.8-0.7l2.6-0.9l0.5-5.8l-0.6-3.1l2.1-4.8l2.6-1l3.1,0.1l1.7-0.7
		l2.1,0.5l2.4-2.3l0.6-4.6l-0.5-3.5l1-1.9l-1.1-0.9l-2.2-1.6l-1.8-1l-1.4-1l-1.7-2.3l-0.4-1.4l-0.5-2.1l-0.1-1l-0.7-0.4l-2.4-1.4
		l-0.5-1.2l-2,0.4l-0.3-0.6l-2-1l-1.2-5.5l0.6-0.6l1.1-1.1l0.4-1l0.2-1.5l0.3-1.4v-2.1l-0.3-1l-1.1-0.9l-0.6-1l-0.1-0.9l-0.6-0.6
		l-0.8-0.2l0.3-1.1l0-0.4l-0.4-1.1l0.1-0.5l0.1-0.4l0.7,0l0.5-0.2l0.3-0.6l0.2-1.1l0.1-0.5l1.3-1.1l-0.1-1.3l-0.1-1.9l0-0.8
		l-0.1-1.7l-1.1,0.4l-0.7,0.2l-1.8-0.4l-1.2-0.7l-1.3-0.9l-0.4-0.2h-0.8l-0.7,0.2l-0.6,0.4l-0.4,0.2l-0.4,0.1l-0.9-0.2l-1.1-0.6
		l-0.4-0.1l-0.8,0l-0.7,1.1l-0.4,0.5l-0.7,1.3l-0.6,0.6l-0.7,1l-1,0.1l-0.3,0.2l-0.9,1l-1.8,1.5l-0.6,0.4l-0.6,1.4l-0.6,1l-0.3,0.2
		l-0.5,0l-1.1,0.1l-3.2,2.3l-0.3-0.4l-0.3-0.6l-0.8-0.8l-1.1-0.2l-1.6-0.1l-1.1-1.1l-0.5-0.1l-0.8-0.2l-1.2-0.9l-0.4-0.1l-0.5,0
		l-0.6,0.2l-0.3-0.1l-0.4-0.5l-0.6-0.4l-0.9-0.3l-1.9-2.7l-0.2-2l-0.4-0.7l-1-0.2l-0.3-1l0.1-1.8l0.2-1.1l0.6-0.7l1.2-0.9l1-0.7
		l0.2-0.7l-0.2-0.8l-1-0.9l-1.2,1l-1.4,0.7l-0.4,0.1l-1.3-0.4l-0.6-0.1l-0.7,0.1l-0.5,0.3l-1.2-0.2l-0.6-0.5l-0.6,0.1l-0.7,0.1
		l-0.5,0l-0.8-0.4l-0.9-0.3l-0.7-0.4l-0.5,0.1l-0.5-0.1l-0.4-0.4l-0.2-0.6l0.4-1.3l0.2-0.6l0-0.3l-0.5-0.5l-0.3-0.5l-0.6-1.2
		l-0.5-0.2l-0.5-0.2l-0.6-0.1l-0.4-0.2l-0.1-0.9v-1.4l0.1-1.1l-0.2-1.1l-0.5-1.2l-0.2-0.7v-0.6l0.4-0.5l-0.6-0.7l-0.5-0.4l-0.7-0.1
		l-0.5,0.6l-0.7,0.8l-0.5,0.2l-0.5-0.1l-0.8,0.6l-0.7,0.2l-0.5-0.3l-0.1-0.9l-0.4-0.2l-0.7-0.3l-1.1,0.5l-0.6,0.1l-0.9-0.6l0.1-0.6
		l0-0.3l-0.2-0.2l-0.8,0.1l-0.8-0.1l-1.1-0.3l-0.7-0.3l-1.3-0.6l-0.7-0.6l-0.5-0.7l0.3-0.5l0.3-0.5l-1.9-1.2l-0.3-0.1l-0.8,0.1
		l-1.6-0.5l-1.7-0.4l-1-0.6l-0.8,0.1l-1,0l-0.5-0.1l-0.6-0.5l-1-0.5l-0.6-0.4l-0.6-0.3l-0.5,0.3l-1.2,0.6l-1.1,0.3l-0.6,0l-0.9-0.6
		l-1,0.1l-0.8-0.5l-0.5-0.2l-1.7-1l-0.6-0.6l-0.7-0.2l-0.8-0.8l-0.6,0.2l-1.2,0.5l-1.1,0l-0.8-0.3l-0.7-0.4l-0.3-0.4l-0.5-0.7
		l-0.2-0.7l-0.5,0.8l-0.8,1.8l-0.6,1.7l-0.1,1.7l0,0.8l0.1,0.4l-0.3,1l0.2,0.6l0,0.7v0.5l-0.5,0.8l-0.4,0.9l-0.5,0.7l-0.1,0.2
		l0.4,0.9l0.2,0.3l0,0.4l-0.4,0.4l-0.5,0.4l-0.5,0.4l-0.2,0.4l-0.5,0.8l-1,0.6l-1,0.9l-0.1,1.5l0.3,1.5l-1.5,1.4l0.3,0.3l0.2,0.3
		l0.3,0.4l0.5,0.3l0.3,0.2l0.9,3l0.5,0.8l0.1,0.6l0.2,0.9l-0.2,0.6l-0.9,1.5l-1.1,1.2l-0.1,0.2l-0.5,1l-0.3,0.5l-0.3,0.5l-0.4,0.4
		l-0.3,0.3l-0.2,0.3l-0.2,0.9l0.7,0.9l-1-0.2l-0.2,0l-2.3,1.4l-0.8,0.5l0,1.1l-0.9,0.5l-0.1,0.8l-0.2,0.5l-0.3,0.9l-0.1,0.4l0,0.6
		l0.1,0.3l0.2,0.7l0.3,1.1l0.1,0.9l0.3,0.2l0.5,0.1l0.4,0.1l0.3,0.1l0.3,0.2l0.2,0.3l0.2,0.3l0.2,0.4l-0.2,0.5l-0.2,0.3l-0.8,0.8
		l0,0.5l-0.2,1.5l-0.8,0.7l-0.3,0.3l-0.4,0.5l-0.4,0.4l-0.3,0.9l0,0.4l-0.2,0.8l-0.1,0.3l-0.2,0.2l-0.2,0.3l-0.1,0.3l-0.2,0.4
		l-0.3,0.4l-0.4,0.3l-0.4,0.3l-0.5,0l-0.7-0.3l-1.1-0.7l-0.8-0.4l-0.5-0.2l-0.4-0.2l-0.2,0.2l0,0.6l0,0.8l-0.2,0.9l0,0.5l-0.2,0.5
		l-0.1,0.6l0,0.2l0.1,0.3l0.5,0.5l0.3,0.4l0.1,0.4l-0.1,0.4l-0.3,0.2l-0.5,0.6l0,0.4l-0.3,0l-0.6-0.5l-0.5-0.4l-0.6-0.4l-0.3-0.1
		l-0.3,0.1l-0.3,0.4l-0.3,0.6l-0.1,0.7l-0.2,0.8l-0.1,0.1l-3.1,1.6l-5.7,1l-1.7,5.4l-4,1v-5l-2.7-5l-7.4-1h-16.5l-5.7,8.1l8.7,5.4
		l-5.4,6l-5,0.3l-7.4-0.7l-8.7-0.3l-11.4-12.4L2180.6,307.2"/>
	<path fill="none" stroke="#000000" stroke-width="0.25" d="M1968.7,9.8l0.4-2l0.2-0.4l0.3-0.7l0.6-0.8l0.8-0.8l2.7-3l0.9-0.8
		l0.7-0.4l0.5,0.1l1.5,0.8l0.5,0.3l1.1,0.6l0.8-0.2l1.4-0.1l2.2-0.2l1.8,1l0.7,0.5l4.4,0l4.8,0.5l4.4,0.2l4.7-3.3l2.9-0.7l2-0.5
		l3.4,0.3l2.1,0.4l0.9,1.8l1.7,1.8l2.9,0.8l1.7,0.4l3.6,0.4l0.9,0.9l-0.7,1.1l0.4,0.6l2.2-0.2l4-0.3l2.6,0.1l0.6,0.4l1.8,2.3
		l2.2-5.4l5-5.1l2.9-1l1-1.2l1.5-2.7l2.1-1.4l1.2-1.2l5.9-3.8l0.8,3.8l1-0.5l2.2-1.3l0.8,0.4l0.6,0.3l1.9-1l0.5-0.3l1.2,0.3l0.6,0
		l0.8-1.1l0.6-0.3l0.7-0.7l0.7-0.2l0.7-0.3l1.1-1.1l1.1-0.6l1.2-0.6l0.6-0.4l1,0l1.1,0l1.2,0.1l1.5,0.6l1.5,0.4l0.8-1.3l1.2-1.2
		l0.7-0.4l0.9-0.9l1.2,0.1l1.2-1.1l7.3-3.8l0.7-0.3l1.4-0.4l2,0.2l1.5,0.4l1.3,0.4l1.4,0.4l1-0.5l0.5-0.3h0.6l0.5,0.3l0.1,0.4
		l-0.5,0.7l-0.2,0.5l0.2,0.7l1-0.4l1.2-0.5l1.1,0.4l0.6-0.6l0.5-0.1l0.6,0.2l0.5-0.1l1.4-0.8l1-0.7l1.9-0.7l0.8,1.2l0.8,0.6l0.4,0
		l1.7,0l1.6-0.8l1-0.3l1-0.5l0.9-0.3l1-1l1-2.5l1.1-0.7l2.2-0.1l4.1,1.7l1.1,0.3l0.8-0.1l1.1-0.1l0.7,0l0.6-0.9l0.3-0.8l0.8-1.1
		v-1.9l1.1-2.6l0.5-1.2l0.4-0.3l0.6-0.1h1.8l1.4-0.2l2,0.3l2-0.2l2.7-1.1l1.7-0.6l2.4,0.1l2.6,0.4l1.3,0.3l2.1,0.3l1.4,0.1l1-0.1
		l0.4-0.3l1,0.3l0.7,0.2l0.1-0.6l-0.3-1.5l0.2-1l0.2-0.8l0.8-1l0.8,0.1l0.8,0.6l0.5,0.5l0.7,0.3l1.7,1l1.3,0.9l0.8-0.1l0.8-1
		l0.1-0.7V-40l0-1.1l0.3-0.4l0.5-0.3l2.3,0l0.6-0.8l0.9-0.4l0.9-0.6l1.2-0.6l2.4,0.3l0.8,0l0.9-0.2h1.2l0.9,0.4l0.8,0.9l0.8,0.3
		l0.7,0.8l0.5,0.9l0.2,1.2l0.1,0.6l0.4,0.9l0.3,0.6l0.8,0.2l0.7-0.5l0.2-0.6l0.5-0.6l-0.1-1.3l0.4-1l1.1-1.1l0.4-1.1l-0.2-1.5
		l0.1-0.7l0.2-0.7l-0.4-0.6l-0.5-0.1l-0.7-1.5l-1.1-1.7l0.6-1.1l0.7-0.5l0.4-0.6l0.3-0.4l0.8,0.4l1.1-0.3l0.8-1.1l0.8-0.6l1.2-0.1
		l0.9,0.3l0.8,0.2l0.7-0.1l0.7-0.1l0.8,0.9l0.6,0.8l0.9,0.6l0.8,0.4l0.5,0h1.6l1.6-0.3l1.2-0.2l1.9,0.2l0.7-0.5l0.4-1.2l-0.4-0.7
		l-0.2-0.8l0.3-0.7l0.5-0.6l0.4-1.5v-1.2l-0.1-1.3l0.2-0.7l0.3-0.8l0-0.7l0.2-0.7l0.3-0.6l1.5-0.2h0.8l1.2,0.5l0.6,0.3l0.7,0
		l0.9-0.2l1.2-0.1l0.7-0.6l1-0.6l0.8-0.3l0.8,0.2l0.4,0.1l0.7-0.2l0.8-0.1l0.3-0.3l0.9-0.3l0.5,0.1l0.7,0.7l0.5,0.5l1,0.7l0.4,0.4
		l0.4,0.6l0.4,0.2l0.4-0.1l0.6-0.3l0.5-0.3l0.9-0.1l1.2-0.2l0.7,0.2l1.1,0.6l1.9,0l1.4,0.5l0.7,0.8l0.5,1.7l0.3,0.1l0.5,0.4l0.7,0.2
		l0.6,0.2l0.6,0.1l1.1,0.4l-0.1-1v-0.6l0.2-0.8l0.5-0.7l1.2-1l0.2-0.4l0.1-0.6l-0.1-0.4l0.1-0.7l0.2-0.5l0.4-0.6l1.1-1.1l0.7-0.9
		l2-0.7l0.6-0.4l0.3-0.5l0.3-0.2l0.8,0l0.6,0.2l0.8,0.4l0.6,0.4l0.7,0.5l0.8,0.7l0.5,0.4l0.3,0l1-1l0.7,0.1l1.3,0.3l0.7,0.5l0.4,0.3
		l0.5,0.2l0.6,0.5l0.4,0.3l0.6,0.3l0.5,0.6l0.4,0.5l0.5,0.6l0.5,0.1l0.5-0.1l0.4-0.1l0.2-0.1l0-0.3l0-0.3l0.1-0.2l0.2-0.2l0.4-0.1
		l1.3,0.2l1.2-0.2l1.7,0l0.4-0.3l0.7-0.5l1-0.4l0.8,0l1.1,0.1l0.5,1.3l0.4,0.2l0.9-0.3l0.5-0.3l0.6-0.3l0.4-0.1l0.6,0l1.4,1l0.8,0.5
		l0.3,0.5l1.2-0.1l1.6-0.2l0.7-0.3l1.1,0.5l0.4,0.1h0.6l0.6-0.3l0.3-0.5l0.4-0.4l0.4-0.2l0.5,0.1l0.3,0l0.5,0.8l0.3,0.6l0.4,0.5
		l0.3,0.6l0.3,1.5l0.5,0.6l0.6,1.1l0.1,0.6l1.9,2.2l0,1.8l0.3,0.7l0.4,1.2l0.1,1.1l-0.1,1l-0.1,0.8l-0.3,0.4l-0.6,0l-2,0l-0.7-0.1
		l-0.6-0.1l-0.1,0.3l0.3,0.5l0.8,0.9l0.7,0.7l0.5,1.5l-0.1,0.7l-0.3,0.6l0.3,0.4l1-0.3l0.4,0.4l0.5,0.7l0.6,1.1l0.3,0.8l0.4,0.7
		l0.1,0.5l0.5,1.1l0.5,1.6l0.6,1.9l0.4,1l0.5,2l0.2,1l-0.1,1.1l0.3,0.6l0.3,0.5l0,0.3l-0.1,0.2l-0.1,0.3l0.1,0.3l-0.1,0.2l0.3,0.4
		l-0.2,0.1L2301-27l0.2,0.5l0.2,0.8l0,0.8l0.3-0.1l0.4,0.2l-0.2,0.1l-0.1,0.5l0.2,0.3l0.3-0.1l0.2,0.4l-0.3,0.2l-0.2,0.4l0.2,0.7
		l0.4,0.4l0.2,0.4l-0.3,0.5l-0.8,0l-0.7,0.2l-0.3,0.6l-0.1,0.7l0.8,0.5l0.4,0.9l0.7,0.3l-0.1,1.1l-0.7,0.4l-0.2,0.5l0.5,0.6l0.6,0.3
		l0.5,0.6l-0.4,0.4l-0.2,0.5l0.3,0.6l0.6,0.2l0.7,0.2l-0.1,0.5l-0.5,0.5l-0.8,0.2l-0.9,0.7l-0.6,0.9l-0.6-0.2l-0.2-0.4l-0.2-0.5
		l-0.5-0.5l-0.4,0.2l-0.3,0.5l0.2,0.6l0.6,0.3l0.2,0.3l0,0.5l0.4,0.3l1,0.3l0.2,0.4l-0.5-0.1l-0.6,0l-0.9-0.4l-0.7,0.1l-0.1,0.4
		l-0.3,0.5l-1.1,0.1l-0.7,0.7l-0.7,0.4l-0.2,0.4l0.8,0.4l0.1,0.5l-0.3,0.2l-0.7,0.2l-1.8,0.6l-0.8,0.6l0,0.7l0.7,0.4l0.3,0.6
		l0.1,0.4l-1.2,2.8l-0.2,1.1l0.5,0.2l0.4,0l0.6,0.4l0.2,0.7l0.1,1.5l-0.7,0.6l-1.8,0.4l-0.3,0.6l0,0.5l0.3,0.4l-0.1,0.7l-0.7,0.6
		l0,0.7l-0.3,1.5l-0.5,0.4L2290,12l-1.3,0.7l-1.1,0.7l-0.8,0.8l-0.3,0.7l-0.2,0.7l0.2,1.9l-0.1,0.6l-0.6,0.9l-0.3,1l-0.2,0.7
		l-0.4,0.4l-0.7,0.7l-0.5,0.4l-1.2,0.5l-1.7,0.9l-1.5,0.9l-0.7,0.5l-0.4,0.8l-1.7,0.7l-1.4,0.7l-1.2-0.3l-4.1,2l-1.1-0.3l-2.5,0.2
		l-0.1,1l0.7,0.6l1.6-0.1l1,0.5h1.6l1.2,0.1l1.9,0.2l0.5-0.5l0.5-0.3l0.2,1l0.8,0.3v1.3l-0.3,1.7l1.2,0.8l0.1,1.5l1.1,1.2l0.4,2
		l0.7,1.6l0.2,2.3l-10.1,2.3l-4.8-1.3l-0.9-1.9l-0.8-0.6l-1,0.3l-5.2,1.9l-5.3-1h-14.3l-8.7,1.3l-7,1.3l-6,4l-4,3.7l-5.3,1l-5,4.3
		l-0.3-5l-4,3l-6.3-2l-10.1-0.6l-0.6,0l-0.2,0l-7,1.7l0,1.9l1.4,0.7l2.2-1.2l1.8-0.5l1.8,1.9l1.7,3.9l0.6,1.9l1.6-0.3l1,8.4l-2,4.7
		l-2.1,5.4l0.9,2.8l3.4,3.3l-0.3,2.1l0,2.2l1.5,0.6l2.8,1.3l4-1.1l1.8,0.1l-1.1,4.3l-2,0.4l-0.7,1.4l-3.4,1.2l1.5,1.9l0.7,4.6
		l1.2,0.9l-0.9,1.7l1.4,1.9l3.2,6.4l0.8,3.7l0.1,3.2l-1.6,3.7l-1.5,4.7l-2.4,6.2l-0.6,1.7l-0.7,3.7l-0.6,8.7l-2.8,1.6l-8.3,0.5
		l-6.7-1.5l-4.4-2.1l-4.4-2.3l-5.3,1.2l-5.3,1.8l-5.2,2.4l-0.3,1.3l-0.7,1.1l-2.3,0.1l-2.6-0.4l-4.8,0.1l-3,0.5l-1.9,0l-0.8-1.4
		l0.3-1.4l0.5-1.2l-2.5-0.7l-1.4-1.2l-0.7-3.2l-1.5-1.4l-3.3-0.8l0.4-5.3l1.3-3.8l1-2.5l-1-3.7l-3.1-1.2l-4.8,2.1l-3.4,0.1l-2.8-1.4
		l-1.4-1.7l-0.7-0.5l-1.4-3.3l-0.1-5.1l-3.4-6.3l-1.5-3.4l-3.7-2.3l-5.6-1.6l-4-1.8l-1.5-2.1l-4.7,0l-5.5-2.8l-3.2-0.8l0-1l-0.8-0.6
		l-1-0.1l-1.8-0.8l0-0.9l-4.8-1.5l2.8-2.3l-5.4-2.2l-3.5-3.5L2052,84l-5.6-1.3l-3-0.5l-6.5-0.7l-2.6-0.3l-5.1-3.5v-6.6l-5.8-4.8
		l-4.7-1.4l-0.4-0.1l-4.1-3l-4.3-0.3h-3l-4.3-2.3l-2.1-2.2l-0.5,0.3l-0.2-0.5l-0.8-1.8l-0.3-0.9l-0.1-0.7l-0.1-0.8l-0.1-0.6l0-0.5
		l0-0.3l0-0.4l0.1-0.9l0.1-0.8l0.1-0.7l0.7-1.3l0.2-0.7l-0.3-0.4l-0.3-1l-0.1-1.1l-0.1-1l0.1-1l0.2-1.5l0.4-1.5l0.3-0.5l0.8-3.6
		l-0.1-0.8l-0.8-0.5l-3-1.4l-1.2-0.3l-2.1-0.3l-0.3-0.4l-0.9-1l-0.6-1.2l-0.5-1.9l-0.5-1.3l0.1-1.4l-0.5-3.1l-1-1.9l-1-2l-0.5-1.6
		l-0.7-1.9l-0.7-0.7l-3.6-1.2l-2.4-0.7l-2.4-0.8L1976,11l-2.5,0.6h-1l-1.2-0.3l-0.8-0.5L1968.7,9.8"/>
	<path fill="none" stroke="#000000" stroke-width="0.25" d="M2184.9,155.8l2.8-1.6l0.6-8.7l0.7-3.7l0.6-1.7l2.4-6.2l1.5-4.7l1.6-3.7
		l-0.1-3.2l-0.8-3.7l-3.2-6.4l-1.4-1.9l0.9-1.7l-1.2-0.9l-0.7-4.6l-1.5-1.9l3.4-1.2l0.7-1.4l2-0.4l1.1-4.3l-1.8-0.1l-4,1.1l-2.8-1.3
		l-1.5-0.6l0-2.2l0.3-2.1l-3.4-3.3l-0.9-2.8l2.1-5.4l2-4.7l-1-8.4l-1.6,0.3l-0.6-1.9l-1.7-3.9l-1.8-1.9l-1.8,0.5l-2.2,1.2l-1.4-0.7
		l0-1.9l7-1.7l0.2,0l0.6,0l10.1,0.6l6.3,2l4-3l0.3,5l5-4.3l5.3-1l4-3.7l6-4l7-1.3l8.7-1.3h14.3l5.3,1l5.2-1.9l1-0.3l0.8,0.6l0.9,1.9
		l4.8,1.3l10.1-2.3l-0.2-2.3l-0.7-1.6l-0.4-2l-1.1-1.2l-0.1-1.5l-1.2-0.8l0.3-1.7v-1.3l-0.8-0.3l-0.2-1l-0.5,0.3L2274,31l-1.9-0.2
		l-1.2-0.1h-1.6l-1-0.5l-1.6,0.1l-0.7-0.6l0.1-1l2.5-0.2l1.1,0.3l4.1-2l1.2,0.3l1.4-0.7l1.7-0.7l0.9,0.3l0.6,0.1l0.8,0.4l1.2,0.3
		l1.2,0.1l1.6-0.2l1-0.2l0.9-0.3l0.9-0.2l0.9,0.1l0.7,0.7l0.1,2.1l0,1.4l0.2,0.5l0.6,0.2l0.9-0.1l0.8,0l0.6,0.3l0.3,1l0.4,2l1,1.3
		l1.3,0.5l0.8,1l0.7,0.3l0.7,1.2l0.3,0.3l0.8,0.3l0.9,0.4l0.7,0.2l0.6,0.6l-0.1,1l0.4,0.9l0.7,0.9l1.1,0.2l1.1-0.2l0.7-0.1l0.5-0.2
		l0.6,0.2l0.7,0.5l0.8,0.6l0.8,0.2l1.2,0.1l1.1,0.3l3.3,1.6l1.2,0.6l0.3-0.6l0.5-0.3l0.6,0.1l0.6,0.5l0.8,1l0.6,1.1l0.5,0.5l0.9,0.4
		l0.9,0.2l0.5,0.9l0.1,0.6l0.5,0.3l0.6,0l0.3-0.9l0.1-0.6l0.5-0.5l0.5-0.2l1,0.4l1.6,0.7l1.2,0.7l0.8-0.2l0.8,0.2l0.7,0.4l0.8,0.3
		l1,0.2l0.8,0.6l0.6,0.3l0.5,0.5l0.2,0.8l0.2,0.6l0.4,0.8l1.2,0.5l0.9-0.1l0.7,0.1l0.9,0.1l0.5,0.1l0.2,0.3l-0.7,1.3l-0.2,1
		l-0.6,0.6l-1,1.3l-0.9,1.5l-0.9,0.6l-0.8,1.4l0,0.8l-0.4,0.8l-0.3,0.6l-0.2,0.9l0.8,0l2.2,0l1.4,0.1l2.3,0.5l2.4,0.8l3.5,1.7
		l1.1,0.6l1.7,0.5l2.4,0.9l1.8,0.6l1.6,0.6l1.3,0.5l1.2,0.7l1.3,0.6l2.7,1.4l2.2,1.1l1.6,1l1.5,1l2,1.2l1,0.6l1,1.1l2.6,2l2.3,1.7
		l3.1,1.3l3,1.6l2.1,1.4l2,1.2l0.3,1.6l0.3,0.7l1.8,2l1.5,1.4l1.3,1.4l0.8-0.1l1.1-0.6l0.2-0.6l-0.9-1.7l1.8-1.6l0.6-1l0.5-1.1
		l0.3-0.4l1.7-0.4l0.9,0.3l2.3,0.8l1,0.5l-0.3,0.6l-0.7,0.4l-1.1,0.5l-0.3,0.6l0.2,0.9l1.2-0.2l0.7,1.1l0.1,1.4l-0.4,0.8l0.4,1
		l0.5,1l0.8,0.6l2.3,0.7l2.3,1.4l0.5,1.1l-0.3,1l-1,0.4l-2.6,0.2l-2.7,2.7l-0.4,2.2l4,4.4l-0.3,2.4h2.2l0.7-0.9l1.4,1l2.2,0.5
		l2.1-0.7l-0.1-1.9l1.1-1.1l1.2-0.8l0-1.7l2.4-0.6l1.4-0.2l1.1-1.1l3.1-0.5l1.7-1.9l2.1-0.9l1.8-1.1l2.2-0.2l1.8-0.6l1.6,0.5
		l2.1,0.8l1.8-0.1l0.8,1.6l-0.5,1.5l-1.7,2.2l-0.3,3.1l1.2,1.5l1.3,0.7l-0.4,5l-0.1,3.5l0.5,1.8l2.1,1.2l-0.1,1.4l0.9,1.8l-0.4,2.1
		l0.8,2l0.7,2.2l0.8-1l2-0.5l1.2-0.6l1.7-0.7l2.9-1.6l3.3-2.8l3.2-1.6l4-0.5l2.4-1.3l2.8-0.8l2.3,0.1l1.7-1.2l1.7,0l2.7,0l0.6-0.8
		l2-0.1l1.4,0.1l2.5-1.1l1.2-1.1l1.1-0.6l2-0.2l1.8-1.4l1.6-2.1l1.1-3l0.6-0.8l0.4-0.1l0.6,0.3l1.3,1.2l1.2,1.3l0.6,0.7l1,0.7
		l0.2,0.7l0,1.1l0,0.8l1.2,1.8l1.4,0.3l1.7,3.5l0.5,2.3l0.4,1.2l-0.2,2.4l0,0.7l-1.8,1.6l-0.3,0.9l-0.1,0.6l0.5,1.2l0.1,1.1
		l-0.1,1.3l0.4,0.7l0.4,1.6l0.9,1.7l1.2,1.1l3.1,1l0.7,0.8l0.7,0l0.7,0.1l1.6,3l2.1,1.1l3,1.2l3.2-0.8l1.7,1.1l4.2,1.6l1.3,0
		l1.4-0.6l2.4-1.7l1.1,0.7l0.9,1.5l1.3,2.7l0.4,2.4l0.2,2.3l-0.3,2.4l-0.5,1.8l-0.6,1l-1.2,1.2l-2.8,2.3l-0.2,2.2l-0.4,2.5l0.3,1.3
		l0.9,2.2l1.3,2.2l1.4,1.2l1.7,0.7l1.8,0.6l5.9,0.9l1.9,0.5l1.5,0.9l1.2,1.9l0.7,0.8l0.7,0.1l1-0.1l1,0.2l2,0.6l2,1.6l1.7,1l2.5,2.1
		l0.3,0.6l0.2,3.4l0.2,1.1l0.3,0.5l4,1.5l1.2,0.8l0.7,0.5l0.5,0.8l4.8,5l1.2,0.6l1.5,0.5l5.1,1l4.1,0.1l2.4,0.2l3.3-0.1l0.4-0.2
		l1.5,0l0.6-0.1l1.1,0.4l0.3,0.3l0.7,0.8l0.8,1.5l0.5,0.4l3.1,1.2l1.9-0.1l2.3,0.5l2.5,0.9l2.4-0.7l0.6-0.1l0.4,0.1l0.3,0.3l0.4,0.9
		v0.5l-0.3,2.4l-0.6,1.6l0,1.1l-2.1,0.5l-1,1.3l-1.5,1.9l-1.4,2.2l-1.2,1.8l-1.1,2.2l-2.1,0.6l-2.4,3.6l-3.8,3.7l-6.9,1.9l-7.4-1.3
		l-5.7,0.4l-5.3-0.3l-8.3,0.8l-7.8,1.1l-7.5,5.8l-7.2,8.3l-7.3,4.2l-6.9,5l-1.1,1.5l-1.2,3.6l-2.3,1.6l-1.5-0.4l-4.2,0.5l-3.9,3.4
		l-3.5-2.8l-1.8-0.7l-1.6-2.2l-2.5-1l-1.8,0.1l-1.4,1.5l-1.2,2.1l-2.7,0.7l-3.6,2.2l-4.8,1.5l-4.3,2.9l-5.8,0.1l-0.9,0.4l-3.4,2.1
		l-2.1-0.1l-1,0.4l-1.7,0.8l-4.4,0h-3.7l-4,1.6l-3.3,2.4l-5.7,3.1l-1.3,1.7l-4.6,0.3l-0.9,1l-0.8,1.3l-2.3,4.6l-1.4,1l-1.9,2.8
		l-0.6,0.8l-4.4,5.9l-0.9,1.9l-3.1,0.9l-5.2,4.9l-1,1.5l-2.4,1.1l-1.9,2.4l-2.8,0.2l-1.1-0.9l-2.2-1.6l-1.8-1l-1.4-1l-1.7-2.3
		l-0.4-1.4l-0.5-2.1l-0.1-1l-0.7-0.4l-2.4-1.4l-0.5-1.2l-2,0.4l-0.3-0.6l-2-1l-1.2-5.5l0.6-0.6l1.1-1.1l0.4-1l0.2-1.5l0.3-1.4v-2.1
		l-0.3-1l-1.1-0.9l-0.6-1l-0.1-0.9l-0.6-0.6l-0.8-0.2l0.3-1.1l0-0.4l-0.4-1.1l0.1-0.5l0.1-0.4l0.7,0l0.5-0.2l0.3-0.6l0.2-1.1
		l0.1-0.5l1.3-1.1l-0.1-1.3l-0.1-1.9l0-0.8l-0.1-1.7l-1.1,0.4l-0.7,0.2l-1.8-0.4l-1.2-0.7l-1.3-0.9l-0.4-0.2h-0.8l-0.7,0.2l-0.6,0.4
		l-0.4,0.2l-0.4,0.1l-0.9-0.2l-1.1-0.6l-0.4-0.1l-0.8,0l-0.7,1.1l-0.4,0.5l-0.7,1.3l-0.6,0.6l-0.7,1l-1,0.1l-0.3,0.2l-0.9,1
		l-1.8,1.5l-0.6,0.4l-0.6,1.4l-0.6,1l-0.3,0.2l-0.5,0l-1.1,0.1l-3.2,2.3l-0.3-0.4l-0.3-0.6l-0.8-0.8l-1.1-0.2l-1.6-0.1l-1.1-1.1
		l-0.5-0.1l-0.8-0.2l-1.2-0.9l-0.4-0.1l-0.5,0l-0.6,0.2l-0.3-0.1l-0.4-0.5l-0.6-0.4l-0.9-0.3l-1.9-2.7l-0.2-2l-0.4-0.7l-1-0.2
		l-0.3-1l0.1-1.8l0.2-1.1l0.6-0.7l1.2-0.9l1-0.7l0.2-0.7l-0.2-0.8l-1-0.9l-1.2,1l-1.4,0.7l-0.4,0.1l-1.3-0.4l-0.6-0.1l-0.7,0.1
		l-0.5,0.3l-1.2-0.2l-0.6-0.5l-0.6,0.1l-0.7,0.1l-0.5,0l-0.8-0.4l-0.9-0.3l-0.7-0.4l-0.5,0.1l-0.5-0.1l-0.4-0.4l-0.2-0.6l0.4-1.3
		l0.2-0.6l0-0.3l-0.5-0.5l-0.3-0.5l-0.6-1.2l-0.5-0.2l-0.5-0.2l-0.6-0.1l-0.4-0.2l-0.1-0.9v-1.4l0.1-1.1l-0.2-1.1l-0.5-1.2l-0.2-0.7
		v-0.6l0.4-0.5l-0.6-0.7l-0.5-0.4l-0.7-0.1l-0.5,0.6l-0.7,0.8l-0.5,0.2l-0.5-0.1l-0.8,0.6l-0.7,0.2l-0.5-0.3l-0.1-0.9l-0.4-0.2
		l-0.7-0.3l-1.1,0.5l-0.6,0.1l-0.9-0.6l0.1-0.6l0-0.3l-0.2-0.2l-0.8,0.1l-0.8-0.1l-1.1-0.3l-0.7-0.3l-1.3-0.6l-0.7-0.6l-0.5-0.7
		l0.3-0.5l0.3-0.5l-1.9-1.2l-0.3-0.1l-0.8,0.1l-1.6-0.5l-1.7-0.4l-1-0.6l-0.8,0.1l-1,0l-0.5-0.1l-0.6-0.5l-1-0.5l-0.6-0.4l-0.6-0.3
		l-0.5,0.3l-1.2,0.6l-1.1,0.3l-0.6,0l-0.9-0.6l-1,0.1l-0.8-0.5l-0.5-0.2l-1.7-1l-0.6-0.6l-0.7-0.2l-0.8-0.8l-0.6,0.2l-1.2,0.5
		l-1.1,0l-0.8-0.3l-0.7-0.4l-0.3-0.4l-0.5-0.7l-0.2-0.7l-0.3-0.7l-0.3-0.3l-0.3-0.1l-0.2-0.3l-0.3-0.3l-1.3-0.1l-0.3,0.5l-0.3,0.5
		h-0.2l-0.3-0.6l-0.5-0.9l-0.4-1l-0.8-0.6l-0.1-0.9l-0.1-0.4l-0.3-0.4l-0.6-0.3l-0.2-0.4l-0.6,0l-0.6,0.6l-1.1,0.7l-0.7,0.5
		l-0.6,0.2l-0.5-0.5l-0.7-0.8l-0.5-1.5l-0.2-1l-0.7,0l-0.5,0.4l-0.3,0.3l-0.3,0.3h-0.2l0-0.2l-0.1-0.3l-0.4-0.6l-0.4-0.6l-0.1-0.5
		l-0.3-1.8l-0.7-0.8l-0.4-1.2l-0.4-0.5l-0.4-0.8l-0.1-0.2l-0.9-0.7l-0.5-0.5l-0.7-0.5l-0.7-0.6l-1.8-1.5l-0.7-0.4l-0.2-0.1l-0.3,0
		l-0.4,0l-0.4,0.6l-0.3,0.3l-0.3,0.4l-0.3,0l-1-0.4l-0.3-0.2l-0.5-0.4l-0.3-0.1l-10.8-0.1h-16.8l-5.8-2.3h-9.7l-6.5,0.6l-5.2,1
		l-3.2-10.7l-5.2-6.8l1.3-9.5l1-8.6l-3.1,0.3l-0.5-4.5l2-4.6l-4.2-4.2l0.6-5.5l-1.6-2.1l-4.8-3.1L2184.9,155.8"/>
	<path fill="none" stroke="#000000" stroke-width="0.25" d="M2489.4,941.6l3.5,13.6l0.4,4.6l0.4,3.9l5.6,1.7l5.6,6.3l7.3,2.8
		l6.9,1.6l5.8,1l0.8,7.3l-1.5,10.1l6.1,1.5l4,2.5l-2.3,7.1v5.1l-0.5,7.1l-3.5,5.1l2.8,5.1l-3,4.6l-4.1,3l0.5,4.6l1.8,0.8l1.4,1.5
		l0.3,0.6l0.3,0.5l0.2,0.9l0.1,1l-0.1,2.3v1.6l-0.3,1.9l-0.1,3l-0.2,1.5l-0.2,1.2l-0.3,0.7l-0.5,0.6l-0.2,0.4l0.1,0.8l0.3,0.4
		l0.5,1.3l0.6,1.2l0.5,0.6l0.6,0.5l1.2,0.8l1.2,0.2l1.2,0.1l1,0.1l0.5-0.2l1.4-0.3l1.4-0.1l1.6,0l1.3,0.1l0.6,0.2l0.6,0.3l0.4,0.2
		l0.7,0.3l0.5,0l1.1,0l0.5,0l0.4,0.1l0.5,0.1l0.4,0.1l1.5,0.8l2.3,0.8l1.4,0.2l0.9-0.2l0.8-0.3l0.4-0.3l0.1-0.2l0.1-0.1l0.3-0.4
		l0-0.3l0-0.3l0.1-0.4l0-0.3l0-0.3l0-0.2l0-0.3v-0.8l0-0.2l0-0.2l0.1-0.3l0.1-0.5v-0.2l0.1-0.3l0.2-0.1l0.1-0.1l0.3-0.1l0.5,0.1
		l0.7,0.1l0.8,0.3l1.1,0.2l0.4,0h3.3l1.3,0.2l1.4,0.2l1.2,0.1l1.2,0.1l0.9-0.1l1.1-0.1l0.9-0.1h0.7l0.8-0.1l0.6-0.1l1.4-0.4l1.5-0.4
		l1.4-0.4l0.9-0.2l0.8-0.2l0.4-0.1l0.7-0.1l1.2-0.1l1-0.3l1.1-0.3l0.7-0.2l0.7-0.2l0.7,0.1l0.6,0.1l0.5,0.1l0.5,0l0.8,0.1h0.3
		l0.7,0.1l0.9-0.1l1.1-0.4l0.7-0.3l0.7-0.1l1.3-0.2h0.3l0.7,0l0.8-0.1l0.9,0.1l0.7,0.2l0.5,0.1h0.7l0.6-0.1l1-0.6l0.3-0.2l0.6-0.1
		l0.7,0.1l0.7,0.2l0.7,0.2l0.6,0.1l0.6-0.1l0.6-0.2l0.3-0.2l0.2-0.3l0.1-0.1l0-0.1l0.2-0.3l0.2-0.2l0.2-0.3l0.2-0.3l0.1-0.2l0.1-0.2
		l0.1-0.3l0.2-0.2l0.2-0.2l0.2-0.2l0.3-0.2l0.2-0.2l0.2-0.1l0.4-0.3l0.4-0.2l1-0.3l2-0.6l1.7-0.3l2-0.2l0.8,0.1l1.1,0.1l2.4-0.1
		l3,0.1l2.1-0.1h1.1l1.4,0.1l1.5,0.2l0.7,0.1l0.7,0.1l1.2,0.2l0.7,0.2l0.5,0.3l0.2,0.1l0.4,0.1l0-0.1h0l0.1-0.1l0.3-0.1h0.1l0.1-0.1
		l0-0.1l0.3-0.3l0.1-0.1l0.3-0.3l0,0l0.2-0.2l0.1-0.1l0.2-0.1l0.2-0.2l0.3-0.2l0.3-0.2l0.2-0.1l0.1-0.1l0.2-0.1l0.3-0.1h0.1l0.3-0.1
		l0.5-0.1l0.2-0.1h0l0.2-0.1l0.1-0.1l0.2-0.1l0.2-0.2l0-0.1l0.1-0.2l0-0.1l0.1-0.2l0-0.2l0.1-0.1l0.1-0.1l0.1-0.2l0.1-0.2l0.1-0.2
		v-0.1l0.1-0.1l0.1-0.1l0.2-0.2l0.1-0.1l0.3-0.3l0.1-0.1l0.3-0.2l0.5-0.3l0.5-0.4l0,0.1l0.9-1l0.7-0.8l0.6-0.5l0.7-0.4l0.7-0.2h0.9
		l1-0.1l1.1-0.8l0.9-0.4l0.4-0.6l0.6-0.6l0.9-0.8l1.6-1.8l1.6-1.7l0.4-0.4l1.2-1.4l0.5-0.8l0.7-1.1l0.7-0.8l0.6-1l0.4-0.6l0.2-0.3
		l0.4-0.7l0.5-1l0.6-1.8l0.6-2.1l0.3-0.9l0.5-0.8l1.6-2l0-2.2l1.1-3l0.9-1.5l1.9-1.8l0.5-0.6l0.5-0.8l2.4-5.3l1.1-3.3l1.1-4.3
		l1.3-3.7l1-2.1l1-1.8l1.5-2.4l2.4-3.3l1.3-1.5l3.9-3.3l1.1-0.8l1-0.4l0.5-0.4l0.3-0.5l0.1-0.5l0.3-2.4l0.2-0.8l0.3-0.5l1.9-1.9
		l0.4-0.4l0.6-0.3l0.7-0.1l1.8-0.1l0.6-0.2l0.6-0.4l0.4-0.6l0.4-0.4l0.8-0.3l2.7-0.8l0.8-0.4l1.2-0.8l0.8-0.9l0.4-0.9l0.1-0.5
		l-0.1-0.3l-0.4-0.9l-0.2-0.7l0-3.3l-0.1-1l-0.7-2.9v-0.4l0.1-0.4l0.6-0.7l2.3-1.6l0.6-0.6l0.5-0.7l0.6-0.7l0.8-0.6l1.1-0.6l2.1-0.7
		l0.8-0.4l0.7-0.4l0.4-0.6l0.7-1.2l1.3-2.5l0.5-1.3l0.4-1.3l0.2-0.8l0.2-0.8l0.1-3.5l0.2-1.5l0.2-0.8l0.9-2.3l1-1.7l0.7-0.6l0.8-0.4
		l0.6-0.1l0.9,0l0.4-0.2l1.3-1.5l1.1-1.6l0.5-0.6l1.3-0.9l0.9-0.4l1-0.3l0.7-0.1l2.1,0l1.4,0.3l2.7,1l0.6,0.1l0.8-0.1l0.6-0.1
		l0.6-0.3l2.4-1.9l0.6-0.4l0.7-0.3l2.2-0.6l1.9-0.4l2.5-0.2l2.1-0.4l1.4-0.4l0.8-0.4l0.6-0.5l1.3-1.8l1.5-2.3l1.3-1.2l2.4-2.5
		l0.7-0.6l1.3-0.9l1-1.3l0.6-0.9l1.2-2.4l0.1-0.8l-0.1-1.6l0.3-1.3l0.6-1.3l0.5-0.6l0.4-0.6l1-1l1.5-1.3l1-0.7l1.6-0.6l2.5-0.6
		l1.2-0.4l1.9-1.1l1.9-1.1l1.1-0.4l1.6-0.4l0.8-0.3l0.8-0.6l0.5-0.5l0.8-1.5l0.6-1.6l0.9-3.5l0.3-1.9l0.2-0.8l0.3-4.2l0.2-1l0.1-1.7
		l0.1-1.6l-0.1-2.3l0.1-1.5l0.4-3l0.5-3.3l0.2-0.8l0.2-0.3l0.4-0.3l0.3-0.1l2.7,0.1l2.1,0l1.5,0.2l3.3,0.8l1.4,0.2l1.6,0.1l1.1-0.2
		l1.2-0.6l0.8-0.2l0.5,0l0.9,0.3l1,0.1l1.7-0.1l1.3-0.3l1.2-0.6l0.5-0.5l0.4-0.6l0.7-2.4l1.2-1.8l0.5-0.9l0.6-1.5l0.4-1.2l0.3-1.6
		l0.1-0.8l-0.2-0.6l-0.5-1.2l-0.2-2.9l0.2-0.8l0.2-0.3l0.2,0l2.8,0l1.2-0.1l0.6-0.2l0.8-0.3l0.5-0.2l0.9-0.7l0.4-0.7l0.9-2.1
		l0.6-1.2l0.5-1.3l0.3-1.5l0.3-2l0.3-1.4l0.5-1.6l0.3-0.7l0.6-0.9l1.5-1.5l1.5-1.3l0.8-0.4l1.3-0.4l1.6-0.4l1.3-0.2l1,0l4.6,0.1
		l2.1-0.2l0.3-0.1l0.3-0.2l0.9-1.2l0.4-0.9l0.2-0.2l0.7-0.5l1.3-0.7l0.6-0.6l0.8-1.2l0.6-1.2l0.6-0.9l0.7-0.9l1.6-1.8l0.3-0.4
		l0.3-0.7l0.1-0.4l-0.1-0.7l-0.1-0.6l-0.3-0.7l-0.7-0.7l-2.1-1.6l-2.7-2.6l-0.4-0.5l-0.6-2.1l-0.5-1.4l-0.2-0.9l0-0.8l0.3-1.3
		l0.2-1.5l-0.2-1.4l-0.4-1.2l-2.1-3.3l-0.5-1l-0.7-2.3l-0.2-1.2l-0.1-1.5l0.4-2.5l0.7-2.3l0.9-2.5l1.6-5.4l0.9-4.3l0.2-1.8l0-0.2
		l-0.4-0.5l-0.4-1.9l-0.6-1.8l-1.6-1.7l-0.5-0.7l-0.5-0.8l-0.9-1.1l-0.6-1.3l-1.7-2.3l-0.2-0.4l-0.2-0.9l-0.2-2.1l-0.1-0.5l-0.8-2
		l-0.2-0.9l0.1-0.7l0.2-0.5l0.3-0.4l2.8-2.9l0.8-0.9l1.8-2.9l0.9-2.1l0.4-0.6l0.9-1l0.9-0.9l1-0.7l2.1-0.6l0.7-0.2l0.7-0.4l0.9-0.7
		l0.6-0.8l0.3-0.7l0.1-0.8l-0.4-1.6l-0.2-1.3l0-1.1l0.2-0.8l1-2.5l0.4-0.6l1.4-1.4l1.8-3l0.2-1l0.1-1.2l0.2-0.6l0.2-0.2l0.5-0.4
		l4.5-2.3l0.4-0.1l2.3,0.1l0.5,0l0.7-0.2l0.3-0.2l0.4-0.4l0.5-0.9l0.4-0.6l1.7-1.8l1.3-0.8l3.5-1.4l1.5-0.7l0.8-0.6l0.4-0.6l0.1-0.5
		l-0.1-1.1l-0.3-1.8l-0.7-2.4l-1.3-3.4l-1-1.6l-0.5-2.2l-0.9-2.2l-1.9-3.9l-1-1.6l-1.1-1.7l-1.5-2.3l-1.4-1.9l-1-1.7l-1.9-2.6
		l-1.6-2.7l-0.9-1.9l-0.9-2l-1.2-2.3l-1.1-2.5l-0.7-2l-0.1-1l0.1-0.7l-4,0.8l-5,3l-4,3.3l-2.5,0.2l-2.7-0.3l-1.3,1.7l-0.1,1
		l-0.7,1.6l-1.9,1.1l-1.7,0.5l-6.2,0.9l-3.5,0.3l-2.6-0.4l-1.9-1.2l-1.3-2.3l-1.7-2.1l-1.8-1.6l-2.9-1.3l-3-0.8l-1.1-0.4l-1.2-0.7
		l-1.9-0.9l-1.1-0.2l-3.4-1.4l-2-0.2l-2.8-1.7l-1.7-1.1l-0.7-0.3l-2.5-2.3l-1.6-1l-0.4-0.6l-1-1l-0.3-1.2l-0.1-0.9l0.2-1.6l0.3-1.5
		l-0.2-1.1l-0.4-1.3l-1.5-0.9l-0.8,0.1l-2.8-0.4l-1.6-0.4l-0.8-0.3l-2.1-1.1l-1.6-1l-0.7-0.5l-0.6-0.6l-0.8-1.3l-0.2-0.5l-1.3-2.2
		l-0.6-0.6l-2.3-2.1l-0.7-2l0.1-0.8l1.6-4.2l0.4-1.8l-0.1-1l-0.5-2l-0.5-0.6l-0.6-1l-0.8-0.7l-3.2-2.5l-1-0.5l-0.8-2.3l-0.4-3.8
		l-0.6-1.3l-0.5-1.8l-1.3-1.1l-0.7-0.4l-0.8-0.8l-0.4-2.8v-1.6l-0.5-2.3l-0.1-1.7v-0.3l1.4-2.2l2.9-4.1l2-2.4l1.3-1.4l1.2-1.8
		l1.3-2.3l1.6-6l0.7-1.3l0.1-1.4l0.4-1.4l1-1.3l0.2-1.1l-0.6-1.6v-1.6l1.2-2.4l0.9-1.2l0.5-0.9l-0.4-1l-0.5-0.6h-0.6l-1.3-0.3
		l-1.5-0.6l-1.3-0.3l-2.1-1.3l-1.9-1.4l-1.6-0.6h-1.5l-1.3,0.2l-1.1,0.4l-6.7,1.2l-4,1.1l-1.6-0.7l-3.3-0.5l-1.6-0.7l-0.7-0.6
		l-1.4-4.4l0-1.3l0.2-3.6l-0.3-1.5l-0.1-2l0.1-1.4l-0.9-2.6l-0.6-2.3l-0.4-1l-0.2-1.1v-1.2l0.4-2.8l0.9-2.8l0.7-1.6l0.4-1.6l0.6-0.9
		l1.5-1.4l1.1-1.8l0.4-1.6l0.6-1.2l0.1-1.4l-0.1-1.6l-0.3-2.3l-0.7-3.8l-0.3-2.8l0.2-0.9l0.5-0.7l1.1-0.9l0.7-0.8l0.5-0.9l0.1-0.8
		l-0.3-0.8l-0.2-0.9l0-1.2l0.4-1l0.2-1.8l-0.3-3.6l-0.3-2l-0.1-2.7l0.1-1.4l-0.1-2.5l0.1-1.4l0.3-1.3l0.1-1.2l-0.4-1.1l-0.5-0.8
		l0.1-0.7l0.3-0.9l0.8-1.3l0.5-1.1l0-0.9l-0.4-0.3l-0.7,0l-1.5,1.2l-0.5,0.6l-1,0.9l-1.1,0.6l-1-0.3l-0.8-0.4l-0.6-0.5l-0.5-1
		l-1-0.8l-1.7-1.8l-0.8,0l-1.5,0.6l-4,2.6l-1.7,0.6l-1.1-0.3l-0.9-0.6l-0.4-0.9l-0.5-1.8l-0.2-0.9l0-1.4l-0.4-1l-0.6-0.6l-0.9-0.2
		l-0.9,0.3l-0.6,0.4l-0.9,0.8l-2.4,2.8l-1.2,1.9l-1,1.4l-0.8,0.7l-0.9,0.3l-1.8-0.4l-0.8-0.4l-0.2-0.5l0.4-0.8l1.5-2.1l0.4-1.1
		l-0.1-2.4l0.3-3.4l-0.4-2.7l-0.4-1.4l-0.2-0.9l0.1-2.4v-2.5l-0.3-1.8l-0.1-1.5l0.1-1.5l-0.8-5.6v-1.7l-0.6-1l-0.6-1.3l-0.8-1.1
		l-0.3-0.8l-1-0.8l-0.9-0.9l-0.8-1.1l-1-1l-0.8-1l-0.4-0.9l-1.2-1.7l-4.3-7.5l-1.8-2.3l-1-1.1l-1.3-1.1l-1-1.6l-0.7-1.4l-1-0.8
		l-1.6-1.6l-2-1.6l-1.6-2.4l-1.6-1.5l-1-1.4l-0.4-1.8l-2.8-3.6l-0.8-0.9l-0.1-0.3l-1,0.1l-2.4,0.8l-1.1,0.5l-3,0.1l-1.4-0.2l-1.7-1
		l-2.9-2.1l-0.9-0.9l-1.1-0.8l-1-0.6l-2.3-1.1l-1.8-0.1l-1.6,0.2l-1.4,0.6l-1.5,0.4l-1.5,0.9l-2.7,1.3l-2.2,1.1l-1.7,0.6l-3.7,2.3
		l-1.4,1.1l-3.9,2.5l-1.7,1l-1.1,0.3l-1,0.2l-2.7,0.1l-4.3-0.5l-1.5-0.5l-2.1-1.2l-0.7-1.2l-0.5-1.8l0.1-1.5l0.5-1.5l0.7-3.5
		l2.3-5.2l1.7-5.4l0-2.4l0.9-4.6l0.6-2.7l1.2-3.7l0.4-1.7l0.8-2.2l0.6-1.5l1.2-1.4l1.4-1.2l1.1-1.1l0.6-1.3l3.1-4.6l0.7-1.7l1.8-3.1
		l1.2-1.3l0.3-1.6l-0.5-3.6l-0.5-1.6l-1.2-2.4l-0.4-1.7l-0.1-1.1l-0.2-3.6l0.6-5l0.1-1.9l-0.3-1.1l-1-0.9l-1.4-0.7l-3.2-1l-2.6-1.3
		l-1.5-0.4l-0.6-1l-1.8-0.8l-0.5-0.9l-1.8-1.1l-1-1.3l-1.4-1.5l-1.1-1.4l-1-0.4l-2.8-1.9l-0.6-1.1l-0.5-1.3l-0.3-3.4l0.8-4l0.7-2
		l1.2-1.6l0.8-1.2l2-5.3l0.8-3.5l0.4-2.5l1.9-3.4l1-1.1l1.4-1.3l1.1-1.4l2.7-2.5l0.8-1.2l0.3-1.2l0.2-1.4l0.2-4.8l0.5-3.1l0.3-0.9
		l0.7-1.1l0.8-2.1l0.6-0.8l0.3-0.6l0.2-1.1l0.6-0.7l1.1-2.1l0.8-2l0.7-1.6l-0.7-0.1l-1.5-1.4l-0.8-0.3l-1.7-1.2l-0.9-0.4l-0.4-0.4
		l-0.3-0.3l-1.3-1.7l-1.9-3.6l-1.1-3.7l-0.6-1.5l-2.4-4l-0.2-0.6l-1.2-1.2l-0.7-0.7l-0.8-0.5l-0.5-0.1l-2,0l-1.3,0.3l-0.6-0.1
		l-1.6,0l-1.8-0.2l-0.7,0.1l-1.4-0.1l-0.5-0.3l-0.5-0.1l-1.5,0.3l-1.4-0.2l-1-0.1l-1.3-0.7l-1.5-3.6l-2.1,0.5l-1,1.3l-1.5,1.9
		l-1.4,2.2l-1.2,1.8l-1.1,2.2l-2.1,0.6l-2.4,3.6l-3.8,3.7l-6.9,1.9l-7.4-1.3l-5.7,0.4l-5.3-0.3l-8.3,0.8l-7.8,1.1l-7.5,5.8l-7.2,8.3
		l-7.3,4.2l-6.9,5l-1.1,1.5l-1.2,3.6l-2.3,1.6l-1.5-0.4l-4.2,0.5l-3.9,3.4l-3.5-2.8l-1.8-0.7l-1.6-2.2l-2.5-1l-1.8,0.1l-1.4,1.5
		l-1.2,2.1l-2.7,0.7l-3.6,2.2l-4.8,1.5l-4.3,2.9l-5.8,0.1l-0.9,0.4l-3.4,2.1l-2.1-0.1l-1,0.4l-1.7,0.8l-4.4,0h-3.7l-4,1.6l-3.3,2.4
		l-5.7,3.1l-1.3,1.7l-4.6,0.3l-0.9,1l-0.8,1.3l-2.3,4.6l-1.4,1l-1.9,2.8l-0.6,0.8l-4.4,5.9l-0.9,1.9l-3.1,0.9l-5.2,4.9l-1,1.5
		l-2.4,1.1l-1.9,2.4l-2.8,0.2l-1,1.9l0.5,3.5l-0.6,4.6l-2.4,2.3l-2.1-0.5l-1.7,0.7l-3.1-0.1l-2.6,1l-2.1,4.8l0.6,3.1l-0.5,5.8
		l-2.6,0.9l-1.8,0.7l-0.7,1.3l-1.9,0.7l-1.2,3l-3.4,1.1l-2.1,1.9l0.5,1.4h2.5l0.3,1.5l1.1,1.2l2.2-0.3l0.1,2.8l0.7,3l-2.9,2.9
		l-1.4,2.5l-2.7,3.7l-1.4,2.3v1.8l-0.8,1.9l-1.8,2.7l-0.1,1.6l-1.6,2.1l-4.9,0.1l-3.6,0.5l-3.2,0.4l-6.8-0.1l-4.9-0.6l-3,0.3
		l-3.8,2.5l-1.9,1.4l-2.5,1.4l-1.2,0.9l-2.4,1.2l-2.4,1.8l-2.8,1.2l-1.7,0.2l-1.8-0.1l-2.3-0.5l-1.3,0.7l-1.4,2.5l-2.6,4.4l-1.7,4.6
		l-0.8,4.7l-0.3,2.7l0.6,3.7l-2.8,2l-4.5,2.8l-2.4,1.7l-1.7,1.6l-2.7,0.1l-1,1.3l-0.8,2l-0.6,2.2l-2.3,3.9l-1.3,2.6l-1.9,2l-1.6,1.6
		l-1,1.6l-0.6,1.3l-1.4,2.2l-0.2,1.4l-0.2,1.3l0.3,0.9l0.9,1l1,0.8l1.1,1.2l0.3,0.9l2.4,1l0.4,1l0.1,1.8l0.2,2.6l0.9,0.1l1.4,0.4
		l0.5,0.7l0.9-1.4l1.5-0.6l2.1-1.1l1.6-0.7l1.4,0.5l1.9,0.5l1.4,0.2l3-0.1l5.1-0.2l2.2-0.4l7.9-2.3l0.6,0.6l0.7,1.3l0.3,5.1l0.3,2.2
		l0.2,2.7l0.3,3.2l0.6,1.8l1.2,0.3l1.1,0.5l0.8,0.4l1.6,0.7l0.9,0.7l1.9,0.8l2.7,0.8l3,0.6l1.5,0.1l1-0.2l1.4-0.5l1.1-0.3l1.3-0.3
		l1.2-0.2l2.4,0.8l1.7,0.6l2.3,0.7l1,0.8v1.6l0.2,1.4l1.2,2.8l1,2.3l1.7,1.9l2.4,2.4l2.1,1.2l3.6,4.4l0.7,2.4l0.9,5.1l1.2,4.7
		l0.5,2.5l0.1,4.2l-1.1,4.3l-7.3,10.6l-0.9,2.5v2.4l0.4,3.7l0.6,2.3l0.7,2.6l0.8,0.6l2.5,1.7l5.6,5l6.5,5.3l2.8,2.1l3.3,2.9l3,4.1
		l3.6,3.5l0.7,1.4l1,2.1l3,1.7l2.4,1.7l3.6,1.6l1.7,0.5l4.9,1.7l3,2.4l1.9,2.1l0.5,5.4l3.9,2l3.2,1.4l1.4,1.7v12.8l5.3,6.1l1.6,1.8
		l3,3.7l0.8,3.1l1.9,1l3.8,4.7l3.2,1.5l-3.2,6l-3.7,5.6l-1.7,0.5l-1.8,1.3h-1.8l-7.3,0.4l-2.4,4.2l-2.5,1.5l-1,4.8l-1.6,3.7
		l-2.5,4.1l-2.6,1.4l-3.1,0.3l-3.2-0.7h-5l-2,0.5l-1,1.4l-1,3.4l-1.6,3.3l-3.6,5.1l-1.7,3.8l0.6,4.1l0.9,3.5l-1.2,2.4l-0.4,2.6
		l-1.6,5.5l0.2,4.3l2.1,2.6l0.2,4.4l0.7,3.2l-3.3,3.7l-2.8,5.6l-0.8,2.2l-3.5,13.7l0.4,1.5l2.1,0.6l3.5,0.9l2.6,2.6l2.2,4.2l1.2,2.1
		l2.2,3.7l0.1,1.8l3.6,4.6l1.8,4.7v2.2l-1,1.2l-2.2,0.5l-2.6-1.1h-2l-1.5,1l-1.2,2.1l-2.4,2.5l-1.5,1.8l-0.2,2.7l0.8,2.4l4.2,3.8
		l3.9,4.6l2.6,0.5l3.4,0.5l1.2,3.3l-1.7,5.6l-0.2,4.1l0.7,4.9l2.6,3.6l-1.5,1.5l-2.5,1.1l-1,1.9l0.6,1.5l3.8,0.4l2.4,3.4l1.2,3
		l-0.7,2.5l-1.9,2.6l-2.1,3.6l-0.8,3l0.3,2.2l0.1,2.7v2.9l1.2,1.8l2.2,2.2l3.9,0.7l4.2-2.4l7.3,5.3l8.8-5.3l4.6-3.9l3.1,3.5l0.4,7.4
		l0.3,4.9l8.1,1.1l5.6,2.4l-1.7,3.8l-3.5,6.7l-4.6,11.5l6.6,3.5l3.5,5.3l6.6,4.9l5.9,1.8l3.2,9.1l4.5,3.5l5.6-2.4l-0.7,11.5l9.1,6.3
		l1,1.8l2.6,1.5l2.5,2.1L2489.4,941.6z"/>
	<path fill="none" stroke="#000000" stroke-width="0.25" d="M1779.8,1.3l11,6.8l12.5,3.9l4.4,7.5l2.6,6.1l0.3,1l2.3,6.7l4,2.8l3,1.8
		l12.5,9.5l3.9,2.7l6.7,3.2l4.1,1l4.8,0.9l7.3-0.2l3.2-0.3l3.9,0.7l7.8,3.3l4.6,1.3l3.5,1.4l3.7,0.7l1.5-0.1l1.8,0.2l3.1-1l1.6-1.2
		l1.6-1.8l1.3,0.4l0.7,0l1.6,0.3l2.1,1l3.2,2.4l1.7,2.1l0.9,1.8l0.8,2.5l1.2,3.2l0.4,0.4l7.3,3.5l2,1l1,0.5l0.7,0.3l7.8,0.3l2.7,0.8
		l4.8,1.4l2.1,0.6l1,0.3l2.8,2.6l0.9,2l0.4,0.2l4.9,2.1l0.9,0.4l2.8,3.3l3.6,3.4l1.6,0.8l7.5,9l0.6,0.8l7,9.1l0.4,0.6l4.3,1.2
		l2.4,1.9l0.5,1.1l0.3,0.7l1,3.7l0.8,1l1.6,1.8l1.9,2.2l1.2,3.7l23.8,0.5l9.3,1.8l3.7,2.4l3.1,1.9l5.7,3.9l13.3,8.2l11.8,6.1
		l9.3,5.4l8.5,6.2l2.3,1.7l0.5,0.4l6.2,3.5l1.1-6.8l-3.1-4.9l-10.6-4.8v-9.6l-3-3.8l4.3-4.3l3.5-6.8l2-4.6l0.5-5.3l-0.8-4.1
		l-4.8-4.1l-4.3-1l-2.3-4.3l-3.8-2.5l-5.9-7.5l5,0.2l5.7-1.2l2.7,0.6l1.3-0.2l0-1l-0.8-0.6l-1-0.1l-1.8-0.8l0-0.9l-4.8-1.5l2.8-2.3
		l-5.4-2.2l-3.5-3.5L2052,84l-5.6-1.3l-3-0.5l-6.5-0.7l-2.6-0.3l-5.1-3.5v-6.6l-5.8-4.8l-4.7-1.4l-0.4-0.1l-4.1-3l-4.3-0.3h-3
		l-4.3-2.3l-2.1-2.2l-0.5,0.3l-0.2-0.5l-0.8-1.8l-0.3-0.9l-0.1-0.7l-0.1-0.8l-0.1-0.6l0-0.5l0-0.3l0-0.4l0.1-0.9l0.1-0.8l0.1-0.7
		l0.7-1.3l0.2-0.7l-0.3-0.4l-0.3-1l-0.1-1.1l-0.1-1l0.1-1l0.2-1.5l0.4-1.5l0.3-0.5l0.8-3.6l-0.1-0.8l-0.8-0.5l-3-1.4l-1.2-0.3
		l-2.1-0.3l-0.3-0.4l-0.9-1l-0.6-1.2l-0.5-1.9l-0.5-1.3l0.1-1.4l-0.5-3.1l-1-1.9l-1-2l-0.5-1.6l-0.7-1.9l-0.7-0.7l-3.6-1.2l-2.4-0.7
		l-2.4-0.8L1976,11l-2.5,0.6h-1l-1.2-0.3l-0.8-0.5l-1.8-1l-0.4-0.3l-0.2-0.4l-0.6-1.4l-0.4-1.2l-0.4-1.8l-0.2-1.5l-1.1-1.1l-2.4-1.4
		l-1.7-0.8l-2-0.3l-4.1-0.9l-2.3-0.9l-3.7-1.6l-6.5-2.9l-1-0.6l-4.7-2.9l-0.5-0.3l-4.8-2.9l-3.6-2l-4.1-2.7l-1.5-1.2l-0.8-1.2
		l-0.4-1.5l-0.3-1.5l0-2l-1.1,1.1l-0.8,1.1l-0.9,0.7l-0.2,0.5l-0.6,1.4l-0.4,1.2l-0.6,0.4l-0.3,0.3l-0.5,0.5l-0.1,0.1l-0.3,0.4
		l-0.4-0.1l-0.7-0.4l-0.5-0.2l-0.2,0.2l-1-0.4l-0.9-0.3l-0.7-0.2l-1.2-0.3l-0.9-0.5l-0.6-0.4l-0.8-0.1L1907-21l-0.2-0.4l-0.2-0.4
		l-0.2-0.3l-0.2-0.2l-0.3,0l-0.7,0.3l-0.5,0.3l-0.4,0.3l-0.6,0.6l-0.8,0.5l-0.4,0.3l-0.1,0.2l0,0.4l0,0.7l0,0.6l-0.3,0.8l-0.6,0.3
		l-0.5-0.1l-1.3-0.4l-0.3-0.8l-0.4-1.8l-0.2-0.6l-0.4-0.5l-0.4-0.4l-0.4-0.3l-0.1-0.1l-0.7-0.9l-0.9-0.8l-2.3-1.6l-0.4-0.3l-0.9-0.8
		l-0.7-0.7l-0.3-0.2l0-1.1l-0.1-0.9l-0.2-1.1l-0.1-1.1l-0.3-1.1l-0.2-0.6l-0.7-0.5l-0.3-0.6l-0.5-0.6l-0.6-0.5l-0.7-0.2l-1.2-0.7
		l-1.3-0.8l-0.6-0.4l-0.1-0.2l-0.2-0.3v-0.7l0.1-0.8l0.1-0.7l-0.3-0.6l-0.5-0.5l-0.3-0.3l-0.5-0.2l-0.4-0.1l-1-0.3l-0.2-0.2
		l-0.6-0.9l0.3-0.5l0.1-0.2l-0.3-1.1L1880-46l-0.3-1l-0.4-0.5l-0.5-0.3l-0.8-0.1l-0.8,0.7l-0.8-0.3l-0.5-0.1l-0.6-0.1l-0.5,0.1
		l-1.1-0.8l-1-0.9l0.1-0.8l-0.2-0.4l-0.4-0.3l-0.7-0.2l-0.6-0.2l-0.7,0.1l-0.8,0.2l-0.6,0.5l-0.5,0.2l-0.6,1.5l-0.3,0.2l-0.5-0.2
		l-0.1-0.8l-0.1-1.2l-0.1-1.2l-0.6-0.8l-1.3-1.3l-1.1-1.5l-3.1-2.8l-1.8-1.8l-0.8-0.8l-1-1.1l-0.6-0.5l-0.8-0.1l-0.6-0.3l-0.9-0.8
		l-0.8-0.3l-1.3,0l-0.8,0.2l-0.6,0.2l-0.6,0.1l-1.9-0.1l-1.5-0.4l-1.3-0.7l-2.8-0.1l-1.2,0h-1.4l-0.6,0l-0.3-0.1l-0.7-0.5l-0.8-0.9
		l-0.2-0.3l-0.8,0.2l-0.5,0l-1.1-0.4l-1.3-0.3l-1-0.2l-0.7,0l-0.5,0l-2.4,0.4l-1.1,0l0.5,0.9l-1.5,3.7l-1.3,2.8l-1.4,1.7l-0.4,1.1
		l-0.5,0.4l-1.1,1.4l-0.9,1.7l-0.6,0.7l-1,1.7l-0.7,1.3l-0.3,0.7l-0.3,0.5l-0.5,0.9l-0.7,1.1l-0.7,1.3l-0.7,1.2l-0.7,1.4l-0.7,1
		L1814-40l-0.3,1l-0.6,1l-0.6,0.9l-0.8,1.1l-0.9,0.9l-0.9,1.1l-0.7,0.7l-0.6,0.9l-1.3,1.4l-0.8,1.2l-0.4,0.7l-0.5,0.9l-0.8,0.8
		l-0.6,0.7l-0.8,0.8l-0.8,1l-1.4,1.4l-1,1.2l-1.1,1.3l-1,1.4l-1.2,1l-0.6,0.7l-0.8,1.1l-0.7,0.8l-1.1,1l-0.6,0.7l-0.6,0.3l-0.6,0.3
		l-0.6,0.6l-0.7,1.1l-0.8,0.8l-0.7,0.7l-0.6,0.6l-1.1,1.5l-0.6,1.1l-0.8,1.5l-0.6,1.1L1779.8,1.3"/>
	<path fill="none" stroke="#000000" stroke-width="0.25" d="M2021.9,360.2l1.9,3.2l-1.5,5l5.6,2.9l1.1,1.9l1.1,2.5l0.7,0.3l1.5-0.2
		l0.9,0.2l-0.3,1.5l-1.2,1.9l-0.7,0.5l-2,0.2l-0.2,0.5l-0.1,2l0,1.2l-1.4,4.3l-3.8,3.5l-2.8,1.4l0.5,3.5l2.8,2.6l3,1.8l-0.3,7.3
		l-0.8,2.5l-1.2,0.2l-4.8-0.2l-1,1l-0.5,1.6l-0.1,1l-3.5,5.1l0.8,0.9l-0.2,1.7l3.3,0.3l1,0.2l5,5.6l0.9,2.7l-0.2,2.1l-1.4,0.5
		l-0.2,8.9l-1.6,1.6l0.8,2.7l-1.6,2.3l0.3,1.9l-0.2,1.4l-1.8,1.7l-1.2,0.2l-1.7,2.5l1.1,2.8l0.7,0.7l1.3,2.9l1.4,0.5l1.2,0.7
		l1.1,3.6l2.5,0.3l4.8-3.8l5.6,2.6l2.2-0.5l2.8,3.5l-3.8,3.9l-0.7,9.7l-2.7,9.1l-1.7,8.7l-1.3,4.7l-3.3,4.8l2.1,6.8l-3.7,9.7
		l11.5,0.8l10.6,7.5l-1.7,6.4l3.1,6.4l-6.7,7.6l-3.5,7.4v4.2l5.8,5.4l0.6,4.8l1,8.3l5.4,5.8l3.5,5.1h4.2l6.4-4.8l4.5-3.5l7.1-4.5
		l3.2-3.8l1.9,6.4l5.4,1.9l2.2,9.6l11.2,4.8l2.4-16.3l4.2-4.2l9.1-11.4l1.9-7.6l2.9-2.5l10-2.8l8.5-4.5l2.1-4.2l0-4.8l7-4.7
		l3.6-11.9l-1-5.7l-5.4-2.4l-6-3.4l1-6.4v-7.4l-3-3.4l-0.3-5.4l-1.7-3.7l-2.4-7.7l-1.3-8.7l1.3-5.7l-0.3-6.4l-1.3-4.7V445l2-5.7
		l3-8.1l4.4-4l5.4-3l-1.3-6.7l-1.7-8.1l-7.4-12.8l-1.7-7.9l-5.7-7.2l-2-15.1l-3.4-12.9l-3.2,0.6l-3.9-0.1l-3.7-2.4l-2.5-0.2
		l-4.8-2.3l-4.3-4.5l-3.1-6.1l-1.4-5.5l-0.1-5.8l1.4-3.2l2.6-2.1l0.4-2.1l-2.3-1.7l4.3-5.5l-2.8-0.2l2-3l-2.6-1.4l-3.4,0l-2.4,2.2
		l-0.8,0.3l-0.9,0.2l-0.9,0l-1.2,0.4l-0.9,0.9l-0.6,0.5l-0.9-0.2l-0.5-0.4l-0.9-0.4l-1,0.3l-1.1,0.1l-0.6-0.2l-0.3-0.3l-0.5-0.6
		l-0.8-0.2l-0.8,0l-0.7,0.1l-0.9-0.1l-0.5-0.2l-0.9-0.4l-0.6-0.3l-1.3-0.1l-0.6,0.6l-0.9,0.5l-0.8,0.2l-1.1,0.1l-1.1-0.2l-0.6,0
		l-1,0.2l-0.6,0.3l-0.6,0.7l0.2,0.9l-0.4,1l-0.9,1.2l-1,1.3l-1.3,0.6l-0.7,0.3l-0.7,1.4l-0.5,1l-0.3,0.7l-0.1,1.2l-1.3,1.6l-0.9,0.9
		l-1.4,0.5l-0.9,0.5l-0.7,1.1v1.1l-0.5,0.9l-0.7,0.2l-0.6,0.2l-0.6,0.7l-0.5,0.7l-1.3,0.5l-0.4,0.6l-0.5,1.3l-1.6,0.9l-0.7,0.8
		l-0.1,0.8l0.2,1.5l-0.7,0.7l-1.3,0l-1.1,0.3l-0.3,0.9l-0.2,1.8l-0.9,1.2l-0.7,1.6l-0.5,0.9l-0.4,0.6l-0.6,0.6l-0.4,0.4l-0.7,0.1
		l-0.7,0l-0.6,0l-0.6-0.1l-0.4-0.3l-0.3-0.4l-0.4-0.4l-0.7-0.3l-0.6-0.2l-1,0.1h-0.8l-0.7-0.2l-0.4-0.3l-0.5-0.1l-0.6,0.1l-0.7,0
		l-0.5-0.4l-1.2-0.1l0,0.8l-0.2,0.5l-0.4,0.3l-0.4,0.2l-0.4,0.1l-0.5-0.2l-0.7,3.8l-4.4,4l0.3,1.3l-0.2,1.1l0,1.4l-0.3,0.5l-1.1,0
		l-1.4-0.3l-1,0.4l-1.5,0.8l-0.6,0.7l0,0.7L2021.9,360.2"/>
	<path fill="none" stroke="#000000" stroke-width="0.25" d="M1791,355.6l1.3,1.7l0.5,1.3l0.2,0.5l0.2,0.3l1.4-0.1h0.7l0.4,0l0.2,0.4
		l-0.1,0.7v0.5l0.6,0.9l1.7,1.8l1.3,1.1l0.7,0.2l0.6,0.3l0.6,0.4l1.1,0.1l0.7,0.1l0.4,0.3l0.4,0.2l1,0.9l0.3,0.3l0.7,0.5l0.4,0.2
		l0.9,0.1l0.3-0.2l0.7-0.4l1.1-0.1l0.8,0.1l0.3,0.1l1-0.4l0.3-0.3l0.8-0.2l0.7-0.1l0.4-0.5l0.3-0.4l0.1-0.6v-0.3l-0.3-1l0.1-0.4
		l0.2-1l0.1-0.3l0.1-0.2l0.1-0.2l0.1-0.1l0.1,0l0.1-0.1l0.4,0.1l0.1,0.1l0.2,0l0.4,0l0.2,0l0.6-0.1l0.6-0.3l0.5-0.6l0.2-0.2l0.3-0.4
		l0.2-0.2l0.8-0.4l0.6-0.3l0.1-0.2l0.1-0.5l0-0.1l0.1-0.2l0.3,0h0.5l1.4,0l0.5,0.1l1.1,0l0.4,0.1l0.7,1.5l0.4,1l0.1,0.2l0.6,0.6
		l0.2,0.3l0.1,0.5l0.3,1.4v0.6l0.1,1.3l-0.1,0.7l0,0.2l0.1,0.2l0,0.1l0.7,0.1l0.5,0l0.5,0.2l0.5,0.3l0.3,0.9l0.4,1.4l0.2,0.4
		l0.5,0.3l0.5,0.2l0.7,0.1l0.4,0.4l0.1,0.5l0,0.4l-0.2,0.4l-0.6,0.8l-0.2,0.4l-0.1,0.7l-0.1,0.6l0,0.4v0.2l0.1,0.1l0.3,0.3l0.2,0.2
		l0.1,0.1l0.4,0.1l1.1-0.1l0.8-0.2l1.4-0.6l1.2-0.9l0.9-1.1l0.5-0.9l0.4-0.5l0.5-0.6l0.4-0.5l0.9-1.1l1.6,0.1l0.7-0.1l1.5-0.5
		l0.4,0.1l0.3,0.2l0.4,0.1l0.6-0.1l0.6-0.3l0.2-0.2l0.4-0.9l0.2-0.7l0.2-0.4l0.4-0.7l0.4-0.9l0.1-0.3l0.4-0.1l0.2-0.3l0-0.7l0-0.4
		l0.1-0.3l0.3-0.3l0.6-0.3l0.6-0.2l0.6-0.1l1-0.1l0.4-0.3l0.3-0.4l-0.1-2.3l0.2-0.6l0.3-0.2l0.3-0.2l0.8-0.4l0.4-0.3l0.6-0.4
		l0.5-0.1l0.5,0l0.2,0l0.2,0.3l0.2,0.4l0.8,1.4l0.2,0.2l0.1,0.2l0.7,0.3l0.6,0.2l0.7,0.9l0.4,0.6l0.5,0.3l0.7-0.1l1.2-0.6l0.8-0.4
		l0.5-0.4l0.9-0.9l0.4-0.6l0.6-0.5l0.7-0.3l0.6,0l0.5,0.4l0.3,0.4l0.5,0.1l0.8-0.1l0.4-0.1l0.9,0.1l0.4,0l0.3-0.2l0.2-0.4l0.4-0.5
		l0.1-0.5l-0.1-0.4l-0.3-0.6l0.3-0.4l0.6-0.4l0.9-0.4l0.3-0.1l0.2,0l0.4,0.5l0.5,0.3l0.5,0.4l0.4,0l0.3-0.2l0.3-0.4l0.1-0.2l0.3,0
		l0.4,0.6l0.8,0.2l0.9,0.1l0.8-0.3l0.6-0.3l0.3-0.6l0.5-0.2l0.8-0.1l0.8-0.2l0.9-0.3h0.8l0.3-0.6l0.4-0.7l0-0.7l-0.2-0.4l-0.2-0.5
		l0.1-0.4l0.4-0.1l0.4-0.3l0.5-0.5l0.1-0.9l0.2-0.4l0.1-1V348l0-0.7l-0.2-0.8l-0.3-0.6l0.6-0.4l0.6-0.3l0.4-0.7l0.3-0.8l0.6,0.4
		l0.4,0.9l0.1,0.7l0.1,0.9l0.1,0.9v0.7l0.4,0.8l0.1,0.7l-0.1,0.7l0.1,0.4l0.5,0.2l1.4,0.3l1.4,0.1l1.6-0.2l0.9,0l0.8,0.4l1.1,1.4
		l0.9,1.1l0.7,0.7l0.5,1.2l1,1l0.9,0l0.8,0.4l0.6,0.6l0.9,1l0.3,0.7l1,0.4h0.8l1.1-0.3l0.9-0.7l1-0.8l0.2-0.9l0.4-1v-0.8l-0.3-1.2
		l0.2-0.4l1.4-0.3l0.8-0.4l0.4-2.1l0.6-0.2l1-0.5l0.7-0.3l0.8-0.5l0.8-0.7l0.6-0.8l0.2-0.9l0.1-1h0.6l1.1-0.1l0.7-0.2l0.4-0.4
		l0.8-0.7l0.6-0.1l0.6-0.2l0.5-0.3l0.2-1l0.1-0.9l0.4-0.1l0.6,0.8l0.1,0.7l0,0.7l0.1,0.8l0.3,0.7l0.8,0.4l0.8,0.6l0.5,0.5l0.1,0.5
		l1.1,0.5l0.8,0.4l0.5,0.6l0.5,0.3l0.4,0.1l0.5-0.1l0.4-0.6l1.3-0.6l1.2-0.1l1.4-0.3l0.1,0.4l0.1,0.7l0.5,0.8l0.7,0.4l0.6-0.2
		l0.9,0.2l0.7-0.2l0.5-0.4l2.5,0.3l1.1,0.2l1.3,0.3l1.1,0.1l0.7,0.7l1,0.7l0.9,0.6l1.4,0.8l0.9,0.7l0.3,0.9l0.1,0.8l0.4,0.5l0.6,0.2
		l1.2,0.5l0.2,0.3l0.2,1.2l0.2,1l0.3,0.9l2.1,0.4l1.7-0.1l1.6-0.4l0.6-0.3l0.8-0.3l0.5-0.4l0.2,0.9l0.4,1.4l0.4,0.5l0.6,0.3
		l-0.1,1.3l-0.4,1.2l-0.1,0.5l-0.2,0.9l0.1,0.9l1,0.6l0.9,0.4l0.3,0.4l0.5,1.1l0.4,0.9l0.2,1l0.4-0.1l0.4-0.5l0.5-0.7l0.9-0.2
		l0.7-0.3l0.7-0.6l0.4-0.9l0.4-0.9l0.5-0.8l0.6-0.1l0.8,0.4l1.1,0.4l0.7-0.1l0.2-0.9l0.5-0.9l0.2-1.3l0.6-0.5l0.4-0.4l0.2-0.4
		l0.9,0.5l0.8,0.2l0.6-0.1l0.4-0.4l0.4-0.8l1.3-2.4l1.6-1.1l2.2,0.8l0.5,1l1.1-0.6l0.9-0.7l0.4-0.1l0.5,0.2l1.4,1.8l3.1-0.3l0.6,0.2
		l0.4,0.4l1.4-0.2l0.9-0.1l0.5-0.4l0.5,0l1,0.6l1.7,1.8l1.8,1.8l2.6,2.9l0.9,0.4l1.3-0.2l2.6-2.6l10-3.2l3,0l2.3-0.7l0.6-0.9
		l-0.6-1.6l0-0.7l0.6-0.7l1.5-0.8l1-0.4l1.4,0.3l1.1,0l0.3-0.5l0-1.4l0.2-1.1l-0.3-1.3l4.4-4l0.7-3.8l0.5,0.2l0.4-0.1l0.4-0.2
		l0.4-0.3l0.2-0.5l0-0.8l1.2,0.1l0.5,0.4l0.7,0l0.6-0.1l0.5,0.1l0.4,0.3l0.7,0.2h0.8l1-0.1l0.6,0.2l0.7,0.3l0.4,0.4l0.3,0.4l0.4,0.3
		l0.6,0.1l0.6,0l0.7,0l0.7-0.1l0.4-0.4l0.6-0.6l0.4-0.6l0.5-0.9l0.7-1.6l0.9-1.2l0.2-1.8l0.3-0.9l1.1-0.3l1.3,0l0.7-0.7l-0.2-1.5
		l0.1-0.8l0.7-0.8l1.6-0.9l0.5-1.3l0.4-0.6l1.3-0.5l0.5-0.7l0.6-0.7l0.6-0.2l0.7-0.2l0.5-0.9v-1.1l0.7-1.1l0.9-0.5l1.4-0.5l0.9-0.9
		l1.3-1.6l0.1-1.2l0.3-0.7l0.5-1l0.7-1.4l0.7-0.3l1.3-0.6l1-1.3l0.9-1.2l0.4-1l-0.2-0.9l0.6-0.7l0.6-0.3l1-0.2l0.6,0l1.1,0.2
		l1.1-0.1l0.8-0.2l0.9-0.5l0.6-0.6l1.3,0.1l0.6,0.3l0.9,0.4l0.5,0.2l0.9,0.1l0.7-0.1l0.8,0l0.8,0.2l0.5,0.6l0.3,0.3l0.6,0.2l1.1-0.1
		l1-0.3l0.9,0.4l0.5,0.4l0.9,0.2l0.6-0.5l0.9-0.9l1.2-0.4l0.9,0l0.9-0.2l0.8-0.3l-0.8-3.7l0.1-3.6l-0.9-2.4l-1.9-4.8l-1.5-2.7
		l-3.2-2.8l-2.5-1.7l-1-4.7l-2.1-4l-3.6-4.8l-0.9-3.7l-1.5-2l-3.7-1l-5-1l-3.8-6l-1.5-0.2l-0.6-1.3l-1-1.7l-1-1l-1.9-1.2l-0.4-1
		v-1.7h-2.2l-1.8-0.1l-0.8-0.8l0-2.2l-0.7,0.3l-0.4-0.1l-0.4-0.7l-0.6-0.3l-0.6,0.1l-0.4,0.4l-0.2,0.8l-0.1,0.7l-0.6,0.6l-0.4,0.5
		l-1,0.4l-0.4,0.3l-0.4,0.1l-0.4,0l-0.5,0.1l-0.2,0.6l-0.3,0.3l-1.2,0.7l-0.6,0.1l-1.1-0.1l-0.8-0.2l-0.7,0l-0.9,0l-0.7,2l-0.5,0.7
		l-1.9,1.2l-0.7,0.5l-1.3,0.8l-0.8-0.4l0-1.3l-0.4-0.7l-0.9-0.4l-1.9,1l-2.1,3.3l-1.4,0.2l-1.5,1.2l-1.1,1l-1,0.1l-1.4,0.3l-0.6,0.5
		l0,0.9l-0.9,0.7l-0.2,0.1l-0.2,0.1l-0.6,0.3l-0.2,0.1l-0.2,0l-0.2-0.1l-0.2-0.1l-0.2-0.2l-0.2-0.1l-0.2-0.1l-0.2,0l-0.3,0l-0.5-0.1
		l-0.2-0.1l-0.2-0.2l-0.2-0.2l-0.2-0.2l-0.7-1.2l-0.5-1.5l-0.1-0.2l-0.2-0.2l-0.2-0.1l-0.2-0.1l-0.2-0.1l-0.7-0.3l-0.2-0.1l-0.2-0.2
		l-0.2-0.2l-0.1-0.2l-0.5-0.9l-0.6-1.6l-0.4-0.7l-0.2-0.2l-0.4-0.3l-0.2-0.2l-0.3-0.4l-0.2-0.2l-0.2-0.1l-0.2-0.1l-0.2-0.1l-0.2-0.1
		l-0.1-0.1l-0.1-0.2l0-0.2l-0.3-1.1l-0.1-0.2l-0.1-0.2l-0.3-0.4l-0.4-0.4l-0.4-0.4l-0.2-0.2l-1.1-1.4l-0.2-0.2l-0.2-0.1l-0.2-0.1
		l-0.2-0.1l-0.2-0.1l-0.2-0.1l-0.1-0.1l-0.1-0.2l-0.1-0.2l0-0.2l-0.1-0.6l-0.1-0.6l-0.3-0.9l-0.2-0.6l-0.1-0.3l-0.2-0.3l-0.2-0.3
		l-0.3-0.4l-0.1-0.1l-1.5-1.7l-0.7-0.7l-0.4-0.4l-0.2-0.1l-0.3-0.1l-0.3,0l-0.3,0l-0.3,0l-0.3,0l-0.3-0.1l-0.3-0.1l-0.6-0.1l-0.4,0
		l-0.5,0.1l-0.6,0.1l-0.5,0.2l-1.2,0.7l-11.5,0.9l-0.3-4.5l-1.9-5.8l-0.1-6.8l-0.1-1l-1.4,0.3l-1.1-0.9l-0.3-1.6l-0.4-1.8l-3.6-4.2
		l-2.8-5.3l-2.2-3.3l-4.2-3.1l-5.3-2.9l-11.7-5l-6.7-4.8l-4.4-2.9l-4-0.4l-2.2-1.6l-8.4-3.3l-5,8l-0.7,0.8l-0.4,0.3l-1.8-0.2
		l-2.9-1.4l-1.9,0.2l-3.7,1.1l-0.4,2.1l-1.9,0.3l0.3,0.4l0.2,0.2l0.7,1.1l-1.3,1.5l-0.9,0.4l0.2,0.4v0.3l-0.1,0.2l-2.1,2.4l0.2,0.3
		l1.1,0.4l2.9-0.1l1.6,0.4l1.2,0.1l0.2,2.9l0.1,0.2l2.2,5.8l1.5,1.6l0.6,1.5v1l-2.4-1.3l-1.8-0.3l-1.3,0.2l-1.5,0.1l-2.1,0.1
		l-1.4,0.4l-1.2,1.2l-0.3,0.3l-2-0.2l-1-0.2l-2.5,3.5l-0.6,4.6l-2.3,3l-2.1-0.7l-3.9,1.1l0.1-1.4l-0.8-2.1l-1.4,0.4l-2.1,0.6
		l-0.5-0.7l-0.1-1.6l-1-0.8l-1.6,1.1l-0.6,1.2l-0.3,0.3l-0.6,0.1l-1.6-1l-0.8,0.1l-0.6-0.2l-0.6-0.7l-0.5-1.6l-0.1-0.4l-0.6,0.3
		l-0.9,0.8l-1.3,0.6l-1.7,2.5l-0.7,1.2l-0.5,3.5l-1,1.1l-0.6,2.1l-1.2,0.7v0.8l0.1,1.1l-0.1,1.7l-0.2,2.4l-0.2,0.1l-0.3,0.2
		l-0.2,0.3l0,0.4l0.6,0.9l0.2,1.3l-0.2,1.4l-2.3,1.7l-0.6-0.1l-1.1-1.2l-2.5,2.6l-0.7,0.3l-0.8-0.8l-0.6-0.2l-1.7,1.1l-0.4,0.3
		l0,0.6l-0.2,0.6l-1.8,5.4l-0.5,2.7l-1.4,0l-0.3,0.6l-0.3,0.4l-0.8,1.3l-3.5,2.6l-3.2-0.8l-0.2,0.8l-0.3,1.1l0.2,1.8l0.5,0.4
		l0.2,1.4l0,1.4l0.5,1.5l-0.2,1.5l-1.1,1.4l-1.7,0.3l-1.6,1.1l-1.9,0.3l-1.1,1.6h-0.6l-0.6-0.4l-0.7-0.5l-0.7-0.6l-0.4,0.1l-2.2,1.1
		l-1.5-1.3l-0.7-0.6l-2.5-0.1l-2.8,0.7l-0.9-1l-0.8-1.4l-2.6,1l-1.3-0.3l-0.7-0.8l-0.9,0.1l-0.5,0.3l-0.5,0.6l-1,1.1l-1.4,0.3
		l-0.9,1.9l-0.4,2.3v2.2l-0.7,2.3l-1.2,3.3l0.3,1.2v0.8l-1,1.3l-0.5,0.7l-0.5,0.6l-0.4,0.5l-0.1,0.7l0,1.3v1.3l-0.4,0.6l0.3,1.5v1
		l-2.3,1.9l-0.6,2.2l-1,0.7l-0.6,0.6l-0.4,0.7l-0.1,0.7l0.7,0.6l1.2,0.2l1.6,0.4l0.5,0.6l2.2,2.5l0.2,0.3l-0.7,1.9l-0.3,1.3
		l-0.3,1.7l-2.5,0.1l-0.4-1.2l-1-0.8l-1-0.8l-1.2-0.8l-1.5-0.1l-0.8,0.3l-0.1,0.7l0.5,0.5l0.7,0.6l0.6,2.7l0.1,0.7l-2.3,0.2
		l-0.4,0.5l0.5,0.3l0.6,0.4l1.2,1l1.2,3.1l-0.1,0.6l-1.1,0.8l0.5,3.6l0.2,1l0.4,0.4v0.6l-1.7,1l-0.3,1.2l-0.3,1l0.5,0.7l1.2,1.4
		l-0.5,0.8l-0.2,0.6l0,0.5l0.2,0.9l-0.1,0.6l-0.5,0.9l-0.6,1v0.8l0.7,1.8l0.3,1.9l-1.3,1.2l-2.5,2.3l-1.3,0.9l-0.8,0.5l0,0.3
		l0.1,0.4l0.3,0.3l-0.4,1.7L1791,355.6"/>
	<path fill="none" stroke="#000000" stroke-width="0.25" d="M1878.1,357.1l0.3,0.4l0.5,1l0.4,0.6l0.5,0.1l0.6,0l0.4,0l0.5,0.5
		l0.5,1.1l0.8,2.3l-0.1,0.4l-0.2,0.3l-1.9,1.2l-0.3,0.4l0,0.5l1,1.1l0.3,0.4l0.6,0.9l0.5,0.6l1.9,1.5l0.1,0.2l0.1,0.1l-0.3,0.9
		l-0.6,1l-0.4,1.2l-0.6,0.7l-0.4,0.2l-0.6,0.1l-0.4,0.2l-0.3,0.3l-0.4,0.4l-0.5,0.3l-0.9,0.1l-1.6-0.4l-0.6-0.1l-0.5,0.4l-1.1,0.4
		l-0.4,0.8l-0.4,1.2l0.9,1.2l0.8,0.9l0.5,0.6l-0.2,0.6l-0.1,0.3l0,0.4l0.7,0.9l0.5,0.6l0.2,0.5l-0.2,0.5l0.5,0.5l0,0.7l-0.1,0.6
		l0.7,1.2l0.1,0.9l0.1,1.2l-0.3,0.9l-0.1,0.9l0,0.5l0,0.5l0.1,0.8l0.2,0.9l-0.3,0.2l-0.8,0l-1.2,0l-0.3,0l-0.2-0.4l-0.5-0.1
		l-1.2,0.4l-0.3,0.4l-0.6,2.3l-1,0.8l-0.8,0.4l-0.6,0.1l-0.3,0.5l0.1,1.4l-1.6,1.6l-1.7,0.8l-1.2,0.9l-0.3,0.5l-0.5,1.2l-0.3,0.8
		l-0.1,0.4l-1.7,0.5l-0.5,0.3l-1.4,0.2l-0.9,3.2l0.5,0.5l0.1,0.9l0.4,1l0.1,0.8v0.3l-1.6,1l-1.1,0.8l-0.2,0.3l0,0.3l0.5,0.7l0.7,0.7
		l1,1.4l0.5,0.8l0.7,0.8l0.1,0.5l-0.2,0.3l-0.5,0.5l-0.4,0.5l-0.6,1.3l-0.4,0.6l-0.4,0.4l-0.4,0.1l-1.2-0.3l-0.1,0l-0.7,0.9l0.1,0.6
		l-0.5,1.2l0.1,0.3l0.4,0l0.8-0.6l0.6-0.4l0.4-0.2l0.7-0.2h0.2l0.3,0l1.2,0.2l0.3,0l1-0.6l0.5-0.3l1.1,0l0.4,0h0.2l0.7-0.1l0.4,0
		l2.8,0h0.4l0.8,0.2l0.6,0.4l0.4,0l0.4-0.3l0.7-1.1l0.3-0.5l0.3-0.4l0.4-0.7l0.4-0.3l0.8-0.1l1-0.7l2.1,0.1l0.4,0.3l0.8,1.2l0.5,0.6
		l0.3,0.2l2.5,0.6l0.6,0.7l0.5,0.5l1,2l0.2,0.5l-0.2,0.9l0,0.5l0.1,0.6l0.1,1l-0.1,0.7l-0.2,0.6v0.5l0,0.6l1.1,1l0.1,1.6l-0.2,2.1
		l0.1,0.7l0.2,0.2l0.3,0.3l1,0.7l0.1,0.3l-0.1,0.3l-0.3,0.5l-0.5,0.9l-0.4,1l-0.2,0.7l-0.1,1l-0.5,0.4l-0.4,0.2l-0.1,0.3l0,0.8
		l0.2,1.1l0.9,0.9l0.4,0.4l0.1,0.5l0,0.9l-0.3,1.3l0.1,0.4l0.5,0l0.3-0.3l0.5-0.4l0.7,0l0.5,0l0.9,0.1l1.1,0.3l1,0.3l0.8,0.4l1,1.1
		l1.3,1.6l1.6,1.1l0.5,0.6l0.1,0.2l-0.1,0.7l-0.2,0.7l0,0.2l1.3,0.8l0.7,0.5l0.2,0.3l0.7,0.7l0.6,0.8l0.2,0.6l0.1,0.4l0,0.7
		l-0.1,0.9l-0.1,0.7l-0.2,0.9l-0.1,1.2l0,0.5l0.1,0.5l0.3,0.4l0.6,0.1l1.2,0.1l1.8,0.2l0.4,0l0.5,0.2l0.4,0.4l0.2,0.5l0.4,0.8l0,0.6
		l0,1.3v0.3l0.4,1.1l0.4,0.6l1.1,1.2l0.7,0.7l0.4,0.4l1.8,0.9l1,0.4l1.1,0.3l0.6,0l0.5-0.3l0.8-0.9l0.7-1.2l0.2-0.7l0.3-1l0-0.3
		l0.8-0.1l0.5,0l0,0.9l0,1l-0.1,2.3l0.1,0.8l-0.1,0.4l-0.3,1.6l-0.1,1.3l0.1,1.6l0.6,1.3l1.7,1.6l1.6,0.4l1.8,0.1l1.8-0.2l0.6-0.1
		l1.2-0.1l0.8,0.6l0.6,0.7l1.4,1.8l0.5,0.6l0.2,0.2l0.1,0.4l-0.1,0.4l-0.7,0.5l-0.8,0.5l-0.1,0.4l0.7,0.3l0.1,0.7l0.2,1.1l0.4,1.3
		l0.3,1.1l0.3,0.4l1,0.6l0.5,0.5l0.6,0.4l0.4,0.1l0.3-0.1l0.5-0.3l0.4,0l1.1,0.5l2-0.5l0.9,0l0.9,0.1l0.3,0l1.2-0.5l0.6-0.3l1.5-1.1
		l0.3-0.2l0.6-0.1h0.6l0.6-0.5l1.1-0.8l1.3-0.4l1.3-0.3h0.6l0.4,0.4l0.6,1l0.4,0.2l0.8,0.3l0.8,0.5l0.7,0.5l0.5-0.2l0.5-0.3l0.8-0.5
		l0.3-0.2l0.9-0.1l3.9-0.6l1.8-0.3l0.3-0.1l0.2-0.3l0.3-0.1l0.2,0.1l0.1,0.7l0.2,0.8l0.6,1.9l0.3,0.6l0.1,0.2l0,0.5l-0.2,1.3
		l-0.1,0.9l0.2,1.8l0,0.5l-0.3,0.7l-0.6,0.7l-0.8,0.6l-0.8,0.6l-0.3,0l-0.8,0l-1,0l-0.3,0.1l-0.3,0.6l-0.5,0.7l-0.4,1.1l0.1,1.3
		l0.4,1.2l0.5,0.7l0.3,0.7l0.1,0.2l-0.2,1.2l0.3,0.5l0.3,0.5l0.1,0.7l-0.1,0.9l-0.3,0.9l-0.3,1.3l-0.6,2.4l-0.2,1.2l-0.3,1.1
		l0.1,0.5l0.1,0.1l1.4,0.4l2.9,0.7l1.4,0.6l0.7,0.6l0.8,0.9l0.7,1l0.6,0.7l0.6,0.3l1.2,0.6l1,0.7l0.5,0.6l0.8,0.5l0.6,0.5l0.6,0.6
		l0.5,0.2l1.5,0l2.3,0.1l0.7,0.3l5.3-0.3l2.5-0.5l0.9-0.2l9.5-2.5l2.2,5l1.3,7.5l4.1,1.9l5,4.1l9.7,0.6l9.7,5l8.5,6.6l6.2,1.4
		l3.5-7.4l6.7-7.6l-3.1-6.4l1.7-6.4l-10.6-7.5l-11.5-0.8l3.7-9.7l-2.1-6.8l3.3-4.8l1.3-4.7l1.7-8.7l2.7-9.1l0.7-9.7l3.8-3.9
		l-2.8-3.5l-2.2,0.5l-5.6-2.6l-4.8,3.8l-2.5-0.3l-1.1-3.6l-1.2-0.7l-1.4-0.5l-1.3-2.9l-0.7-0.7l-1.1-2.8l1.7-2.5l1.2-0.2l1.8-1.7
		l0.2-1.4l-0.3-1.9l1.6-2.3l-0.8-2.7l1.6-1.6l0.2-8.9l1.4-0.5l0.2-2.1l-0.9-2.7l-5-5.6l-1-0.2l-3.3-0.3l0.2-1.7l-0.8-0.9l3.5-5.1
		l0.1-1l0.5-1.6l1-1l4.8,0.2l1.2-0.2l0.8-2.5l0.3-7.3l-3-1.8l-2.8-2.6l-0.5-3.5l2.8-1.4l3.8-3.5l1.4-4.3l0-1.2l0.1-2l0.2-0.5l2-0.2
		l0.7-0.5l1.2-1.9l0.3-1.5l-0.9-0.2l-1.5,0.2l-0.7-0.3l-1.1-2.5l-1.1-1.9l-5.6-2.9l1.5-5l-1.9-3.2l-0.6,0.9l-2.3,0.7l-3,0l-10,3.2
		l-2.6,2.6l-1.3,0.2l-0.9-0.4l-2.6-2.9l-1.8-1.8l-1.7-1.8l-1-0.6l-0.5,0l-0.5,0.4l-0.9,0.1l-1.4,0.2l-0.4-0.4l-0.6-0.2l-3.1,0.3
		l-1.4-1.8l-0.5-0.2l-0.4,0.1l-0.9,0.7l-1.1,0.6l-0.5-1l-2.2-0.8l-1.6,1.1l-1.3,2.4l-0.4,0.8l-0.4,0.4l-0.6,0.1l-0.8-0.2l-0.9-0.5
		l-0.2,0.4l-0.4,0.4l-0.6,0.5l-0.2,1.3l-0.5,0.9l-0.2,0.9l-0.7,0.1l-1.1-0.4l-0.8-0.4l-0.6,0.1l-0.5,0.8l-0.4,0.9l-0.4,0.9l-0.7,0.6
		l-0.7,0.3l-0.9,0.2l-0.5,0.7l-0.4,0.5l-0.4,0.1l-0.2-1l-0.4-0.9l-0.5-1.1l-0.3-0.4l-0.9-0.4l-1-0.6l-0.1-0.9l0.2-0.9l0.1-0.5
		l0.4-1.2l0.1-1.3l-0.6-0.3l-0.4-0.5l-0.4-1.4l-0.2-0.9l-0.5,0.4l-0.8,0.3l-0.6,0.3l-1.6,0.4l-1.7,0.1l-2.1-0.4l-0.3-0.9l-0.2-1
		l-0.2-1.2l-0.2-0.3l-1.2-0.5l-0.6-0.2l-0.4-0.5l-0.1-0.8l-0.3-0.9l-0.9-0.7l-1.4-0.8l-0.9-0.6l-1-0.7l-0.7-0.7l-1.1-0.1l-1.3-0.3
		l-1.1-0.2l-2.5-0.3l-0.5,0.4l-0.7,0.2l-0.9-0.2l-0.6,0.2l-0.7-0.4l-0.5-0.8l-0.1-0.7l-0.1-0.4l-1.4,0.3l-1.2,0.1l-1.3,0.6l-0.4,0.6
		l-0.5,0.1l-0.4-0.1l-0.5-0.3l-0.5-0.6l-0.8-0.4l-1.1-0.5l-0.1-0.5l-0.5-0.5l-0.8-0.6l-0.8-0.4l-0.3-0.7l-0.1-0.8l0-0.7l-0.1-0.7
		l-0.6-0.8l-0.4,0.1l-0.1,0.9l-0.2,1l-0.5,0.3l-0.6,0.2l-0.6,0.1l-0.8,0.7l-0.4,0.4l-0.7,0.2l-1.1,0.1h-0.6l-0.1,1l-0.2,0.9
		l-0.6,0.8l-0.8,0.7l-0.8,0.5l-0.7,0.3l-1,0.5l-0.6,0.2l-0.4,2.1l-0.8,0.4l-1.4,0.3l-0.2,0.4l0.3,1.2v0.8l-0.4,1l-0.2,0.9l-1,0.8
		l-0.9,0.7l-1.1,0.3h-0.8l-1-0.4l-0.3-0.7l-0.9-1l-0.6-0.6l-0.8-0.4l-0.9,0l-1-1l-0.5-1.2l-0.7-0.7l-0.9-1.1l-1.1-1.4l-0.8-0.4
		l-0.9,0l-1.6,0.2l-1.4-0.1l-1.4-0.3l-0.5-0.2l-0.1-0.4l0.1-0.7l-0.1-0.7l-0.4-0.8v-0.7l-0.1-0.9l-0.1-0.9l-0.1-0.7l-0.4-0.9
		l-0.6-0.4l-0.3,0.8l-0.4,0.7l-0.6,0.3l-0.6,0.4l0.3,0.6l0.2,0.8l0,0.7v0.5l-0.1,1l-0.2,0.4l-0.1,0.9l-0.5,0.5l-0.4,0.3l-0.4,0.1
		l-0.1,0.4l0.2,0.5l0.2,0.4l0,0.7l-0.4,0.7l-0.3,0.6h-0.8l-0.9,0.3l-0.8,0.2l-0.8,0.1l-0.5,0.2l-0.3,0.6l-0.6,0.3L1878.1,357.1"/>
	<path fill="none" stroke="#000000" stroke-width="0.25" d="M1986.1,132.6l23.8,0.5l9.3,1.8l3.7,2.4l3.1,1.9l5.7,3.9l13.3,8.2
		l11.8,6.1l9.3,5.4l8.5,6.2l2.3,1.7l0.5,0.4l-1.4,4l-0.7,2.3l-0.1,7.6l3,3.5l14.9,5.9l3.3,6.2l5.5,2.4l3.6,0.5l2.1,3.8l4.1,7.3
		l3.3,6l5.6,9l9.6,14.6l1.6,3.6l-5.9,1.5l9.2,4.5l10.9,7.3l8.8,4.7l8.8,3.9l7.8,4.3l0.7,13l2.8,6.7l0.9,5.5l4.6,8.2l-0.3,12.4
		l-4,9.1l-3,11.4l-4.7,13.8l-2.7,9.1v12.4l-4,2l-2.7,4l-1,6.7l3.7,3.4l6-1.3l7.1,3l3,6.4v10.1l-3,3.7l-1.7,4.4l-2.4,4.7v5.4
		l-1.3,5.7l-2.4,9.4l-3.4,7.1v6.1l5.5,1l5.5,3.1l1.4,3.8l-0.5,5.5l3.1,1.7l6.9-3.1l2.9-3.3l5.7-1.9l7.4,0.5l8.1,3.6l6.4,5.9l2.9,6.4
		l1.2,8.8l0.9,11.6l5.2,3l1.5,1.2l1.1,2.1l0.7,1.8l0.2,0.9l-0.9,1.6l-1,1.4l-0.8,0.5l-1,0.6l-1.7,2l-1.2,1.7l-2.2,6.5l-1.3,0.7
		l-1.9,0.1l-1.9-0.2l-1.6-0.3l-0.2-1l-0.6-0.6l-2.6-0.3l-1.7-2.3l-6.4-3l-5.4-6l-3.8,1.8l-5,4l-0.9,5.3l-6.3,5.5l-4.2,1.7l-0.8,3.4
		l-3.6,0.4l-3.6,3l-2.7-0.8l-3.8,3l-4.4-2.5l-4.5,3.4l-3.4,2.3l3.6-11.9l-1-5.7l-5.4-2.4l-6-3.4l1-6.4v-7.4l-3-3.4l-0.3-5.4
		l-1.7-3.7l-2.4-7.7l-1.3-8.7l1.3-5.7l-0.3-6.4l-1.3-4.7V445l2-5.7l3-8.1l4.4-4l5.4-3l-1.3-6.7l-1.7-8.1l-7.4-12.8l-1.7-7.9
		l-5.7-7.2l-2-15.1l-3.4-12.9l-3.2,0.6l-3.9-0.1l-3.7-2.4l-2.5-0.2l-4.8-2.3l-4.3-4.5l-3.1-6.1l-1.4-5.5l-0.1-5.8l1.4-3.2l2.6-2.1
		l0.4-2.1l-2.3-1.7l4.3-5.5l-2.8-0.2l2-3l-2.6-1.4l-3.4,0l-2.4,2.2l-0.8-3.7l0.1-3.6l-0.9-2.4l-1.9-4.8l-1.5-2.7l-3.2-2.8l-2.5-1.7
		l-1-4.7l-2.1-4l-3.6-4.8l-0.9-3.7l-1.5-2l-3.7-1l-5-1l-3.8-6l-1.5-0.2l-0.6-1.3l-1-1.7l-1-1l-1.9-1.2l-0.4-1v-1.7h-2.2l-1.8-0.1
		l-0.8-0.8l0-2.2l-0.7,0.3l-0.4-0.1l-0.4-0.7l-0.6-0.3l-0.6,0.1l-0.4,0.4l-0.2,0.8l-0.1,0.7l-0.6,0.6l-0.4,0.5l-1,0.4l-0.4,0.3
		l-0.4,0.1l-0.4,0l-0.5,0.1l-0.2,0.6l-0.3,0.3l-1.2,0.7l-0.6,0.1l-1.1-0.1l-0.8-0.2l-0.7,0l-0.9,0l-0.7,2l-0.5,0.7l-1.9,1.2
		l-0.7,0.5l-1.3,0.8l-0.8-0.4l0-1.3l-0.4-0.7l-0.9-0.4l-1.9,1l-2.1,3.3l-1.4,0.2l-1.5,1.2l-1.1,1l-1,0.1l-1.4,0.3l-0.6,0.5l0,0.9
		l-0.9,0.7l-0.2,0.1l-0.2,0.1l-0.6,0.3l-0.2,0.1l-0.2,0l-0.2-0.1l-0.2-0.1l-0.2-0.2l-0.2-0.1l-0.2-0.1l-0.2,0l-0.3,0l-0.5-0.1
		l-0.2-0.1l-0.2-0.2l-0.2-0.2l-0.2-0.2l-0.7-1.2l-0.5-1.5l-0.1-0.2l-0.2-0.2l-0.2-0.1l-0.2-0.1l-0.2-0.1l-0.7-0.3l-0.2-0.1l-0.2-0.2
		l-0.2-0.2l-0.1-0.2l-0.5-0.9l-0.6-1.6l-0.4-0.7l-0.2-0.2l-0.4-0.3l-0.2-0.2l-0.3-0.4l-0.2-0.2l-0.2-0.1l-0.2-0.1l-0.2-0.1l-0.2-0.1
		l-0.1-0.1l-0.1-0.2l0-0.2l-0.3-1.1l-0.1-0.2l-0.1-0.2l-0.3-0.4l-0.4-0.4l-0.4-0.4l-0.2-0.2l-1.1-1.4l-0.2-0.2l-0.2-0.1l-0.2-0.1
		l-0.2-0.1l-0.2-0.1l-0.2-0.1l-0.1-0.1l-0.1-0.2l-0.1-0.2l0-0.2l-0.1-0.6l-0.1-0.6l-0.3-0.9l-0.2-0.6l-0.1-0.3l-0.2-0.3l-0.2-0.3
		l-0.3-0.4l-0.1-0.1l-1.5-1.7l-0.7-0.7l-0.4-0.4l-0.2-0.1l-0.3-0.1l-0.3,0l-0.3,0l-0.3,0l-0.3,0l-0.3-0.1l-0.3-0.1l2.8-0.4l0.6-0.9
		l0.3-1.7l0.8-2l0.9-1.6l1.5-1.9l1.9-1l2.4-0.9l1.3-1.1l0.5-2.3l0.9-1.5l1.7-0.8l-0.8-1.9l-2-1l-1.9-0.6l-2.2-1.9l-1.8-1l-0.3-0.3
		l-0.1-0.5l0.2-3.1l-0.3-0.5l-0.4-1l-0.8-0.5l-0.2-1l0.5-0.3l-0.1-1.1l0-0.9l0.6-0.5l2.3-0.1l1.1-0.1v-1.8l-7-2.1l-0.2-0.4l0.2-0.6
		l2.8-5.9l1-2.3l0.4-0.9l0.1-0.8l-0.1-0.4l-0.2-0.4l-0.2-0.1l-0.5,0.3l-0.8,0.5l-0.8,0l-1.1-0.4l-0.8-0.3l-0.3-0.4l0-0.5l0-0.8
		l0.4-1.2l0.6-0.9l0.2-0.7l-0.2-0.4l-0.4-0.1l-0.5,0.1l-0.6,0.3l-1.1,0.2l-0.5,0l-0.5-0.1l-0.4-0.2l-0.2-0.2l-0.6-1l-0.2-0.4
		l-0.4-0.4l-1-0.9l-0.2-0.4l-0.1-0.3l0-0.3l0.2-0.2l0.2,0l0.2,0l0.5,0.2l0.5,0.4l0.4,0l0.3-0.1l0.6-0.3l0.8-0.7l1.2-1.4l0.6-1.3
		l0.5-1.5l0.3-0.7l-0.4-0.5l-2.5-1.6l-1.8-1.3l-1.4-0.7l-3.3-1.4l-1-0.5l-0.2-0.3l0.1-0.5l0.4-0.7l0.5-0.3l0.5-0.2l1.1-0.3l1.4,0
		l0.5-0.1l0.2-0.2l0.2-0.4l-0.4-1l-0.4-0.5l-0.6-0.8l-0.3-0.9l0.2-0.7l0-0.8l0.2-1l0.2-0.8l0-0.6l-0.3-0.7l-1.1-1.8l-1.2-1.2
		l-0.4-0.3l-0.6-0.1l-0.5,0.1l-0.5,0.2l-0.8,0.3l-0.5,0l-0.2-0.3l-0.1-0.7l0.2-0.2l-1.1-2.9l-1.7-4.3l-0.1-0.6l0-0.5l0.3-0.6
		l0.6-0.6l0.5-0.5l0.9-0.5l1.4-0.5l1.1-0.4l0.5-0.6l0.4-0.6v-0.5l-0.4-0.3l-0.8-0.3l-0.7-0.5l-0.3-0.6l-0.9-1.4l-1.1-1.7l-0.5-0.6
		l-0.7-0.6l-0.3-0.3l-0.1-0.4l0.7,0.2l3.5,0.6l1.9-0.6l3.7-0.1l1.5-0.2l0.2-0.4l-2.2-1.6l-2.1-1.3l-2.1-1.3L1986.1,132.6"/>
	<path fill="none" stroke="#000000" stroke-width="0.25" d="M2071.3,99.7l3.2,0.8l5.5,2.8l4.7,0l1.5,2.1l4,1.8l5.6,1.6l3.7,2.3
		l1.5,3.4l3.4,6.3l0.1,5.1l1.4,3.3l0.7,0.5l1.4,1.7l2.8,1.4l3.4-0.1l4.8-2.1l3.1,1.2l1,3.7l-1,2.5l-1.3,3.8l-0.4,5.3l3.3,0.8
		l1.5,1.4l0.7,3.2l1.4,1.2l2.5,0.7l-0.5,1.2l-0.3,1.4l0.8,1.4l1.9,0l3-0.5l4.8-0.1l2.6,0.4l2.3-0.1l0.7-1.1l0.3-1.3l5.2-2.4l5.3-1.8
		l5.3-1.2l4.4,2.3l4.4,2.1l6.7,1.5l8.3-0.5l0.5,7.5l4.8,3.1l1.6,2.1l-0.6,5.5l4.2,4.2l-2,4.6l0.5,4.5l3.1-0.3l-1,8.6l-1.3,9.5
		l5.2,6.8l3.2,10.7l5.2-1l6.5-0.6h9.7l5.8,2.3h16.8l10.8,0.1l0.3,0.1l0.5,0.4l0.3,0.2l1,0.4l0.3,0l0.3-0.4l0.3-0.3l0.4-0.6l0.4,0
		l0.3,0l0.2,0.1l0.7,0.4l1.8,1.5l0.7,0.6l0.7,0.5l0.5,0.5l0.9,0.7l0.1,0.2l0.4,0.8l0.4,0.5l0.4,1.2l0.7,0.8l0.3,1.8l0.1,0.5l0.4,0.6
		l0.4,0.6l0.1,0.3l0,0.2h0.2l0.3-0.3l0.3-0.3l0.5-0.4l0.7,0l0.2,1l0.5,1.5l0.7,0.8l0.5,0.5l0.6-0.2l0.7-0.5l1.1-0.7l0.6-0.6l0.6,0
		l0.2,0.4l0.6,0.3l0.3,0.4l0.1,0.4l0.1,0.9l0.8,0.6l0.4,1l0.5,0.9l0.3,0.6h0.2l0.3-0.5l0.3-0.5l1.3,0.1l0.3,0.3l0.2,0.3l0.3,0.1
		l0.3,0.3l0.3,0.7l-0.5,0.8l-0.8,1.8l-0.6,1.7l-0.1,1.7l0,0.8l0.1,0.4l-0.3,1l0.2,0.6l0,0.7v0.5l-0.5,0.8l-0.4,0.9l-0.5,0.7
		l-0.1,0.2l0.4,0.9l0.2,0.3l0,0.4l-0.4,0.4l-0.5,0.4l-0.5,0.4l-0.2,0.4l-0.5,0.8l-1,0.6l-1,0.9l-0.1,1.5l0.3,1.5l-1.5,1.4l0.3,0.3
		l0.2,0.3l0.3,0.4l0.5,0.3l0.3,0.2l0.9,3l0.5,0.8l0.1,0.6l0.2,0.9l-0.2,0.6l-0.9,1.5l-1.1,1.2l-0.1,0.2l-0.5,1l-0.3,0.5l-0.3,0.5
		l-0.4,0.4l-0.3,0.3l-0.2,0.3l-0.2,0.9l0.7,0.9l-1-0.2l-0.2,0l-2.3,1.4l-0.8,0.5l0,1.1l-0.9,0.5l-0.1,0.8l-0.2,0.5l-0.3,0.9
		l-0.1,0.4l0,0.6l0.1,0.3l0.2,0.7l0.3,1.1l0.1,0.9l0.3,0.2l0.5,0.1l0.4,0.1l0.3,0.1l0.3,0.2l0.2,0.3l0.2,0.3l0.2,0.4l-0.2,0.5
		l-0.2,0.3l-0.8,0.8l0,0.5l-0.2,1.5l-0.8,0.7l-0.3,0.3l-0.4,0.5l-0.4,0.4l-0.3,0.9l0,0.4l-0.2,0.8l-0.1,0.3l-0.2,0.2l-0.2,0.3
		l-0.1,0.3l-0.2,0.4l-0.3,0.4l-0.4,0.3l-0.4,0.3l-0.5,0l-0.7-0.3l-1.1-0.7l-0.8-0.4l-0.5-0.2l-0.4-0.2l-0.2,0.2l0,0.6l0,0.8
		l-0.2,0.9l0,0.5l-0.2,0.5l-0.1,0.6l0,0.2l0.1,0.3l0.5,0.5l0.3,0.4l0.1,0.4l-0.1,0.4l-0.3,0.2l-0.5,0.6l0,0.4l-0.3,0l-0.6-0.5
		l-0.5-0.4l-0.6-0.4l-0.3-0.1l-0.3,0.1l-0.3,0.4l-0.3,0.6l-0.1,0.7l-0.2,0.8l-0.1,0.1l-3.1,1.6l-5.7,1l-1.7,5.4l-4,1v-5l-2.7-5
		l-7.4-1h-16.5l-5.7,8.1l8.7,5.4l-5.4,6l-5,0.3l-7.4-0.7l-8.7-0.3l-11.4-12.4l-3-4.4l-4.6-8.2l-0.9-5.5l-2.8-6.7l-0.7-13l-7.8-4.3
		l-8.8-3.9l-8.8-4.7l-10.9-7.3l-9.2-4.5l5.9-1.5l-1.6-3.6l-9.6-14.6l-5.6-9l-3.3-6l-4.1-7.3l-2.1-3.8l-3.6-0.5l-5.5-2.4l-3.3-6.2
		l-14.9-5.9l-3-3.5l0.1-7.6l0.7-2.3l1.4-4l6.2,3.5l1.1-6.8l-3.1-4.9l-10.6-4.8v-9.6l-3-3.8l4.3-4.3l3.5-6.8l2-4.6l0.5-5.3l-0.8-4.1
		l-4.8-4.1l-4.3-1l-2.3-4.3l-3.8-2.5l-5.9-7.5l5,0.2l5.7-1.2l2.7,0.6L2071.3,99.7"/>
	<path fill="none" stroke="#000000" stroke-width="0.25" d="M1827.5-66.9l-0.4-0.6l0.2-2.1l0.9-2.1l0.8-1.3l1.1-2.5l0.9-0.3l0.4-1.4
		l-1.2-0.4l1.8-3.9l1.3-2.8l1.1-2l0.5-1.2l0.5-0.9l0.3-0.6l0.6-1.1l0.6-1.3l0.7-1.1l1-1.3l0.9-0.4l0.7-0.7l0.5-0.2l1.2-1.3l1.7-1.3
		l0.8-1.4l1-1.3l1-2.1l0.7-1.1l0.8-0.8l0.7-0.9l0.5-0.7l0.7-1l0.6-0.6l0.6-0.9l0.7-0.8l9.6-14.5l0.1-2.2l0-0.3l1.6-3.2l2.3-2.8
		l1.2-2.8l1.2-1.7l-0.1-0.7l-0.1-0.7l-1.4-0.6l-1.4-0.3l-1.6,0.6l-1.3-0.1l-0.4-0.7l-0.1-1.6l0.2-0.9l0.3-1l0.3-1l0.9-3l0.4-1.4
		l0.6-1.8l0.3-1.1l0.8-3.2l1-3.1l0.1-1l1.1-2.8l1.2-1.9l2-2.5l0.4-0.7l0.6-0.8l0.7-1.3l0.9-1.4l0.8-1.5l0.6-1.5l0.7-1.3l0.4-3l0-1.8
		l-4.4-1.7l0.5-1.1l0.2-0.5l0.6-1.4l5.6,0.9l0-0.4l2.9-2.4l3-1.8l2.6-1.8l0.5-0.5l0.7-0.5l0.6-0.6l1.1-0.9l0.9-0.5l0.5-0.3l0.7-1
		l0.9-1.4l0.8-1.4l1-1.5l0.9-1.1l0.7-1.2l0.8-0.8l1-0.9l1.4-1.1l0.9-0.6l0.7-0.6l0.7-0.6l2.1-1.8l2.5-1.3l1.3-0.7l-0.8-2.4l-3.2,0.2
		l2.6-2.6l0.8,0.5l0.5,0.2l0.9,0.1l1,0.4l0.9,0.7l1.5,1.6l0.6,0.8l0.9,0.8l0.9,1.6l1.3,1.7l1.2,1.9l1,0.8l2.4,0.9l1.8,0l0.9-0.3
		l0.5-0.3l-0.5-1.5l-0.2-2.1l0.5-2.3l0.9-1.9l0.5-0.9l1.2-1.1l1-0.5l2.2-0.3l1.3,0.1l2-1.3l0.8-0.8l0.8-1l0.8-0.6l1.1-0.4l2.2,0.7
		l1.1,0.7l1.2,0.5l1.3,0.1l1.2,0.4l1.3,0.2l1.5-0.1l0.8-0.6l0.4-0.9l1-4.2l0.3-0.8l0.6-0.9l0.7-1l0.8-0.8l1.3-1.9l1.6-1.8l1.5-2.3
		l0.6-0.5l0.8-0.3l1,0.9l0.5,0.9l0.5,1.5l0.8,0.6l1.4,0.8l0.4,0.6l0.9,0.1l1.7,0l1.9-1.2l0.8-0.1l0.8,0.2l1,0.3l0.3,0.8l0.1,2.3
		l0.3,0.9l0.5,0.6l1.1,0.6l1.2,0l1.1,0.4l0.9,1l0.4,0.2l0.6,0.3l1,0.2l1.3-0.2l1.7-0.4l0.6,0l0.6,0.2l0.7,0.7l0.5,0.7l0.4,0.8
		l0.3,0.6l0.6,0.4l0.9,0.1l0.8-0.5l0.5-0.6l1-0.5l0.9-0.4l1.3-0.3l1.6,0.1l4,0.8l0.7,0.2l2.1,0.9l1,0.4l0.3,0l0.5-0.2l0.5-0.9
		l0.2-1.3l0.4-2l2.7-2.9l1.3-1.4l0.7-1.2l0.8-1.5l0.5-0.3l0.8,0l0.9,0.3l0.8,0.9l0.6,1.6l0.6,0.3l0.6,0.1l0.6-0.3l0.9-0.6l0.5-0.2
		l0.9-0.2l0.7-0.1l0.8-0.1l1.3-0.5l1.5-0.1l1.4-0.3l0.9-0.4l1-0.5l0.9-0.6l0.7-0.4l0.9-0.7l1-0.5l1.5-0.4l0.9-0.2l0.6,0l0.7,0.4
		l0.3,0.5l0,0.8l0.2,1.1l0.3,1.1l0.6,0.6l0.9,0.7l1,0.7l0.6,0.5l0.3,0.7l0.5,0.7l0.9-0.2l0.7-0.6l1.6-1.1l0.5-0.3l0.4,0l0.8,0.1
		l1,0.4l2.5,1l0.4,0l2-0.2l0.8,0l0.9,0.2l0.1,0.2l-0.4,1l-0.1,0.5l0.1,0.8l0.2,0.5l-0.6,0.2l-0.7,0.4l-1.5,1.2l-1,1.2l-1.4,5
		l-0.2,0.6l-0.1,1.4l-1.6,5.1l-0.9,2l-1.4,2.3l-1.7,2.5l-5.9,8.8l-1.4,2.6l-0.5,0.7l-0.6,0.3l-0.4-0.1l-0.8,1.6l-1.3,1.8l-1.6,1.8
		l-3.3,6.5l-1.3,2.3l-1.2,2l-1.4,2.7l-0.8,2.2l-0.9,2.2l-1.2,1.8l-1.5,0.6l-1.6,0.9h-0.8l-2.8,0.9l-1.2,1.4l-0.7,5.6l-0.9,0.9
		l-0.4,0.9l-0.7,2.7l-0.4,1.2l-2.2,1.7l-1.8,6.8l-1.5,5.3l-1,3.1l-0.6,1.2l-0.5,1.5v0.9l-0.2,0.4l-1,1l-0.2,0.5l0.8,1.4l-0.2,0.7
		l-3.5,5.1l0.2,1.2l-0.5,0.4l-0.3,0.8l0,1l-0.3,1.6l-0.3-0.2l-1.3,4l0,0.5l1,0.3v0.5l-0.4,1.2l-0.8,1.1l0.4,1.4l0,0.9l-0.3,0.9
		l-0.7,2l-0.5,1.7l-0.2,2.2l-0.5,1.7l0.1,0.5l-0.1,0.3l-0.5,1.3l-0.5,1.1l-0.5,0.5l-0.4,0.4l-0.9,1.1l0.2,0.8l1.6,0.8l0.4,0.5
		l-1.5,1l-2.6,1.9l-0.5,0l-0.9-0.4L1975-82l-0.9,0.8l-1.2,1.2l-0.1,0.5l-0.8,0.7l-0.7,0.7l-0.2,0.6l0.1,0.3l-4.8,3.9l-2.7,2.3
		l-0.1,1.3l-0.4,0.3l-0.6,0.4l-0.2,0l-0.2-0.1l-0.1-0.1l-0.1-0.3l-0.2-1.1l-0.2-1.2l-0.5,0.1l-0.7,0.1l-0.2,0.3l0,0.3l0,0.5l0.1,0.6
		l0.2,0l0.4,0.2l0.2,0.3l0.1,0.2l-3,2.5l-0.2,0.5l-0.4,0.5l-0.4,0.5l-0.5,0.4l-0.9,0.3l-1.1,0.6l-1,0.7l-0.7,0.6l-1.2,1.2l-0.4,0.5
		l-0.4,0.6l0,0.2l0.5,0.3l0,0.2l-1,1.3h-0.2l-0.6,0.2l-0.7,0.9l-0.5,0.6l-0.6,1l-1,1l-0.8,0.8l-3.1,2.9l-1.1,1l-0.6,0.6l-1,1.2
		l-0.5,0.5l-2.9,2.6l-2.2,2l0.1,0.3l0.1,0.1l0.4,0.1l0.4,0.1l0.4,0.1l-0.1,0.2l-0.3,0.4l-1.2,1.1l-0.8,0.9l-0.5,0.8l-2.5,2.2l-2,1.9
		l-0.7,0.8l-0.8,0.6l-0.6,0.6l-0.5,0.6l-1.1,1.6l-0.3,0.4l-1.1,1.5l-1.6,2l-0.5,0.5l-0.5,0.5l-1.1,1.1l-0.8,1.1l-0.9,0.7l-0.2,0.5
		l-0.6,1.4l-0.4,1.2l-0.6,0.4l-0.3,0.3l-0.5,0.5l-0.1,0.1l-0.3,0.4l-0.4-0.1l-0.7-0.4l-0.5-0.2l-0.2,0.2l-1-0.4l-0.9-0.3l-0.7-0.2
		l-1.2-0.3l-0.9-0.5l-0.6-0.4l-0.8-0.1L1907-21l-0.2-0.4l-0.2-0.4l-0.2-0.3l-0.2-0.2l-0.3,0l-0.7,0.3l-0.5,0.3l-0.4,0.3l-0.6,0.6
		l-0.8,0.5l-0.4,0.3l-0.1,0.2l0,0.4l0,0.7l0,0.6l-0.3,0.8l-0.6,0.3l-0.5-0.1l-1.3-0.4l-0.3-0.8l-0.4-1.8l-0.2-0.6l-0.4-0.5l-0.4-0.4
		l-0.4-0.3l-0.1-0.1l-0.7-0.9l-0.9-0.8l-2.3-1.6l-0.4-0.3l-0.9-0.8l-0.7-0.7l-0.3-0.2l0-1.1l-0.1-0.9l-0.2-1.1l-0.1-1.1l-0.3-1.1
		l-0.2-0.6l-0.7-0.5l-0.3-0.6l-0.5-0.6l-0.6-0.5l-0.7-0.2l-1.2-0.7l-1.3-0.8l-0.6-0.4l-0.1-0.2l-0.2-0.3v-0.7l0.1-0.8l0.1-0.7
		l-0.3-0.6l-0.5-0.5l-0.3-0.3l-0.5-0.2l-0.4-0.1l-1-0.3l-0.2-0.2l-0.6-0.9l0.3-0.5l0.1-0.2l-0.3-1.1L1880-46l-0.3-1l-0.4-0.5
		l-0.5-0.3l-0.8-0.1l-0.8,0.7l-0.8-0.3l-0.5-0.1l-0.6-0.1l-0.5,0.1l-1.1-0.8l-1-0.9l0.1-0.8l-0.2-0.4l-0.4-0.3l-0.7-0.2l-0.6-0.2
		l-0.7,0.1l-0.8,0.2l-0.6,0.5l-0.5,0.2l-0.6,1.5l-0.3,0.2l-0.5-0.2l-0.1-0.8l-0.1-1.2l-0.1-1.2l-0.6-0.8l-1.3-1.3l-1.1-1.5l-3.1-2.8
		l-1.8-1.8l-0.8-0.8l-1-1.1l-0.6-0.5l-0.8-0.1l-0.6-0.3l-0.9-0.8l-0.8-0.3l-1.3,0l-0.8,0.2l-0.6,0.2l-0.6,0.1l-1.9-0.1l-1.5-0.4
		l-1.3-0.7l-2.8-0.1l-1.2,0h-1.4l-0.6,0l-0.3-0.1l-0.7-0.5l-0.8-0.9l-0.2-0.3l-0.8,0.2l-0.5,0l-1.1-0.4l-1.3-0.3l-1-0.2l-0.7,0
		l-0.5,0l-2.4,0.4L1827.5-66.9"/>
	<path fill="none" stroke="#000000" stroke-width="0.25" d="M1921.1-25.6l0.5-0.5l0.5-0.5l1.6-2l1.1-1.5l0.3-0.4l1.1-1.6l0.5-0.6
		l0.6-0.6l0.8-0.6l0.7-0.8l2-1.9l2.5-2.2l0.5-0.8l0.8-0.9l1.2-1.1l0.3-0.4l0.1-0.2l-0.4-0.1l-0.4-0.1l-0.4-0.1l-0.1-0.1l-0.1-0.3
		l2.2-2l2.9-2.6l0.5-0.5l1-1.2l0.6-0.6l1.1-1l3.1-2.9l0.8-0.8l1-1l0.6-1l0.5-0.6l0.7-0.9l0.6-0.2h0.2l1-1.3l0-0.2l-0.5-0.3l0-0.2
		l0.4-0.6l0.4-0.5l1.2-1.2l0.7-0.6l1-0.7l1.1-0.6l0.9-0.3l0.5-0.4l0.4-0.5l0.4-0.5l0.2-0.5l3-2.5l-0.1-0.2l-0.2-0.3l-0.4-0.2l-0.2,0
		l-0.1-0.6l0-0.5l0-0.3l0.2-0.3l0.7-0.1l0.5-0.1l0.2,1.2l0.2,1.1l0.1,0.3l0.1,0.1l0.2,0.1l0.2,0l0.6-0.4l0.4-0.3l0.1-1.3l2.7-2.3
		l4.8-3.9l-0.1-0.3l0.2-0.6l0.7-0.7l0.8-0.7l0.1-0.5l1.2-1.2l0.9-0.8l0.8-0.7l0.9,0.4l0.5,0l2.6-1.9l1.5-1l-0.4-0.5l-1.6-0.8
		l-0.2-0.8l0.9-1.1l0.4-0.4l0.5-0.5l0.5-1.1l0.5-1.3l0.1-0.3l-0.1-0.5l0.5-1.7l0.2-2.2l0.5-1.7l0.7-2l0.3-0.9l0-0.9l-0.4-1.4
		l0.8-1.1l0.4-1.2v-0.5l-1-0.3l0-0.5l1.3-4l0.3,0.2l0.3-1.6l0-1l0.3-0.8l0.5-0.4l-0.2-1.2l3.5-5.1l0.2-0.7l-0.8-1.4l0.2-0.5l1-1
		l0.2-0.4v-0.9l0.5-1.5l0.6-1.2l1-3.1l1.5-5.3l1.8-6.8l2.2-1.7l0.4-1.2l0.7-2.7l0.4-0.9l0.9-0.9l0.7-5.6l1.2-1.4l2.8-0.9h0.8
		l1.6-0.9l1.5-0.6l1.2-1.8l0.9-2.2l0.8-2.2l1.4-2.7l1.2-2l1.3-2.3l3.3-6.5l1.6-1.8l1.3-1.8l0.8-1.6l0.4,0.1l0.6-0.3l0.5-0.7l1.4-2.6
		l5.9-8.8l1.7-2.5l1.4-2.3l0.9-2l1.6-5.1l0.1-1.4l0.2-0.6l1.4-5l1-1.2l1.5-1.2l0.7-0.4l0.6-0.2l0.8,0.9l1,0.8l0.7,0.4l1,0.4l0.5,0.2
		l0.1,0.3l0.1,0.7l-0.2,1.1l0.1,0.5l0.6,1.2l0.7,0.7l0.9,0.4l0.8,0l0.6,0.2l0.4,0.3l0.6,0.8l0.5,0.3l0.8,0.2l1.5-0.5l0.6,0.1l1,0.5
		l1.8,1.7l0.6,0.4l0.3-0.2l0.5-0.2l0,0.4l0.2,0.7l0.4,0.6l1.4,0.3l1.2,0.6l0.6,0.5l0.7,0.8l0.3,0.1l0.8-0.5l0.7-0.2l0.8-0.2l0.7-0.3
		l0.3-0.2l0.4,0.1l1.1,0.3l0.5,0l0.8-0.1l0.3,0.1l-0.1,1.3l0.3,1.5l0.3,1.3l-0.7,1.5l-0.5,1.9l-0.6,0.9l-0.1,0.6l0.1,0.4l0.4,0.5
		l0.8,0.4l0.6,0.3l-0.8,1.5l-0.4,1l-0.7,1.7l-0.4,0.7l1,0.4l0.4,0.3l0.5,0.3l0.3,1.9l0.3,1.2l0.4,1.3l0.6,1.1l0.3,0.7l0,1.5l1,3.2
		l1.2,1.3l0.2,0.4l0.5,0.6l0.6,0.9l0.4,2l-0.1,0.9l-0.3,0.6l-0.1,1l-0.1,2.6l-0.2,1.1l-1,1.4l0.2,0.3l0.3,0.2l0.7,0.1l0.5,0.3
		l-0.1,0.4l-0.7,1.9l-0.2,2.1l-0.2,1.1l-0.8,1.4l-0.5,2.6l-0.6,0.4l-0.6,1.1l-0.6,0.8l-0.4,1.3l-0.8,1.7l-0.4,1.2l0,3.7l0.1,1.7
		l-0.4,2.8l0.5,2.1l0.6,1.1l1.4,3l0,1l-0.1,1.4l-0.9,0.8l-1.5,1l-0.9,1.1l-0.2,0.7l1.2,1l1.2,0.9l2.1,0.8l0.7,0.5l0.9,1.5l0.8,0.6
		l1.3-0.1l0.8-0.4l1.8-1.7l0.5,0.1l1.4,0.6l1.7,0.9l2,0.7l3,0.8l1.1,0.2l0.9,0.2l0.3,0.4l1.2,0.1l0.4-0.4l0.8,0.2l2.5,1.1l0.6,0.6
		l1.6,0.7l1,0.9l0.9,2l-0.1,2.3l0.2,1.5l0.6-0.1l1.1-0.2l1,0.4l2.9-1l1-0.1l1,0.2l1.2,0.6l1.6,0.5l1.4-0.2l1.1,1.3l0.7,0.5l1.1,0.2
		l2.1,0l1.1-0.4l1.3,0.4l1.4,0.2l1.3,0.5l0.9-0.2l2.2-1.3l1.1,0l0.8-0.3l0.9,0.5l1.4,0.6l1.6,1.5l1.2,0.7l1.3,0.2l0.9,0.9l0.4,0.6
		l0.8,1.6l1.5,0.6l1.2,0.3l2.4,1.2l1.4,0.6l1.1,0.8l1.6,2.1l0.6,1.1l0.8,1.1l2.3,0.1l2.3-0.3l1.8,0l1.8-0.6l2.1-0.5l1.5-0.6l1.8-0.4
		l2.3-0.3l5.7-1.1l2.1-0.8l3.3-1.7l1.4-0.3l1.9-0.1l2.1-0.5l4.8-2l1.4-0.8l1.4-0.8l0.7-0.1l0.6,1l0.8,1.2l0.9,1.2l0.1,0.7l-0.4,0.6
		l-0.2,0.9l0.5,1.4l0.3,0.5l0.2,1.2l0.4,0.7l0.5,0.2l0.3,1.4l-0.6,0.6l0.6,1.4l0,0.7l0.2,0.7l0.1,0.9l0.3,0.6l-0.5,1.8l-0.7,1.4
		l-0.5,1.1l-0.2,1.2l-0.6,1l-0.8,1.2l-0.7,0.4l-0.3,0.4l0.1,0.7l0.3,0.3l-1.1,1l-1.4,1l-0.5,0.5l-0.4,0.7l0.1,0.6l0.6,0.1l0.5-0.1
		l0.7,0.2l2.4,1.8l1.6,0.8l0.9,0.8l1.7,1.1l1.6,1.4l1.6,1.5l0.8,0.8l0.1,0.5l1.4,0.3l1.8-0.3l0.8,0.2l0.9,0.8l1,0.6l0.5,0.5l1.2,0
		l1.4-0.1l4,1.5l1.6,0.2l0.8,0.6l1.1,0.5l1,0l0.8,0l1,0.5l0.3,0.5l-0.3,0.6l-0.2,0.7l0,0.7l-0.3,0.8l-0.2,0.7l0.1,1.3v1.2l-0.4,1.5
		l-0.5,0.6l-0.3,0.7l0.2,0.8l0.4,0.7l-0.4,1.2l-0.7,0.5l-1.9-0.2l-1.2,0.2l-1.6,0.3h-1.6l-0.5,0l-0.8-0.4l-0.9-0.6l-0.6-0.8
		l-0.8-0.9l-0.7,0.1l-0.7,0.1l-0.8-0.2l-0.9-0.3l-1.2,0.1l-0.8,0.6l-0.8,1.1l-1.1,0.3l-0.8-0.4l-0.3,0.4l-0.4,0.6l-0.7,0.5l-0.6,1.1
		l1.1,1.7l0.7,1.5l0.5,0.1l0.4,0.6l-0.2,0.7l-0.1,0.7l0.2,1.5l-0.4,1.1l-1.1,1.1l-0.4,1l0.1,1.3l-0.5,0.6l-0.2,0.6l-0.7,0.5
		l-0.8-0.2l-0.3-0.6l-0.4-0.9l-0.1-0.6l-0.2-1.2l-0.5-0.9l-0.7-0.8l-0.8-0.3l-0.8-0.9l-0.9-0.4h-1.2l-0.9,0.2l-0.8,0l-2.4-0.3
		l-1.2,0.6l-0.9,0.6l-0.9,0.4l-0.6,0.8l-2.3,0l-0.5,0.3l-0.3,0.4l0,1.1v1.7l-0.1,0.7l-0.8,1l-0.8,0.1l-1.3-0.9l-1.7-1l-0.7-0.3
		l-0.5-0.5l-0.8-0.6l-0.8-0.1l-0.8,1l-0.2,0.8l-0.2,1l0.3,1.5l-0.1,0.6l-0.7-0.2l-1-0.3l-0.4,0.3l-1,0.1l-1.4-0.1l-2.1-0.3l-1.3-0.3
		l-2.6-0.4l-2.4-0.1l-1.7,0.6l-2.7,1.1l-2,0.2l-2-0.3l-1.4,0.2h-1.8l-0.6,0.1l-0.4,0.3l-0.5,1.2l-1.1,2.6v1.9l-0.8,1.1l-0.3,0.8
		l-0.6,0.9l-0.7,0l-1.1,0.1l-0.8,0.1l-1.1-0.3l-4.1-1.7l-2.2,0.1l-1.1,0.7l-1,2.5l-1,1l-0.9,0.3l-1,0.5l-1,0.3l-1.6,0.8l-1.7,0
		l-0.4,0l-0.8-0.6l-0.8-1.2l-1.9,0.7l-1,0.7l-1.4,0.8l-0.5,0.1l-0.6-0.2l-0.5,0.1l-0.6,0.6l-1.1-0.4l-1.2,0.5l-1,0.4l-0.2-0.7
		l0.2-0.5l0.5-0.7l-0.1-0.4l-0.5-0.3h-0.6l-0.5,0.3l-1,0.5l-1.4-0.4l-1.3-0.4l-1.5-0.4l-2-0.2l-1.4,0.4l-0.7,0.3l-7.3,3.8l-1.2,1.1
		l-1.2-0.1l-0.9,0.9l-0.7,0.4l-1.2,1.2l-0.8,1.3l-1.5-0.4l-1.5-0.6l-1.2-0.1l-1.1,0l-1,0l-0.6,0.4l-1.2,0.6l-1.1,0.6l-1.1,1.1
		l-0.7,0.3l-0.7,0.2l-0.7,0.7l-0.6,0.3l-0.8,1.1l-0.6,0l-1.2-0.3l-0.5,0.3l-1.9,1l-0.6-0.3l-0.8-0.4l-2.2,1.3l-1,0.5l-0.8-3.8
		l-5.9,3.8l-1.2,1.2l-2.1,1.4l-1.5,2.7l-1,1.2l-2.9,1l-5,5.1l-2.2,5.4l-1.8-2.3l-0.6-0.4l-2.6-0.1l-4,0.3l-2.2,0.2l-0.4-0.6l0.7-1.1
		l-0.9-0.9l-3.6-0.4l-1.7-0.4l-2.9-0.8l-1.7-1.8l-0.9-1.8l-2.1-0.4l-3.4-0.3l-2,0.5l-2.9,0.7l-4.7,3.3l-4.4-0.2l-4.8-0.5l-4.4,0
		l-0.7-0.5l-1.8-1l-2.2,0.2l-1.4,0.1l-0.8,0.2l-1.1-0.6l-0.5-0.3l-1.5-0.8l-0.5-0.1l-0.7,0.4l-0.9,0.8l-2.7,3l-0.8,0.8l-0.6,0.8
		l-0.3,0.7l-0.2,0.4l-0.4,2l-0.4-0.3l-0.2-0.4l-0.6-1.4l-0.4-1.2l-0.4-1.8l-0.2-1.5l-1.1-1.1l-2.4-1.4l-1.7-0.8l-2-0.3l-4.1-0.9
		l-2.3-0.9l-3.7-1.6l-6.5-2.9l-1-0.6l-4.7-2.9l-0.5-0.3l-4.8-2.9l-3.6-2l-4.1-2.7l-1.5-1.2l-0.8-1.2l-0.4-1.5l-0.3-1.5L1921.1-25.6"
		/>
	<path fill="none" stroke="#000000" stroke-width="0.25" d="M1664,300.1l3.6,3.7l1.2-0.7l4.4-2.7l2.9,4.7l5-1.8l0.9-1.3l4.5,2.8
		l3.8,2.6l1.1-0.9l1.1-1.7l0.3-1.1l0.4-0.3l0.4,0.4l0.3,1.2l1.5,0.5l0.2,0.4l1.6-0.2l2.6-0.5l1.8-1.2l1.5-0.4l1.4-0.2l1-0.8l0.9-1
		l1-0.2l1-0.9l0.2-0.6l0.7-0.5l2.4-2.1l0.9-0.8l1.4-0.5l0.3-0.6l2.2-2.6l1-1.3l0.5-1.1l1-0.7l0.8-0.6l1.8-0.7l1.2-1.2l0.7-1.1
		l0.3-1.2l0.8-0.1l4.3-0.8l1.5,1.6l-0.1,5.1l-0.4,3.3l0.6,2.1l1.4,1.7l1.9,1.5l3.7,5.3l1.9,3.8l0.6,4.4l0.7,2.7l1,0.9l0.4,1.4
		l-0.4,0.6l0.3,0.6l1.2,0.2l-0.8,4.5l-0.1,2.5l1,1.7l2.4,1.7l1.2,1.4l0.7,1.4l-0.2,1l-1.4,2.8l-2.5,2.2l-0.6,1.3l0.3,0.4l0.3,1
		l-0.3,0.8l-0.6,0.4l-1,0.6l0.5,0.7l1.8,0.1l0.5,0.6l1.6,0.5l4.9,1l0.8-0.3l0.3-0.1l1.1-0.4l1.5-0.8l0.8-0.1l2.9,0.8l0.1,0.5l0,1.1
		l0.3,0.2l0.5,0l0.9-0.4l0.4,0.2l0.2,0.5l-0.1,1l0.7,0.8l0.6,0.5l1.1,0.5l1.8,0.3l0.4-0.4l0.8-0.7l0.7-0.6l0.8-0.8l2.2,1.1l0.9-0.6
		l0.2,0.4l0.9,0.4l1.3-0.4l0.7-0.8l0.5-0.4l0.6,0.3l0.5,0.7l0.7,0.1l0.8-0.7l0.9-1.4l0.6-0.6l1.1-0.7l0.2,0.5l0.2,1.5l0.5,1l0.6,1.4
		l1.4,1.3l2.4,2.3l1,0.6l2.9-0.1l1.2,0.6l0.7,0.7l0.6,0.5l1.3-2.9l0.4-1.7l-0.3-0.3l-0.1-0.4l0-0.3l0.8-0.5l1.3-0.9l2.5-2.3l1.3-1.2
		l-0.3-1.9l-0.7-1.8v-0.8l0.6-1l0.5-0.9l0.1-0.6l-0.2-0.9l0-0.5l0.2-0.6l0.5-0.8l-1.2-1.4l-0.5-0.7l0.3-1l0.3-1.2l1.7-1v-0.6
		l-0.4-0.4l-0.2-1l-0.5-3.6l1.1-0.8l0.1-0.6l-1.2-3.1l-1.2-1l-0.6-0.4l-0.5-0.3l0.4-0.5l2.3-0.2l-0.1-0.7l-0.6-2.7l-0.7-0.6
		l-0.5-0.5l0.1-0.7l0.8-0.3l1.5,0.1l1.2,0.8l1,0.8l1,0.8l0.4,1.2l2.5-0.1l0.3-1.7l0.3-1.3l0.7-1.9l-0.2-0.3l-2.2-2.5l-0.5-0.6
		l-1.6-0.4l-1.2-0.2l-0.7-0.6l0.1-0.7l0.4-0.7l0.6-0.6l1-0.7l0.6-2.2l2.3-1.9v-1l-0.3-1.5l0.4-0.6v-1.3l0-1.3l0.1-0.7l0.4-0.5
		l0.5-0.6l0.5-0.7l1-1.3v-0.8l-0.3-1.2l1.2-3.3l0.7-2.3v-2.2l0.4-2.3l0.9-1.9l1.4-0.3l1-1.1l0.5-0.6l0.5-0.3l0.9-0.1l0.7,0.8
		l1.3,0.3l2.6-1l0.8,1.4l0.9,1l2.8-0.7l2.5,0.1l0.7,0.6l1.5,1.3l2.2-1.1l0.4-0.1l0.7,0.6l0.7,0.5l0.6,0.4h0.6l1.1-1.6l1.9-0.3
		l1.6-1.1l1.7-0.3l1.1-1.4l0.2-1.5l-0.5-1.5l0-1.4l-0.2-1.4l-0.5-0.4l-0.2-1.8l0.3-1.1l0.2-0.8l3.2,0.8l3.5-2.6l0.8-1.3l0.3-0.4
		l0.3-0.6l-2.1-1.4l-0.5-0.6l-0.8-1.3l-0.5-1.2l-0.3-0.9l-0.1-0.5l0.5-1l0.7-1.9l-0.3-2.6l-1.4-0.7l-1.6-0.6l-0.3-0.4v-1.1l1.1-2.7
		l1.7-4.1l0.7-1.1l0.5-0.7l0.8-0.4l1.4-0.3l0.8-0.4l0.7-0.8l0.6-1.2l-0.3-1l0.1-1.1l0.8-0.9l0.8-0.6l0.3-0.7l0.3-0.9l1.4-0.5
		l0.8-2.2l0.5-1.3l-0.3-1l-0.2-0.8l-0.1-1.6l-0.4-1l-0.1-1.4l0-0.6l-0.8,0.5l-1,0.6l-0.9,0.6l-0.9,0.3l-1.2-0.1l-0.6-0.5l-0.3-0.9
		l-0.1-0.8l0.3-0.9l0.4-0.6l0.3-0.7l-0.3-0.9l-0.3-1.2l-0.2-1l-0.1-1.4l0.2-1.1l-0.2-0.8l-0.1-0.6l0.1-1.3v-0.8l0.1-0.6l0-0.8
		l-0.3-1.3l-0.4-1.1l1,0.1l0-0.3l0.9,0l0-0.4l0.1-0.5l0.2-0.6l-0.6-0.1h-0.8l-0.6-0.8l-0.1-1l-0.1-1.2l0-0.6l0.4-0.7l1.2-1.3
		l0.5-0.6l-0.4-1.5l-0.2-1l-1.3-0.8l-1.5-1.1l-0.3-0.2l-0.3-0.4l-0.2-0.7l-0.1-1.4l-0.3-0.8l-0.3-0.8v-0.9l-0.5-1.6l-0.7-1.6
		l-0.6-1.4l-0.6-1.1l-0.5-0.7l-0.8-0.6l-2.2-1l-1.2-0.7l-3.3,7l-2.3-1l-2-0.7l-1.2-0.3l-1.6-0.5l-1.5-0.3l-1.1-0.1l-3-0.7l-6.6-1.9
		l-3.5-0.7l-1.4-0.4v-0.6l0.6-0.5l0.8,0.2h1.2l2.3-0.1l2.6-1l1.7-0.5l1.5-0.7l2-3.1l0.8-1.5l0.7-1.5l0.2-1.1l0.1-1.1l0.2-0.8
		l0.1-0.7l0.6-0.5l0.6-0.6l0.8-0.5l0.5-0.5l0.4-1.9l0.1-0.5l-0.9,0.3l-0.9-3l-0.1-0.4l0.4-0.4l0.5-0.3l1.2-0.1l0.3-0.7v-0.3l0.7,0
		l0.6-0.9l1.6-1.7l1.1-1.1l2.6-3.9l4.7-6.8l-0.4-0.4l-1-0.6l-1.2-0.6l-1.1-0.3l-1.6-1l-2-1.5l-1.7-1l-2.7-0.6l-2-0.4l-1.8,0.2
		l-0.2,0l-3.1,0.6l-3.9,0.6l-1.1-0.6l-1.3-0.6l-2.3-2.5l-1-2.1l-0.6-1.3l-1-0.8l-0.9-0.1l-0.2,0l0-0.2l0-1.7l-0.2-0.1v-1l0-1.4l0-1
		v-0.2l0-0.3l-0.4-0.4l1-1.2l0.7,0.6l0.1-1.4l0.4-2.8l0.1-1.4l0.3-2.1l0.4-1.3l0.6-1.7l-1.7-1.7l-1.7-1.7l0.1-5.2l-2.6,0.1l-2.2,1.1
		l-2.7,1.3l-10,8.9l-3.9,3.3l-2.3,1.7l-0.7,0.7l-0.3,0.3l-0.2,0l-0.9-0.8l-0.5-0.4l-0.6-0.3l-0.3,0.1l-3,2.8l-2.2,2.1l-1.2,1
		l-2.5,2.6l-0.8,0.8l-1.1,0.5l-0.8,0.3l-0.2,0.3l-1.7-0.1l-1.8-0.7l-0.8-0.3l0-1.5l0.8-0.8l1.2-1.9l0-0.6l-2.4-2.3l-2.4-2.7
		l-0.1-0.2l-0.1-0.2l6.7-6.6l2.3-2.3l0.9-1.1l1.2-1.2l1.6-1.3l0.5-0.7l0.2-0.5l0.1-1.4l0.1-0.9l3.2-0.9l6.2-6.2l-3.4-3.6l0-6.1
		l0-8.5l0-0.5l-1.8,0.7l-0.8,0.3l-1.2-0.2l-1.1,0.4l-0.7,0.2l-0.7,0l-1.1-0.2l-2.2-1.1l0-0.4l-0.9-0.4l-0.9-0.5l-0.5-0.2l-0.4,0.1
		l-0.5,0.2l-0.6,0.6l-0.6,0.7l-0.4,0.2l-0.4,0l-0.4-0.2l-0.6-0.6l-0.5-0.5l-1-0.2l-1.2,0l-1-0.2l-0.4,0l-0.5,0.1l-0.2,0.1l-0.4,0.5
		l-0.5,0.5l-0.9,0.4l-0.9,0.1l-0.4,0.2l-0.4,0.3l-0.8,0.2l-0.8,0.4l-0.8-0.1l-1.5-0.4l-4.3-1.3l-6.4-1.8l-7.3-2.2l-3.4,6.1l-1.9,4.3
		l-4.2,8.3l-0.8,6.7l-0.2,3.2l0.7,0.2l-0.5,5.2l1,2.5l0.7,1.2l0.9,1.4l0.9,1.9l1,1.3l1.6,0.9l3.1,0.6l4.6-1.1l2.2-0.6l1.9-1l1.3-0.7
		l0.7,0.4l0.4,0.2l1.1,0.8l1.3,0.1l4.5,1l-0.3,0.8l-1.6,0.7l-1.9,1l-1.3,0.4l0.3,1.3l-0.3,1.9h1.3l0.3,1.3l-1.5,0.3l-0.7,0.1
		l-2.6,0.1l-4.5-0.6l-5.8-0.3l-0.3,2.6l0,3.2l0.1,4.5l1.6,1.6l0.3,0.3l2.9,0.3l0.3,0.3l7.4-0.1l-0.3,0.7l-0.6,1.3l-0.6,1.3l-4.4,2.3
		l-0.3,1.4l-0.2,3.2l0.4,3.4l0.5,0.8l0.5,1.9l1.3,0.1l1.1,0.5l1,0.3l-1.9,1l-1.3,0l0.4,1.9v0.6l-0.6,0.6l0,1.3l0,2.6l-0.6,2.6
		l-0.6,4.5l-0.6,1.3l0,1.3v0.6l0,2.6l0.6,1.3l0.9,0.5l0.5,0.1l0.5,0.7l0.3,0.3l0.3,0.3l0,2.6l-0.3,0.6l-2.5,0l0.3,1.3l0.3,0.3
		l0.4,0.6l0.2,0.4l1.3,0l-0.3,1.3l-0.6,0.7l0.1,4.5v0.6l0.3,1.3l0,0.6l-0.2,0.9l-0.1,0.8l0,1.5l0,0.6l0,0.7l-0.5,3.4l-0.8,3.8l0,0.6
		l-0.4,3.1l-0.6,3.9l0.5,3.2l-0.1,0.7l-0.2,1.2l-0.6,3.1l-0.7,3.2l-0.8,2.2l-0.6,0.8l-1.7,1.6l-0.8,0.6l-1,0.8l-0.9,0.3l-1.1,0.2
		l-1.4,0.2l-4,0.8l-0.9-0.8l-1,0.3l-1.4,1.2l0.3-1.1l0.2-0.5l-0.8-1.4l0.1-0.4l0.3,0.3l1.9-1l0.9-1.3l0.6-0.1l0.3,0.2l0.4-1l0.4-0.2
		l0.4,0.4l0.2-0.5l-0.1-0.3l0.3-0.3l-0.8,0l-3.8,3l-2.3,0.9l-1.6,0l-0.4-0.4l-0.6,0.5l-0.1-0.1l-2.4-1.8l-1.6,1.5l-2.5,2.8l4.2,3.4
		l-1.5,3.8l-1.4,4l5.1,1.2l1.6-3.1l3.6,0.7l0,4.4l-0.3,1.5l-0.2,1.2l-0.2,1.5l-0.2,1.3l0,1.9l-0.1,2l-0.5,1.2l-0.6,1.9l-0.6,1.3
		l-0.6,0.6l-0.5,1.1l-0.1,0.9l0,1.9l-0.6,1.3l-0.6,1.9l-0.7,2.6l-0.9,2.2l-0.4,0.7l-0.7,0.9l-1.7,1.4l-2.1,1.4l-2.2,0.9l-0.9-0.7
		l-1-0.5l-0.9,0.2l-0.5,0.5l-0.2,0.4l-9.9,6.4l-4.1,1.9l-0.8,1.3l-1.7,1.1l-6.2-0.1l-1.3,1.8l-1.6,1.3l-1.5,1.3l-2,1.6l-2.3,1.5
		l-1.9,1.3l-1.4,0.9l-2.3,2.2l-1.2,0.9l-0.9,0.9l-0.6,0.4l-0.4,0.4l-0.8,0.8l-1,0.9l-0.9,1L1664,300.1"/>
	<path fill="none" stroke="#000000" stroke-width="0.25" d="M1736.2,68.8l0.7-1.3l-0.6-1.1l-0.1-0.3l4.9-7.6l0.6-0.2l0.7,0.4
		l0.3-0.5l-1-1l0.1-0.5l3.5-5.5l1-1.5l0.9-1.5l0.8-1.3l1.1-1.3l0.5-0.9l1-1.5l0.5-0.2l1-2.9l0.6-2.1l-0.1-0.8l0.2-0.5l-1.1-1.2
		l1-2.7l0.3-1.8l0.7-1.1l0.3-3l0.1-2.3l-2.1-1.4l0.3-0.1l0.5-1l0.7-2.1l0.1-0.2l0.3-0.5l0.1-0.5l0.7-2.2l-0.1,0l0.1-0.2l0.3,0.1
		l1.1-1.4l-0.3-0.2l0.2-0.2l0.1,0.1l6.6-7.2l1.7-1.5l10.4,0.8l5.2-5.6l11,6.8l12.5,3.9l4.4,7.5l2.6,6.1l0.3,1l2.3,6.7l4,2.8l3,1.8
		l12.5,9.5l3.9,2.7l6.7,3.2l4.1,1l4.8,0.9l7.3-0.2l3.2-0.3l3.9,0.7l7.8,3.3l4.6,1.3l3.5,1.4l3.7,0.7l1.5-0.1l1.8,0.2l3.1-1l1.6-1.2
		l1.6-1.8l1.3,0.4l0.7,0l1.6,0.3l2.1,1l3.2,2.4l1.7,2.1l0.9,1.8l0.8,2.5l1.2,3.2l0.4,0.4l7.3,3.5l-0.9,0.5l-0.6,0.7l-0.5,0.3
		l-1.3,0.6l-2.2,0.7l-1.2,0.8l-0.2,0.1l-0.7,0.4l-0.4,0.2l-0.5,0.5l-0.3,0.3l-8.9-2.6l-1.2-0.4l-5.3-1.6l-2.7-0.8l-0.7,1.5l0.3,0.3
		l0,0.7l0,1.3l-0.1,0.3l-0.3,0.9l0.2,0.3l0.1,0.3l0.1,0.7l0.1,0.4l0.1,0.5l0.2,0.2l0.3,0.3l0.3,0.3l0,0.2l0,0.3l0,0.5l0.1,0.4
		l0.1,0.6l0.6,1.2l0.3,1l0.1,0.1l0.1,0.2l0.7,0.5l0.4,0.3l0.1,0.2l0,0.4l-0.1,0.4l0.1,0.2l0.2,0.3l0.1,0.1l0.3,0.2l-0.9,0.9l0.7,0.9
		l0.7,1.2l-0.6,0.6l1.3,1.3l-0.1,0.8l0.2,0.5l0.4,0.9l0.2,0.5l0,0.3l-0.9-0.4l-0.8-0.5l-0.3,0.3l-1.6-1.5l-0.5,0.5l-1.4-1.4
		l-0.4,0.4l-0.2,0l-0.8,0.1l-0.2-0.2l-0.6-0.3l-1-0.2l-0.7,0.1l-0.7,0.2l-2,0.2l-0.6,0.4l-0.4,0.2l-0.5,0.3l-0.7,0.2l-0.5,0.1
		l-0.6,0.4l-0.6,0.5l-0.4-0.1l-0.7-0.2l-3.2-0.9l-0.4,0.2l-1,0.2l-1.6,0.1l0-0.5l-0.2-0.1v-0.5l-0.1-0.5l-0.4,0l-0.8,0.5l-0.5,0.1
		l0.1,1.1l0.3,1.1l0.3,0.9l-0.2,0.4l-1,1.4l-1.9,0.2l-1.8,2.5l3.7,4.9l-1.2,0.8l-0.1,0.4l0.2,1.2l-0.1,1.1l-0.2,0.6l-0.4,0.5l0,0.3
		l-0.2,0.7l0.7-0.3l3.3,4.5l-0.2,0.2l-8.6,6.2l-0.4,2.1l-0.5,0.3l-0.7,0.5l-2.2,1.6l-0.4,0.2l-0.7,0.5l-0.6,0.4l-0.7,0.5l-0.3,0.2
		l-0.3,0.2l0.3,0.2l1.2,0.9l0.2,0.1l0.5,0.4l-1.9,2.6l-1.4,1l-1.4,1l0.7,0.7l1.1,1.1l-1.5,1.1l0.5,0.7l0.4-0.3l0.3,0.3l0.5,0.3
		l0.5,0.4l0.4,0.6l0.2-0.1l0.1,0.4l0.1,0.4l0,0.3l0.3,0.4l-0.2,0.1l-0.5,0.3l-0.9,0.4l-0.3,0.1l-1.7,0.5l-0.2,0l-0.3,0.1l-1.6,0.1
		l-2.3-0.1l-2.4-0.1l-2-0.1l0,0.5l0,2l0.3,0.5l0.6,1.1l0.4,0.5l1.2,0.6l0.6,0.3l1.2,0.8l0.8,0.8l0.4,0.6l0.9,1.2l0.6,0.8l0.4,0.8
		l0.3,0.8l0.2,0.2l0.3-0.7l0.3-0.1l0.6-0.3l0.2,0.3l0.6,0.4l0.5,0.2l0.6,0.2l0.3,0.3l0.4,0.5l-0.1,0.2l-0.1,0.5l0.1,0.4l0.1,0.3
		l0.1,0.3l0.1,0.2h0.1l0.4,0.1l0.2,0.4l0.1,0.5l0.1,0.7l-0.1,0.5l-0.1,0.6l-0.3,0.4l-0.8,0.1l-1.3-0.1l-0.5,0l-0.2,0.5l-0.1,0.4
		l0.5,3.6l0.3,0.9l-4.4,1.6l-1.4,0.6l-1.1,1.1l-1.2,1.9l-0.9,0.1l-3.6,0.5l-2.4,0.4l-1.4,0.6l-3.3,7l-2.3-1l-2-0.7l-1.2-0.3
		l-1.6-0.5l-1.5-0.3l-1.1-0.1l-3-0.7l-6.6-1.9l-3.5-0.7l-1.4-0.4v-0.6l0.6-0.5l0.8,0.2h1.2l2.3-0.1l2.6-1l1.7-0.5l1.5-0.7l2-3.1
		l0.8-1.5l0.7-1.5l0.2-1.1l0.1-1.1l0.2-0.8l0.1-0.7l0.6-0.5l0.6-0.6l0.8-0.5l0.5-0.5l0.4-1.9l0.1-0.5l-0.9,0.3l-0.9-3l-0.1-0.4
		l0.4-0.4l0.5-0.3l1.2-0.1l0.3-0.7v-0.3l0.7,0l0.6-0.9l1.6-1.7l1.1-1.1l2.6-3.9l4.7-6.8l-0.4-0.4l-1-0.6l-1.2-0.6l-1.1-0.3l-1.6-1
		l-2-1.5l-1.7-1l-2.7-0.6l-2-0.4l-1.8,0.2l-0.2,0l-3.1,0.6l-3.9,0.6l-1.1-0.6l-1.3-0.6l-2.3-2.5l-1-2.1l-0.6-1.3l-1-0.8l-0.9-0.1
		l-0.2,0l0-0.2l0-1.7l-0.2-0.1v-1l0-1.4l0-1v-0.2l0-0.3l-0.4-0.4l1-1.2l0.7,0.6l0.1-1.4l0.4-2.8l0.1-1.4l0.3-2.1l0.4-1.3l0.6-1.7
		l-1.7-1.7l-1.7-1.7l0.1-5.2l-2.6,0.1l-2.2,1.1l-2.7,1.3l-10,8.9l-3.9,3.3l-2.3,1.7l-0.7,0.7l-0.3,0.3l-0.2,0l-0.9-0.8l-0.5-0.4
		l-0.6-0.3l-0.3,0.1l-3,2.8l-2.2,2.1l-1.2,1l-2.5,2.6l-0.8,0.8l-1.1,0.5l-0.8,0.3l-0.2,0.3l-1.7-0.1l-1.8-0.7l-0.8-0.3l0-1.5
		l0.8-0.8l1.2-1.9l0-0.6l-2.4-2.3l-2.4-2.7l-0.1-0.2l-0.1-0.2l6.7-6.6l2.3-2.3l0.9-1.1l1.2-1.2l1.6-1.3l0.5-0.7l0.2-0.5l0.1-1.4
		l0.1-0.9l3.2-0.9l6.2-6.2l-3.4-3.6l0-6.1l0-8.5l0-0.5l-1.8,0.7l-0.8,0.3l-1.2-0.2l-1.1,0.4l-0.7,0.2l-0.7,0l-1.1-0.2l-2.2-1.1
		l0-0.4l-0.9-0.4l-0.9-0.5l-0.5-0.2l-0.4,0.1l-0.5,0.2l-0.6,0.6l-0.6,0.7l-0.4,0.2l-0.4,0l-0.4-0.2l-0.6-0.6l-0.5-0.5l-1-0.2l-1.2,0
		l-1-0.2l-0.4,0l-0.5,0.1l-0.2,0.1l-0.4,0.5l-0.5,0.5l-0.9,0.4l-0.9,0.1l-0.4,0.2l-0.4,0.3l-0.8,0.2l-0.8,0.4l-0.8-0.1l-1.5-0.4
		l-4.3-1.3l-6.4-1.8L1736.2,68.8"/>
	<path fill="none" stroke="#000000" stroke-width="0.25" d="M1838.1,175.3l1.4-0.6l2.4-0.4l3.6-0.5l0.9-0.1l1.2-1.9l1.1-1.1l1.4-0.6
		l4.4-1.6l-0.3-0.9l-0.5-3.6l0.1-0.4l0.2-0.5l0.5,0l1.3,0.1l0.8-0.1l0.3-0.4l0.1-0.6l0.1-0.5l-0.1-0.7l-0.1-0.5l-0.2-0.4l-0.4-0.1
		h-0.1l-0.1-0.2l-0.1-0.3l-0.1-0.3l-0.1-0.4l0.1-0.5l0.1-0.2l-0.4-0.5l-0.3-0.3l-0.6-0.2l-0.5-0.2l-0.6-0.4l-0.2-0.3l-0.6,0.3
		l-0.3,0.1l-0.3,0.7l-0.2-0.2l-0.3-0.8l-0.4-0.8l-0.6-0.8l-0.9-1.2l-0.4-0.6l-0.8-0.8l-1.2-0.8l-0.6-0.3l-1.2-0.6l-0.4-0.5l-0.6-1.1
		l-0.3-0.5l0-2l0-0.5l2,0.1l2.4,0.1l2.3,0.1l1.6-0.1l0.3-0.1l0.2,0l1.7-0.5l0.3-0.1l0.9-0.4l0.5-0.3l0.2-0.1l-0.3-0.4l0-0.3
		l-0.1-0.4l-0.1-0.4l-0.2,0.1l-0.4-0.6l-0.5-0.4l-0.5-0.3l-0.3-0.3l-0.4,0.3l-0.5-0.7l1.5-1.1l-1.1-1.1l-0.7-0.7l1.4-1l1.4-1
		l1.9-2.6l-0.5-0.4l-0.2-0.1l-1.2-0.9l-0.3-0.2l0.3-0.2l0.3-0.2l0.7-0.5l0.6-0.4l0.7-0.5l0.4-0.2l2.2-1.6l0.7-0.5l0.5-0.3l0.4-2.1
		l8.6-6.2l0.2-0.2l-3.3-4.5l-0.7,0.3l0.2-0.7l0-0.3l0.4-0.5l0.2-0.6l0.1-1.1l-0.2-1.2l0.1-0.4l1.2-0.8l-3.7-4.9l1.8-2.5l1.9-0.2
		l1-1.4l0.2-0.4l-0.3-0.9l-0.3-1.1l-0.1-1.1l0.5-0.1l0.8-0.5l0.4,0l0.1,0.5v0.5l0.2,0.1l0,0.5l1.6-0.1l1-0.2l0.4-0.2l3.2,0.9
		l0.7,0.2l0.4,0.1l0.6-0.5l0.6-0.4l0.5-0.1l0.7-0.2l0.5-0.3l0.4-0.2l0.6-0.4l2-0.2l0.7-0.2l0.7-0.1l1,0.2l0.6,0.3l0.2,0.2l0.8-0.1
		l0.2,0l0.4-0.4l1.4,1.4l0.5-0.5l1.6,1.5l0.3-0.3l0.8,0.5l0.9,0.4l0-0.3l-0.2-0.5l-0.4-0.9l-0.2-0.5l0.1-0.8l-1.3-1.3l0.6-0.6
		l-0.7-1.2l-0.7-0.9l0.9-0.9l-0.3-0.2l-0.1-0.1l-0.2-0.3l-0.1-0.2l0.1-0.4l0-0.4l-0.1-0.2L1892,89l-0.7-0.5l-0.1-0.2l-0.1-0.1
		l-0.3-1l-0.6-1.2l-0.1-0.6l-0.1-0.4l0-0.5l0-0.3l0-0.2l-0.3-0.3l-0.3-0.3l-0.2-0.2l-0.1-0.5l-0.1-0.4l-0.1-0.7l-0.1-0.3l-0.2-0.3
		l0.3-0.9l0.1-0.3l0-1.3l0-0.7l-0.3-0.3l0.7-1.5l2.7,0.8l5.3,1.6l1.2,0.4l8.9,2.6l0.3-0.3l0.5-0.5l0.4-0.2l0.7-0.4l0.2-0.1l1.2-0.8
		l2.2-0.7l1.3-0.6l0.5-0.3l0.6-0.7l0.9-0.5l2,1l1,0.5l0.7,0.3l7.8,0.3l2.7,0.8l4.8,1.4l2.1,0.6l1,0.3l2.8,2.6l0.9,2l0.4,0.2l4.9,2.1
		l0.9,0.4l2.8,3.3l3.6,3.4l1.6,0.8l7.5,9l0.6,0.8l7,9.1l0.4,0.6l4.3,1.2l2.4,1.9l0.5,1.1l0.3,0.7l1,3.7l0.8,1l1.6,1.8l1.9,2.2
		l1.2,3.7l3.5,2.2l2.1,1.3l2.1,1.3l2.2,1.6l-0.2,0.4l-1.5,0.2l-3.7,0.1l-1.9,0.6l-3.5-0.6l-0.7-0.2l0.1,0.4l0.3,0.3l0.7,0.6l0.5,0.6
		l1.1,1.7l0.9,1.4l0.3,0.6l0.7,0.5l0.8,0.3l0.4,0.3v0.5l-0.4,0.6l-0.5,0.6l-1.1,0.4l-1.4,0.5l-0.9,0.5l-0.5,0.5l-0.6,0.6l-0.3,0.6
		l0,0.5l0.1,0.6l1.7,4.3l1.1,2.9l-0.2,0.2l0.1,0.7l0.2,0.3l0.5,0l0.8-0.3l0.5-0.2l0.5-0.1l0.6,0.1l0.4,0.3l1.2,1.2l1.1,1.8l0.3,0.7
		l0,0.6l-0.2,0.8l-0.2,1l0,0.8l-0.2,0.7l0.3,0.9l0.6,0.8l0.4,0.5l0.4,1l-0.2,0.4l-0.2,0.2l-0.5,0.1l-1.4,0l-1.1,0.3l-0.5,0.2
		l-0.5,0.3l-0.4,0.7l-0.1,0.5l0.2,0.3l1,0.5l3.3,1.4l1.4,0.7l1.8,1.3l2.5,1.6l0.4,0.5l-0.3,0.7l-0.5,1.5l-0.6,1.3l-1.2,1.4l-0.8,0.7
		l-0.6,0.3l-0.3,0.1l-0.4,0l-0.5-0.4l-0.5-0.2l-0.2,0l-0.2,0l-0.2,0.2l0,0.3l0.1,0.3l0.2,0.4l1,0.9l0.4,0.4l0.2,0.4l0.6,1l0.2,0.2
		l0.4,0.2l0.5,0.1l0.5,0l1.1-0.2l0.6-0.3l0.5-0.1l0.4,0.1l0.2,0.4l-0.2,0.7l-0.6,0.9l-0.4,1.2l0,0.8l0,0.5l0.3,0.4l0.8,0.3l1.1,0.4
		l0.8,0l0.8-0.5l0.5-0.3l0.2,0.1l0.2,0.4l0.1,0.4l-0.1,0.8l-0.4,0.9l-1,2.3l-2.8,5.9l-0.2,0.6l0.2,0.4l7,2.1v1.8l-1.1,0.1l-2.3,0.1
		l-0.6,0.5l0,0.9l0.1,1.1l-0.5,0.3l0.2,1l0.8,0.5l0.4,1l0.3,0.5l-0.2,3.1l0.1,0.5l0.3,0.3l1.8,1l2.2,1.9l1.9,0.6l2,1l0.8,1.9
		l-1.7,0.8l-0.9,1.5l-0.5,2.3l-1.3,1.1l-2.4,0.9l-1.9,1l-1.5,1.9l-0.9,1.6l-0.8,2l-0.3,1.7l-0.6,0.9l-2.8,0.4l-0.6-0.1l-0.4,0
		l-0.5,0.1l-0.6,0.1l-0.5,0.2l-1.2,0.7l-11.5,0.9l-0.3-4.5l-1.9-5.8l-0.1-6.8l-0.1-1l-1.4,0.3l-1.1-0.9l-0.3-1.6l-0.4-1.8l-3.6-4.2
		l-2.8-5.3l-2.2-3.3l-4.2-3.1l-5.3-2.9l-11.7-5l-6.7-4.8l-4.4-2.9l-4-0.4l-2.2-1.6l-8.4-3.3l-5,8l-0.7,0.8l-0.4,0.3l-1.8-0.2
		l-2.9-1.4l-1.9,0.2l-3.7,1.1l-0.4,2.1l-1.9,0.3l0.3,0.4l0.2,0.2l0.7,1.1l-1.3,1.5l-0.9,0.4l0.2,0.4v0.3l-0.1,0.2l-2.1,2.4l0.2,0.3
		l1.1,0.4l2.9-0.1l1.6,0.4l1.2,0.1l0.2,2.9l0.1,0.2l2.2,5.8l1.5,1.6l0.6,1.5v1l-2.4-1.3l-1.8-0.3l-1.3,0.2l-1.5,0.1l-2.1,0.1
		l-1.4,0.4l-1.2,1.2l-0.3,0.3l-2-0.2l-1-0.2l-2.5,3.5l-0.6,4.6l-2.3,3l-2.1-0.7l-3.9,1.1l0.1-1.4l-0.8-2.1l-1.4,0.4l-2.1,0.6
		l-0.5-0.7l-0.1-1.6l-1-0.8l-1.6,1.1l-0.6,1.2l-0.3,0.3l-0.6,0.1l-1.6-1l-0.8,0.1l-0.6-0.2l-0.6-0.7l-0.5-1.6l-0.1-0.4l-0.6,0.3
		l-0.9,0.8l-1.3,0.6l-1.7,2.5l-0.7,1.2l-0.5,3.5l-1,1.1l-0.6,2.1l-1.2,0.7v0.8l0.1,1.1l-0.1,1.7l-0.2,2.4l-0.2,0.1l-0.3,0.2
		l-0.2,0.3l0,0.4l0.6,0.9l0.2,1.3l-0.2,1.4l-2.3,1.7l-0.6-0.1l-1.1-1.2l-2.5,2.6l-0.7,0.3l-0.8-0.8l-0.6-0.2l-1.7,1.1l-0.4,0.3
		l0,0.6l-0.2,0.6l-1.8,5.4l-0.5,2.7l-1.4,0l-2.1-1.4l-0.5-0.6l-0.8-1.3l-0.5-1.2l-0.3-0.9l-0.1-0.5l0.5-1l0.7-1.9l-0.3-2.6l-1.4-0.7
		l-1.6-0.6l-0.3-0.4v-1.1l1.1-2.7l1.7-4.1l0.7-1.1l0.5-0.7l0.8-0.4l1.4-0.3l0.8-0.4l0.7-0.8l0.6-1.2l-0.3-1l0.1-1.1l0.8-0.9l0.8-0.6
		l0.3-0.7l0.3-0.9l1.4-0.5l0.8-2.2l0.5-1.3l-0.3-1l-0.2-0.8l-0.1-1.6l-0.4-1l-0.1-1.4l0-0.6l-0.8,0.5l-1,0.6l-0.9,0.6l-0.9,0.3
		l-1.2-0.1l-0.6-0.5l-0.3-0.9l-0.1-0.8l0.3-0.9l0.4-0.6l0.3-0.7l-0.3-0.9l-0.3-1.2l-0.2-1l-0.1-1.4l0.2-1.1l-0.2-0.8l-0.1-0.6
		l0.1-1.3v-0.8l0.1-0.6l0-0.8l-0.3-1.3l-0.4-1.1l1,0.1l0-0.3l0.9,0l0-0.4l0.1-0.5l0.2-0.6l-0.6-0.1h-0.8l-0.6-0.8l-0.1-1l-0.1-1.2
		l0-0.6l0.4-0.7l1.2-1.3l0.5-0.6l-0.4-1.5l-0.2-1l-1.3-0.8l-1.5-1.1l-0.3-0.2l-0.3-0.4l-0.2-0.7l-0.1-1.4l-0.3-0.8l-0.3-0.8v-0.9
		l-0.5-1.6l-0.7-1.6l-0.6-1.4l-0.6-1.1l-0.5-0.7l-0.8-0.6l-2.2-1L1838.1,175.3"/>
</g>
</svg>
