<?xml version="1.0" encoding="utf-8"?>
<!-- Generator: Adobe Illustrator 18.1.1, SVG Export Plug-In . SVG Version: 6.00 Build 0)  -->
<svg version="1.1" id="圖層_1" xmlns="http://www.w3.org/2000/svg" xmlns:xlink="http://www.w3.org/1999/xlink" x="0px" y="0px"
	 viewBox="0 0 612 792" enable-background="new 0 0 612 792" xml:space="preserve">
<g id="surface1">
	<path fill="none" stroke="#000000" stroke-width="0.25" d="M124.2,221.5l1.9,0.1l-0.1,2.1l-0.3,2.7v1.1l2.1,0.8l1.1,1l0.4,2.3
		l0.6,3.2v1l-1.6,0.4l-0.2,2.9l-2.3,1.8v2.8l-1.2,1.2l-0.3,2.4l-1.1,2.6l-1.1,1.4l-1.4,1.5l-1.2,0.8l-1.4-1l-1.6-0.2l-1,0.7l1,0.7
		l2.6,1.1l0.9,1.1l1.3,0.9l1.6,1l1.6,1.3l0.8,0.2l0.2,1.4l0.6,1.3l1.1,1.1l1.2,0.3l0.6,0.8l-0.2,1.3l-0.8,1.5l-0.7,1.6l0.1,1.1
		l0.1,1.7l-0.9,0.6l-2.7,1l-1.6,1l-0.7,0.5v1.8l1.2,2.8l-0.2,2.3v1l-0.8,1.7l1.3,1l1.2,1.3l0.3,2.1l0.5,0.2l3.1-0.2l1.8-0.9l1.8-0.2
		l1.4,1.3l2.6,0.9l2.6,0.5l1.5-0.6l1.1-0.6l1.1-0.7l1.3-0.9l1.7-0.1l1.5-2.5l1.5-1.1l1.2-0.5l1.2,0.4l1.1-0.8l1.9,0.6l2.1,1.2
		l2.5-0.3h1.3l2.6-1.5l1.2-0.3l2.3,1.9l2.3,0.4h1.8l2,1.2l1.5,0.3l2.6,0.2l1.3-0.4l2.1-0.3l1.2-1.2l1-0.7l0.7-0.6l1.4-0.3l1.3,0.3
		v1.2l1.6,0.2l3.3-0.7l2.1-0.4l0.9-1.5l1.1-0.3l0.7-1.1l-0.5-0.5l-0.3-0.4V279l0-0.6l-0.1-0.5l0.2-0.7l0.5-0.8l0.4-0.6l0.2-0.6
		l-0.3-0.7l-0.6-0.8l-0.9-0.1l-0.1-0.4l0.2-0.4l0.6-0.3l0.4-0.4l-0.6-0.8l-0.2-1.2l0-1l0.4-1.3l-0.3-0.8l-0.8-0.1l-0.6-0.1l-0.9-1.1
		l-1-0.9l-0.2-0.6l0-0.6l0.4-0.4l0.6-0.6l0.3-0.5l0.4-0.2h0.5l0.6,0.3l0.5-0.1l0.2-0.3v-0.5l-0.4-1.1l-0.8-1.1l0-0.4l-0.5-0.9
		l-0.3-0.5l-0.5-1l-0.6-0.6l-0.8-0.2l-0.5-0.1l-0.1-0.4l0.8-3.2l0.2-0.5l0.7-1.3l0.8-0.9l-0.2-0.8l0-1l-0.5-0.6l0-1l0.4-1.3l0.1-0.6
		l0.3-0.6l-0.2-0.8l-0.1-1l0.4-0.9l0.8-1.2l0.4-0.8l0.2-0.8l0.2-0.3l0.5-0.1h1.2l0.8,0.2l0.7-0.1l0.6-0.3l0.6-1l0.4-0.9l0.2-1.1
		l0.6-0.4l0.6-1l1.7-0.1h0.4l0.4-0.3l0.4-0.1l0.9-1.3l0.8-1.4l-0.8-0.4l-0.9-1.1l-0.4-0.2l-0.2-0.7l-0.7-0.9l-0.4-0.4l-1.2-1.4v-3
		l-0.3-0.4l-0.8-0.3l-0.9-0.5l-0.1-1.3l-0.4-0.5l-0.7-0.6l-1.2-0.4l-0.4-0.1l-0.8-0.4l-0.6-0.4l-0.7-0.4l-0.2-0.5l-0.2-0.3l-0.8-0.8
		l-0.7-1l-0.8-0.7l-0.7-0.5l-1.5-1.2l-1.3-1.2l-0.6-0.4l-0.2-0.1l-0.2-0.6l-0.1-0.5l-0.1-0.9v-0.6l0.2-0.6l1.7-2.5l0.3-1l0-1
		l-0.1-0.6l-0.3-1.1l-0.2-1.2l-0.2-0.6l-0.8-1l-0.5-0.3l-0.6-0.6l-0.4-0.4l-0.2-0.5l-0.3-0.7l0-0.3V194l-0.2-0.2l-0.5-0.2l-0.4-0.1
		l-0.6-0.2l-0.3,0l-0.3,0.1l-0.3,0.1l-0.3,0.1l-0.2,0l-0.4,0l-0.7-0.1l-0.6-0.2l-0.4-0.2l-0.2-0.2l-0.4-0.2l-0.2-0.1l-0.3-0.1
		l-0.3-0.1l-0.1-0.4l-0.1-0.8l0-0.6l-0.1-0.5l-0.1-1.2l-0.2-0.3l-0.1-0.1l-1.9,0.5l-0.5,0.1l-1.2,0l-0.7,0l-0.3,0l-0.4-0.1l-0.3-0.1
		l-0.4,0.2l-0.5,0.3l-0.4,0.1l-0.2,0.3l-0.1-0.2l-0.3-0.1l-0.2,0l0-0.6l0-0.4l-0.1-0.2l-0.6-0.2l-0.1-0.2l-0.3-0.3l-0.2-0.2
		l-0.2-0.2l-0.1-0.2l-0.4,0l-0.2,0.1l-0.2,0.2l-0.2,0.1l-0.3,0.6l-0.4,0.2l-0.1,0.1l-0.2,0.3l-0.2,0.2l-0.1,0.1l-0.1,0.1H164l-0.1,0
		l-0.1,0l-0.1,0l-0.1,0.2l-0.1,0.2l-0.1,0.2l0,0.1l-0.1,0l-0.4,0h-0.2l-0.5,0.5l-0.1,0.3l0,0.4l-0.1,0.1l-0.2,0.1l-0.3-0.2l-0.2-0.2
		l-0.1-0.1l-0.3,0l-0.1,0.1l-0.3,0.2h-0.3l-0.6-0.2l-0.2,0.3l-0.2,0.2l-0.4,0.2l-0.5,0.1l-0.3-0.1l-0.4,0.2l-0.2,0.3l-0.2,0.4
		l-0.1,0.3l-0.2,0.3l-0.3,0.3l-0.1,0.1l-0.2,0.3l-0.1,0.3l-0.2,0.2l-0.2,0.4l-0.2,0l-0.1,0.2l-0.1,0.3l-0.1,0.2l0,0.3l0,0.4l0,0.3
		h-0.7l-0.3,0.1l-0.4,0.2l-0.1,0.5l-0.5,0.8l0.4,0.3l0.3,0.5l0.2,0.4l0,0.2l-0.2,0.4l-0.2,0.3l-0.2,0.1l-0.2,0.1l-0.4,0.5l-0.3,0.4
		l-0.5,1.5l-0.3,0.2l-0.4,0l-0.4,0l-0.4-0.1l0-0.2l-0.1-0.1l-0.6-0.1l-0.4-0.5l-1.5-0.7l-1.3-1.4l-0.9,0.4l-1.2,0.9l-0.2,1.2
		l-1.5,1.3l-1,0.4l-0.2,0.8l-0.8,0.1l-0.8,0.7l-0.6-0.2l-0.9,0.7l-1-0.6l-1.1,0.8l-0.8,0.5l-1.6,1.1v1.1l-0.5,1l-2,1.1l-2.3,0.7
		l-0.7,0.6l-0.4,1.8l-2.1,2.7l-1,1L124.2,221.5"/>
	<path fill="none" stroke="#000000" stroke-width="0.25" d="M142.6,151.8l-0.1,2.9l-0.9,2.1l-0.7,2.7l-1.1,3.2l-0.6,2.1v2.9
		l-0.9,0.5l-0.6,0.9l-0.2,1.6l0.9,0.8l1.4-0.3l1.7,0.7l0.7,1.5v2.4l-0.7,0.9l-0.4,1l-0.6,1.1v1.3l-0.3,1.3l-0.6,2.2l-0.8,1.7v1.4
		l1.3,0.2l1.3,0.7l0.3,0.9l-0.1,1.3l0.7,0.4l1.6-0.7l0.7-0.8l1.3-0.4l1.7,0.1l1.9,0.8l1.5,1.4l0.7,1.5l0.3,2.1l0.2,2.7l1.2,0.7
		l0.5-0.8l0.1-0.5l0.4-0.2l0.3-0.1h0.7l0-0.3l0-0.4l0-0.3l0.1-0.2l0.1-0.3l0.1-0.2l0.2,0l0.2-0.4l0.2-0.2l0.1-0.3l0.2-0.3l0.1-0.1
		l0.3-0.3l0.2-0.3l0.1-0.3l0.2-0.4l0.2-0.3l0.4-0.2l0.3,0.1l0.5-0.1l0.4-0.2l0.2-0.2l0.2-0.3l0.6,0.2h0.3l0.3-0.2l0.1-0.1l0.3,0
		l0.1,0.1l0.2,0.2l0.3,0.2l0.2-0.1l0.1-0.1l0-0.4l0.1-0.3l0.5-0.5h0.2l0.4,0l0.1,0l0-0.1l0.1-0.2l0.1-0.2l0.1-0.2l0.1,0l0.1,0l0.1,0
		h0.1l0.1-0.1l0.1-0.1l0.2-0.2l0.2-0.3l0.1-0.1l0.4-0.2l0.3-0.6l0.2-0.1l0.2-0.2l0.2-0.1l0.4,0l0-0.3l0-0.3l0.3-0.5l0.1-0.3l0.2-0.4
		l0.4-0.4l0.4-0.5l0.3-0.6l0.5-0.9l0.1-0.5l0.2-0.5l0.2-0.3l0.6,0l0.4-0.4l0.6-0.4l1.1-0.7l0.7-0.5l-0.1-0.9l0.1-0.6l0.2-1.1
		l0.4-1.1l0.6-1l0.3-0.6l0.3-0.2l0.5,0.1l0.4,0l0.4,0l0.7-0.3l0.6-0.4l0.6-0.3l0.3-0.2l0.6-0.3l0.4-0.3l0.9-0.6l0.7-0.1l1.2,0.1
		l1.6,0l0.8-0.1l0.8-0.1l1.2,0l0.4-0.5l0-0.4l0.4-0.6l0.2-0.4v-0.4l0.3-0.5l0.6-0.9l0.3-0.6l0.7-0.7l-0.2-0.7l0-0.7l-0.5,0.1
		l-0.3-0.3l-0.1-0.4h-0.6l-0.1-0.3l0.5-0.4l0.8-0.3l0.3-0.7l0.4-0.2l0.2-0.3l0.4-0.2l0.6-0.2l0.1-1.4l-0.1-0.7l0.5-1.1l0.6-0.2
		l0.7,0l0.4-0.2l0.5,0.1l0.6-0.5l0.1-1.1l-0.1-0.8l0.2-0.4l-0.3-0.2l-0.5-0.4l-0.4-0.2l-0.3-0.2l-0.4-0.5l-0.1-0.3l-0.1-0.5l0-0.2
		l-0.2-0.1l-0.6-0.3l-0.1-0.3l-0.5,0.1l-0.1-0.1l-0.5-0.2l-0.3-1.3l0.1-0.1l0.3-0.3l0.1-0.2l0-0.4l0.1-0.3V149l-0.1-0.2l-0.3-0.2
		l-0.1-0.2l0-0.2l-0.1-0.1l-0.2,0l0.1-0.3v-0.1l-0.1-0.3l0-0.1l0-0.1h0.2l0.1,0l0.1-0.1l0-0.3l0-0.1l0.3-0.3l0-0.3l0-0.4v-0.2l0-0.4
		l-0.3,0.1l-0.2,0l-0.4-0.1l-0.3-0.2l-0.3-0.2l-0.1,0h-0.2l-0.2,0l-0.1,0.1l-0.1,0l-0.1,0l-0.2,0l-0.3-0.1l-0.1,0h-0.2l-0.2,0.3
		l-0.1,0.1l-0.2,0.3l-0.1,0.1l-0.2,0.2l-0.2,0l-0.1,0l-0.2,0.2l-0.4,0.4l-0.1,0.1l-0.1,0.3l-0.1,0.2l-0.1,0h-0.1l-0.3,0l-0.8,0.5
		l-0.1-0.1l-0.1-0.1l-0.2-0.2l-0.3,0l-0.4,0l-0.3-0.3l-0.1,0l-0.2,0l-0.3-0.2l-0.1,0h-0.1l-0.1,0l-0.1,0l-0.1-0.1l-0.1-0.1l-0.2-0.1
		l-0.4-0.6l0-0.5l-0.1-0.2l-0.2,0l-0.1-0.2l0-0.4l0-0.3l0.1-0.2l0.3-0.2l0.2-0.2l0-0.2l0-0.2l-0.2-0.2l-0.3,0.2l-0.3,0.2l-0.1,0
		l-0.3-0.1l-0.1,0l-0.2,0l-0.1,0.1l-0.3,0l-0.1-0.1l-0.1,0l-0.2,0h-0.1l-0.2-0.1l-0.2-0.1l-0.2-0.1l-0.1,0l-0.1,0l-0.1-0.1l0-0.1
		l0.1-0.3l0-0.1v-0.1l-0.1-0.1l-0.1-0.1l-0.1-0.3l-0.1,0l-0.1,0l-0.1,0l-0.1,0l0-0.2v-0.3l0-0.3l0-0.3l-0.1-0.3l0-0.2v-0.1l0.1-0.1
		l-0.1-0.2l-0.1-0.1l-0.2,0l-0.1,0.1l-0.2,0.2l-0.1,0l-0.1,0l-0.2,0.1l-0.2,0l-0.1-0.1l0-0.2l-0.1,0l-0.2-0.1l-0.3,0.1l-0.1,0
		l-0.2-0.1l0-0.1v-0.1l0,0l-0.2,0l-0.2,0l-0.3-0.1l-0.2-0.1l-0.3-0.1l-0.2-0.1l-0.1-0.2l0.1-0.1l0.1-0.1l-0.4-0.3l-0.1,0l-0.2,0
		l-0.4-0.1L172,138l-0.2-0.1l-0.2,0h-0.2l-0.1,0l-0.1-0.1l-0.2-0.1l-0.1-0.1l-0.1-0.1l-0.1,0.1l-0.3,0.1l-0.3,0.1h-0.1l-0.2-0.1
		l-0.2,0l-0.2-0.1l-0.1,0l-0.4-0.2l-0.1-0.1l-0.2,0l-0.2-0.2l-0.1,0l-0.3,0.1h-0.3l-0.2-0.1l-0.2-0.1l-0.1-0.1l-0.1-0.2l0-0.2
		l-0.1,0.2l-0.2,0.4l-0.1,0.4l0,0.4v0.2l0,0.1l-0.1,0.2l0,0.1v0.2v0.1l-0.1,0.2l-0.1,0.2l-0.1,0.2l0,0l0.1,0.2l0,0.1v0.1l-0.1,0.1
		l-0.1,0.1l-0.1,0.1l0,0.1l-0.1,0.2l-0.2,0.1l-0.2,0.2l0,0.4l0.1,0.4l-0.4,0.3l0.1,0.1l0,0.1l0.1,0.1l0.1,0.1l0.1,0l0.2,0.7l0.1,0.2
		l0,0.1l0,0.2l0,0.1l-0.2,0.4l-0.3,0.3l0,0l-0.1,0.2l-0.1,0.1l-0.1,0.1l-0.1,0.1l-0.1,0.1l0,0.1l0,0.2l0.2,0.2l-0.2,0h0l-0.5,0.3
		l-0.2,0.1v0.3l-0.2,0.1l0,0.2l0,0.1l-0.1,0.2l0,0.1v0.1l0,0.1l0,0.2l0.1,0.3l0,0.2l0.1,0l0.1,0l0.1,0l0.1,0l0.1,0l0,0.1l0,0.1
		l0,0.1l0,0.1l0,0.1l-0.2,0.2v0.1l0,0.4l-0.2,0.2l-0.1,0.1l-0.1,0.1l-0.1,0.1l-0.1,0.2v0.1l0,0.2l0,0.1l0,0l0,0.1l0,0.1l0,0.1
		l-0.1,0.1l-0.1,0.1l-0.1,0.1h-0.1l-0.2-0.1l-0.3-0.2l-0.2-0.1l-0.1,0l-0.1,0l0,0v0.1v0.2l0,0.2v0.1l0,0.1l0,0.1v0l0,0.1l0.1,0.1
		l0.1,0.1l0,0.1l0,0.1l-0.1,0l-0.1,0.1v0.1h-0.1l-0.1-0.1l-0.1-0.1l-0.1-0.1l-0.1,0l-0.1,0l-0.1,0.1l-0.1,0.1l0,0.2l0,0.2l0,0
		l-0.7,0.4l-1.3,0.2l-0.4,1.3l-0.9,0.2v-1.2l-0.6-1.2l-1.7-0.2h-3.9l-1.3,1.9l2,1.3l-1.3,1.4l-1.2,0.1l-1.7-0.2l-2-0.1l-2.7-2.9
		L142.6,151.8"/>
	<path fill="none" stroke="#000000" stroke-width="0.25" d="M92.8,82l0.1-0.5l0-0.1l0.1-0.2l0.1-0.2l0.2-0.2l0.6-0.7l0.2-0.2
		l0.2-0.1l0.1,0l0.4,0.2l0.1,0.1l0.3,0.1l0.2,0l0.3,0l0.5,0l0.4,0.2l0.2,0.1h1l1.1,0.1l1,0l1.1-0.8l0.7-0.2l0.5-0.1l0.8,0.1l0.5,0.1
		l0.2,0.4l0.4,0.4l0.7,0.2l0.4,0.1l0.8,0.1l0.2,0.2l-0.2,0.3l0.1,0.1l0.5,0l0.9-0.1l0.6,0l0.1,0.1l0.4,0.5l0.5-1.3l1.2-1.2l0.7-0.2
		l0.2-0.3l0.4-0.6l0.5-0.3l0.3-0.3l1.4-0.9l0.2,0.9l0.2-0.1l0.5-0.3l0.2,0.1l0.1,0.1l0.4-0.2l0.1-0.1l0.3,0.1h0.1l0.2-0.3l0.1-0.1
		l0.2-0.2l0.2,0l0.2-0.1l0.3-0.3l0.3-0.1l0.3-0.1l0.1-0.1h0.2h0.3l0.3,0l0.4,0.1l0.4,0.1l0.2-0.3l0.3-0.3l0.2-0.1l0.2-0.2l0.3,0
		l0.3-0.3l1.7-0.9l0.2-0.1l0.3-0.1l0.5,0l0.4,0.1l0.3,0.1l0.3,0.1l0.2-0.1l0.1-0.1h0.1l0.1,0.1l0,0.1l-0.1,0.2l0,0.1l0,0.2l0.2-0.1
		l0.3-0.1l0.3,0.1l0.1-0.1l0.1,0l0.1,0l0.1,0l0.3-0.2l0.2-0.2l0.4-0.2l0.2,0.3l0.2,0.1h0.1h0.4l0.4-0.2l0.2-0.1l0.2-0.1l0.2-0.1
		l0.2-0.2l0.2-0.6l0.3-0.2l0.5,0l1,0.4l0.3,0.1l0.2,0l0.3,0h0.2l0.1-0.2l0.1-0.2l0.2-0.3v-0.4l0.3-0.6l0.1-0.3l0.1-0.1l0.1,0h0.4
		l0.3,0l0.5,0.1l0.5,0l0.6-0.3l0.4-0.1l0.6,0l0.6,0.1l0.3,0.1l0.5,0.1l0.3,0l0.2,0l0.1-0.1l0.2,0.1l0.2,0l0-0.1l-0.1-0.4l0-0.2
		l0-0.2l0.2-0.2l0.2,0l0.2,0.1l0.1,0.1l0.2,0.1l0.4,0.2l0.3,0.2l0.2,0l0.2-0.2l0-0.2v-0.4V70l0.1-0.1l0.1-0.1h0.5l0.1-0.2l0.2-0.1
		l0.2-0.1l0.3-0.1l0.6,0.1h0.2l0.2,0h0.3l0.2,0.1l0.2,0.2l0.2,0.1l0.2,0.2l0.1,0.2l0,0.3l0,0.1l0.1,0.2l0.1,0.1l0.2,0l0.2-0.1l0-0.1
		l0.1-0.1l0-0.3l0.1-0.2l0.3-0.3l0.1-0.3l0-0.4l0-0.2l0-0.2l-0.1-0.1l-0.1,0l-0.2-0.4l-0.3-0.4l0.1-0.3l0.2-0.1l0.1-0.1l0.1-0.1
		l0.2,0.1l0.3-0.1l0.2-0.3l0.2-0.1l0.3,0l0.2,0.1l0.2,0l0.2,0l0.2,0l0.2,0.2l0.1,0.2l0.2,0.1l0.2,0.1h0.1h0.4l0.4-0.1l0.3,0l0.4,0
		l0.2-0.1l0.1-0.3l-0.1-0.2l0-0.2l0.1-0.2l0.1-0.1l0.1-0.4v-0.3l0-0.3l0-0.2l0.1-0.2V65l0-0.2l0.1-0.1l0.4,0h0.2l0.3,0.1l0.1,0.1
		h0.2l0.2,0l0.3,0l0.2-0.1l0.2-0.1l0.2-0.1l0.2,0l0.1,0l0.2,0l0.2,0l0.1-0.1l0.2-0.1l0.1,0l0.2,0.2l0.1,0.1l0.2,0.2l0.1,0.1l0.1,0.1
		l0.1,0l0.1,0l0.1-0.1l0.1-0.1l0.2,0l0.3,0l0.2,0l0.3,0.1h0.4l0.3,0.1l0.2,0.2l0.1,0.4l0.1,0l0.1,0.1l0.2,0l0.1,0l0.1,0l0.3,0.1
		l0-0.2v-0.1l0-0.2l0.1-0.2l0.3-0.2l0-0.1l0-0.1l0-0.1l0-0.2l0-0.1l0.1-0.1l0.3-0.3l0.2-0.2l0.5-0.2l0.1-0.1l0.1-0.1l0.1,0h0.2
		l0.1,0l0.2,0.1l0.1,0.1l0.2,0.1l0.2,0.2l0.1,0.1h0.1l0.2-0.2l0.2,0l0.3,0.1l0.2,0.1l0.1,0.1l0.1,0l0.1,0.1l0.1,0.1l0.1,0.1l0.1,0.1
		l0.1,0.1l0.1,0.1l0.1,0l0.1,0l0.1,0l0,0v-0.1v-0.1l0,0l0,0l0.1,0l0.3,0l0.3,0h0.4l0.1-0.1l0.2-0.1l0.2-0.1h0.2l0.3,0l0.1,0.3l0.1,0
		l0.2-0.1l0.1-0.1l0.1-0.1l0.1,0h0.1l0.3,0.2l0.2,0.1l0.1,0.1l0.3,0l0.4,0l0.2-0.1l0.3,0.1l0.1,0h0.1l0.1-0.1l0.1-0.1l0.1-0.1l0.1,0
		l0.1,0h0.1l0.1,0.2l0.1,0.1l0.1,0.1l0.1,0.1l0.1,0.4l0.1,0.1l0.1,0.3l0,0.1l0.4,0.5v0.4l0.1,0.2l0.1,0.3l0,0.3l0,0.2l0,0.2
		l-0.1,0.1h-0.1h-0.5l-0.2,0l-0.1,0l0,0.1l0.1,0.1l0.2,0.2l0.2,0.2l0.1,0.4l0,0.2l-0.1,0.1l0.1,0.1l0.2-0.1l0.1,0.1l0.1,0.2l0.1,0.3
		L170,70l0.1,0.2l0,0.1l0.1,0.3l0.1,0.4l0.1,0.4l0.1,0.2l0.1,0.5l0,0.2l0,0.3l0.1,0.1l0.1,0.1v0.1l0,0l0,0.1l0,0.1l0,0l0.1,0.1l0,0
		l0,0.1l0,0.1l0,0.2v0.2l0.1,0l0.1,0l0,0l0,0.1l0,0.1l0.1,0l0,0.1l-0.1,0l0,0.1l0,0.2l0.1,0.1l0,0.1l-0.1,0.1H171l-0.2,0l-0.1,0.1
		l0,0.2l0.2,0.1l0.1,0.2l0.2,0.1l0,0.3l-0.2,0.1l0,0.1l0.1,0.1l0.1,0.1l0.1,0.1l-0.1,0.1l0,0.1l0.1,0.1l0.1,0l0.2,0l0,0.1l-0.1,0.1
		l-0.2,0l-0.2,0.2l-0.1,0.2l-0.1,0l0-0.1l0-0.1l-0.1-0.1l-0.1,0l-0.1,0.1l0,0.1l0.1,0.1l0,0.1v0.1l0.1,0.1l0.2,0.1l0,0.1l-0.1,0
		h-0.1l-0.2-0.1l-0.2,0l0,0.1l-0.1,0.1l-0.3,0l-0.2,0.2l-0.2,0.1l0,0.1l0.2,0.1l0,0.1l-0.1,0l-0.2,0l-0.4,0.1l-0.2,0.1v0.2l0.2,0.1
		l0.1,0.1l0,0.1l-0.3,0.7l0,0.3l0.1,0h0.1l0.1,0.1l0,0.2l0,0.4l-0.2,0.1l-0.4,0.1l-0.1,0.1v0.1l0.1,0.1l0,0.2l-0.2,0.1V82l-0.1,0.4
		l-0.1,0.1h-0.1l-0.3,0.2l-0.3,0.2l-0.2,0.2l-0.1,0.2l0,0.2l0,0.4l0,0.1l-0.1,0.2l-0.1,0.2l0,0.2l-0.1,0.1l-0.2,0.2l-0.1,0.1
		l-0.3,0.1l-0.4,0.2l-0.4,0.2l-0.2,0.1l-0.1,0.2l-0.4,0.2l-0.3,0.2l-0.3-0.1l-1,0.5l-0.3-0.1l-0.6,0l0,0.2l0.2,0.1l0.4,0l0.2,0.1
		h0.4l0.3,0l0.4,0l0.1-0.1l0.1-0.1l0,0.2l0.2,0.1v0.3l-0.1,0.4l0.3,0.2l0,0.4l0.3,0.3l0.1,0.5l0.2,0.4l0,0.5l-2.4,0.5l-1.1-0.3
		l-0.2-0.4l-0.2-0.1l-0.2,0.1l-1.2,0.4l-1.2-0.2h-3.4l-2,0.3l-1.6,0.3l-1.4,0.9l-0.9,0.9l-1.2,0.2l-1.2,1l-0.1-1.2l-0.9,0.7
		l-1.5-0.5l-2.4-0.1h-0.1h0l-1.6,0.4v0.4l0.3,0.2l0.5-0.3l0.4-0.1l0.4,0.4l0.4,0.9l0.1,0.4l0.4-0.1l0.2,2l-0.5,1.1l-0.5,1.3l0.2,0.7
		l0.8,0.8l-0.1,0.5v0.5l0.4,0.1l0.7,0.3l0.9-0.3l0.4,0l-0.3,1l-0.5,0.1l-0.2,0.3l-0.8,0.3l0.4,0.4l0.2,1.1l0.3,0.2l-0.2,0.4l0.3,0.4
		l0.8,1.5l0.2,0.9l0,0.8l-0.4,0.9l-0.4,1.1l-0.6,1.5l-0.1,0.4l-0.2,0.9l-0.1,2l-0.7,0.4l-1.9,0.1l-1.6-0.4l-1-0.5l-1-0.5l-1.2,0.3
		l-1.2,0.4l-1.2,0.6l-0.1,0.3l-0.2,0.3l-0.5,0l-0.6-0.1l-1.1,0l-0.7,0.1h-0.4l-0.2-0.3l0.1-0.3l0.1-0.3l-0.6-0.2l-0.3-0.3l-0.2-0.8
		l-0.4-0.3l-0.8-0.2l0.1-1.2l0.3-0.9l0.2-0.6l-0.2-0.9l-0.7-0.3L127,111l-0.8,0l-0.7-0.3l-0.3-0.4l-0.2-0.1l-0.3-0.8l0-1.2l-0.8-1.5
		l-0.4-0.8l-0.9-0.5l-1.3-0.4l-0.9-0.4l-0.4-0.5H119l-1.3-0.7l-0.8-0.2V103l-0.2-0.1l-0.2,0l-0.4-0.2v-0.2l-1.1-0.4l0.7-0.5
		l-1.3-0.5l-0.8-0.8l-1.2-0.8l-1.3-0.3l-0.7-0.1l-1.5-0.2l-0.6-0.1l-1.2-0.8v-1.6l-1.4-1.1l-1.1-0.3l-0.1,0l-1-0.7l-1-0.1h-0.7
		l-1-0.5l-0.5-0.5l-0.1,0.1l0-0.1l-0.2-0.4l-0.1-0.2l0-0.2l0-0.2l0-0.1v-0.1v-0.1v-0.1l0-0.2l0-0.2l0-0.2l0.2-0.3l0-0.2l-0.1-0.1
		l-0.1-0.2l0-0.3l0-0.2l0-0.2l0-0.4l0.1-0.4l0.1-0.1l0.2-0.8l0-0.2l-0.2-0.1l-0.7-0.3l-0.3-0.1l-0.5-0.1L98.5,87l-0.2-0.2l-0.1-0.3
		L98.1,86l-0.1-0.3l0-0.3l-0.1-0.7l-0.2-0.4l-0.2-0.5l-0.1-0.4l-0.2-0.4l-0.2-0.2l-0.8-0.3l-0.6-0.2l-0.6-0.2l-0.4,0.1l-0.6,0.1
		h-0.2l-0.3-0.1l-0.2-0.1L92.8,82"/>
	<path fill="none" stroke="#000000" stroke-width="0.25" d="M143.6,116.3l0.7-0.4l0.1-2l0.2-0.9l0.1-0.4l0.6-1.5l0.4-1.1l0.4-0.9
		l0-0.8l-0.2-0.9L145,106l-0.3-0.4l0.2-0.4l-0.3-0.2l-0.2-1.1l-0.4-0.4l0.8-0.3l0.2-0.3l0.5-0.1l0.3-1l-0.4,0l-0.9,0.3l-0.7-0.3
		l-0.4-0.1V101l0.1-0.5l-0.8-0.8l-0.2-0.7l0.5-1.3l0.5-1.1l-0.2-2l-0.4,0.1l-0.1-0.4l-0.4-0.9l-0.4-0.4l-0.4,0.1l-0.5,0.3l-0.3-0.2
		v-0.4l1.6-0.4h0h0.1l2.4,0.1l1.5,0.5l0.9-0.7l0.1,1.2l1.2-1l1.2-0.2l0.9-0.9l1.4-0.9l1.6-0.3l2-0.3h3.4l1.2,0.2l1.2-0.4l0.2-0.1
		l0.2,0.1l0.2,0.4l1.1,0.3l2.4-0.5l0-0.5l-0.2-0.4l-0.1-0.5l-0.3-0.3l0-0.4l-0.3-0.2l0.1-0.4V87l-0.2-0.1l0-0.2l-0.1,0.1l0,0.2
		l-0.4,0l-0.3,0h-0.4l-0.2-0.1l-0.4,0l-0.2-0.1l0-0.2l0.6,0l0.3,0.1l1-0.5l0.3,0.1l0.3-0.2l0.4-0.2l0.2,0.1l0.1,0l0.2,0.1l0.3,0.1
		l0.3,0l0.4,0l0.2,0l0.2-0.1l0.2,0l0.2,0L168,86l0,0.5v0.3l0,0.1l0.1,0l0.2,0h0.2l0.1,0.1l0.1,0.2l0.1,0.5l0.2,0.3l0.3,0.1l0.2,0.2
		l0.2,0.1l0.2,0.3l0.1,0.1l0.2,0.1l0.2,0.1l0.2,0l0.1,0.1l0,0.2l0.1,0.2l0.2,0.2l0.3,0l0.3,0l0.2,0l0.1,0l0.1,0l0.2,0.1l0.2,0.1
		l0.2,0l0.3,0l0.3,0.1l0.8,0.4l0.3,0.1l0.1-0.1l0.1-0.1l0.1,0l0.1,0.1l0.2,0.2l0.1,0.3l0.1,0.1l0.2,0.1l0.2,0l0.1,0.2l0,0.1l0.1,0.1
		h0.1l0.1-0.2l0-0.1l0.1-0.1l0.1,0l0.2,0.1l0.4,0.2l0.3,0.2l0.2,0l0.2,0l0.2,0.1l0.2,0.1l0.2,0l0.2,0.1l0.1,0.1l0.1,0.1l0,0.2l0,0.1
		l0.1,0.2l0.3,0.1l0.2,0l0.2,0l0.2,0l0.1,0l0,0.1l-0.2,0.3l0,0.2l-0.1,0.1l-0.2,0.3l-0.2,0.4l-0.2,0.1l-0.2,0.3V95l-0.1,0.2
		l-0.1,0.1l0,0.2h0.2h0.5l0.3,0l0.5,0.1l0.6,0.2l0.8,0.4l0.3,0.1l0.4,0.1l0.6,0.2l0.4,0.1l0.4,0.1l0.3,0.1l0.3,0.2l0.3,0.1l0.6,0.3
		l0.5,0.3l0.4,0.2l0.4,0.2l0.5,0.3l0.2,0.1l0.2,0.3l0.6,0.5l0.5,0.4l0.7,0.3l0.7,0.4l0.5,0.3l0.5,0.3l0.1,0.4l0.1,0.2l0.4,0.5
		l0.4,0.3l0.3,0.3l0.2,0l0.3-0.1l0-0.1l-0.2-0.4l0.4-0.4l0.1-0.2l0.1-0.3l0.1-0.1l0.4-0.1l0.2,0.1l0.5,0.2l0.2,0.1l-0.1,0.1
		l-0.2,0.1l-0.3,0.1l-0.1,0.1l0,0.2l0.3,0l0.2,0.3l0,0.3l-0.1,0.2l0.1,0.2l0.1,0.2l0.2,0.1l0.5,0.2l0.5,0.3l0.1,0.3l-0.1,0.2
		l-0.2,0.1l-0.6,0l-0.6,0.6l-0.1,0.5l0.9,1l-0.1,0.6h0.5l0.2-0.2l0.3,0.2l0.5,0.1l0.5-0.2l0-0.4l0.3-0.3l0.3-0.2v-0.4l0.6-0.1l0.3,0
		l0.3-0.3l0.7-0.1l0.4-0.4l0.5-0.2l0.4-0.3l0.5,0l0.4-0.1l0.4,0.1l0.5,0.2l0.4,0l0.2,0.4l-0.1,0.4l-0.4,0.5l-0.1,0.7l0.3,0.4
		l0.3,0.2l-0.1,1.2l0,0.8l0.1,0.4l0.5,0.3l0,0.3l0.2,0.4l-0.1,0.5l0.2,0.5l0.2,0.5l0.2-0.2l0.5-0.1l0.3-0.1l0.4-0.2l0.7-0.4l0.8-0.7
		l0.8-0.4l0.9-0.1l0.6-0.3l0.7-0.2l0.5,0l0.4-0.3h0.4h0.6l0.1-0.2l0.5,0l0.3,0l0.6-0.3l0.3-0.3l0.3-0.1l0.5,0l0.4-0.3l0.4-0.5
		l0.3-0.7l0.1-0.2l0.1,0l0.1,0.1l0.3,0.3l0.3,0.3l0.1,0.2l0.2,0.2l0,0.2v0.3v0.2l0.3,0.4l0.3,0.1l0.4,0.8l0.1,0.5l0.1,0.3l0,0.6v0.2
		l-0.4,0.4l-0.1,0.2l0,0.1l0.1,0.3l0,0.3l0,0.3l0.1,0.2l0.1,0.4l0.2,0.4l0.3,0.3l0.7,0.2l0.2,0.2h0.2l0.2,0l0.4,0.7l0.5,0.3l0.7,0.3
		l0.8-0.2l0.4,0.3l1,0.4h0.3l0.3-0.1l0.6-0.4l0.3,0.2l0.2,0.4l0.3,0.6l0.1,0.6l0,0.5l-0.1,0.6l-0.1,0.4l-0.1,0.2l-0.3,0.3l-0.7,0.5
		l0,0.5l-0.1,0.6l0.1,0.3l0.2,0.5l0.3,0.5l0.3,0.3l0.4,0.2l0.4,0.1l1.4,0.2l0.4,0.1l0.4,0.2l0.3,0.4l0.2,0.2l0.2,0l0.2,0l0.2,0
		l0.5,0.1l0.5,0.4l0.4,0.2l0.6,0.5l0.1,0.1l0,0.8l0,0.3l0.1,0.1l0.9,0.4l0.3,0.2l0.2,0.1l0.1,0.2l1.1,1.2l0.3,0.1l0.4,0.1l1.2,0.2
		l1,0l0.6,0l0.8,0l0.1,0h0.4l0.1,0l0.3,0.1l0.1,0.1l0.2,0.2l0.2,0.4l0.1,0.1l0.7,0.3l0.4,0l0.5,0.1l0.6,0.2l0.6-0.2l0.1,0l0.1,0
		l0.1,0.1l0.1,0.2v0.1l-0.1,0.6l-0.1,0.4v0.3l-0.5,0.1l-0.2,0.3l-0.4,0.4l-0.3,0.5l-0.3,0.4l-0.3,0.5l-0.5,0.1l-0.6,0.8l-0.9,0.9
		l-1.6,0.4l-1.7-0.3l-1.3,0.1l-1.2-0.1l-1.9,0.2l-1.8,0.3l-1.8,1.4l-1.7,1.9l-1.7,1l-1.6,1.2l-0.3,0.4l-0.3,0.8l-0.5,0.4l-0.4-0.1
		l-1,0.1l-0.9,0.8l-0.8-0.7l-0.4-0.2l-0.4-0.5l-0.6-0.2l-0.4,0l-0.3,0.4l-0.3,0.5l-0.6,0.2l-0.8,0.5l-1.1,0.4l-1,0.7l-1.4,0
		l-0.2,0.1l-0.8,0.5l-0.5,0l-0.2,0.1l-0.4,0.2h-1H206l-0.9,0.4l-0.8,0.6l-1.3,0.7l-0.3,0.4l-1.1,0.1l-0.2,0.2l-0.2,0.3l-0.5,1.1
		l-0.3,0.2l-0.4,0.7l-0.1,0.2l-1,1.4l-0.2,0.4l-0.7,0.2l-1.2,1.2l-0.2,0.4l-0.6,0.3l-0.4,0.6l-0.7,0l-0.3-0.2l-0.5-0.4l-0.4-0.2
		l-0.3-0.2l-0.4-0.5l-0.1-0.3l-0.1-0.5l0-0.2l-0.2-0.1l-0.6-0.3l-0.1-0.3l-0.5,0.1l-0.1-0.1l-0.5-0.2l-0.3-1.3l0.1-0.1l0.3-0.3
		l0.1-0.2l0-0.4l0.1-0.3V149l-0.1-0.2l-0.3-0.2l-0.1-0.2l0-0.2l-0.1-0.1l-0.2,0l0.1-0.3v-0.1l-0.1-0.3l0-0.1l0-0.1h0.2l0.1,0
		l0.1-0.1l0-0.3l0-0.1l0.3-0.3l0-0.3l0-0.4v-0.2l0-0.4l-0.3,0.1l-0.2,0l-0.4-0.1l-0.3-0.2l-0.3-0.2l-0.1,0h-0.2l-0.2,0l-0.1,0.1
		l-0.1,0l-0.1,0l-0.2,0l-0.3-0.1l-0.1,0h-0.2l-0.2,0.3l-0.1,0.1l-0.2,0.3l-0.1,0.1l-0.2,0.2l-0.2,0l-0.1,0l-0.2,0.2l-0.4,0.4
		l-0.1,0.1l-0.1,0.3l-0.1,0.2l-0.1,0h-0.1l-0.3,0l-0.8,0.5l-0.1-0.1l-0.1-0.1l-0.2-0.2l-0.3,0l-0.4,0l-0.3-0.3l-0.1,0l-0.2,0
		l-0.3-0.2l-0.1,0h-0.1l-0.1,0l-0.1,0l-0.1-0.1l-0.1-0.1l-0.2-0.1l-0.4-0.6l0-0.5l-0.1-0.2l-0.2,0l-0.1-0.2l0-0.4l0-0.3l0.1-0.2
		l0.3-0.2l0.2-0.2l0-0.2l0-0.2l-0.2-0.2l-0.3,0.2l-0.3,0.2l-0.1,0l-0.3-0.1l-0.1,0l-0.2,0l-0.1,0.1l-0.3,0l-0.1-0.1l-0.1,0l-0.2,0
		h-0.1l-0.2-0.1l-0.2-0.1l-0.2-0.1l-0.1,0l-0.1,0l-0.1-0.1l0-0.1l0.1-0.3l0-0.1v-0.1l-0.1-0.1l-0.1-0.1l-0.1-0.3l-0.1,0l-0.1,0
		l-0.1,0l-0.1,0l0-0.2v-0.3l0-0.3l0-0.3l-0.1-0.3l0-0.2v-0.1l0.1-0.1l-0.1-0.2l-0.1-0.1l-0.2,0l-0.1,0.1l-0.2,0.2l-0.1,0l-0.1,0
		l-0.2,0.1l-0.2,0l-0.1-0.1l0-0.2l-0.1,0l-0.2-0.1l-0.3,0.1l-0.1,0l-0.2-0.1l0-0.1v-0.1l0,0l-0.2,0l-0.2,0l-0.3-0.1l-0.2-0.1
		L174,139l-0.2-0.1l-0.1-0.2l0.1-0.1l0.1-0.1l-0.4-0.3l-0.1,0l-0.2,0l-0.4-0.1l-0.4-0.1l-0.2-0.1l-0.2,0h-0.2l-0.1,0l-0.1-0.1
		l-0.2-0.1l-0.1-0.1l-0.1-0.1l-0.1,0.1l-0.3,0.1l-0.3,0.1h-0.1l-0.2-0.1l-0.2,0l-0.2-0.1l-0.1,0l-0.4-0.2l-0.1-0.1l-0.2,0l-0.2-0.2
		l-0.1,0l-0.3,0.1h-0.3l-0.2-0.1l-0.2-0.1l-0.1-0.1l-0.1-0.2l0-0.2l-0.1-0.2l-0.1-0.1l-0.1,0l0-0.1l-0.1-0.1l-0.3,0l-0.1,0.1
		l-0.1,0.1h0l-0.1-0.1l-0.1-0.2l-0.1-0.2l-0.2-0.1l0-0.2l0-0.1l-0.1-0.1l-0.1-0.1l0-0.1h-0.1l-0.1,0.1l-0.3,0.2l-0.2,0.1l-0.1,0
		l-0.1-0.1l-0.2-0.2l-0.1-0.4l0-0.2h-0.2l-0.1,0.1l-0.1,0.1l-0.1,0.1h0v0l0-0.1l-0.1-0.1l-0.1-0.1l0-0.1l-0.1-0.4l-0.2-0.2l-0.1-0.3
		l-0.1-0.1l-0.1-0.2l0,0l-0.2-0.2l-0.1-0.1l-0.2-0.1l-0.2-0.1l-0.4-0.4l-0.2-0.1l0,0h-0.1h-0.1l-0.1,0.1l-0.1,0.1l-0.1,0.1h-0.1
		l-0.2-0.1l-0.1,0l-0.1-0.1l-0.1,0l-2.5,0h-3.9l-1.4-0.5h-2.3l-1.5,0.1l-1.2,0.2l-0.8-2.5l-1.2-1.6l0.3-2.2l0.2-2l-0.7,0.1l-0.1-1.1
		l0.5-1.1l-1-1l0.1-1.3l-0.4-0.5l-1.1-0.7L143.6,116.3"/>
	<path fill="none" stroke="#000000" stroke-width="0.25" d="M215.1,300.9l0.8,3.2l0.1,1.1l0.1,0.9l1.3,0.4l1.3,1.5l1.7,0.7l1.6,0.4
		l1.4,0.2l0.2,1.7l-0.4,2.4l1.4,0.4l0.9,0.6l-0.5,1.7v1.2l-0.1,1.7l-0.8,1.2l0.7,1.2l-0.7,1.1l-1,0.7l0.1,1.1l0.4,0.2l0.3,0.4
		l0.1,0.1l0.1,0.1l0,0.2l0,0.2l0,0.5v0.4l-0.1,0.4l0,0.7l0,0.4l0,0.3l-0.1,0.2l-0.1,0.1l0,0.1l0,0.2l0.1,0.1l0.1,0.3l0.1,0.3
		l0.1,0.1l0.1,0.1l0.3,0.2l0.3,0l0.3,0l0.2,0l0.1,0l0.3-0.1l0.3,0h0.4l0.3,0l0.1,0l0.1,0.1l0.1,0l0.2,0.1h0.1h0.3h0.1l0.1,0l0.1,0
		l0.1,0l0.4,0.2l0.5,0.2l0.3,0l0.2,0l0.2-0.1l0.1-0.1l0,0l0,0l0.1-0.1V330v-0.1l0-0.1v-0.1v-0.1v0v-0.1v-0.2v0v0l0-0.1l0-0.1v0
		l0-0.1l0,0l0,0l0.1,0l0.1,0l0.2,0l0.2,0.1l0.3,0h0.1h0.8l0.3,0l0.3,0l0.3,0l0.3,0l0.2,0l0.3,0l0.2,0h0.2l0.2,0l0.1,0l0.3-0.1
		l0.4-0.1l0.3-0.1l0.2,0l0.2,0l0.1,0l0.2,0l0.3,0l0.2-0.1l0.3-0.1l0.2,0l0.2,0l0.2,0l0.1,0l0.1,0h0.1l0.2,0h0.1l0.2,0l0.2,0l0.3-0.1
		l0.2-0.1l0.2,0l0.3,0h0.1h0.2l0.2,0l0.2,0l0.2,0l0.1,0h0.2l0.1,0l0.2-0.1l0.1,0l0.1,0l0.2,0l0.2,0l0.2,0l0.1,0l0.1,0l0.1,0l0.1,0
		l0-0.1l0,0v0l0-0.1l0,0l0-0.1l0-0.1l0,0l0,0l0-0.1l0,0l0,0l0,0l0.1,0l0,0l0,0l0.1-0.1l0.1,0l0.2-0.1l0.5-0.1l0.4-0.1l0.5,0l0.2,0
		l0.3,0l0.6,0l0.7,0l0.5,0h0.3l0.3,0l0.4,0l0.2,0l0.2,0l0.3,0l0.2,0l0.1,0.1l0,0l0.1,0v0l0,0l0,0l0.1,0h0l0,0v0l0.1-0.1l0,0l0.1-0.1
		l0,0l0,0l0,0l0,0l0,0l0.1,0l0.1,0l0,0l0,0l0,0l0.1,0h0l0.1,0l0.1,0l0,0l0,0l0,0l0,0l0,0l0,0v0l0,0v0l0,0v0l0,0l0,0l0,0l0,0l0,0v0
		l0,0l0,0l0,0l0,0l0.1-0.1l0,0l0.1,0l0.1-0.1l0.1-0.1v0l0.2-0.2l0.2-0.2l0.1-0.1l0.2-0.1l0.2,0h0.2l0.2,0l0.3-0.2l0.2-0.1l0.1-0.1
		l0.1-0.1l0.2-0.2l0.4-0.4l0.4-0.4l0.1-0.1l0.3-0.3l0.1-0.2l0.2-0.3l0.2-0.2l0.1-0.2l0.1-0.1l0-0.1l0.1-0.2l0.1-0.2l0.1-0.4l0.1-0.5
		l0.1-0.2l0.1-0.2l0.4-0.5v-0.5l0.3-0.7l0.2-0.4l0.4-0.4l0.1-0.1l0.1-0.2l0.6-1.2l0.3-0.8l0.3-1l0.3-0.9l0.2-0.5l0.2-0.4l0.4-0.6
		l0.6-0.8l0.3-0.4l0.9-0.8l0.3-0.2l0.2-0.1l0.1-0.1l0.1-0.1l0-0.1l0.1-0.6l0-0.2l0.1-0.1l0.4-0.4l0.1-0.1l0.1-0.1l0.2,0l0.4,0l0.1,0
		l0.1-0.1l0.1-0.1l0.1-0.1l0.2-0.1l0.6-0.2l0.2-0.1l0.3-0.2l0.2-0.2l0.1-0.2l0-0.1l0-0.1l-0.1-0.2l0-0.2v-0.8l0-0.2l-0.2-0.7v-0.1
		l0-0.1l0.1-0.2l0.5-0.4l0.1-0.1l0.1-0.2l0.1-0.2l0.2-0.1l0.3-0.1l0.5-0.2l0.2-0.1l0.2-0.1l0.1-0.1l0.2-0.3l0.3-0.6l0.1-0.3l0.1-0.3
		l0-0.2l0-0.2l0-0.8l0-0.4l0-0.2l0.2-0.5l0.2-0.4l0.2-0.1l0.2-0.1l0.1,0h0.2l0.1,0l0.3-0.4l0.3-0.4l0.1-0.1l0.3-0.2l0.2-0.1l0.2-0.1
		l0.2,0h0.5l0.3,0.1l0.6,0.2l0.1,0l0.2,0l0.1,0l0.1-0.1l0.6-0.4l0.1-0.1l0.2-0.1l0.5-0.1l0.4-0.1l0.6,0l0.5-0.1l0.3-0.1l0.2-0.1
		l0.1-0.1l0.3-0.4l0.4-0.5l0.3-0.3l0.6-0.6l0.2-0.1l0.3-0.2l0.2-0.3l0.1-0.2l0.3-0.6l0-0.2l0-0.4l0.1-0.3l0.1-0.3l0.1-0.1l0.1-0.1
		l0.2-0.2l0.4-0.3l0.2-0.2l0.4-0.1l0.6-0.1l0.3-0.1l0.4-0.3l0.4-0.3l0.3-0.1l0.4-0.1l0.2-0.1l0.2-0.1l0.1-0.1l0.2-0.4l0.1-0.4
		l0.2-0.8l0.1-0.4l0-0.2l0.1-1l0-0.2l0-0.4l0-0.4l0-0.5l0-0.4l0.1-0.7l0.1-0.8l0-0.2l0-0.1l0.1-0.1l0.1,0l0.6,0h0.5l0.4,0l0.8,0.2
		l0.3,0l0.4,0l0.3,0l0.3-0.1l0.2,0h0.1l0.2,0.1l0.2,0l0.4,0l0.3-0.1l0.3-0.1l0.1-0.1l0.1-0.1l0.2-0.6l0.3-0.4l0.1-0.2l0.1-0.4
		l0.1-0.3l0.1-0.4l0-0.2l0-0.1l-0.1-0.3l0-0.7l0-0.2l0-0.1h0h0.7l0.3,0l0.1,0l0.2-0.1l0.1,0l0.2-0.2l0.1-0.2l0.2-0.5l0.1-0.3
		l0.1-0.3l0.1-0.4l0.1-0.5l0.1-0.3l0.1-0.4l0.1-0.2l0.1-0.2l0.4-0.4l0.4-0.3l0.2-0.1l0.3-0.1l0.4-0.1l0.3,0h0.2l1.1,0l0.5,0l0.1,0
		l0.1,0l0.2-0.3l0.1-0.2l0,0l0.2-0.1l0.3-0.2l0.1-0.1l0.2-0.3l0.1-0.3l0.1-0.2l0.2-0.2l0.4-0.4l0.1-0.1l0.1-0.2l0-0.1l0-0.2l0-0.1
		l-0.1-0.2l-0.2-0.2l-0.5-0.4l-0.6-0.6l-0.1-0.1l-0.1-0.5l-0.1-0.3l0-0.2v-0.2l0.1-0.3l0-0.4l0-0.3l-0.1-0.3l-0.5-0.8l-0.1-0.2
		l-0.2-0.5l0-0.3l0-0.4l0.1-0.6l0.2-0.5l0.2-0.6l0.4-1.3l0.2-1l0-0.4v0l-0.1-0.1L298,259l-0.1-0.4l-0.4-0.4l-0.1-0.2l-0.1-0.2
		l-0.2-0.3l-0.1-0.3l-0.4-0.5l0-0.1l0-0.2l0-0.5l0-0.1l-0.2-0.5l0-0.2l0-0.2l0-0.1l0.1-0.1l0.7-0.7l0.2-0.2l0.4-0.7l0.2-0.5l0.1-0.1
		l0.2-0.2l0.2-0.2l0.2-0.2l0.5-0.1l0.2,0l0.2-0.1l0.2-0.2l0.1-0.2l0.1-0.2l0-0.2l-0.1-0.4l0-0.3V250l0-0.2l0.2-0.6l0.1-0.1l0.3-0.3
		l0.4-0.7l0-0.2l0-0.3l0-0.1l0,0l0.1-0.1l1.1-0.5l0.1,0l0.5,0h0.1l0.2,0l0.1,0l0.1-0.1l0.1-0.2l0.1-0.1l0.4-0.4l0.3-0.2l0.8-0.3
		l0.4-0.2l0.2-0.1l0.1-0.1l0-0.1l0-0.3l-0.1-0.4l-0.2-0.6l-0.3-0.8l-0.2-0.4l-0.1-0.5l-0.2-0.5l-0.4-0.9l-0.2-0.4l-0.3-0.4l-0.4-0.5
		l-0.3-0.4l-0.2-0.4l-0.4-0.6l-0.4-0.6l-0.2-0.4l-0.2-0.5l-0.3-0.5l-0.3-0.6l-0.2-0.5l0-0.2l0-0.2l-0.9,0.2l-1.2,0.7l-0.9,0.8
		l-0.6,0l-0.6-0.1L296,236l0,0.2l-0.2,0.4l-0.4,0.3l-0.4,0.1l-1.5,0.2l-0.8,0.1l-0.6-0.1l-0.4-0.3l-0.3-0.5l-0.4-0.5l-0.4-0.4
		l-0.7-0.3l-0.7-0.2l-0.3-0.1l-0.3-0.2l-0.4-0.2l-0.3,0l-0.8-0.3l-0.5,0l-0.7-0.4l-0.4-0.3l-0.2-0.1l-0.6-0.5l-0.4-0.2l-0.1-0.1
		l-0.2-0.2L284,232l0-0.2l0-0.4l0.1-0.4l0-0.3l-0.1-0.3l-0.4-0.2l-0.2,0l-0.7-0.1l-0.4-0.1l-0.2-0.1l-0.5-0.3l-0.4-0.2l-0.2-0.1
		l-0.1-0.1l-0.2-0.3l0-0.1l-0.3-0.5l-0.1-0.1l-0.5-0.5l-0.2-0.5l0-0.2l0.4-1l0.1-0.4l0-0.2l-0.1-0.5l-0.1-0.1l-0.1-0.2l-0.2-0.2
		l-0.8-0.6l-0.2-0.1l-0.2-0.5l-0.1-0.9l-0.1-0.3l-0.1-0.4l-0.3-0.3l-0.2-0.1l-0.2-0.2l-0.1-0.7v-0.4l-0.1-0.5l0-0.4v-0.1l0.3-0.5
		l0.7-1l0.5-0.6l0.3-0.3l0.3-0.4l0.3-0.5l0.4-1.4l0.2-0.3l0-0.3l0.1-0.3l0.2-0.3l0-0.3l-0.1-0.4v-0.4l0.3-0.6l0.2-0.3l0.1-0.2
		l-0.1-0.2l-0.1-0.1h-0.1l-0.3-0.1l-0.4-0.1l-0.3-0.1l-0.5-0.3l-0.4-0.3l-0.4-0.1h-0.4l-0.3,0l-0.3,0.1l-1.6,0.3l-0.9,0.3l-0.4-0.2
		l-0.8-0.1l-0.4-0.2l-0.2-0.1l-0.3-1v-0.3l0-0.8l-0.1-0.4l0-0.5l0-0.3l-0.2-0.6l-0.1-0.5l-0.1-0.2l0-0.3v-0.3l0.1-0.7l0.2-0.7
		l0.2-0.4l0.1-0.4l0.1-0.2l0.4-0.3l0.3-0.4l0.1-0.4l0.1-0.3l0-0.3l0-0.4l-0.1-0.5l-0.2-0.9l-0.1-0.7l0-0.2l0.1-0.2l0.3-0.2l0.2-0.2
		l0.1-0.2l0-0.2l-0.1-0.2l0-0.2v-0.3l0.1-0.2l0-0.4l-0.1-0.8l-0.1-0.5l0-0.6l0-0.3l0-0.6l0-0.3l0.1-0.3l0-0.3l-0.1-0.3L274,191
		l0-0.2l0.1-0.2l0.2-0.3l0.1-0.3v-0.2l-0.1-0.1h-0.2l-0.4,0.3l-0.1,0.1l-0.2,0.2l-0.3,0.1l-0.2-0.1l-0.2-0.1l-0.1-0.1l-0.1-0.2
		l-0.2-0.2l-0.4-0.4h-0.2l-0.4,0.1l-0.9,0.6l-0.4,0.1l-0.3-0.1l-0.2-0.1l-0.1-0.2l-0.1-0.4l0-0.2v-0.3l-0.1-0.2l-0.1-0.1l-0.2,0
		l-0.2,0.1l-0.1,0.1l-0.2,0.2l-0.6,0.7l-0.3,0.4l-0.2,0.3l-0.2,0.2l-0.2,0.1l-0.4-0.1l-0.2-0.1l0-0.1l0.1-0.2l0.4-0.5l0.1-0.3l0-0.6
		l0.1-0.8l-0.1-0.6l-0.1-0.3l0-0.2l0-0.6v-0.6l-0.1-0.4l0-0.4l0-0.4l-0.2-1.3v-0.4l-0.1-0.2l-0.1-0.3l-0.2-0.3l-0.1-0.2l-0.2-0.2
		l-0.2-0.2l-0.2-0.3l-0.2-0.2l-0.2-0.2l-0.1-0.2l-0.3-0.4l-1-1.8l-0.4-0.5l-0.2-0.3l-0.3-0.3l-0.2-0.4l-0.2-0.3l-0.2-0.2l-0.4-0.4
		l-0.5-0.4l-0.4-0.6l-0.4-0.4l-0.2-0.3l-0.1-0.4l-0.7-0.8l-0.2-0.2l0-0.1l-0.2,0l-0.6,0.2l-0.3,0.1l-0.7,0l-0.3,0l-0.4-0.2l-0.7-0.5
		l-0.2-0.2l-0.3-0.2l-0.2-0.1l-0.5-0.3l-0.4,0l-0.4,0l-0.3,0.1l-0.4,0.1l-0.4,0.2l-0.6,0.3l-0.5,0.3l-0.4,0.1l-0.9,0.5l-0.3,0.3
		l-0.9,0.6l-0.4,0.2l-0.3,0.1l-0.2,0l-0.6,0l-1-0.1l-0.4-0.1l-0.5-0.3l-0.2-0.3l-0.1-0.4l0-0.4l0.1-0.4l0.2-0.8l0.5-1.2l0.4-1.3
		v-0.6l0.2-1.1l0.1-0.6l0.3-0.9l0.1-0.4l0.2-0.5l0.1-0.4l0.3-0.3l0.3-0.3l0.3-0.3l0.1-0.3l0.7-1.1l0.2-0.4l0.4-0.7l0.3-0.3l0.1-0.4
		l-0.1-0.8l-0.1-0.4l-0.3-0.6l-0.1-0.4l0-0.3l0-0.8l0.1-1.2l0-0.4l-0.1-0.3l-0.2-0.2l-0.3-0.2l-0.8-0.2l-0.6-0.3l-0.4-0.1l-0.1-0.2
		l-0.4-0.2l-0.1-0.2l-0.4-0.3l-0.2-0.3l-0.3-0.4l-0.3-0.3l-0.2-0.1l-0.7-0.4l-0.1-0.3l-0.1-0.3l-0.1-0.8l0.2-0.9l0.2-0.5l0.3-0.4
		l0.2-0.3l0.5-1.2l0.2-0.8l0.1-0.6l0.4-0.8l0.2-0.3l0.3-0.3l0.3-0.3l0.6-0.6l0.2-0.3l0.1-0.3l0-0.3l0-1.1l0.1-0.7l0.1-0.2l0.2-0.3
		l0.2-0.5l0.1-0.2l0.1-0.1l0-0.3l0.1-0.2l0.3-0.5l0.2-0.5l0.2-0.4l-0.2,0l-0.4-0.3l-0.2-0.1l-0.4-0.3l-0.2-0.1l-0.1-0.1l-0.1-0.1
		l-0.3-0.4l-0.4-0.8l-0.3-0.9l-0.1-0.4l-0.6-0.9l0-0.1l-0.3-0.3l-0.2-0.2l-0.2-0.1l-0.1,0h-0.5l-0.3,0.1l-0.1,0h-0.4l-0.4,0l-0.2,0
		l-0.3,0l-0.1-0.1l-0.1,0l-0.4,0.1l-0.3,0l-0.2,0l-0.3-0.2l-0.4-0.8l-0.5,0.1l-0.2,0.3l-0.4,0.4l-0.3,0.5l-0.3,0.4l-0.3,0.5
		l-0.5,0.1l-0.6,0.8l-0.9,0.9l-1.6,0.4l-1.7-0.3l-1.3,0.1l-1.2-0.1l-1.9,0.2l-1.8,0.3l-1.8,1.4l-1.7,1.9l-1.7,1l-1.6,1.2l-0.3,0.4
		l-0.3,0.8l-0.5,0.4l-0.4-0.1l-1,0.1l-0.9,0.8l-0.8-0.7l-0.4-0.2l-0.4-0.5l-0.6-0.2l-0.4,0l-0.3,0.4l-0.3,0.5l-0.6,0.2l-0.8,0.5
		l-1.1,0.4l-1,0.7l-1.4,0l-0.2,0.1l-0.8,0.5l-0.5,0l-0.2,0.1l-0.4,0.2h-1h-0.9l-0.9,0.4l-0.8,0.6l-1.3,0.7l-0.3,0.4l-1.1,0.1
		l-0.2,0.2l-0.2,0.3l-0.5,1.1l-0.3,0.2l-0.4,0.7l-0.1,0.2l-1,1.4l-0.2,0.4l-0.7,0.2l-1.2,1.2l-0.2,0.4l-0.6,0.3l-0.4,0.6l-0.7,0
		l-0.2,0.4l0.1,0.8L194,158l-0.6,0.5l-0.5-0.1l-0.4,0.2l-0.7,0l-0.6,0.2l-0.5,1.1l0.1,0.7l-0.1,1.4l-0.6,0.2l-0.4,0.2l-0.2,0.3
		l-0.4,0.2l-0.3,0.7l-0.8,0.3l-0.5,0.4l0.1,0.3h0.6l0.1,0.4l0.3,0.3l0.5-0.1l0,0.7l0.2,0.7l-0.7,0.7l-0.3,0.6l-0.6,0.9l-0.3,0.5v0.4
		l-0.2,0.4l-0.4,0.6l0,0.4l-0.4,0.5l-1.2,0l-0.8,0.1l-0.8,0.1l-1.6,0l-1.2-0.1l-0.7,0.1l-0.9,0.6l-0.4,0.3l-0.6,0.3l-0.3,0.2
		l-0.6,0.3l-0.6,0.4l-0.7,0.3l-0.4,0l-0.4,0l-0.5-0.1l-0.3,0.2l-0.3,0.6l-0.6,1l-0.4,1.1l-0.2,1.1l-0.1,0.6l0.1,0.9l-0.7,0.5
		l-1.1,0.7l-0.6,0.4l-0.4,0.4l-0.6,0l-0.2,0.3l-0.2,0.5l-0.1,0.5l-0.5,0.9l-0.3,0.6l-0.4,0.5l-0.4,0.4l-0.2,0.4l-0.1,0.3l-0.3,0.5
		l0,0.3l0,0.3l0.1,0.2l0.2,0.2l0.2,0.2l0.3,0.3l0.1,0.2l0.6,0.2l0.1,0.2l0,0.4l0,0.6l0.2,0l0.3,0.1l0.1,0.2l0.2-0.3l0.4-0.1l0.5-0.3
		l0.4-0.2l0.3,0.1l0.4,0.1l0.3,0l0.7,0l1.2,0l0.5-0.1l1.9-0.5l0.1,0.1l0.2,0.3l0.1,1.2l0.1,0.5l0,0.6l0.1,0.8l0.1,0.4l0.3,0.1
		l0.3,0.1l0.2,0.1l0.4,0.2l0.2,0.2l0.4,0.2l0.6,0.2l0.7,0.1l0.4,0l0.2,0l0.3-0.1l0.3-0.1l0.3-0.1l0.3,0l0.6,0.2l0.4,0.1l0.5,0.2
		l0.2,0.2v0.4l0,0.3l0.3,0.7l0.2,0.5l0.4,0.4l0.6,0.6l0.5,0.3l0.8,1l0.2,0.6l0.2,1.2l0.3,1.1l0.1,0.6l0,1l-0.3,1l-1.7,2.5l-0.2,0.6
		v0.6l0.1,0.9l0.1,0.5l0.2,0.6l0.2,0.1l0.6,0.4l1.3,1.2l1.5,1.2l0.7,0.5l0.8,0.7l0.7,1l0.8,0.8l0.2,0.3l0.2,0.5l0.7,0.4l0.6,0.4
		l0.8,0.4l0.4,0.1l1.2,0.4l0.7,0.6l0.4,0.5l0.1,1.3l0.9,0.5l0.8,0.3l0.3,0.4v3l1.2,1.4l0.4,0.4l0.7,0.9l0.2,0.7l0.4,0.2l0.9,1.1
		l0.8,0.4l-0.8,1.4l-0.9,1.3l-0.4,0.1l-0.4,0.3h-0.4l-1.7,0.1l-0.6,1l-0.6,0.4l-0.2,1.1L197,236l-0.6,1l-0.6,0.3l-0.7,0.1l-0.8-0.2
		h-1.2l-0.5,0.1l-0.2,0.3l-0.2,0.8l-0.4,0.8l-0.8,1.2l-0.4,0.9l0.1,1l0.2,0.8l-0.3,0.6l-0.1,0.6l-0.4,1.3l0,1l0.5,0.6l0,1l0.2,0.8
		l-0.8,0.9l-0.7,1.3l-0.2,0.5l-0.8,3.2l0.1,0.4l0.5,0.1l0.8,0.2l0.6,0.6l0.5,1l0.3,0.5l0.5,0.9l0,0.4l0.8,1.1l0.4,1.1v0.5l-0.2,0.3
		l-0.5,0.1l-0.6-0.3h-0.5l-0.4,0.2l-0.3,0.5l-0.6,0.6l-0.4,0.4l0,0.6l0.2,0.6l1,0.9l0.9,1.1l0.6,0.1l0.8,0.1l0.3,0.8l-0.4,1.3l0,1
		l0.2,1.2l0.6,0.8l-0.4,0.4l-0.6,0.3l-0.2,0.4l0.1,0.4l0.9,0.1l0.6,0.8l0.3,0.7l-0.2,0.6l-0.4,0.6l-0.5,0.8l-0.2,0.7l0.1,0.5l0,0.6
		v0.7l0.3,0.4l0.5,0.5l0.9,0.2l1-0.6l1.7,1.2l2.1-1.2l1.1-0.9l0.7,0.8l0.1,1.7l0.1,1.2l1.9,0.3l1.3,0.6l-0.4,0.9l-0.8,1.6l-1.1,2.7
		l1.6,0.8l0.8,1.2l1.6,1.2l1.4,0.4l0.8,2.1l1.1,0.8l1.3-0.6l-0.2,2.7l2.1,1.5l0.2,0.4l0.6,0.4l0.6,0.5L215.1,300.9z"/>
	<path fill="none" stroke="#000000" stroke-width="0.25" d="M48.4,80l2.6,1.6l2.9,0.9l1,1.8l0.6,1.4l0.1,0.2l0.5,1.6l0.9,0.7
		l0.7,0.4l2.9,2.2l0.9,0.6l1.6,0.8l1,0.2l1.1,0.2l1.7,0l0.8-0.1l0.9,0.2l1.8,0.8l1.1,0.3l0.8,0.3l0.9,0.2l0.4,0l0.4,0l0.7-0.2
		l0.4-0.3l0.4-0.4l0.3,0.1h0.2l0.4,0.1l0.5,0.2l0.8,0.6l0.4,0.5l0.2,0.4l0.2,0.6l0.3,0.8l0.1,0.1l1.7,0.8l0.5,0.2l0.2,0.1l0.2,0.1
		l1.8,0.1l0.6,0.2l1.1,0.3l0.5,0.1l0.2,0.1l0.7,0.6l0.2,0.5l0.1,0l1.2,0.5l0.2,0.1l0.7,0.8l0.8,0.8l0.4,0.2l1.8,2.1l0.1,0.2l1.6,2.1
		l0.1,0.1l1,0.3l0.6,0.4l0.1,0.3l0.1,0.2l0.2,0.9l0.2,0.2l0.4,0.4l0.4,0.5l0.3,0.9l5.6,0.1l2.2,0.4l0.9,0.6l0.7,0.4l1.3,0.9l3.1,1.9
		l2.8,1.4l2.2,1.3l2,1.5l0.5,0.4l0.1,0.1l1.5,0.8l0.3-1.6l-0.7-1.2l-2.5-1.1v-2.3l-0.7-0.9l1-1l0.8-1.6l0.5-1.1l0.1-1.2l-0.2-1
		l-1.1-1l-1-0.2l-0.5-1l-0.9-0.6l-1.4-1.8l1.2,0l1.3-0.3l0.6,0.1l0.3,0v-0.2l-0.2-0.1l-0.2,0l-0.4-0.2v-0.2l-1.1-0.4l0.7-0.5
		l-1.3-0.5l-0.8-0.8l-1.1-0.6l-1.3-0.3l-0.7-0.1l-1.5-0.2l-0.6-0.1l-1.2-0.8v-1.6l-1.4-1.1l-1.1-0.3l-0.1,0l-1-0.7l-1-0.1h-0.7
		l-1-0.5l-0.5-0.5l-0.1,0.1l0-0.1l-0.2-0.4l-0.1-0.2l0-0.2l0-0.2l0-0.1v-0.1v-0.1v-0.1l0-0.2l0-0.2l0-0.2l0.2-0.3l0-0.2l-0.1-0.1
		l-0.1-0.2l0-0.3l0-0.2l0-0.2l0-0.4l0.1-0.4l0.1-0.1l0.2-0.8l0-0.2l-0.2-0.1l-0.7-0.3l-0.3-0.1l-0.5-0.1L98.5,87l-0.2-0.2l-0.1-0.3
		L98.1,86l-0.1-0.3l0-0.3l-0.1-0.7l-0.2-0.4l-0.2-0.5l-0.1-0.4l-0.2-0.4l-0.2-0.2l-0.8-0.3l-0.6-0.2l-0.6-0.2l-0.4,0.1l-0.6,0.1
		h-0.2l-0.3-0.1l-0.2-0.1L92.8,82l-0.1-0.1l0-0.1l-0.1-0.3l-0.1-0.3l-0.1-0.4l0-0.4L92,80.2l-0.6-0.3L91,79.7l-0.5-0.1l-1-0.2
		l-0.5-0.2l-0.9-0.4l-1.5-0.7L86.4,78l-1.1-0.7l-0.1-0.1l-1.1-0.7l-0.8-0.5l-1-0.6l-0.4-0.3l-0.2-0.3l-0.1-0.4l-0.1-0.4v-0.5
		l-0.3,0.3l-0.2,0.3l-0.2,0.2l0,0.1l-0.1,0.3l-0.1,0.3l-0.1,0.1l-0.1,0.1l-0.1,0.1l0,0l-0.1,0.1l-0.1,0L80,75.4l-0.1,0l0,0l-0.2-0.1
		l-0.2-0.1l-0.2,0l-0.3-0.1L78.7,75l-0.1-0.1l-0.2,0l-0.1-0.1l0-0.1l0-0.1l0-0.1l0,0H78l-0.2,0.1l-0.1,0.1l-0.1,0.1l-0.1,0.1
		l-0.2,0.1L77.2,75l0,0v0.1v0.2v0.1l-0.1,0.2L77,75.7l-0.1,0l-0.3-0.1l-0.1-0.2L76.4,75l0-0.1l-0.1-0.1l-0.1-0.1l-0.1-0.1l0,0
		l-0.2-0.2l-0.2-0.2l-0.5-0.4l-0.1-0.1l-0.2-0.2l-0.2-0.2l-0.1,0V73l0-0.2l0-0.3l0-0.3L74.4,72l0-0.1l-0.2-0.1l-0.1-0.1L74,71.5
		l-0.1-0.1l-0.2,0l-0.3-0.2L73.1,71L73,70.9l0,0l0-0.1v-0.2l0-0.2l0-0.2l-0.1-0.1L72.8,70l-0.1-0.1l-0.1,0l-0.1,0l-0.2-0.1l0,0
		l-0.1-0.2l0.1-0.1l0,0l-0.1-0.3l-0.2-0.2l-0.1-0.2l-0.1-0.1l-0.1-0.1l-0.2,0l-0.2,0.2l-0.2-0.1l-0.1,0l-0.1,0l-0.1,0l-0.3-0.2
		l-0.2-0.2l0-0.2l0-0.1l-0.1-0.1l-0.2,0l-0.1,0l-0.2,0l-0.2,0l-0.1,0.1l-0.1,0l-0.1,0.4l-0.1,0l-0.1,0l0-0.2l0-0.3l0-0.3l-0.1-0.2
		L68.4,67l-0.3-0.4L67.4,66l-0.4-0.4l-0.2-0.2l-0.2-0.3L66.4,65l-0.2,0l-0.1-0.1l-0.2-0.2l-0.2-0.1h-0.3l-0.2,0l-0.1,0l-0.1,0
		l-0.4,0l-0.4-0.1l-0.3-0.2l-0.7,0h-0.3h-0.3h-0.1l-0.1,0l-0.2-0.1l-0.2-0.2l0-0.1l-0.2,0h-0.1L61.3,64L61,63.9l-0.2,0h-0.2h-0.1
		L59.9,64h-0.3l0.1,0.2L59.5,65l-0.3,0.7l-0.3,0.4l-0.1,0.3l-0.1,0.1l-0.3,0.3l-0.2,0.4L58,67.3l-0.2,0.4L57.6,68l-0.1,0.2l-0.1,0.1
		l-0.1,0.2l-0.2,0.3L57,69.1l-0.2,0.3l-0.2,0.3l-0.2,0.2l-0.1,0.3l-0.1,0.2l-0.1,0.2L56.1,71l-0.2,0.3l-0.2,0.2l-0.2,0.3l-0.2,0.2
		l-0.1,0.2l-0.3,0.3l-0.2,0.3l-0.1,0.2l-0.1,0.2l-0.2,0.2l-0.1,0.2L54,73.6l-0.2,0.2l-0.3,0.3l-0.2,0.3l-0.3,0.3l-0.2,0.3l-0.3,0.2
		l-0.1,0.2l-0.2,0.3l-0.2,0.2l-0.3,0.2l-0.1,0.2l-0.1,0.1l-0.1,0.1l-0.1,0.1l-0.2,0.3L50.8,77l-0.2,0.2l-0.1,0.1l-0.3,0.4L50.1,78
		l-0.2,0.4l-0.1,0.3L48.4,80"/>
	<path fill="none" stroke="#000000" stroke-width="0.25" d="M105.3,164.3l0.4,0.8l-0.4,1.2l1.3,0.7l0.3,0.4l0.3,0.6l0.2,0.1l0.4,0
		l0.2,0l-0.1,0.4l-0.3,0.4l-0.2,0.1l-0.5,0l0,0.1l0,0.5v0.3l-0.3,1l-0.9,0.8L105,172l0.1,0.8l0.7,0.6l0.7,0.4l-0.1,1.7l-0.2,0.6
		l-0.3,0l-1.1,0l-0.2,0.2l-0.1,0.4l0,0.2l-0.8,1.2l0.2,0.2l0,0.4l0.8,0.1l0.2,0l1.2,1.3l0.2,0.6l0,0.5l-0.3,0.1l0,2.1l-0.4,0.4
		l0.2,0.6l-0.4,0.5l0.1,0.4l0,0.3l-0.4,0.4l-0.3,0l-0.4,0.6l0.3,0.7l0.2,0.2l0.3,0.7l0.3,0.1l0.3,0.2l0.3,0.8l0.6,0.1l1.1-0.9
		l1.3,0.6l0.5-0.1l0.7,0.8L109,191l-0.2,2.3l-0.6,2.1l-0.4,2l-0.3,1.1l-0.8,1.1l0.5,1.6l-0.9,2.3l2.7,0.2l2.5,1.8l-0.4,1.5l0.7,1.5
		l-1.6,1.8l-0.8,1.7v1l1.4,1.3l0.1,1.1l0.2,1.9l1.3,1.4l0.8,1.2h1l1.5-1.1l1.1-0.8l1.7-1.1l0.8-0.9l0.4,1.5l1.3,0.4l0.5,2.3l2.6,1.1
		l0.6-3.8l1-1l2.1-2.7l0.4-1.8l0.7-0.6l2.3-0.7l2-1.1l0.5-1v-1.1l1.6-1.1l0.8-2.8l-0.2-1.3l-1.3-0.6l-1.4-0.8l0.2-1.5v-1.7l-0.7-0.8
		l-0.1-1.3l-0.4-0.9l-0.6-1.8l-0.3-2l0.3-1.3l-0.1-1.5l-0.3-1.1v-2.9l0.5-1.3l0.7-1.9l1-0.9l1.3-0.7l-0.3-1.6l-0.4-1.9l-1.7-3
		l-0.4-1.9l-1.3-1.7l-0.5-3.5l-0.8-3l-0.8,0.1l-0.9,0l-0.9-0.6l-0.6,0l-1.1-0.5l-1-1.1l-0.7-1.4l-0.3-1.3l0-1.4l0.3-0.8l0.6-0.5
		l0.1-0.5l-0.5-0.4l1-1.3l-0.7,0l0.5-0.7l-0.6-0.3h-0.8l-0.6,0.5l-0.2,0.1l-0.2,0h-0.2l-0.3,0.1l-0.2,0.2l-0.1,0.1l-0.2,0l-0.1-0.1
		l-0.2-0.1l-0.2,0.1l-0.3,0l-0.1,0l-0.1-0.1l-0.1-0.1l-0.2,0h-0.2l-0.2,0l-0.2,0l-0.1,0l-0.2-0.1l-0.1-0.1l-0.3,0l-0.1,0.1l-0.2,0.1
		l-0.2,0l-0.3,0l-0.3,0h-0.1l-0.2,0l-0.1,0.1l-0.1,0.2l0,0.2l-0.1,0.2l-0.2,0.3l-0.2,0.3l-0.3,0.1l-0.2,0.1l-0.2,0.3l-0.1,0.2
		l-0.1,0.2l0,0.3l-0.3,0.4l-0.2,0.2l-0.3,0.1l-0.2,0.1l-0.2,0.3v0.3l-0.1,0.2l-0.2,0l-0.1,0l-0.1,0.2l-0.1,0.2l-0.3,0.1l-0.1,0.1
		l-0.1,0.3l-0.4,0.2l-0.2,0.2l0,0.2l0,0.4l-0.2,0.2h-0.3l-0.3,0.1l-0.1,0.2l0,0.4l-0.2,0.3l-0.2,0.4l-0.1,0.2l-0.1,0.1l-0.1,0.1
		l-0.1,0.1l-0.2,0h-0.2h-0.1l-0.1,0l-0.1-0.1l-0.1-0.1l-0.1-0.1l-0.2-0.1l-0.1,0l-0.2,0h-0.2l-0.2,0l-0.1-0.1l-0.1,0l-0.1,0h-0.2
		l-0.1-0.1l-0.3,0v0.2l0,0.1l-0.1,0.1l-0.1,0l-0.1,0l-0.1,0l-0.2,0.9l-1,0.9l0.1,0.3l0,0.3v0.3l-0.1,0.1h-0.3l-0.3-0.1l-0.2,0.1
		l-0.4,0.2l-0.1,0.2v0.2L105.3,164.3"/>
	<path fill="none" stroke="#000000" stroke-width="0.25" d="M51,163.2l0.3,0.4l0.1,0.3l0,0.1l0,0.1l0.3,0h0.2h0.1l0,0.1l0,0.2v0.1
		l0.1,0.2l0.4,0.4l0.3,0.3l0.2,0l0.1,0.1l0.1,0.1l0.3,0l0.2,0l0.1,0.1l0.1,0l0.2,0.2l0.1,0.1l0.2,0.1l0.1,0l0.2,0l0.1,0l0.2-0.1
		l0.3,0l0.2,0l0.1,0l0.2-0.1l0.1-0.1l0.2,0l0.2,0l0.1-0.1l0.1-0.1l0-0.1v-0.1l-0.1-0.2l0-0.1l0-0.2l0-0.1l0,0l0,0l0,0h0l0,0l0.1,0
		l0,0h0h0.1h0l0.1,0l0.1-0.1l0.1-0.1l0,0l0.1-0.1l0,0l0.2-0.1l0.1-0.1l0,0l0-0.1v0l0,0h0.1H58h0.3l0.1,0h0.3l0.1,0l0.2,0.4l0.1,0.2
		l0,0l0.1,0.1l0,0.1l0,0.1l0.1,0.3v0.1l0,0.3l0,0.2v0l0,0v0l0.2,0h0.1l0.1,0l0.1,0.1l0.1,0.2l0.1,0.3l0,0.1l0.1,0.1l0.1,0l0.2,0
		l0.1,0.1l0,0.1v0.1l0,0.1l-0.1,0.2l0,0.1l0,0.2l0,0.1v0.1v0l0,0l0.1,0.1l0,0l0,0l0.1,0l0.3,0l0.2,0l0.3-0.1l0.3-0.2l0.2-0.3
		l0.1-0.2l0.1-0.1l0.1-0.1l0.1-0.1l0.2-0.3l0.4,0l0.2,0l0.4-0.1l0.1,0l0.1,0l0.1,0l0.1,0l0.1-0.1l0,0l0.1-0.2l0-0.2l0-0.1l0.1-0.2
		l0.1-0.2l0-0.1l0.1,0l0-0.1v-0.2v-0.1l0-0.1l0.1-0.1l0.1-0.1l0.1,0l0.1,0l0.2,0l0.1-0.1l0.1-0.1l0-0.5l0-0.1l0.1,0l0.1,0l0.2-0.1
		l0.1-0.1l0.1-0.1l0.1,0h0.1h0l0,0.1l0,0.1l0.2,0.3l0,0l0,0l0.2,0.1l0.1,0l0.2,0.2l0.1,0.1l0.1,0.1l0.2,0l0.3-0.1l0.2-0.1l0.1-0.1
		l0.2-0.2l0.1-0.1l0.1-0.1l0.2-0.1h0.1L69,164l0.1,0.1l0.1,0l0.2,0l0.1,0l0.2,0h0.1l0.1,0l0-0.1l0.1-0.1l0-0.1l0-0.1l-0.1-0.1
		l0.1-0.1l0.1-0.1l0.2-0.1l0.1,0h0l0.1,0.1l0.1,0.1l0.1,0.1h0.1l0.1,0l0.1-0.1l0,0h0.1l0.1,0.1l0.2,0l0.2,0l0.2-0.1l0.1-0.1l0.1-0.1
		l0.1,0l0.2,0l0.2,0l0.2-0.1h0.2l0.1-0.1l0.1-0.2v-0.2l0-0.1l0-0.1l0-0.1l0.1,0l0.1-0.1l0.1-0.1l0-0.2l0-0.1l0-0.2v-0.1v-0.2l0-0.2
		l-0.1-0.1l0.1-0.1l0.1-0.1l0.1-0.2l0.1-0.2l0.1,0.1l0.1,0.2l0,0.2l0,0.2l0,0.2v0.2l0.1,0.2l0,0.2l0,0.2l0,0.1l0.1,0l0.3,0.1l0.3,0
		l0.4,0h0.2l0.2,0.1l0.3,0.3l0.2,0.3l0.2,0.2l0.1,0.3l0.2,0.2h0.2l0.2,0.1l0.1,0.1l0.2,0.2l0.1,0.2l0.2,0.1h0.2l0.3-0.1l0.2-0.2
		l0.2-0.2l0-0.2l0.1-0.2v-0.2l-0.1-0.3l0-0.1l0.3-0.1l0.2-0.1l0.1-0.5l0.1,0l0.2-0.1l0.2-0.1l0.2-0.1l0.2-0.2l0.1-0.2l0-0.2l0-0.2
		h0.1l0.3,0l0.2,0l0.1-0.1l0.2-0.2l0.1,0l0.1,0l0.1-0.1l0-0.2l0-0.2l0.1,0l0.1,0.2l0,0.2v0.2l0,0.2l0.1,0.2l0.2,0.1l0.2,0.1l0.1,0.1
		l0,0.1l0.3,0.1l0.2,0.1l0.1,0.1l0.1,0.1l0.1,0l0.1,0l0.1-0.1l0.3-0.1l0.3,0l0.3-0.1l0,0.1l0,0.2l0.1,0.2l0.2,0.1l0.1,0l0.2,0l0.2,0
		l0.1-0.1l0.6,0.1l0.3,0l0.3,0.1l0.3,0l0.2,0.2l0.2,0.2l0.2,0.1l0.3,0.2l0.2,0.2l0.1,0.2l0,0.2l0.1,0.1l0.1,0l0.3,0.1l0,0.1l0,0.3
		l0,0.2l0.1,0.2l0.5,0.1l0.4,0l0.4-0.1l0.1-0.1l0.2-0.1l0.1-0.1l0,0.2l0.1,0.3l0.1,0.1l0.1,0.1l0,0.3l-0.1,0.3l0,0.1l0,0.2l0,0.2
		l0.2,0.1l0.2,0.1l0.1,0.1l0.1,0.3l0.1,0.2l0,0.2l0.1,0l0.1-0.1l0.1-0.2l0.2,0l0.2-0.1l0.2-0.1l0.1-0.2l0.1-0.2l0.1-0.2l0.1,0
		l0.2,0.1l0.3,0.1l0.2,0l0-0.2l0.1-0.2l0-0.3l0.1-0.1l0.1-0.1l0-0.1l0.2,0.1l0.2,0l0.1,0l0.1-0.1l0.1-0.2l0.3-0.6l0.4-0.3l0.5,0.2
		l0.1,0.2l0.3-0.1l0.2-0.2l0.1,0l0.1,0l0.3,0.4l0.7-0.1l0.1,0l0.1,0.1l0.3,0l0.2,0l0.1-0.1h0.1l0.2,0.1l0.4,0.4l0.4,0.4l0.6,0.7
		l0.2,0.1l0.3,0l0.6-0.6l2.3-0.8h0.7l0.5-0.2l0.1-0.2l-0.1-0.4v-0.2l0.1-0.2l0.4-0.2l0.2-0.1l0.3,0.1h0.3l0.1-0.1v-0.3l0-0.3
		l-0.1-0.3l1-0.9l0.2-0.9l0.1,0l0.1,0l0.1,0l0.1-0.1l0-0.1v-0.2l0.3,0l0.1,0.1h0.2l0.1,0l0.1,0l0.1,0.1l0.2,0h0.2l0.2,0l0.1,0
		l0.2,0.1l0.1,0.1l0.1,0.1l0.1,0.1l0.1,0h0.1h0.2l0.2,0l0.1-0.1l0.1-0.1l0.1-0.1l0.1-0.2l0.2-0.4l0.2-0.3l0-0.4l0.1-0.2l0.3-0.1h0.3
		l0.2-0.2l0-0.4l0-0.2l0.2-0.2l0.4-0.2l0.1-0.3l0.1-0.1l0.3-0.1l0.1-0.2l0.1-0.2l0.1,0l0.2,0l0.1-0.2v-0.3l0.2-0.3l0.2-0.1l0.3-0.1
		l0.2-0.2l0.3-0.4l0-0.3l0.1-0.2l0.1-0.2l0.2-0.3l0.2-0.1l0.3-0.1l0.2-0.3l0.2-0.3l0.1-0.2l0-0.2l0.1-0.2l0.1-0.1l0.2,0h0.1l0.3,0
		l0.3,0l0.2,0l0.2-0.1l0.1-0.1l0.3,0l0.1,0.1l0.2,0.1l0.1,0l0.2,0l0.2,0h0.2l0.2,0l0.1,0.1l0.1,0.1l0.1,0l0.3,0l0.2-0.1l0.2,0.1
		l0.1,0.1l0.2,0l0.1-0.1l0.2-0.2l0.3-0.1h0.2l0.2,0l0.2-0.1l-0.2-0.9l0-0.8l-0.2-0.6l-0.4-1.1l-0.4-0.6l-0.8-0.7l-0.6-0.4l-0.2-1.1
		l-0.5-0.9l-0.8-1.1l-0.2-0.9L118,143l-0.9-0.2l-1.2-0.2l-0.9-1.4l-0.4,0l-0.1-0.3l-0.2-0.4l-0.2-0.2l-0.4-0.3l-0.1-0.2v-0.4h-0.5
		l-0.4,0l-0.2-0.2v-0.5l-0.2,0.1l-0.1,0l-0.1-0.2l-0.1-0.1l-0.1,0l-0.1,0.1l0,0.2l0,0.2l-0.1,0.1l-0.1,0.1l-0.2,0.1l-0.1,0.1l-0.1,0
		h-0.1l-0.1,0l0,0.1l-0.1,0.1l-0.3,0.2l-0.1,0l-0.3,0l-0.2,0h-0.2h-0.2l-0.2,0.5l-0.1,0.2l-0.4,0.3l-0.2,0.1l-0.3,0.2l-0.2-0.1v-0.3
		l-0.1-0.2l-0.2-0.1l-0.4,0.2l-0.5,0.8l-0.3,0l-0.4,0.3l-0.3,0.2l-0.2,0l-0.3,0.1l-0.1,0.1v0.2l-0.2,0.2l0,0l0,0l-0.1,0.1l0,0h0l0,0
		l0,0l0,0l0,0l0,0h0h-0.1l-0.1,0l0,0l0,0l0,0l0,0l-0.2-0.3l-0.1-0.4l0,0l0,0l0,0l0,0l0,0l-0.2-0.1l0,0l0,0l0,0l0,0l-0.1-0.2
		l-0.1-0.4l-0.1-0.2l0,0l-0.1-0.1l0,0l-0.1-0.1l0,0l0,0l0,0l0,0l0,0l0,0l0,0v0l-0.1-0.3l0,0l0,0l-0.1-0.1l-0.1-0.1l-0.1-0.1l0,0
		l-0.3-0.3l0,0l0,0l0,0l0,0l0,0l0,0l0,0l0,0l0,0v0l0-0.1l0-0.1l-0.1-0.2l0-0.1l0-0.1l0-0.1l0-0.1l-0.1-0.1l0,0l-0.4-0.4l-0.2-0.2
		l-0.1-0.1l0,0l-0.1,0H100H100h-0.1h-0.1l-0.1,0l-0.1,0l-0.1,0h-0.1l-0.1,0l-0.1,0l-0.1,0l-0.3,0.2l-2.7,0.2l-0.1-1.1l-0.4-1.4
		l0-1.6l0-0.2l-0.3,0.1l-0.3-0.2l-0.1-0.4l-0.1-0.4l-0.8-1l-0.7-1.2l-0.5-0.8l-1-0.7l-1.2-0.7l-2.7-1.2l-1.6-1.1l-1-0.7l-0.9-0.1
		l-0.5-0.4l-2-0.8l-1.2,1.9l-0.2,0.2l-0.1,0.1l-0.4,0l-0.7-0.3l-0.4,0l-0.9,0.3l-0.1,0.5l-0.4,0.1l0.1,0.1l0,0l0.2,0.3l-0.3,0.4
		l-0.2,0.1l0,0.1v0.1l0,0l-0.5,0.6l0,0.1l0.3,0.1l0.7,0l0.4,0.1l0.3,0l0,0.7l0,0l0.5,1.4l0.4,0.4l0.1,0.4v0.2l-0.6-0.3l-0.4-0.1
		l-0.3,0l-0.4,0l-0.5,0l-0.3,0.1l-0.3,0.3l-0.1,0.1l-0.5,0l-0.2,0l-0.6,0.8l-0.1,1.1l-0.5,0.7l-0.5-0.2l-0.9,0.3l0-0.3l-0.2-0.5
		l-0.3,0.1l-0.5,0.1l-0.1-0.2l0-0.4l-0.2-0.2l-0.4,0.3l-0.1,0.3l-0.1,0.1l-0.1,0l-0.4-0.2l-0.2,0l-0.1,0l-0.1-0.2l-0.1-0.4l0-0.1
		l-0.1,0.1l-0.2,0.2l-0.3,0.1l-0.4,0.6l-0.2,0.3l-0.1,0.8l-0.2,0.3l-0.1,0.5l-0.3,0.2v0.2l0,0.3l0,0.4l0,0.6l0,0l-0.1,0l0,0.1v0.1
		L68,137l0,0.3l0,0.3l-0.5,0.4l-0.1,0l-0.3-0.3l-0.6,0.6l-0.2,0.1l-0.2-0.2l-0.1,0l-0.4,0.3l-0.1,0.1v0.1l0,0.1L65,140l-0.1,0.6
		h-0.3l-0.1,0.1l-0.1,0.1l-0.2,0.3l-0.8,0.6l-0.8-0.2l0,0.2l-0.1,0.3l0,0.4l0.1,0.1l0,0.3v0.3l0.1,0.4l0,0.4l-0.3,0.3l-0.4,0.1
		l-0.4,0.3l-0.4,0.1l-0.3,0.4H61l-0.1-0.1l-0.2-0.1l-0.2-0.1l-0.1,0l-0.5,0.3l-0.4-0.3l-0.2-0.1l-0.6,0l-0.7,0.2l-0.2-0.2l-0.2-0.3
		l-0.6,0.2l-0.3-0.1l-0.2-0.2l-0.2,0l-0.1,0.1l-0.1,0.1l-0.2,0.3l-0.3,0.1l-0.2,0.4l-0.1,0.5v0.5l-0.2,0.5l-0.3,0.8l0.1,0.3v0.2
		l-0.2,0.3l-0.1,0.2l-0.1,0.1l-0.1,0.1l0,0.2v0.3v0.3l-0.1,0.1l0.1,0.4v0.2l-0.5,0.4l-0.1,0.5l-0.2,0.2l-0.1,0.1l-0.1,0.2l0,0.2
		l0.2,0.1l0.3,0l0.4,0.1l0.1,0.1l0.5,0.6l0,0.1l-0.2,0.4l-0.1,0.3l-0.1,0.4l-0.6,0l-0.1-0.3l-0.2-0.2l-0.2-0.2l-0.3-0.2l-0.4,0
		l-0.2,0.1l0,0.2l0.1,0.1l0.2,0.1l0.1,0.6l0,0.2l-0.5,0l-0.1,0.1l0.1,0.1l0.1,0.1l0.3,0.2l0.3,0.7l0,0.1l-0.3,0.2l0.1,0.8l0,0.2
		l0.1,0.1v0.1l-0.4,0.2l-0.1,0.3l-0.1,0.2l0.1,0.2l0.3,0.3l-0.1,0.2l0,0.1v0.1l0,0.2l0,0.1l-0.1,0.2l-0.1,0.2v0.2l0.2,0.4l0.1,0.4
		l-0.3,0.3l-0.6,0.5l-0.3,0.2l-0.2,0.1v0.1l0,0.1l0.1,0.1l-0.1,0.4L51,163.2"/>
	<path fill="none" stroke="#000000" stroke-width="0.25" d="M71.5,163.6L71.5,163.6l0.2,0.3l0.1,0.1l0.1,0H72h0.1l0.1,0.1l0.1,0.3
		l0.2,0.5l0,0.1l0,0.1l-0.4,0.3l-0.1,0.1v0.1l0.2,0.3l0.1,0.1l0.1,0.2l0.1,0.1l0.4,0.4l0,0l0,0L73,167l-0.1,0.2l-0.1,0.3l-0.1,0.2
		l-0.1,0l-0.1,0l-0.1,0l-0.1,0.1l-0.1,0.1L72,168l-0.2,0l-0.4-0.1l-0.1,0l-0.1,0.1l-0.3,0.1l-0.1,0.2l-0.1,0.3l0.2,0.3l0.2,0.2
		l0.1,0.1l0,0.1l0,0.1v0.1l0.2,0.2l0.1,0.1l0,0.1l0,0.1l0.1,0.1v0.2l0,0.1l0.2,0.3l0,0.2l0,0.3l-0.1,0.2l0,0.2v0.1v0.1l0,0.2l0,0.2
		l-0.1,0h-0.2h-0.3h-0.1l0-0.1l-0.1,0l-0.3,0.1l-0.1,0.1l-0.1,0.5l-0.2,0.2l-0.2,0.1l-0.1,0l-0.1,0.1l0,0.3l-0.4,0.4l-0.4,0.2
		l-0.3,0.2l-0.1,0.1l-0.1,0.3l-0.1,0.2l0,0.1l-0.4,0.1l-0.1,0.1l-0.3,0l-0.2,0.8l0.1,0.1l0,0.2l0.1,0.2l0,0.2v0.1l-0.4,0.2l-0.3,0.2
		l0,0.1v0.1l0.1,0.2l0.2,0.2l0.2,0.3l0.1,0.2l0.2,0.2l0,0.1l0,0.1l-0.1,0.1l-0.1,0.1l-0.1,0.3l-0.1,0.1l-0.1,0.1l-0.1,0l-0.3-0.1h0
		l-0.2,0.2l0,0.1l-0.1,0.3l0,0.1h0.1l0.2-0.1L67,180l0.1,0l0.2,0h0h0.1l0.3,0h0.1l0.2-0.1l0.1-0.1h0.3h0.1h0l0.2,0h0.1h0.7h0.1
		l0.2,0l0.1,0.1h0.1l0.1-0.1l0.2-0.3l0.1-0.1l0.1-0.1l0.1-0.2l0.1-0.1l0.2,0l0.2-0.2l0.5,0l0.1,0.1l0.2,0.3l0.1,0.1l0.1,0l0.6,0.1
		l0.1,0.2l0.1,0.1l0.2,0.5l0,0.1l0,0.2v0.1l0,0.1l0,0.2l0,0.2l0,0.1v0.1v0.1l0.3,0.2l0,0.4l0,0.5l0,0.2l0,0l0.1,0.1l0.2,0.2l0,0.1
		l0,0.1l-0.1,0.1l-0.1,0.2l-0.1,0.2l0,0.2l0,0.2l-0.1,0.1l-0.1,0l0,0.1v0.2l0,0.3l0.2,0.2l0.1,0.1l0,0.1v0.2l-0.1,0.3l0,0.1h0.1
		l0.1-0.1l0.1-0.1h0.2h0.1l0.2,0l0.3,0.1l0.2,0.1l0.2,0.1l0.2,0.3l0.3,0.4l0.4,0.3l0.1,0.1l0,0l0,0.2l0,0.2v0l0.3,0.2l0.2,0.1l0,0.1
		l0.2,0.2l0.1,0.2l0,0.1l0,0.1v0.2l0,0.2l0,0.2l0,0.2l0,0.3v0.1l0,0.1l0.1,0.1l0.1,0l0.3,0l0.4,0h0.1l0.1,0l0.1,0.1l0,0.1l0.1,0.2
		v0.1v0.3v0.1l0.1,0.3l0.1,0.1l0.3,0.3l0.2,0.2l0.1,0.1l0.4,0.2l0.2,0.1l0.3,0.1h0.1l0.1-0.1l0.2-0.2l0.2-0.3l0-0.2l0.1-0.2v-0.1
		l0.2,0h0.1v0.2v0.2l0,0.5l0,0.2l0,0.1l-0.1,0.4l0,0.3l0,0.4l0.1,0.3l0.4,0.4l0.4,0.1l0.4,0l0.4,0l0.1,0l0.3,0l0.2,0.1l0.1,0.2
		l0.3,0.4l0.1,0.1l0,0l0,0.1l0,0.1l-0.2,0.1l-0.2,0.1l0,0.1l0.2,0.1l0,0.2l0,0.3l0.1,0.3l0.1,0.3l0.1,0.1l0.2,0.1l0.1,0.1l0.1,0.1
		l0.1,0l0.1,0l0.1-0.1h0.1l0.3,0.1l0.5-0.1h0.2l0.2,0h0.1l0.3-0.1l0.1-0.1l0.4-0.3l0.1,0l0.1,0h0.1l0.1-0.1l0.3-0.2l0.3-0.1l0.3-0.1
		H88l0.1,0.1l0.1,0.2l0.1,0l0.2,0.1l0.2,0.1l0.2,0.1l0.1,0l0.1-0.1l0.2-0.1l0.1,0l0.2,0l0.9-0.1l0.4-0.1l0.1,0l0-0.1l0.1,0l0,0
		l0,0.2l0,0.2l0.1,0.4l0.1,0.1l0,0v0.1l0,0.3l0,0.2l0,0.4v0.1l-0.1,0.2l-0.1,0.2l-0.2,0.1l-0.2,0.1h-0.1h-0.2h-0.2l-0.1,0l-0.1,0.1
		l-0.1,0.2l-0.1,0.3l0,0.3l0.1,0.3l0.1,0.2l0.1,0.2l0,0l0,0.3l0.1,0.1l0.1,0.1l0,0.2l0,0.2l-0.1,0.2l-0.1,0.3l-0.1,0.6l0,0.3
		l-0.1,0.3l0,0.1l0,0l0.3,0.1l0.7,0.2l0.3,0.1l0.2,0.1l0.2,0.2l0.2,0.2l0.1,0.2l0.1,0.1l0.3,0.1l0.2,0.2l0.1,0.1l0.2,0.1l0.1,0.1
		l0.1,0.1l0.1,0h0.4l0.5,0l0.2,0.1l1.2-0.1l0.6-0.1l0.2,0l2.2-0.6l0.5,1.2l0.3,1.8l1,0.4l1.2,1l2.3,0.1l2.3,1.2l2,1.6l1.5,0.3
		l0.8-1.7l1.6-1.8l-0.7-1.5l0.4-1.5l-2.5-1.8l-2.7-0.2l0.9-2.3l-0.5-1.6l0.8-1.1l0.3-1.1l0.4-2l0.6-2.1l0.2-2.3l0.9-0.9l-0.7-0.8
		l-0.5,0.1l-1.3-0.6l-1.1,0.9l-0.6-0.1l-0.3-0.8l-0.3-0.2l-0.3-0.1l-0.3-0.7l-0.2-0.2l-0.3-0.7l0.4-0.6l0.3,0l0.4-0.4l0-0.3
		l-0.1-0.4l0.4-0.5l-0.2-0.6l0.4-0.4l0-2.1l0.3-0.1l0-0.5l-0.2-0.6l-1.2-1.3l-0.2,0L104,179l0-0.4l-0.2-0.2l0.8-1.2l0-0.2l0.1-0.4
		l0.2-0.2l1.1,0l0.3,0l0.2-0.6l0.1-1.7l-0.7-0.4l-0.7-0.6l-0.1-0.8l0.7-0.3l0.9-0.8l0.3-1v-0.3l0-0.5l0-0.1l0.5,0l0.2-0.1l0.3-0.4
		l0.1-0.4l-0.2,0l-0.4,0l-0.2-0.1l-0.3-0.6l-0.3-0.4l-1.3-0.7l0.4-1.2l-0.4-0.8l-0.1,0.2l-0.5,0.2h-0.7l-2.3,0.8l-0.6,0.6l-0.3,0
		l-0.2-0.1l-0.6-0.7l-0.4-0.4l-0.4-0.4l-0.2-0.1h-0.1l-0.1,0.1l-0.2,0l-0.3,0l-0.1-0.1l-0.1,0l-0.7,0.1l-0.3-0.4l-0.1,0l-0.1,0
		l-0.2,0.2l-0.3,0.1l-0.1-0.2l-0.5-0.2l-0.4,0.3l-0.3,0.6l-0.1,0.2l-0.1,0.1l-0.1,0l-0.2,0l-0.2-0.1l0,0.1l-0.1,0.1l-0.1,0.1l0,0.3
		l-0.1,0.2l0,0.2l-0.2,0l-0.3-0.1l-0.2-0.1l-0.1,0l-0.1,0.2l-0.1,0.2l-0.1,0.2l-0.2,0.1l-0.2,0.1l-0.2,0l-0.1,0.2l-0.1,0.1l-0.1,0
		l0-0.2l-0.1-0.2l-0.1-0.3l-0.1-0.1l-0.2-0.1L91,166l0-0.2l0-0.2l0-0.1l0.1-0.3l0-0.3l-0.1-0.1l-0.1-0.1l-0.1-0.3l0-0.2l-0.1,0.1
		l-0.2,0.1l-0.1,0.1l-0.4,0.1l-0.4,0l-0.5-0.1l-0.1-0.2l0-0.2l0-0.3l0-0.1l-0.3-0.1l-0.1,0l-0.1-0.1l0-0.2l-0.1-0.2l-0.2-0.2
		l-0.3-0.2l-0.2-0.1l-0.2-0.2l-0.2-0.2l-0.3,0l-0.3-0.1l-0.3,0l-0.6-0.1l-0.1,0.1l-0.2,0l-0.2,0l-0.1,0l-0.2-0.1l-0.1-0.2l0-0.2
		l0-0.1l-0.3,0.1l-0.3,0l-0.3,0.1l-0.1,0.1l-0.1,0l-0.1,0l-0.1-0.1l-0.1-0.1l-0.2-0.1l-0.3-0.1l0-0.1l-0.1-0.1l-0.2-0.1l-0.2-0.1
		l-0.1-0.2l0-0.2v-0.2l0-0.2l-0.1-0.2l-0.1,0l0,0.2l0,0.2l-0.1,0.1l-0.1,0l-0.1,0l-0.2,0.2l-0.1,0.1l-0.2,0l-0.3,0h-0.1l0,0.2l0,0.2
		l-0.1,0.2l-0.2,0.2l-0.2,0.1l-0.2,0.1l-0.2,0.1l-0.1,0l-0.1,0.5l-0.2,0.1l-0.3,0.1l0,0.1l0.1,0.3v0.2l-0.1,0.2l0,0.2l-0.2,0.2
		l-0.2,0.2l-0.3,0.1h-0.2l-0.2-0.1l-0.1-0.2l-0.2-0.2l-0.1-0.1l-0.2-0.1h-0.2l-0.2-0.2l-0.1-0.3l-0.2-0.2l-0.2-0.3l-0.3-0.3
		l-0.2-0.1h-0.2l-0.4,0l-0.3,0l-0.3-0.1l-0.1,0l0-0.1l0-0.2l0-0.2l-0.1-0.2v-0.2l0-0.2l0-0.2l0-0.2l-0.1-0.2l-0.1-0.1l-0.1,0.2
		l-0.1,0.2l-0.1,0.1l-0.1,0.1l0.1,0.1l0,0.2v0.2v0.1l0,0.2l0,0.1l0,0.2l-0.1,0.1l-0.1,0.1l-0.1,0l0,0.1l0,0.1l0,0.1v0.2l-0.1,0.2
		l-0.1,0.1h-0.2l-0.2,0.1l-0.2,0l-0.2,0l-0.1,0l-0.1,0.1l-0.1,0.1L71.5,163.6"/>
	<path fill="none" stroke="#000000" stroke-width="0.25" d="M96.9,110.8l5.6,0.1l2.2,0.4l0.9,0.6l0.7,0.4l1.3,0.9l3.1,1.9l2.8,1.4
		l2.2,1.3l2,1.5l0.5,0.4l0.1,0.1l-0.3,0.9l-0.2,0.5l0,1.8l0.7,0.8l3.5,1.4l0.8,1.5l1.3,0.6l0.8,0.1l0.5,0.9l1,1.7l0.8,1.4l1.3,2.1
		l2.3,3.4l0.4,0.8l-1.4,0.4l2.2,1.1l2.6,1.7l2.1,1.1l2.1,0.9l1.8,1l0.2,3.1l0.7,1.6l0.2,1.3l1.1,1.9l-0.1,2.9l-0.9,2.1l-0.7,2.7
		l-1.1,3.2l-0.6,2.1v2.9l-0.9,0.5l-0.6,0.9l-0.2,1.6l0.9,0.8l1.4-0.3l1.7,0.7l0.7,1.5v2.4l-0.7,0.9l-0.4,1l-0.6,1.1v1.3l-0.3,1.3
		l-0.6,2.2l-0.8,1.7v1.4l1.3,0.2l1.3,0.7l0.3,0.9l-0.1,1.3l0.7,0.4l1.6-0.7l0.7-0.8l1.3-0.4l1.7,0.1l1.9,0.8l1.5,1.4l0.7,1.5
		l0.3,2.1l0.2,2.7l1.2,0.7l0.4,0.3l0.3,0.5l0.2,0.4l0,0.2l-0.2,0.4l-0.2,0.3l-0.2,0.1l-0.2,0.1l-0.4,0.5l-0.3,0.4l-0.5,1.5l-0.3,0.2
		l-0.4,0l-0.4,0l-0.4-0.1l0-0.2l-0.1-0.1l-0.6-0.1l-0.4-0.5l-1.5-0.7l-1.3-1.4l-0.9,0.4l-1.2,0.9l-0.2,1.2l-1.5,1.3l-1,0.4l-0.2,0.8
		l-0.8,0.1l-0.8,0.7l-0.6-0.2l-0.9,0.7l-1-0.6l-1.1,0.8l-0.8,0.5l0.8-2.8l-0.2-1.3l-1.3-0.6l-1.4-0.8l0.2-1.5V198l-0.7-0.8l-0.1-1.3
		l-0.4-0.9l-0.6-1.8l-0.3-2l0.3-1.3l-0.1-1.5l-0.3-1.1v-3.1l0.5-1.3l0.7-1.9l1-0.9l1.3-0.7l-0.3-1.6l-0.4-1.9l-1.7-3l-0.4-1.9
		l-1.3-1.7l-0.5-3.5l-0.8-3l-0.8,0.1l-0.9,0l-0.9-0.6l-0.6,0l-1.1-0.5l-1-1.1l-0.7-1.4l-0.3-1.3l0-1.4l0.3-0.8l0.6-0.5l0.1-0.5
		l-0.5-0.4l1-1.3l-0.7,0l0.5-0.7l-0.6-0.3h-0.8l-0.6,0.5l-0.2-0.9l0-0.8l-0.2-0.6l-0.4-1.1l-0.4-0.6l-0.8-0.7l-0.6-0.4l-0.2-1.1
		l-0.5-0.9l-0.8-1.1l-0.2-0.9l-0.4-0.5l-0.9-0.2l-1.2-0.2l-0.9-1.4l-0.4,0l-0.1-0.3l-0.2-0.4l-0.2-0.2l-0.4-0.3l-0.1-0.2v-0.4h-0.5
		l-0.4,0l-0.2-0.2v-0.5l-0.2,0.1l-0.1,0l-0.1-0.2l-0.1-0.1l-0.1,0l-0.1,0.1l0,0.2l0,0.2l-0.1,0.1l-0.1,0.1l-0.2,0.1l-0.1,0.1l-0.1,0
		h-0.1l-0.1,0l0,0.1l-0.1,0.1l-0.3,0.2l-0.1,0l-0.3,0l-0.2,0h-0.2h-0.2l-0.2,0.5l-0.1,0.2l-0.4,0.3l-0.2,0.1l-0.3,0.2l-0.2-0.1v-0.3
		l-0.1-0.2l-0.2-0.1l-0.4,0.2l-0.5,0.8l-0.3,0l-0.4,0.3l-0.3,0.2l-0.2,0l-0.3,0.1l-0.1,0.1v0.2l-0.2,0.2l0,0l0,0l-0.1,0.1l0,0h0l0,0
		l0,0l0,0l0,0l0,0h0h-0.1l-0.1,0l0,0l0,0l0,0l0,0l-0.2-0.3l-0.1-0.4l0,0l0,0l0,0l0,0l0,0l-0.2-0.1l0,0l0,0l0,0l0,0l-0.1-0.2
		l-0.1-0.4l-0.1-0.2l0,0l-0.1-0.1l0,0l-0.1-0.1l0,0l0,0l0,0l0,0l0,0l0,0l0,0v0l-0.1-0.3l0,0l0,0l-0.1-0.1l-0.1-0.1l-0.1-0.1l0,0
		l-0.3-0.3l0,0l0,0l0,0l0,0l0,0l0,0l0,0l0,0l0,0v0l0-0.1l0-0.1l-0.1-0.2l0-0.1l0-0.1l0-0.1l0-0.1l-0.1-0.1l0,0l-0.4-0.4l-0.2-0.2
		l-0.1-0.1l0,0l-0.1,0h-0.1h-0.1h-0.1h-0.1l-0.1,0l-0.1,0l0.7-0.1l0.1-0.2l0.1-0.4l0.2-0.5l0.2-0.4l0.4-0.4l0.4-0.2l0.6-0.2l0.3-0.3
		l0.1-0.5l0.2-0.4l0.4-0.2l-0.2-0.4l-0.5-0.2l-0.4-0.1l-0.5-0.4l-0.4-0.2l-0.1-0.1l0-0.1l0-0.7l-0.1-0.1l-0.1-0.2l-0.2-0.1l0-0.2
		l0.1-0.1l0-0.3v-0.2l0.1-0.1l0.5,0l0.3,0v-0.4l-1.6-0.5l0-0.1l0-0.1l0.7-1.4l0.2-0.5l0.1-0.2l0-0.2l0-0.1l0-0.1l0,0l-0.1,0.1
		l-0.2,0.1h-0.2l-0.3-0.1l-0.2-0.1l-0.1-0.1v-0.1V125l0.1-0.3l0.1-0.2l0-0.2l0-0.1l-0.1,0l-0.1,0l-0.1,0.1l-0.3,0h-0.1l-0.1,0
		l-0.1,0l0,0l-0.1-0.2l0-0.1l-0.1-0.1l-0.2-0.2l0-0.1l0-0.1v-0.1l0,0h0h0l0.1,0l0.1,0.1h0.1l0.1,0l0.1-0.1l0.2-0.2l0.3-0.3l0.1-0.3
		l0.1-0.4l0.1-0.2L100,122l-0.6-0.4l-0.4-0.3l-0.3-0.2l-0.8-0.3l-0.2-0.1l0-0.1l0-0.1l0.1-0.2l0.1-0.1l0.1,0l0.3-0.1h0.3l0.1,0l0,0
		l0-0.1l-0.1-0.2l-0.1-0.1l-0.1-0.2l-0.1-0.2l0-0.2v-0.2l0-0.2l0-0.2v-0.1l-0.1-0.2l-0.3-0.4l-0.3-0.3l-0.1-0.1l-0.1,0l-0.1,0
		l-0.1,0l-0.2,0.1h-0.1l0-0.1l0-0.2l0,0l-0.3-0.7l-0.4-1l0-0.1v-0.1l0.1-0.1l0.1-0.1l0.1-0.1l0.2-0.1l0.3-0.1l0.3-0.1l0.1-0.1
		l0.1-0.1v-0.1l-0.1-0.1l-0.2-0.1l-0.2-0.1l-0.1-0.1l-0.2-0.3l-0.3-0.4l-0.1-0.1l-0.2-0.1l-0.1-0.1l0-0.1l0.2,0l0.8,0.1l0.4-0.1
		l0.9,0l0.4,0l0-0.1l-0.5-0.4l-0.5-0.3l-0.5-0.3L96.9,110.8"/>
	<path fill="none" stroke="#000000" stroke-width="0.25" d="M116.9,103.1l0.8,0.2l1.3,0.7h1.1l0.4,0.5l0.9,0.4l1.3,0.4l0.9,0.5
		l0.4,0.8l0.8,1.5l0,1.2l0.3,0.8l0.2,0.1l0.3,0.4l0.7,0.3l0.8,0l1.1-0.5l0.7,0.3l0.2,0.9l-0.2,0.6l-0.3,0.9l-0.1,1.2l0.8,0.2
		l0.4,0.3l0.2,0.8l0.3,0.3l0.6,0.2l-0.1,0.3l-0.1,0.3l0.2,0.3h0.4l0.7-0.1l1.1,0l0.6,0.1l0.5,0l0.2-0.3l0.1-0.3l1.2-0.6l1.2-0.4
		l1.2-0.3l1,0.5l1,0.5l1.6,0.4l1.9-0.1l0.1,1.8l1.1,0.7l0.4,0.5l-0.1,1.3l1,1l-0.5,1.1l0.1,1.1l0.7-0.1l-0.2,2l-0.3,2.2l1.2,1.6
		l0.8,2.5l1.2-0.2l1.5-0.1h2.3l1.4,0.5h3.9l2.5,0l0.1,0l0.1,0.1l0.1,0l0.2,0.1h0.1l0.1-0.1l0.1-0.1l0.1-0.1h0.1h0.1l0,0l0.2,0.1
		l0.4,0.4l0.2,0.1l0.2,0.1l0.1,0.1l0.2,0.2l0,0l0.1,0.2l0.1,0.1l0.1,0.3l0.2,0.2l0.1,0.4l0,0.1l0.1,0.1l0.1,0.1l0,0.1v0h0l0.1-0.1
		l0.1-0.1l0.1-0.1h0.2l0,0.2l0.1,0.4l0.2,0.2l0.1,0.1l0.1,0l0.2-0.1l0.3-0.2l0.1-0.1h0.1l0,0.1l0.1,0.1l0.1,0.1l0,0.1l0,0.2l0.2,0.1
		l0.1,0.2l0.1,0.2l0.1,0.1h0l0.1-0.1l0.1-0.1l0.3,0l0.1,0.1l0,0.1l0.1,0l0.1,0.1l0.1,0.2l-0.1,0.2l-0.2,0.4l-0.1,0.4l0,0.4v0.2
		l0,0.1l-0.1,0.2l0,0.1v0.2v0.1l-0.1,0.2l-0.1,0.2l-0.1,0.2l0,0l0.1,0.2l0,0.1v0.1l-0.1,0.1l-0.1,0.1l-0.1,0.1l0,0.1l-0.1,0.2
		l-0.2,0.1l-0.2,0.2l0,0.4l0.1,0.4l-0.4,0.3l0.1,0.1l0,0.1l0.1,0.1l0.1,0.1l0.1,0l0.2,0.7l0.1,0.2l0,0.1l0,0.2l0,0.1l-0.2,0.4
		l-0.3,0.3l0,0l-0.1,0.2l-0.1,0.1l-0.1,0.1l-0.1,0.1l-0.1,0.1l0,0.1l0,0.2l0.2,0.2l-0.2,0h0l-0.5,0.3l-0.2,0.1v0.3l-0.2,0.1l0,0.2
		l0,0.1l-0.1,0.2l0,0.1v0.1l0,0.1l0,0.2l0.1,0.3l0,0.2l0.1,0l0.1,0l0.1,0l0.1,0l0.1,0l0,0.1l0,0.1l0,0.1l0,0.1l0,0.1l-0.2,0.2v0.1
		l0,0.4l-0.2,0.2l-0.1,0.1l-0.1,0.1l-0.1,0.1l-0.1,0.2v0.1l0,0.2l0,0.1l0,0l0,0.1l0,0.1l0,0.1l-0.1,0.1l-0.1,0.1l-0.1,0.1H163
		l-0.2-0.1l-0.3-0.2l-0.2-0.1l-0.1,0l-0.1,0l0,0v0.1v0.2l0,0.2v0.1l0,0.1l0,0.1v0l0,0.1l0.1,0.1l0.1,0.1l0,0.1l0,0.1l-0.1,0
		l-0.1,0.1v0.1h-0.1l-0.1-0.1l-0.1-0.1l-0.1-0.1l-0.1,0l-0.1,0l-0.1,0.1l-0.1,0.1l0,0.2l0,0.2l0,0l-0.7,0.4l-1.3,0.2l-0.4,1.3
		l-0.9,0.2V153l-0.6-1.2l-1.7-0.2h-3.9l-1.3,1.9l2,1.3l-1.3,1.4l-1.2,0.1L148,156l-2-0.1l-2.7-2.9l-0.7-1l-1.1-1.9l-0.2-1.3
		l-0.7-1.6l-0.2-3.1l-1.8-1l-2.1-0.9l-2.1-1.1l-2.6-1.7l-2.2-1.1l1.4-0.4l-0.4-0.8l-2.3-3.4l-1.3-2.1l-0.8-1.4l-1-1.7l-0.5-0.9
		l-0.8-0.1l-1.3-0.6l-0.8-1.5l-3.5-1.4l-0.7-0.8l0-1.8l0.2-0.5l0.3-0.9l1.5,0.8l0.3-1.6l-0.7-1.2l-2.5-1.1v-2.3l-0.7-0.9l1-1
		l0.8-1.6l0.5-1.1l0.1-1.2l-0.2-1l-1.1-1l-1-0.2l-0.5-1l-0.9-0.6l-1.4-1.8l1.2,0l1.3-0.3l0.6,0.1L116.9,103.1"/>
	<path fill="none" stroke="#000000" stroke-width="0.25" d="M59.6,64l-0.1-0.1l0-0.5l0.2-0.5l0.2-0.3l0.3-0.6l0.2-0.1l0.1-0.3
		l-0.3-0.1l0.4-0.9l0.3-0.7l0.3-0.5l0.1-0.3l0.1-0.2l0.1-0.1l0.1-0.3l0.1-0.3l0.2-0.3l0.2-0.3l0.2-0.1l0.2-0.2l0.1,0L63,57l0.4-0.3
		l0.2-0.3l0.2-0.3l0.2-0.5l0.2-0.3l0.2-0.2l0.2-0.2l0.1-0.2l0.2-0.2l0.1-0.1l0.1-0.2l0.2-0.2l2.3-3.4l0-0.5V50l0.4-0.8l0.5-0.7
		l0.3-0.7l0.3-0.4l0-0.2l0-0.2l-0.3-0.1L68.4,47L68,47.1l-0.3,0l-0.1-0.2l0-0.4l0-0.2l0.1-0.2l0.1-0.2l0.2-0.7l0.1-0.3l0.1-0.4
		l0.1-0.3l0.2-0.8l0.2-0.7l0-0.2l0.3-0.7l0.3-0.4l0.5-0.6l0.1-0.2l0.1-0.2l0.2-0.3l0.2-0.3l0.2-0.4l0.1-0.4l0.2-0.3l0.1-0.7v-0.4
		l-1-0.4L70,37l0-0.1l0.1-0.3l1.3,0.2v-0.1l0.7-0.6l0.7-0.4l0.6-0.4l0.1-0.1l0.2-0.1l0.1-0.1l0.3-0.2l0.2-0.1l0.1-0.1l0.2-0.2
		l0.2-0.3l0.2-0.3l0.2-0.4l0.2-0.3l0.2-0.3l0.2-0.2l0.2-0.2l0.3-0.3l0.2-0.1l0.2-0.1l0.2-0.1l0.5-0.4l0.6-0.3l0.3-0.2l-0.2-0.6
		l-0.8,0l0.6-0.6l0.2,0.1l0.1,0l0.2,0l0.2,0.1L79,30l0.4,0.4l0.1,0.2l0.2,0.2l0.2,0.4l0.3,0.4l0.3,0.4l0.2,0.2l0.6,0.2h0.4l0.2-0.1
		l0.1-0.1l-0.1-0.4l0-0.5l0.1-0.5l0.2-0.4l0.1-0.2l0.3-0.3l0.2-0.1l0.5-0.1l0.3,0l0.5-0.3l0.2-0.2l0.2-0.2l0.2-0.1l0.3-0.1l0.5,0.2
		l0.3,0.2l0.3,0.1l0.3,0l0.3,0.1l0.3,0l0.4,0l0.2-0.1l0.1-0.2l0.2-1l0.1-0.2l0.1-0.2l0.2-0.2l0.2-0.2l0.3-0.4l0.4-0.4l0.4-0.5
		l0.1-0.1l0.2-0.1l0.2,0.2l0.1,0.2l0.1,0.4l0.2,0.1l0.3,0.2l0.1,0.1l0.2,0h0.4l0.4-0.3l0.2,0l0.2,0l0.2,0.1l0.1,0.2l0,0.5l0.1,0.2
		l0.1,0.1L93,28h0.3l0.3,0.1l0.2,0.2l0.1,0l0.1,0.1l0.2,0l0.3,0l0.4-0.1h0.1l0.1,0l0.2,0.2l0.1,0.2l0.1,0.2l0.1,0.1l0.1,0.1l0.2,0
		l0.2-0.1l0.1-0.1l0.2-0.1l0.2-0.1l0.3-0.1l0.4,0l0.9,0.2l0.2,0l0.5,0.2l0.2,0.1h0.1l0.1,0l0.1-0.2l0-0.3l0.1-0.5l0.6-0.7l0.3-0.3
		l0.2-0.3l0.2-0.4l0.1-0.1h0.2l0.2,0.1l0.2,0.2l0.1,0.4l0.1,0.1l0.1,0l0.1-0.1l0.2-0.1l0.1,0l0.2,0l0.2,0l0.2,0l0.3-0.1l0.4,0
		l0.3-0.1l0.2-0.1l0.2-0.1l0.2-0.1l0.2-0.1l0.2-0.2l0.2-0.1l0.4-0.1l0.2,0h0.1l0.2,0.1l0.1,0.1v0.2l0,0.3l0.1,0.3l0.1,0.1l0.2,0.2
		l0.2,0.2l0.1,0.1l0.1,0.2l0.1,0.2l0.2,0l0.2-0.1l0.4-0.3l0.1-0.1h0.1l0.2,0l0.2,0.1l0.6,0.2h0.1l0.5,0h0.2l0.2,0l0,0l-0.1,0.2
		l0,0.1l0,0.2l0,0.1l-0.1,0l-0.2,0.1l-0.4,0.3l-0.2,0.3l-0.3,1.2l0,0.1l0,0.3l-0.4,1.2l-0.2,0.5l-0.3,0.5l-0.4,0.6l-1.4,2.1
		l-0.3,0.6l-0.1,0.2l-0.1,0.1l-0.1,0l-0.2,0.4l-0.3,0.4l-0.4,0.4l-0.8,1.5l-0.3,0.5l-0.3,0.5l-0.3,0.6l-0.2,0.5l-0.2,0.5l-0.3,0.4
		l-0.4,0.1l-0.4,0.2h-0.2l-0.7,0.2l-0.3,0.3l-0.2,1.3l-0.2,0.2l-0.1,0.2l-0.2,0.6l-0.1,0.3l-0.5,0.4l-0.4,1.6l-0.4,1.2l-0.2,0.7
		l-0.1,0.3L98,50.1v0.2l0,0.1l-0.2,0.2l0,0.1l0.2,0.3l0,0.2L97,52.5l0,0.3l-0.1,0.1l-0.1,0.2v0.2l-0.1,0.4l-0.1,0l-0.3,0.9v0.1
		l0.2,0.1v0.1l-0.1,0.3l-0.2,0.3l0.1,0.3v0.2l-0.1,0.2l-0.2,0.5L96.1,57l0,0.5L96,57.9l0,0.1l0,0.1l-0.1,0.3l-0.1,0.3l-0.1,0.1
		l-0.1,0.1l-0.2,0.3l0,0.2l0.4,0.2l0.1,0.1l-0.4,0.2l-0.6,0.4h-0.1l-0.2-0.1l-0.3,0.2l-0.2,0.2l-0.3,0.3l0,0.1l-0.2,0.2l-0.2,0.2
		l0,0.1l0,0.1l-1.1,0.9L91.6,63l0,0.3l-0.1,0.1l-0.1,0.1h0l0,0l0,0l0-0.1l0-0.3l0-0.3l-0.1,0l-0.2,0l0,0.1V63v0.1l0,0.1h0l0.1,0
		l0,0.1l0,0L90.3,64l0,0.1l-0.1,0.1l-0.1,0.1L90,64.5l-0.2,0.1l-0.3,0.1l-0.2,0.2L89.1,65l-0.3,0.3l-0.1,0.1l-0.1,0.1v0l0.1,0.1v0
		L88.5,66h0l-0.1,0l-0.2,0.2L88,66.4l-0.1,0.2l-0.2,0.2L87.5,67l-0.7,0.7L86.5,68l-0.1,0.1l-0.2,0.3L86,68.5l-0.7,0.6l-0.5,0.5
		l0,0.1l0,0l0.1,0l0.1,0l0.1,0l0,0L85,69.9l-0.3,0.3l-0.2,0.2l-0.1,0.2l-0.6,0.5l-0.5,0.4l-0.2,0.2L83,71.8L82.9,72l-0.1,0.1
		l-0.3,0.4l-0.1,0.1l-0.3,0.4l-0.4,0.5l-0.1,0.1l-0.1,0.1l-0.3,0.3l-0.2,0.3l-0.2,0.2l0,0.1l-0.1,0.3L80.6,75l-0.1,0.1l-0.1,0.1
		l-0.1,0.1l0,0l-0.1,0.1l-0.1,0L80,75.3l-0.1,0l0,0l-0.2-0.1l-0.2-0.1l-0.2,0L78.9,75l-0.2-0.1l-0.1-0.1l-0.2,0l-0.1-0.1l0-0.1
		l0-0.1l0-0.1l0,0H78l-0.2,0.1l-0.1,0.1l-0.1,0.1l-0.1,0.1l-0.2,0.1L77.2,75l0,0v0.1v0.2v0.1l-0.1,0.2L77,75.7l-0.1,0l-0.3-0.1
		l-0.1-0.2L76.4,75l0-0.1l-0.1-0.1l-0.1-0.1l-0.1-0.1l0,0l-0.2-0.2l-0.2-0.2l-0.5-0.4l-0.1-0.1l-0.2-0.2l-0.2-0.2l-0.1,0V73l0-0.2
		l0-0.3l0-0.3L74.4,72l0-0.1l-0.2-0.1l-0.1-0.1L74,71.5l-0.1-0.1l-0.2,0l-0.3-0.2L73.1,71L73,70.9l0,0l0-0.1v-0.2l0-0.2l0-0.2
		l-0.1-0.1L72.8,70l-0.1-0.1l-0.1,0l-0.1,0l-0.2-0.1l0,0l-0.1-0.2l0.1-0.1l0,0l-0.1-0.3l-0.2-0.2l-0.1-0.2l-0.1-0.1l-0.1-0.1l-0.2,0
		l-0.2,0.2l-0.2-0.1l-0.1,0l-0.1,0l-0.1,0l-0.3-0.2l-0.2-0.2l0-0.2l0-0.1l-0.1-0.1l-0.2,0l-0.1,0l-0.2,0l-0.2,0l-0.1,0.1l-0.1,0
		l-0.1,0.4l-0.1,0l-0.1,0l0-0.2l0-0.3l0-0.3l-0.1-0.2L68.4,67l-0.3-0.4L67.4,66l-0.4-0.4l-0.2-0.2l-0.2-0.3L66.4,65l-0.2,0l-0.1-0.1
		l-0.2-0.2l-0.2-0.1h-0.3l-0.2,0l-0.1,0l-0.1,0l-0.4,0l-0.4-0.1l-0.3-0.2l-0.7,0h-0.3h-0.3h-0.1l-0.1,0l-0.2-0.1l-0.2-0.2l0-0.1
		l-0.2,0h-0.1L61.3,64L61,63.9l-0.2,0h-0.2h-0.1L59.9,64L59.6,64"/>
	<path fill="none" stroke="#000000" stroke-width="0.25" d="M81.6,73.7l0.1-0.1l0.1-0.1l0.4-0.5l0.3-0.4l0.1-0.1l0.3-0.4l0.1-0.1
		l0.1-0.1l0.2-0.1l0.2-0.2l0.5-0.4l0.6-0.5l0.1-0.2l0.2-0.2l0.3-0.3l0.1-0.1l0,0l-0.1,0l-0.1,0l-0.1,0l0,0l0-0.1l0.5-0.5l0.7-0.6
		l0.1-0.1l0.2-0.3l0.1-0.1l0.3-0.2l0.7-0.7l0.2-0.2l0.2-0.2l0.1-0.2l0.1-0.1l0.2-0.2l0.1,0h0l0.2-0.3v0l-0.1-0.1v0l0.1-0.1l0.1-0.1
		l0.3-0.3l0.2-0.1l0.2-0.2l0.3-0.1l0.2-0.1l0.1-0.1l0.1-0.1l0.1-0.1l0-0.1l0.7-0.6l0,0l0-0.1l-0.1,0h0l0-0.1V63v-0.1l0-0.1l0.2,0
		l0.1,0l0,0.3l0,0.3l0,0.1l0,0l0,0h0l0.1-0.1l0.1-0.1l0-0.3l0.6-0.5l1.1-0.9l0-0.1l0-0.1l0.2-0.2l0.2-0.2l0-0.1l0.3-0.3l0.2-0.2
		l0.2-0.2l0.2,0.1h0.1l0.6-0.4l0.4-0.2l-0.1-0.1l-0.4-0.2l0-0.2l0.2-0.3l0.1-0.1l0.1-0.1l0.1-0.3l0.1-0.3l0-0.1l0-0.1l0.1-0.4l0-0.5
		l0.1-0.4l0.2-0.5l0.1-0.2v-0.2l-0.1-0.3l0.2-0.3l0.1-0.3v-0.1l-0.2-0.1v-0.1l0.3-0.9l0.1,0l0.1-0.4v-0.2l0.1-0.2l0.1-0.1l0-0.3
		l0.8-1.2l0-0.2l-0.2-0.3l0-0.1l0.2-0.2l0-0.1v-0.2l0.1-0.4l0.1-0.3l0.2-0.7l0.4-1.2l0.4-1.6l0.5-0.4l0.1-0.3l0.2-0.6l0.1-0.2
		l0.2-0.2l0.2-1.3l0.3-0.3l0.7-0.2h0.2l0.4-0.2l0.4-0.1l0.3-0.4l0.2-0.5l0.2-0.5l0.3-0.6l0.3-0.5l0.3-0.5l0.8-1.5l0.4-0.4l0.3-0.4
		l0.2-0.4l0.1,0l0.1-0.1l0.1-0.2l0.3-0.6l1.4-2.1l0.4-0.6l0.3-0.5l0.2-0.5l0.4-1.2l0-0.3l0-0.1l0.3-1.2l0.2-0.3l0.4-0.3l0.2-0.1
		l0.1,0l0.2,0.2l0.2,0.2l0.2,0.1l0.2,0.1l0.1,0l0,0.1l0,0.2l0,0.3l0,0.1l0.1,0.3l0.2,0.2l0.2,0.1h0.2l0.1,0l0.1,0.1l0.1,0.2l0.1,0.1
		l0.2,0l0.4-0.1l0.1,0l0.2,0.1l0.4,0.4l0.1,0.1l0.1,0l0.1,0v0.1l0,0.2l0.1,0.1l0.3,0.1l0.3,0.1l0.1,0.1l0.2,0.2l0.1,0l0.2-0.1l0.2,0
		l0.2,0l0.2-0.1l0.1,0l0.1,0l0.3,0.1h0.1l0.2,0l0.1,0l0,0.3l0.1,0.4l0.1,0.3l-0.2,0.4l-0.1,0.4l-0.1,0.2l0,0.1l0,0.1l0.1,0.1
		l0.2,0.1l0.1,0.1l-0.2,0.4l-0.1,0.2l-0.2,0.4l-0.1,0.2l0.2,0.1l0.1,0.1l0.1,0.1l0.1,0.4l0.1,0.3l0.1,0.3l0.1,0.3l0.1,0.2v0.4
		l0.2,0.8l0.3,0.3l0,0.1l0.1,0.1l0.1,0.2l0.1,0.5l0,0.2l-0.1,0.1l0,0.2l0,0.6l0,0.3l-0.2,0.3l0,0.1l0.1,0l0.2,0l0.1,0.1l0,0.1
		l-0.2,0.4l0,0.5l0,0.3l-0.2,0.3l-0.1,0.6l-0.1,0.1l-0.1,0.3l-0.1,0.2l-0.1,0.3l-0.2,0.4l-0.1,0.3v0.9l0,0.4l-0.1,0.7l0.1,0.5
		l0.1,0.3l0.3,0.7v0.2l0,0.3L117,49l-0.4,0.2l-0.2,0.3l0,0.2l0.3,0.2l0.3,0.2l0.5,0.2l0.2,0.1l0.2,0.4l0.2,0.1l0.3,0l0.2-0.1
		l0.4-0.4l0.1,0l0.3,0.1l0.4,0.2l0.5,0.2l0.7,0.2l0.3,0l0.2,0l0.1,0.1l0.3,0l0.1-0.1l0.2,0l0.6,0.3l0.1,0.1l0.4,0.2l0.2,0.2l0.2,0.5
		l0,0.5l0,0.4l0.1,0l0.3,0l0.2,0.1l0.7-0.2l0.2,0l0.2,0l0.3,0.1l0.4,0.1l0.3,0l0.3,0.3l0.2,0.1l0.3,0h0.5l0.3-0.1l0.3,0.1l0.3,0
		l0.3,0.1l0.2,0l0.5-0.3h0.3l0.2-0.1l0.2,0.1l0.3,0.1l0.4,0.4l0.3,0.2l0.3,0l0.2,0.2l0.1,0.1l0.2,0.4l0.4,0.1l0.3,0.1l0.6,0.3
		l0.3,0.1l0.3,0.2l0.4,0.5l0.1,0.3l0.2,0.3l0.5,0l0.5-0.1h0.4l0.4-0.1l0.5-0.1l0.4-0.1l0.4-0.1l0.5-0.1l1.3-0.3L140,56l0.8-0.4
		l0.3-0.1l0.4,0l0.5-0.1l1.1-0.5l0.3-0.2l0.3-0.2l0.2,0l0.1,0.2l0.2,0.3l0.2,0.3l0,0.2l-0.1,0.1l0,0.2l0.1,0.3l0.1,0.1l0,0.3
		l0.1,0.2l0.1,0l0.1,0.3l-0.1,0.1l0.1,0.3v0.2l0,0.2l0,0.2l0.1,0.1l-0.1,0.4l-0.2,0.3l-0.1,0.3l0,0.3l-0.1,0.2l-0.2,0.3l-0.2,0.1
		l-0.1,0.1l0,0.2l0.1,0.1l-0.3,0.2l-0.3,0.2l-0.1,0.1l-0.1,0.2l0,0.1l0.1,0l0.1,0l0.2,0l0.6,0.4l0.4,0.2l0.2,0.2l0.4,0.3l0.4,0.3
		l0.4,0.4l0.2,0.2l0,0.1l0.3,0.1l0.4-0.1l0.2,0l0.2,0.2l0.2,0.1l0.1,0.1h0.3l0.3,0l0.9,0.4l0.4,0l0.2,0.1l0.3,0.1h0.2h0.2l0.2,0.1
		l0.1,0.1l-0.1,0.1l0,0.2v0.2l-0.1,0.2l0,0.2l0,0.3v0.3l-0.1,0.4l-0.1,0.1l-0.1,0.2l0,0.2l0.1,0.2l-0.1,0.3l-0.2,0.1l-0.4,0l-0.3,0
		l-0.4,0.1h-0.4h-0.1l-0.2-0.1l-0.2-0.1l-0.1-0.2l-0.2-0.2l-0.2,0l-0.2,0l-0.2,0l-0.2-0.1l-0.3,0l-0.2,0.1l-0.2,0.3l-0.3,0.1
		l-0.2-0.1l-0.1,0.1l-0.1,0.1l-0.2,0.1l-0.1,0.3l0.3,0.4l0.2,0.4l0.1,0l0.1,0.1l0,0.2l0,0.2l0,0.4l-0.1,0.3l-0.3,0.3l-0.1,0.2l0,0.3
		l-0.1,0.1l0,0.1l-0.2,0.1l-0.2,0l-0.1-0.1l-0.1-0.2l0-0.1l0-0.3L145,70l-0.2-0.2l-0.2-0.1l-0.2-0.2l-0.2-0.1H144l-0.2,0h-0.2
		l-0.6-0.1l-0.3,0.1l-0.2,0.1l-0.2,0.1l-0.1,0.2h-0.5l-0.1,0.1l-0.1,0.1v0.3v0.4l0,0.2l-0.2,0.2l-0.2,0l-0.3-0.2l-0.4-0.2l-0.2-0.1
		l-0.1-0.1l-0.2-0.1l-0.2,0l-0.2,0.2l0,0.2l0,0.2l0.1,0.4l0,0.1l-0.2,0l-0.2-0.1l-0.1,0.1l-0.2,0l-0.3,0l-0.5-0.1l-0.3-0.1l-0.6-0.1
		l-0.6,0l-0.4,0.1l-0.6,0.3l-0.5,0l-0.5-0.1l-0.3,0h-0.4l-0.1,0l-0.1,0.1l-0.1,0.3l-0.3,0.6v0.4l-0.2,0.3l-0.1,0.2l-0.1,0.2h-0.2
		l-0.3,0l-0.2,0l-0.3-0.1l-1-0.4l-0.5,0l-0.3,0.2l-0.2,0.6l-0.2,0.2l-0.2,0.1l-0.2,0.1l-0.2,0.1l-0.4,0.2h-0.4H128l-0.2-0.1
		l-0.2-0.3l-0.4,0.2l-0.2,0.2l-0.3,0.2l-0.1,0l-0.1,0l-0.1,0l-0.1,0.1l-0.3-0.1l-0.3,0.1l-0.2,0.1l0-0.2l0-0.1l0.1-0.2l0-0.1
		l-0.1-0.1h-0.1l-0.1,0.1l-0.2,0.1l-0.3-0.1l-0.3-0.1l-0.4-0.1l-0.5,0l-0.3,0.1l-0.2,0.1l-1.7,0.9l-0.3,0.3l-0.3,0l-0.2,0.2
		l-0.2,0.1l-0.3,0.3l-0.2,0.3l-0.4-0.1l-0.4-0.1l-0.3,0h-0.3h-0.2l-0.1,0.1l-0.3,0.1l-0.3,0.1l-0.3,0.3l-0.2,0.1l-0.2,0l-0.2,0.2
		l-0.1,0.1l-0.2,0.3h-0.1l-0.3-0.1l-0.1,0.1l-0.4,0.2l-0.1-0.1l-0.2-0.1l-0.5,0.3l-0.2,0.1l-0.2-0.9l-1.4,0.9l-0.3,0.3l-0.5,0.3
		l-0.4,0.6l-0.2,0.3l-0.7,0.2l-1.2,1.2l-0.5,1.3l-0.4-0.5l-0.1-0.1l-0.6,0l-0.9,0.1l-0.5,0l-0.1-0.1l0.2-0.3l-0.2-0.2l-0.8-0.1
		l-0.4-0.1l-0.7-0.2l-0.4-0.4l-0.2-0.4l-0.5-0.1l-0.8-0.1l-0.5,0.1l-0.7,0.2l-1.1,0.8l-1,0l-1.1-0.1h-1l-0.2-0.1l-0.4-0.2l-0.5,0
		l-0.3,0l-0.2,0l-0.3-0.1l-0.1-0.1l-0.4-0.2l-0.1,0l-0.2,0.1l-0.2,0.2L93.6,81l-0.2,0.2l-0.1,0.2l-0.1,0.2l0,0.1l-0.1,0.5L93,82.1
		l0-0.1l-0.1-0.3l-0.1-0.3l-0.1-0.4l0-0.4l-0.3-0.3L91.7,80l-0.4-0.2l-0.5-0.1l-1-0.2l-0.5-0.2l-0.9-0.4L87,78.3l-0.2-0.1l-1.1-0.7
		l-0.1-0.1l-1.1-0.7l-0.8-0.5l-1-0.6l-0.4-0.3L82,75l-0.1-0.4l-0.1-0.4L81.6,73.7"/>
	<path fill="none" stroke="#000000" stroke-width="0.25" d="M21.2,150.2L22,151l0.3-0.2l1-0.6l0.7,1.1l1.2-0.4l0.2-0.3l1.1,0.7
		l0.9,0.6l0.3-0.2l0.3-0.4L28,151l0.1-0.1l0.1,0.1l0.1,0.3l0.4,0.1l0,0.1l0.4,0l0.6-0.1l0.4-0.3l0.4-0.1l0.3,0l0.2-0.2l0.2-0.2
		l0.2,0l0.2-0.2l0-0.1l0.2-0.1l0.6-0.5l0.2-0.2l0.3-0.1l0.1-0.1l0.5-0.6l0.2-0.3l0.1-0.3l0.2-0.2l0.2-0.1l0.4-0.2l0.3-0.3l0.2-0.3
		l0.1-0.3l0.2,0l1-0.2l0.4,0.4l0,1.2l-0.1,0.8l0.1,0.5l0.3,0.4l0.4,0.4l0.9,1.2l0.4,0.9l0.1,1l0.2,0.6l0.2,0.2l0.1,0.3l-0.1,0.1
		l0.1,0.1l0.3,0l-0.2,1.1l0,0.6l0.2,0.4l0.6,0.4l0.3,0.3l0.2,0.3l0,0.2l-0.3,0.7l-0.6,0.5l-0.1,0.3l0.1,0.1l0.1,0.2l-0.1,0.2
		l-0.1,0.1l-0.2,0.1l0.1,0.2l0.4,0l0.1,0.1l0.4,0.1l1.2,0.2l0.2-0.1l0.1,0l0.3-0.1l0.4-0.2l0.2,0l0.7,0.2l0,0.1v0.3l0.1,0h0.1
		l0.2-0.1l0.1,0l0,0.1l0,0.2l0.2,0.2l0.1,0.1l0.3,0.1l0.4,0.1l0.1-0.1l0.2-0.2l0.2-0.1l0.2-0.2l0.5,0.3l0.2-0.1l0,0.1l0.2,0.1
		l0.3-0.1l0.2-0.2l0.1-0.1l0.1,0.1l0.1,0.2l0.2,0l0.2-0.2l0.2-0.3l0.1-0.1l0.3-0.2l0,0.1l0,0.4l0.1,0.2l0.1,0.3l0.3,0.3l0.6,0.5
		l0.2,0.1l0.7,0l0.3,0.1l0.2,0.2l0.1,0.1l0.3-0.7l0.1-0.4l-0.1-0.1l0-0.1v-0.1l0.2-0.1l0.3-0.2l0.6-0.5l0.3-0.3l-0.1-0.4l-0.2-0.4
		v-0.2l0.1-0.2l0.1-0.2l0-0.1l0-0.2v-0.1l0-0.1l0.1-0.2l-0.3-0.3l-0.1-0.2l0.1-0.2l0.1-0.3l0.4-0.2V157l-0.1-0.1l0-0.2l-0.1-0.8
		l0.3-0.2l0-0.1l-0.3-0.7l-0.3-0.2l-0.1-0.1l-0.1-0.1l0.1-0.1l0.5,0l0-0.2l-0.1-0.6l-0.2-0.1l-0.1-0.1l0-0.2l0.2-0.1l0.4,0l0.3,0.2
		l0.2,0.2l0.2,0.2l0.1,0.3l0.6,0l0.1-0.4l0.1-0.3l0.2-0.4l0-0.1l-0.5-0.6l-0.1-0.1l-0.4-0.1l-0.3,0l-0.2-0.1l0-0.2l0.1-0.2l0.1-0.1
		l0.2-0.2l0.1-0.5l0.5-0.4v-0.2l-0.1-0.4l0.1-0.1v-0.3v-0.3l0-0.2l0.1-0.1l0.1-0.1l0.1-0.2l0.2-0.3v-0.2l-0.1-0.3l0.3-0.8l0.2-0.5
		v-0.5l0.1-0.5l0.2-0.4l0.3-0.1l0.2-0.3l0.1-0.1l0.1-0.1l0.2,0l0.2,0.2l0.3,0.1l0.6-0.2l0.2,0.3l0.2,0.2l0.7-0.2l0.6,0l0.2,0.1
		l0.4,0.3l0.5-0.3l0.1,0l0.2,0.1l0.2,0.1l0.1,0.1h0.1l0.3-0.4l0.4-0.1l0.4-0.3l0.4-0.1l0.3-0.3l0-0.4l-0.1-0.4v-0.3l0-0.3l-0.1-0.1
		l0-0.4l0.1-0.3l0-0.2l0.8,0.2l0.8-0.6l0.2-0.3l0.1-0.1l0.1-0.1l-0.5-0.3l-0.1-0.1l-0.2-0.3l-0.1-0.3l-0.1-0.2l0-0.1l0.1-0.2
		l0.2-0.4l-0.1-0.6l-0.3-0.2l-0.4-0.1l-0.1-0.1v-0.3l0.3-0.6l0.4-1l0.2-0.3L64,135l0.2-0.1l0.3-0.1l0.2-0.1l0.2-0.2l0.1-0.3
		l-0.1-0.2l0-0.3l0.2-0.2l0.2-0.1l0.1-0.2l0.1-0.2l0.3-0.1l0.2-0.5l0.1-0.3l-0.1-0.2l0-0.2l0-0.4l-0.1-0.2l0-0.3v-0.1l-0.2,0.1
		l-0.2,0.1l-0.2,0.1l-0.2,0.1l-0.3,0l-0.1-0.1l-0.1-0.2l0-0.2l0.1-0.2l0.1-0.1l0.1-0.2l-0.1-0.2l-0.1-0.3l0-0.2l0-0.3l0-0.3l0-0.2
		l0-0.1l0-0.3v-0.2l0-0.1v-0.2l-0.1-0.3l-0.1-0.3l0.2,0V127h0.2v-0.1l0-0.1l0-0.1l-0.1,0h-0.2l-0.1-0.2l0-0.2l0-0.3v-0.1l0.1-0.2
		l0.3-0.3l0.1-0.1l-0.1-0.4l0-0.2l-0.3-0.2l-0.4-0.3l-0.1,0L64,124l0-0.2l0-0.3l-0.1-0.2l-0.1-0.2v-0.2l-0.1-0.4l-0.2-0.4l-0.1-0.3
		l-0.1-0.3l-0.1-0.2l-0.2-0.1l-0.5-0.2l-0.3-0.2l-0.8,1.6l-0.5-0.2l-0.5-0.2L60,122l-0.4-0.1l-0.4-0.1l-0.3,0l-0.7-0.2l-1.6-0.4
		L56,121l-0.3-0.1v-0.1l0.1-0.1l0.2,0h0.3l0.5,0l0.6-0.2l0.4-0.1l0.4-0.2l0.5-0.7l0.2-0.4l0.2-0.4l0-0.3l0-0.3l0-0.2l0-0.2l0.1-0.1
		l0.1-0.1l0.2-0.1l0.1-0.1l0.1-0.4l0-0.1l-0.2,0.1l-0.2-0.7l0-0.1l0.1-0.1l0.1-0.1l0.3,0l0.1-0.2v-0.1h0.2l0.1-0.2l0.4-0.4l0.3-0.3
		l0.6-0.9l1.1-1.6l-0.1-0.1l-0.2-0.1l-0.3-0.1l-0.3-0.1l-0.4-0.2l-0.5-0.4l-0.4-0.2l-0.6-0.1l-0.5-0.1l-0.4,0h0l-0.7,0.1l-0.9,0.1
		L57,111l-0.3-0.1l-0.5-0.6l-0.2-0.5l-0.1-0.3l-0.2-0.2l-0.2,0h0v0v-0.4l0,0v-0.2v-0.3V108v0v-0.1l-0.1-0.1l0.2-0.3l0.2,0.1l0-0.3
		l0.1-0.7l0-0.3l0.1-0.5l0.1-0.3l0.1-0.4l-0.4-0.4l-0.4-0.4l0-1.2l-0.6,0l-0.5,0.3l-0.6,0.3l-2.3,2.1l-0.9,0.8l-0.5,0.4l-0.2,0.2
		l-0.1,0.1h0l-0.2-0.2l-0.1-0.1l-0.1-0.1l-0.1,0l-0.7,0.7l-0.5,0.5l-0.3,0.2l-0.6,0.6l-0.2,0.2l-0.3,0.1l-0.2,0.1l0,0.1l-0.4,0
		l-0.4-0.2L45,109v-0.4l0.2-0.2l0.3-0.4v-0.1l-0.6-0.5l-0.6-0.6l0,0l0,0l1.6-1.6l0.5-0.5l0.2-0.3l0.3-0.3l0.4-0.3l0.1-0.2l0-0.1
		l0-0.3l0-0.2l0.8-0.2l1.5-1.5l-0.8-0.8v-1.4v-2v-0.1L48.5,97l-0.2,0.1L48,97l-0.3,0.1l-0.2,0h-0.2l-0.3,0l-0.5-0.3v-0.1l-0.2-0.1
		l-0.2-0.1l-0.1,0l-0.1,0l-0.1,0l-0.1,0.1l-0.1,0.2l-0.1,0h-0.1l-0.1,0l-0.1-0.1l-0.1-0.1l-0.2,0h-0.3l-0.2,0h-0.1l-0.1,0l0,0
		L44,96.7l-0.1,0.1l-0.2,0.1l-0.2,0l-0.1,0L43.3,97l-0.2,0l-0.2,0.1l-0.2,0l-0.4-0.1l-1-0.3l-1.5-0.4l-1.7-0.5l-0.8,1.4l-0.4,1
		l-1,1.9l-0.2,1.6l0,0.8l0.2,0l-0.1,1.2l0.2,0.6l0.2,0.3l0.2,0.3l0.2,0.4l0.2,0.3l0.4,0.2l0.7,0.1l1.1-0.3l0.5-0.1l0.4-0.2l0.3-0.2
		l0.2,0.1l0.1,0l0.3,0.2l0.3,0l1.1,0.2l-0.1,0.2l-0.4,0.2l-0.4,0.2l-0.3,0.1l0.1,0.3l-0.1,0.4h0.3l0.1,0.3l-0.4,0.1l-0.2,0l-0.6,0
		l-1.1-0.1l-1.4-0.1l-0.1,0.6v0.8l0,1.1l0.4,0.4l0.1,0.1l0.7,0.1l0.1,0.1l1.7,0l-0.1,0.2l-0.1,0.3l-0.1,0.3l-1,0.5l-0.1,0.3l0,0.8
		l0.1,0.8l0.1,0.2l0.1,0.4l0.3,0l0.3,0.1l0.2,0.1l-0.4,0.2h-0.3l0.1,0.4v0.1l-0.1,0.1v0.3v0.6l-0.1,0.6l-0.1,1.1l-0.1,0.3v0.3v0.1
		v0.6l0.1,0.3l0.2,0.1l0.1,0l0.1,0.2l0.1,0.1l0.1,0.1v0.6l-0.1,0.1h-0.6l0.1,0.3l0.1,0.1l0.1,0.1l0,0.1h0.3l-0.1,0.3l-0.1,0.2l0,1.1
		v0.1l0.1,0.3v0.1l0,0.2l0,0.2v0.4v0.1v0.2l-0.1,0.8l-0.2,0.9v0.1l-0.1,0.7l-0.1,0.9l0.1,0.8l0,0.2l0,0.3l-0.1,0.7l-0.2,0.8
		l-0.2,0.5l-0.1,0.2L38,132l-0.2,0.1l-0.2,0.2l-0.2,0.1l-0.3,0l-0.3,0l-0.9,0.2l-0.2-0.2l-0.2,0.1l-0.3,0.3l0.1-0.3l0-0.1l-0.2-0.3
		l0-0.1l0.1,0.1l0.4-0.2l0.2-0.3l0.1,0l0.1,0l0.1-0.2l0.1,0l0.1,0.1l0-0.1l0-0.1l0.1-0.1h-0.2l-0.9,0.7l-0.5,0.2h-0.4l-0.1-0.1
		l-0.1,0.1l0,0l-0.6-0.4l-0.4,0.4l-0.6,0.7l1,0.8l-0.4,0.9l-0.3,0.9l1.2,0.3l0.4-0.7l0.8,0.2v1l-0.1,0.4l0,0.3l0,0.4l0,0.3v0.4
		l0,0.5l-0.1,0.3l-0.1,0.4l-0.1,0.3l-0.1,0.1l-0.1,0.3l0,0.2v0.4l-0.1,0.3l-0.1,0.4l-0.2,0.6l-0.2,0.5l-0.1,0.2l-0.2,0.2l-0.4,0.3
		l-0.5,0.3l-0.5,0.2l-0.2-0.2l-0.2-0.1l-0.2,0l-0.1,0.1l0,0.1l-2.3,1.5l-1,0.4l-0.2,0.3l-0.4,0.3l-1.5,0l-0.3,0.4l-0.4,0.3l-0.4,0.3
		l-0.5,0.4l-0.5,0.4l-0.4,0.3l-0.3,0.2l-0.5,0.5l-0.3,0.2l-0.2,0.2l-0.1,0.1l-0.1,0.1l-0.2,0.2l-0.2,0.2l-0.2,0.2L21.2,150.2"/>
	<path fill="none" stroke="#000000" stroke-width="0.25" d="M38.2,95.8l0.2-0.3l-0.1-0.3l0-0.1l1.2-1.8l0.1,0l0.2,0.1l0.1-0.1
		l-0.2-0.2l0-0.1l0.8-1.3l0.2-0.4l0.2-0.4l0.2-0.3l0.3-0.3l0.1-0.2l0.2-0.4l0.1,0l0.2-0.7l0.1-0.5l0-0.2l0-0.1L41.8,88l0.2-0.6
		l0.1-0.4l0.2-0.3l0.1-0.7l0-0.5l-0.5-0.3l0.1,0l0.1-0.2l0.2-0.5l0,0l0.1-0.1l0-0.1l0.2-0.5h0l0,0l0.1,0l0.3-0.3l-0.1,0l0,0l0,0
		l1.6-1.7l0.4-0.4l2.4,0.2l1.2-1.3l2.6,1.6l2.9,0.9l1,1.8l0.6,1.4l0.1,0.2l0.5,1.6l0.9,0.7l0.7,0.4l2.9,2.2l0.9,0.6l1.6,0.8l1,0.2
		l1.1,0.2l1.7,0l0.8-0.1l0.9,0.2l1.8,0.8l1.1,0.3l0.8,0.3l0.9,0.2l0.4,0l0.4,0l0.7-0.2l0.4-0.3l0.4-0.4l0.3,0.1h0.2l0.4,0.1l0.5,0.2
		l0.8,0.6l0.4,0.5l0.2,0.4l0.2,0.6l0.3,0.8l0.1,0.1l1.7,0.8l-0.2,0.1l-0.1,0.2l-0.1,0.1L79.8,98l-0.5,0.2L79,98.3l0,0l-0.2,0.1
		l-0.1,0l-0.1,0.1l-0.1,0.1l-2.1-0.6L76.2,98l-1.2-0.4l-0.6-0.2l-0.2,0.4l0.1,0.1V98v0.3l0,0.1l-0.1,0.2l0,0.1l0,0.1l0,0.2l0,0.1
		l0,0.1l0,0l0.1,0.1l0.1,0.1v0v0.1v0.1l0,0.1l0,0.1l0.1,0.3l0.1,0.2l0,0l0,0l0.2,0.1l0.1,0.1l0,0v0.1l0,0.1l0,0l0,0.1l0,0l0.1,0
		l-0.2,0.2l0.2,0.2l0.2,0.3l-0.1,0.1l0.3,0.3l0,0.2l0,0.1l0.1,0.2l0,0.1v0.1l-0.2-0.1l-0.2-0.1l-0.1,0.1l-0.4-0.4l-0.1,0.1l-0.3-0.3
		l-0.1,0.1h0l-0.2,0l0,0l-0.1-0.1l-0.2,0l-0.2,0l-0.2,0l-0.5,0l-0.1,0.1l-0.1,0l-0.1,0.1l-0.2,0l-0.1,0l-0.1,0.1l-0.1,0.1l-0.1,0
		l-0.2,0l-0.8-0.2l-0.1,0l-0.2,0l-0.4,0v-0.1l0,0v-0.1l0-0.1H70l-0.2,0.1l-0.1,0l0,0.3l0.1,0.3l0.1,0.2l0,0.1l-0.2,0.3l-0.4,0
		l-0.4,0.6l0.9,1.2l-0.3,0.2l0,0.1l0,0.3l0,0.3l0,0.1l-0.1,0.1v0.1l0,0.2l0.2-0.1l0.8,1.1l0,0l-2,1.5l-0.1,0.5l-0.1,0.1l-0.2,0.1
		l-0.5,0.4l-0.1,0l-0.2,0.1l-0.1,0.1l-0.2,0.1l-0.1,0l-0.1,0l0.1,0l0.3,0.2l0,0l0.1,0.1l-0.4,0.6l-0.3,0.2l-0.3,0.2l0.2,0.2l0.3,0.3
		l-0.4,0.3l0.1,0.2l0.1-0.1l0.1,0.1l0.1,0.1l0.1,0.1l0.1,0.1l0,0l0,0.1l0,0.1v0.1l0.1,0.1l0,0l-0.1,0.1l-0.2,0.1l-0.1,0l-0.4,0.1h0
		l-0.1,0l-0.4,0l-0.5,0l-0.6,0l-0.5,0v0.1v0.5l0.1,0.1l0.1,0.3l0.1,0.1l0.3,0.1l0.1,0.1l0.3,0.2l0.2,0.2l0.1,0.1l0.2,0.3l0.1,0.2
		l0.1,0.2l0.1,0.2l0,0l0.1-0.2l0.1,0l0.1-0.1l0,0.1l0.1,0.1l0.1,0l0.1,0l0.1,0.1l0.1,0.1l0,0l0,0.1l0,0.1l0,0.1l0,0.1l0,0h0l0.1,0
		l0,0.1l0,0.1l0,0.2l0,0.1l0,0.1l-0.1,0.1l-0.2,0l-0.3,0H66l0,0.1l0,0.1l0.1,0.8l0.1,0.2l-1,0.4l-0.3,0.1l-0.3,0.3l-0.3,0.4l-0.2,0
		l-0.8,0.1l-0.6,0.1l-0.3,0.1l-0.8,1.6l-0.5-0.2l-0.5-0.2l-0.3-0.1l-0.4-0.1l-0.4-0.1l-0.3,0l-0.7-0.2l-1.6-0.4l-0.8-0.2l-0.3-0.1
		v-0.1l0.1-0.1l0.2,0h0.3l0.5,0l0.6-0.2l0.4-0.1l0.4-0.2l0.5-0.7L59,119l0.2-0.4l0-0.3l0-0.3l0-0.2l0-0.2l0.1-0.1l0.1-0.1l0.2-0.1
		l0.1-0.1l0.1-0.4l0-0.1l-0.2,0.1l-0.2-0.7l0-0.1l0.1-0.1l0.1-0.1l0.3,0l0.1-0.2v-0.1h0.2l0.1-0.2l0.4-0.4l0.3-0.3l0.6-0.9l1.1-1.6
		l-0.1-0.1l-0.2-0.1l-0.3-0.1l-0.3-0.1l-0.4-0.2l-0.5-0.4l-0.4-0.2l-0.6-0.1l-0.5-0.1l-0.4,0h0l-0.7,0.1l-0.9,0.1l-0.3-0.1l-0.3-0.1
		l-0.5-0.6l-0.2-0.5l-0.1-0.3l-0.2-0.2l-0.2,0h0v0v-0.4l0,0v-0.2v-0.3v-0.2v0v-0.1l-0.1-0.1l0.2-0.3l0.2,0.1l0-0.3l0.1-0.7l0-0.3
		l0.1-0.5l0.1-0.3l0.1-0.4l-0.4-0.4l-0.4-0.4l0-1.2l-0.6,0l-0.5,0.3l-0.6,0.3l-2.3,2.1l-0.9,0.8l-0.5,0.4l-0.2,0.2l-0.1,0.1h0
		l-0.2-0.2l-0.1-0.1l-0.1-0.1l-0.1,0l-0.7,0.7l-0.5,0.5l-0.3,0.2l-0.6,0.6l-0.2,0.2l-0.3,0.1l-0.2,0.1l0,0.1l-0.4,0l-0.4-0.2
		l-0.2-0.1v-0.4l0.2-0.2l0.3-0.4v-0.1l-0.6-0.5l-0.6-0.6l0,0l0,0l1.6-1.6l0.5-0.5l0.2-0.3l0.3-0.3l0.4-0.3l0.1-0.2l0-0.1l0-0.3
		l0-0.2l0.8-0.2l1.5-1.5l-0.8-0.8v-1.4v-2v-0.1l-0.4,0.2l-0.2,0.1l-0.3,0L47.9,97l-0.2,0h-0.2l-0.3,0l-0.5-0.3v-0.1l-0.2-0.1
		l-0.2-0.1l-0.1,0l-0.1,0l-0.1,0l-0.1,0.1l-0.1,0.2l-0.1,0h-0.1l-0.1,0l-0.1-0.1l-0.1-0.1l-0.2,0h-0.3l-0.2,0h-0.1l-0.1,0l0,0
		l-0.1,0.1L44,96.7l-0.2,0.1l-0.2,0l-0.1,0l-0.1,0.1l-0.2,0l-0.2,0.1l-0.2,0l-0.4-0.1l-1-0.3L40,96.2L38.2,95.8"/>
	<path fill="none" stroke="#000000" stroke-width="0.25" d="M62.1,120.9l0.3-0.1l0.6-0.1l0.8-0.1l0.2,0l0.3-0.4l0.3-0.3l0.3-0.1
		l1-0.4l-0.1-0.2l-0.1-0.8l0-0.1l0-0.1H66l0.3,0l0.2,0l0.1-0.1l0-0.1l0-0.1l0-0.2l0-0.1l0-0.1l-0.1,0h0l0,0l0-0.1l0-0.1l0-0.1l0-0.1
		l0,0l-0.1-0.1l-0.1-0.1l-0.1,0l-0.1,0l-0.1-0.1l0-0.1l-0.1,0.1l-0.1,0l-0.1,0.2l0,0l-0.1-0.2l-0.1-0.2l-0.1-0.2l-0.2-0.3l-0.1-0.1
		l-0.2-0.2l-0.3-0.2l-0.1-0.1l-0.3-0.1l-0.1-0.1l-0.1-0.3l-0.1-0.1V114v-0.1l0.5,0l0.6,0l0.5,0l0.4,0l0.1,0h0l0.4-0.1l0.1,0l0.2-0.1
		l0.1-0.1l0,0l-0.1-0.1v-0.1l0-0.1l0-0.1l0,0l-0.1-0.1l-0.1-0.1L66,113l-0.1-0.1l-0.1,0.1l-0.1-0.2l0.4-0.3l-0.3-0.3l-0.2-0.2
		l0.3-0.2l0.3-0.2l0.4-0.6l-0.1-0.1l0,0l-0.3-0.2l-0.1,0l0.1,0l0.1,0l0.2-0.1l0.1-0.1l0.2-0.1l0.1,0l0.5-0.4l0.2-0.1l0.1-0.1
		l0.1-0.5l2-1.5l0,0l-0.8-1.1l-0.2,0.1l0-0.2v-0.1l0.1-0.1l0-0.1l0-0.3l0-0.3l0-0.1l0.3-0.2l-0.9-1.2l0.4-0.6l0.4,0l0.2-0.3l0-0.1
		l-0.1-0.2l-0.1-0.3l0-0.3l0.1,0l0.2-0.1h0.1l0,0.1v0.1l0,0v0.1l0.4,0l0.2,0l0.1,0l0.8,0.2l0.2,0l0.1,0l0.1-0.1l0.1-0.1l0.1,0l0.2,0
		l0.1-0.1l0.1,0l0.1-0.1l0.5,0l0.2,0l0.2,0l0.2,0l0.1,0.1l0,0l0.2,0h0l0.1-0.1l0.3,0.3l0.1-0.1l0.4,0.4l0.1-0.1l0.2,0.1l0.2,0.1
		v-0.1l0-0.1l-0.1-0.2l0-0.1l0-0.2l-0.3-0.3l0.1-0.1l-0.2-0.3l-0.2-0.2l0.2-0.2l-0.1,0l0,0l0-0.1l0,0l0-0.1v-0.1l0,0l-0.1-0.1
		l-0.2-0.1l0,0l0,0l-0.1-0.2l-0.1-0.3l0-0.1l0-0.1v-0.1v-0.1v0l-0.1-0.1l-0.1-0.1l0,0l0-0.1l0-0.1l0-0.2l0-0.1l0-0.1l0.1-0.2l0-0.1
		v-0.3V98L74,97.9l0.2-0.4l0.6,0.2l1.2,0.4l0.3,0.1l2.1,0.6l0.1-0.1l0.1-0.1l0.1,0l0.2-0.1l0,0l0.3-0.2l0.5-0.2L80,98l0.1-0.1
		l0.1-0.2l0.2-0.1l0.5,0.2l0.2,0.1l0.2,0.1l1.8,0.1l0.6,0.2l1.1,0.3l0.5,0.1l0.2,0.1l0.7,0.6l0.2,0.5l0.1,0l1.2,0.5l0.2,0.1l0.7,0.8
		l0.8,0.8l0.4,0.2l1.8,2.1l0.1,0.2l1.6,2.1l0.1,0.1l1,0.3l0.6,0.4l0.1,0.3l0.1,0.2l0.2,0.9l0.2,0.2l0.4,0.4l0.4,0.5l0.3,0.9l0.8,0.5
		l0.5,0.3l0.5,0.3l0.5,0.4l0,0.1l-0.4,0l-0.9,0l-0.4,0.1l-0.8-0.1l-0.2,0l0,0.1l0.1,0.1l0.2,0.1l0.1,0.1l0.3,0.4l0.2,0.3l0.1,0.1
		l0.2,0.1l0.2,0.1l0.1,0.1v0.1l-0.1,0.1l-0.1,0.1l-0.3,0.1l-0.3,0.1l-0.2,0.1l-0.1,0.1l-0.1,0.1l-0.1,0.1v0.1l0,0.1l0.4,1l0.3,0.7
		l0,0l0,0.2l0,0.1h0.1l0.2-0.1l0.1,0l0.1,0l0.1,0l0.1,0.1l0.3,0.3l0.3,0.4l0.1,0.2v0.1l0,0.2l0,0.2v0.2l0,0.2l0.1,0.2l0.1,0.2
		l0.1,0.1l0.1,0.2l0,0.1l0,0l-0.1,0h-0.3l-0.3,0.1l-0.1,0l-0.1,0.1l-0.1,0.2l0,0.1l0,0.1l0.2,0.1l0.8,0.3l0.3,0.2l0.4,0.3l0.6,0.4
		l0.1,0.1l-0.1,0.2l-0.1,0.4l-0.1,0.3l-0.3,0.3l-0.2,0.2l-0.1,0.1l-0.1,0H99l-0.1-0.1l-0.1,0h0h0l0,0v0.1l0,0.1l0,0.1l0.2,0.2
		l0.1,0.1l0,0.1l0.1,0.2l0,0l0.1,0l0.1,0h0.1l0.3,0l0.1-0.1l0.1,0l0.1,0l0,0.1l0,0.2l-0.1,0.2L100,125v0.2v0.1l0.1,0.1l0.2,0.1
		l0.3,0.1h0.2l0.2-0.1l0.1-0.1l0,0l0,0.1l0,0.1l0,0.2L101,126l-0.2,0.5l-0.7,1.4l0,0.1l0,0.1l1.6,0.5v0.4l-0.3,0l-0.5,0l-0.1,0.1
		v0.2l0,0.3l-0.1,0.1l0,0.2l0.2,0.1l0.1,0.2l0.1,0.1l0,0.7l0,0.1l0.1,0.1l0.4,0.2l0.5,0.4l0.4,0.1l0.5,0.2l0.2,0.4l-0.4,0.2
		l-0.2,0.4l-0.1,0.5l-0.3,0.3l-0.6,0.2l-0.4,0.2l-0.4,0.4l-0.2,0.4l-0.2,0.5l-0.1,0.4l-0.1,0.2l-0.7,0.1l-0.1,0h-0.1l-0.1,0l-0.1,0
		l-0.1,0l-0.3,0.2l-2.7,0.2l-0.1-1.1l-0.4-1.4l0-1.6l0-0.2l-0.3,0.1l-0.3-0.2l-0.1-0.4l-0.1-0.4l-0.8-1l-0.7-1.2l-0.5-0.8l-1-0.7
		l-1.2-0.7l-2.7-1.2l-1.6-1.1l-1-0.7l-0.9-0.1l-0.5-0.4l-2-0.8l-1.2,1.9l-0.2,0.2l-0.1,0.1l-0.4,0l-0.7-0.3l-0.4,0l-0.9,0.3
		l-0.1,0.5l-0.4,0.1l0.1,0.1l0,0l0.2,0.3l-0.3,0.4l-0.2,0.1l0,0.1v0.1l0,0l-0.5,0.6l0,0.1l0.3,0.1l0.7,0l0.4,0.1l0.3,0l0,0.7l0,0
		l0.5,1.4l0.4,0.4l0.1,0.4v0.2l-0.6-0.3l-0.4-0.1l-0.3,0l-0.4,0l-0.5,0l-0.3,0.1l-0.3,0.3l-0.1,0.1l-0.5,0l-0.2,0l-0.6,0.8l-0.1,1.1
		l-0.5,0.7l-0.5-0.2l-0.9,0.3l0-0.3l-0.2-0.5l-0.3,0.1l-0.5,0.1l-0.1-0.2l0-0.4l-0.2-0.2l-0.4,0.3l-0.1,0.3l-0.1,0.1l-0.1,0
		l-0.4-0.2l-0.2,0l-0.1,0l-0.1-0.2l-0.1-0.4l0-0.1l-0.1,0.1l-0.2,0.2l-0.3,0.1l-0.4,0.6l-0.2,0.3l-0.1,0.8l-0.2,0.3l-0.1,0.5
		l-0.3,0.2v0.2l0,0.3l0,0.4l0,0.6l0,0l-0.1,0l0,0.1v0.1l0.1,0.2l0,0.3l0,0.3l-0.5,0.4l-0.1,0l-0.3-0.3l-0.6,0.6l-0.2,0.1l-0.2-0.2
		l-0.1,0l-0.4,0.3l-0.1,0.1v0.1l0,0.1l-0.4,1.3l-0.1,0.6h-0.3l-0.5-0.3l-0.1-0.1l-0.2-0.3l-0.1-0.3l-0.1-0.2l0-0.1l0.1-0.2l0.2-0.4
		l-0.1-0.6l-0.3-0.2l-0.4-0.1l-0.1-0.1v-0.3l0.3-0.6l0.4-1l0.2-0.3l0.1-0.2l0.2-0.1l0.3-0.1l0.2-0.1l0.2-0.2l0.1-0.3l-0.1-0.2l0-0.3
		l0.2-0.2l0.2-0.1l0.1-0.2l0.1-0.2l0.3-0.1l0.2-0.5l0.1-0.3l-0.1-0.2l0-0.2l0-0.4l-0.1-0.2l0-0.3v-0.1l-0.2,0.1l-0.2,0.1l-0.2,0.1
		l-0.2,0.1l-0.3,0l-0.1-0.1l-0.1-0.2l0-0.2l0.1-0.2l0.1-0.1l0.1-0.2l-0.1-0.2l-0.1-0.3l0-0.2l0-0.3l0-0.3l0-0.2l0-0.1l0-0.3v-0.2
		l0-0.1v-0.2l-0.1-0.3l-0.1-0.3l0.2,0v-0.1h0.2v-0.1l0-0.1l0-0.1l-0.1,0h-0.2l-0.1-0.2l0-0.2l0-0.3V126l0.1-0.2l0.3-0.3l0.1-0.1
		l-0.1-0.4l0-0.2l-0.3-0.2l-0.4-0.3l-0.1,0l-0.1-0.1l0-0.2l0-0.3l-0.1-0.2l-0.1-0.2v-0.2l-0.1-0.4l-0.2-0.4l-0.1-0.3l-0.1-0.3
		l-0.1-0.2l-0.2-0.1l-0.5-0.2L62.1,120.9"/>
</g>
</svg>
