<?xml version="1.0" encoding="utf-8"?>
<!-- Generator: Adobe Illustrator 18.1.1, SVG Export Plug-In . SVG Version: 6.00 Build 0)  -->
<svg version="1.1" id="圖層_1" xmlns="http://www.w3.org/2000/svg" xmlns:xlink="http://www.w3.org/1999/xlink" x="0px" y="0px"
	 viewBox="997 -337 2605 1466" enable-background="new 997 -337 2605 1466" xml:space="preserve">
<path id="油羅溪" fill="none" stroke="#B5D0D0" stroke-width="2" stroke-linecap="round" stroke-linejoin="round" d="
	M2175.7,301.2l4.4,2.5l4.2,3.9l2.7,4l3.5,2.9l7.4,3.7l4.7,5l7,0.5l6.8,4.7l8.8,6.6l7,4.7l4.7,4.2l5.5,3.7l6.7-2.1l3.2,0.1l3.7,1.7
	l1.3,1.1l0.6,0.3l0.4,0.3l0.1,0.3l0.1,0.9l0.1,1.1l0.1,0.3l0.6,0.9l0.3,0.6l0.5,2l0.7,4.3l0.9,3.2l1.6,3.6l1.2,2.1l5.2,1.8l4.3,1.8
	l3.9-0.7l0.9-1.1l2-0.6l4.8-2.1l1.8-1.8l2.6-2.6l2.1-1.9l2,0l1.7,0l3.4-1.4l5-1.6l2.1-1.4l3.8-1.7l3.2,1.8l3.4,2.1l2.7,0.9l1.6,1.3
	l1.6,2l1,2.4l1.8,1.5l2,1.3l2.8,1.5l1.2,1.7l1.6,1.8l3.7,2l3.7,1.1l2.7-0.3l2.2,0.3l4.4,1.2l4,2l1.5,0.8l2.5,1.2l2.1,1l2.5,1.4
	l1,1.4l0.6,1.9l-0.3,0.9l-0.6,1.3l0,1.2l0.3,0.7l0.7,0.5l1.9,0.3l1.5-0.2l3.7-0.5l1.9,0.1l2.1,0.5l2.8,0.4l2-0.1l1.8-0.8l1.1-1
	l1.3-1.2l0.4-0.5l1.6-3.3l0.6-0.9l0.9-1.5l0.7-0.7l1.9-1.6l1.4-1.2l1-0.7l1.8-0.9l1.7-1.3l1.2-1.1l1.1-0.7l0.9-0.3l0.5-0.2l0.6-0.4
	l0.4-0.6l0.4-0.9l0.5-1.1l0.2-0.4l0.3-0.5l0.5-0.7l0.5-0.5l0.4-0.4l0.3-0.4l0.1-0.5l0-0.4l-0.1-0.4l0-0.6l0.1-0.4l0.2-0.3l0.3-0.4
	l0.3-0.5l0.3-0.6l0.4-0.6l0.3-0.6l0.2-0.7l0.2-0.5l0.1-0.2l0.3-0.2l0.4-0.4l0.5-0.4l0.7-0.5l0.3-0.1l0.4-0.1l0.9-0.1l0.7-0.2
	l0.5-0.2l0.3-0.2l0.3-0.8l0.2-0.7l0.2-0.6l0.4-0.5l0.6-0.4l0.4-0.3l0.2-0.1l0.2,0l0.3-0.1l0.3-0.3l0.2-0.3l0.2-0.3l0.3-0.2l0.5-0.4
	l0.4-0.5l0.4-0.8l0.5-0.9l0.6-1.2l0.5-1l0.3-0.6l0.2-0.8l0.3-0.5l0.2-0.2l0.2-0.2l0.6-0.4l1-0.7l1.3-0.8l0.7-0.4l0.7-0.5l0.4-0.5
	l0.5-0.3l0.6-0.1l0.7,0l0.6-0.2l0.4-0.3l0.3-0.4l0.5-0.9l0.1-0.4l0.3-1l0.3-0.6l0.3-0.5l0.3-0.3l0.6-0.7l0.4-0.5l0.3-0.4l0.1-0.4
	l0.1-0.4l0-0.7l0.1-0.3l0.4-0.5l0.3-0.6l0.4-0.7l0.5-0.8l0.4-0.4l0.3-0.2l0.2-0.3l0.3-0.7l0.2-0.4l0.2-0.7l0.1-0.7l0.2-0.5l0.2-0.4
	l0.6-0.7l0.4-0.4l0.2-0.4l0.2-0.4l0.3-0.6l0.4-0.8l0.2-0.3l0.3-0.2l0.1-0.1l0.4-0.5l0.3-0.3l0.4-0.2l0.5-0.1l0.7-0.2l0.4-0.2
	l0.3-0.3l0.4-0.5l0.3-0.7l0.2-0.6l0.2-0.8l0.3-0.6l0.4-0.4l0.6-0.4l0.4-0.4l0.5-0.3l0.7-0.3l0.4,0l0.8,0.1l0.8,0l0.9,0.1l0.5,0.1
	l0.5,0.1l0.5,0l0.7,0l0.4,0.1l0.4,0.1l0.7,0.1l0.8,0l0.8,0.1l0.8,0.1l0.8,0l0.7-0.1l0.4,0l0.4,0.1l0.8,0.2l0.7,0.4l0.9,0.7l0.5,0.2
	l0.6,0.2l0.5,0.1l0.6,0l1.7-0.3l1.1-0.1l0.9,0l1,0.1l0.6,0.2l0.9,0.4l1.1,0.3l1.2,0.4l0.7,0.2l0.4,0.1l0.8,0.4l0.3,0.3l0.3,0.2
	l0.5,0.2l0.7,0.1l0.7,0l1.1-0.1l0.6-0.2l0.4-0.2l0.2-0.2l0.4-0.5l0.2-0.1l0.5,0.2l0.5-0.1l0.5-0.2l0.6-0.4l0.7-0.6l0.5-0.6l0.4-0.2
	l0.4,0l0.3,0l0.2-0.2l0.2-0.4l0.2-0.6l0-0.4l0.2-0.4l0.5-0.5l0.4-0.4l0.6-0.5l0.6-0.7l0.4-0.6l0.5-1l0.3-0.6l0.3-0.2l0.3-0.3
	l0.1-0.3l0-0.3l0.1-0.5l0.2-0.2l0.3-0.1l0.4-0.1l0.4-0.2l0.6-0.4l0.6-0.5l0.4-0.3l0.7-0.4l0.9-0.6l0.6-0.4l0.4-0.2l0.4-0.1l0.5-0.1
	l0.5-0.1l0.4-0.2l0.3-0.3l0.3-0.4l0.3-0.6l0.4-0.7l0.4-0.4l0.3-0.4l0.4-0.6l0.4-0.3l0.3-0.1l1-0.5l0.9-0.5l0.9-0.5l0.4-0.3l0.4-0.2
	l0.6-0.2l0.6-0.1l0.6-0.2l0.7-0.2l0.3,0.4l0.1,0.5l0.3,0.5l0.3,0.4l0.1,0.3l0.1,0.4l0.3,0.6l0.3,0.4l0.4,0.4l0.6,0.4l0.5,0.3
	l0.3,0.2l0.4,0.6l0.2,0.6l0.2,0.5l0.4,0.4l0.3,0.2l0.2,0.3l0.2,0.2l0.4,0.3l0.4,0.4l0.4,0.3l0.5,0.3l0.7,0.4l0.3,0.1l1.8,0.5
	l0.6,0.2l0.6,0.3l0.7,0.3l0.4,0l0.3,0.1l0.3,0.3l0.3,0.2l0.3,0.2l0.6,0.3l0.5,0.1l0.5,0.1l0.3,0.2l0.4,0.1l0.2,0.2l0.2,0.4l0.4,0.5
	l0.4,0.7l0.2,0.5l0.2,0.6l0.1,0.5l0.2,0.4l0.5,0.2l0.5,0.1l0.8,0.1l0.5,0.1l0.3,0l0.7-0.1l0.8-0.3l0.6-0.3l0.4-0.1l0.3-0.1l0.6-0.1
	l0.6,0.1l0.5,0.2l0.3,0.2l0.5,0.3l0.4,0.1l0.4,0l0.5,0l0.6,0l0.6-0.1l0.6-0.1l0.7,0.1l0.6,0.1l0.4,0.2l0.1,0.4l0.1,0.4l0.3,0.5
	l0.4,0.4l0.7,0.5l0.5,0.3l0.5,0.2l0.3,0.2l0.2,0.4l0.2,0.5l0.1,0.6l0.3,0.7l0.2,0.4l0.2,0.6l0.2,0.6l0.2,0.4l0.6,0.8l0.4,0.6
	l0.3,0.5l0.4,0.5l0.6,0.3l0.5,0.2l0.4,0.1l0.3,0.2l0.2,0.2l0.1,0.3l0.2,0.1l0.4,0.2l0.6,0.2l0.4,0.2l0.4,0.3l0.2,0.4l0.1,0.5l0,0.8
	l0.1,0.6l0.1,0.6l0.2,0.5l0.4,0.4l0.1,0.2l0.1,0.3l0.1,0.3l0.2,0.4l0.2,0.5l0,0.1l0.4,0.5l0.4,0.2l0.4,0.2l0.6,0.3l0.7,0.5l0.5,0.3
	l0.8,0.3l0.7,0.3l0.7,0.3l0.5,0.1l0.8,0l0.6,0l0.5,0.1l0.5,0.2l0.9,0.3l0.7,0.2l0.5,0.2l0.5,0.4l0.5,0.1l0.6-0.1l0.7,0l0.8,0l0.9,0
	l0.3,0l0.2,0l0.2,0.1l0.3,0.3l0.3,0.2l0.5,0.1l0.3,0l1,0.1l0.8,0l0.6-0.1l0.4-0.1l0.3,0l0.3,0.1l0.2,0l0.2-0.2l0.2-0.4l0.1-0.4
	l0.1-0.1l0.3-0.3l0.5-0.3l0.4-0.1l0.3-0.1l0.5,0l0.4,0l0.4-0.1l0.2-0.2l0.2-0.2l0.3-0.1l0.2-0.2l0.1-0.2l0.2-0.2l0.2-0.1l0.2,0.1
	l0.1,0l0.1-0.1l0.2-0.2l0.2-0.2l0.1-0.2l0-0.2l0.1-0.2l0.3-0.2l0.4-0.1l0.3,0l0.4,0l0.3,0l0.4,0l0.2-0.1l0.2-0.1l0.2,0l0.4-0.1
	l0.3-0.2l0.1-0.2l0.4-0.1l0.7,0l0.6,0.1l0.3,0.1h0.3l0.3-0.1l0.3,0l0.2,0.1l0.3-0.1l0.2-0.1l0.3,0l0.4,0l0.3-0.2l0.2-0.1l0.2,0
	l0.1-0.1l0.2-0.2l0.2,0l0.2,0l0.2-0.1l0.2-0.2l0.3-0.2l0.3-0.1l0.2-0.2l0.2-0.1l0.2,0l0.1-0.2l0.2-0.1l0.3,0.1l0.2,0l0.2-0.1
	l0.2-0.1l0.2-0.1l0.2-0.1h0.2l0.2-0.1l0.3,0l0.2,0.2l0,0.2l0.1,0.2l0.1,0.3l0.2,0.4l0.1,0.3l0.2,0.3l0.3,0.2l0.3,0l0.3,0l0.4,0.1
	l0.4,0.2l0.2,0.1l0.3-0.1l0.3-0.2l0.3-0.1l0.3,0l0.3-0.1l0.3-0.1l0.2,0l0.3,0.1l0.2,0l0.2,0l0.2,0.2l0.3,0.4l0.2,0.2l0.3,0l0.4,0
	l0.3-0.1l0.3,0l0.3,0.3l0.2,0.3l0.3,0.2h0.3l0.3,0l0.4,0.1l0.2,0.2l0.1,0.1l0.2-0.1l0.3,0l0.3-0.1l0.2,0l0.2,0.2l0.2,0.2l0.4,0
	l0.3-0.1l0.1-0.1l0.1,0l0.2,0.1l0.3,0l0.2,0l0.2,0.2l0.3,0.2l0.2,0.2l0,0.4l0.1,0.5l0.2,0.2l0.2,0.3l0.2,0.1l0.2,0.1h0.2l0.2,0.2
	l0.1,0.2l0.2,0.1l0.3,0.1l0.3,0.4l0.3,0.1l0.5-0.1l0.3-0.2l0.4,0l0.4-0.2l0.3-0.2"/>
<path id="上坪溪" fill="none" stroke="#B5D0D0" stroke-width="2" stroke-linecap="round" stroke-linejoin="round" d="
	M2175.7,301.2l1.8,4.3l-1.2,5.8l0.8,4.3l1.9,9.1l-2,12.2l-2.1,5.7l-2.6,8.2l-5,11.5l-0.7,15l5.3,16.3l4.2,7.7l2.7,5.5l-4.7,5.5
	l-0.1,4.3l1.9,7.6l-4.8,8.7l-2.4,6.7l-2.9,6.3l-2.1,3l0.2,2.4l1.8,2.5l2.5,2.7l3.2,0.3l2.8,2l1,2.4l-1.1,2.1l0.1,4l3.5,3.8l3.7,0.5
	l4.7-4.9l1-1.1l2.3-0.4l4.6-0.3l6,0.6l14.2,5.2l2.4,2.8l0.6,10l2,3.6l0.4,4.1l-0.4,4.1l0.8,1.4l1.7,0.3l2.1,1.9l0.5,1.6l1.5,1.4
	l3,3.2l0.4,0.9l0.7,1.6l-1,4l-3.1,2.8l-2.6,1l-0.9,2l-1.6,4.7l-1.4,2l1.2,3.1l1.2,3.2l2.7,2.8l2.3,2.8l1.3,2.5l0.2,2.9l-1.1,3.4
	l-2,2.3l-3.6,2.1l-4.3,0.7l-3.4-0.6l-1.8,1.5l0.9,2.3l1.9,2.8l0.3,1.9l0.2,0.8l-0.4,1.5l-0.9,1.1l-0.3,1.6l0.1,1.7l-0.5,1l-0.7,1.7
	l-0.7,2l0.9,2.3l0.1,1.6l-0.7,1.7l-1.7,0.7l-1.9,0l-3.5-1.6l-1.5-1.2l-0.2-1.2l-0.7-1.2l-1.4-0.6l-1.7-0.5l-2.7,0.3l-2.5,0.1l-2,0.2
	l-1.6-0.7l-1.2-0.9l-1,0.3l-1.4,1.2l-1.5,1.6l-2.9,2.5l-2.3,1.5l-1.1,1.8l-1.3,2.1l-0.2,3.1l-0.9,3.1l0.3,1.4l-0.1,2.1l-0.9,1.9
	l-0.5,2l0.1,1.6l0.9,1.9l1,1.9l2.3,0.8l2.2,0l2.5,0.5l1.1,2.3l1.6,2.2l0.2,2.5l-0.3,2.1l-1.1,1.7l-1.1,2.6l-0.2,2.8l-0.4,4.4
	l0.5,2.2l1.3,1.9l1.8,1.5l2.1,0l1.4-0.6l1.2,0.2l0.8,0.2l0.9-0.4l1.7-0.3l1.7-0.1l1.6-0.3l1.1,0.6l0.5,1.4l-0.4,1.4l-1.5,1.6
	l-0.5,1.4l-0.4,1.4l-0.3,2.8l0.4,1.7l0.1,2.1l0.5,0.9l0.3,0.5l-0.5,0.6l-0.6-0.1l-1.5,0.2l-1.6-0.1l-1.1,0.6l-0.4,1.9l-0.2,1.4
	l-0.4,0.7l-0.2,1.5l-0.3,1l-0.1,1.3l-0.4,1.2l-0.3,0.7l-0.3,1.6l0.1,1.5l-0.1,2l-0.2,1.1l-1.1,0.4l-0.2,0.7l-0.8,1l-1.1,0.8l0.1,1.1
	l0.3,0.8l1.4,1.2l1.1,0.9l1,0.3l0.5,0.8l1.2,0.8l0.5,1.3l0.6,1.8l-0.4,1.1v1.5l-1.1,1.5l-1.1,0.3l-1.5-0.6l-0.8-1.4l-1.3-0.7l-1,0.5
	l-0.4,1.2l-1.5,1.1l-1.1,1.4l-1.3,1.4l-1.3,0.5l-1.2,1l-0.4,1.2l-1.1,1l-1.8,1.5l-0.2,1.5l2.8,0.9l0.1,1.1l-0.6,1.2l-1,1.5l-0.7,1.4
	l-1.1,1.2l-0.9,1.5l0.2,1.1l0.7,1.3l0.7,0.8l0.6,0.9l-0.6,1.2l-0.8,1.9l-0.9,0.5l-0.2,0.9l0.4,1.4l0.2,1.1l0,1.3l0,1.7l-0.6,2.2
	l-3,1.8l-3.3,1.2l-0.9-0.3l-0.8-1l-1.2-0.4l-1.1,1.1l0.7,2.7l1.8,2.1l1.1,0.4l1,0.9l1.1,0.4l1.1,0.3l1.5,0.1l0.8-1.4l0.8-1l1,0.1
	l0.9,0.5l0.5,1.6l1,0.5l0.4,0.4l-0.5,1.1l-0.1,0.7l-0.2,0.3l-0.9,0.1l-0.9-0.1l-0.5-0.3l-0.8,0l-0.4,0.7l0.4,1.2l0.2,1.2l-0.5,1.1
	l-0.6,1.4l0.6,1.6l0.6,2.3l0.6,0.6l0.6,0.2l0.6,0.5l0.7-0.3l0.1-1.1l0.7-0.6l1.3-0.2l0.8,0l1,0.3l0.7,0.7l0,0.9l-0.5,1l-0.5,1.1
	l-0.4,1.7l-0.2,1.5l0.8,0.3l1.7-0.2l0.6,0l-0.4,0.7l-0.1,0.4l0.9,1.9l0.1,1.5l-0.3,0.7l-0.9,1.2l-0.3,0.9l0.6,1.4l0.4,1.1l-0.5,1.3
	l-1.2,0.5l-1.2,0.5l-0.8,0.6l-0.6,1.3l-0.2,1l1,1.5l0.6,0.9l-0.4,2l-0.8,0.8l-0.8,0.6l-0.4-0.3l-0.4-0.5l-0.9,0.2l-0.8,0.7l-1.1,1.3
	l0.2,1.2l0,1.6l0.6,1.3l0.3,1.3l1.1-0.1l1.4,0.4l1.5,2l1.1,1.1l1.4,1.1"/>
<path id="頭前溪" fill="none" stroke="#B5D0D0" stroke-width="2" stroke-linecap="round" stroke-linejoin="round" d="
	M2175.7,301.2l-5.8-6.3l-5.5-1.9l-4.2-3.6l-3.6-2.1l-3.6-7.5l0.9-4l0.6-5.3l-3.4-2.6l-3.6-2.7l-4-1.3l-4.9-1.5l-8.5-0.6l-4.1-2.8
	l-4.5-2.8l-0.8-4.2l-3.8-5.7l-5-6.6l-9.6-7.9l-9-6.6l-5.7-7l-3.5-7l-2-8.6l-5.2-9.2l-1.8-3.4l-1.3-5.3l-2.1-8.7l-10.9-5.5l-2.6-4.9
	l-4.7-5.7l-2.1-5.5l-7.3-1.8l-3.1-2.1l-13.3-3.6l-15.6-7.3l-1.1-0.7l-14.2-8.7l-8.2-6.9l-4.9-4.8l-6.4-3.7l-7.7-6.5l-7.8-5.3
	l-9.7-9.7l-5-4.8l-10.5-7.7l-8.6-2.5l-2.9-0.3l-10.4-1.3l-9.8-2.1l-4-1.8l-7.5,1l-5.1-1.3l-8.2-4.2l-10.5-4.5l-5.4-1.4l-2.7,0.9
	l-4.7-0.6l-3.9-1.3l-3.9-1.9l-4.7-1.2l-4.9-4.3l-3.9-5.5l-2.3-2.9l-2.5-2l-2.1-2.2l-6.4-2l-4.7-2.5l-1.2-0.6l-9.1-4.8l-16.8-13.9
	l-6-8.5l-5.2-7.5"/>
<path id="鳳山溪" fill="none" stroke="#B5D0D0" stroke-width="2" stroke-linecap="round" stroke-linejoin="round" d="
	M2471.6,201.4l-0.6,0.8l-0.5,0.7l-0.8,0.2l-0.8,0.4l-1,0.4l-1.4-0.5l-0.9-0.1l-0.8,0.2l-0.6,0.4l-0.3,0.7l0,0.4l-0.6,0.4l-0.4,0.4
	l-0.4,0.1l-1,0.7l-0.5,0.4l-0.6,0.2l-0.8,0.7l-0.8,0.2l-1.2,0l-0.4-0.6l-0.4-0.8l-0.5-0.6l-0.6-0.6l-0.9-0.3l-0.6,0.4l-0.2,0.5
	l-0.4,0.3l-0.2,0.4l-0.6,0.3l-0.5,0.6l0.2,0.8l0.5,0.4l0.4,0.7l-0.5,0.1l-0.3,0.6l-0.4,0.3l-0.6,0.2l-1-0.1l-1-0.1l-0.4,0.7
	l-0.7,0.6l-0.6,0.4l-0.8,0.3l-0.9,0.7l-0.6,0.6l-0.7,0.7l-0.5,0.4l-0.5,0.1l-0.9-0.1l-0.6-0.5l-1.1,0.5l-0.5,0.6l-0.5,0.3l-0.9-0.1
	l-0.2-0.2l0.2-0.6l-0.6-0.4l-0.8,0.5l-0.7,0.8l0.1,0.6l-0.1,0.5l-0.4,0.4l-0.3,0.5l-0.9,0.2l-0.2-0.1l-0.6-0.6l-0.2-0.5l-0.9-1
	l-0.6,0.2l-0.4,0.3l-0.5,0.4l-0.5,0.5l-0.5,0.6l-0.5,0.6l-0.3-0.1l-0.4-0.3l-0.6-0.2l-0.5-0.3l-0.6-0.5l-0.2-0.6l0.1-0.7l-0.2-0.5
	l-0.4-0.7l-0.5-1.3l-0.7-0.7l-0.7-0.3l-0.7-0.3l-0.4-0.3l-1-0.9l-0.6-0.4l-0.6-0.9l-0.8-0.4l-0.9-0.3l-0.9-0.3l-0.7-0.3l-1.2-0.9
	l-0.2-0.6l-0.6-0.8l-0.8,0.2l-0.6,0l-1.9-0.7l-0.6,0.1l-1-0.3l-0.9-0.3l-1-0.7l-0.9-0.3l-0.6-0.3l-0.5-0.5l-0.7-0.3l-1.2-0.7
	l-0.5-0.3l-0.4-0.4l-0.3-0.6l-0.4,0l-0.5-0.6l-0.9-0.5l-0.6-0.7l-0.9-0.9l-1.1-0.8l-1-0.4l-1.1-0.4l-0.8-0.1l-1.1,0.4l-1.1-0.4
	l-0.6,0l-0.8-0.2l-0.8,0.2l-1,0.3l-1,0.4l-0.6-0.1l-0.5-0.5l-0.7,0.1l-0.6,0.4l-0.2,0.5l-0.1,2.2l-0.1,2.5l0,1.5l0.4,1.2l0.1,0.4
	l-0.1,1l-0.6,0.5l-0.7,0.1l-1.1-0.7l-0.4-0.5l-1-1l-1.2-0.6l-1.4,0l-1,0.2l-0.1,0.7l0.1,0.4l0.5,0.7l0.2,0.7l-0.2,0.8l-0.1,0.4
	l-0.1,0.6l-0.4,0.2l-0.4,0.2l-0.7-0.3l-0.4,0.4l-0.2,0.9l0.3,0.6l0.1,0.8l-0.1,0.4l-0.8,1.7l-0.1,0.8l-0.7,1.5l-0.3,0.4l-0.6,0.1
	l-0.7-0.6l-1.2-0.6l-0.6-0.1l-0.7,0.1l-0.8-0.2l-0.3,0l-0.4-0.4l-0.6,0.1l-1.8,0l-1.1-0.2l-1.8-0.4l-0.9-0.4l-1.5-0.3l-0.8,0l-1.3,0
	l-0.9-0.3l-2,0.1l-0.5,0.1l-0.9,0.7l-0.4,0.4l-0.4,0l-0.6,0.2l-1.1,0.2l-1,0.1l-1-0.3l-0.8-0.5l-0.9-0.1l-0.5-0.2l-0.3-0.5l-0.5-0.2
	l-0.8-1.2l-0.3-0.7l0.2-0.8l-0.1-1.2l-0.6-1.1l-1-0.8l-1.1-0.3l-0.2-0.4l-0.2-1l0.2-0.6l0.4-0.6l-0.3-1l-0.6-0.6l-1-0.5l-1.1-1.1
	l-1.4-0.7l-1.2-0.2l-1.1-0.3l-1.4-0.2l-0.4,0.5l-0.1,1.1l0.3,1l0.9,1.2l0.7,1.1l-0.1,1l0.1,0.6l-0.6,1l-0.4,0.5l-0.5,0.2l-0.7,0.3
	l-0.7,0.2l-0.4-0.6l-0.1-0.7l0.2-0.6l-1.5-3.4l0-0.7l-0.4-0.8l-0.9-1.6l-0.2-0.3l-0.3-0.1l-0.5,0.1l-0.9,0.4l-1-0.3l-1.8-1.7
	l-0.6-2.6l0.5-2.6l1.3-0.8l1-0.6l3.8-4.4l1.2-1.3l0.7-1.2l0.8-4.9l0-0.4l-1-4.6l-1.7-1.6l-1.8-0.8l-1.8,0.2l-2.8-0.6l-3.1-2.3
	l-1.5-2.3l0.2-3.4l-0.1-4.8l-1.1-1.4l-5.4-2.3l-1.5-0.6l-2-0.5l-3.3,0l-3.6-0.3l-2.3-1l-0.9-1.8l-0.1-1.9l0.4-2.3l0.3-1.8l0.5-2.4
	l-0.5-1.9l-1.9-1.9l-2.4-0.8l-3.8-1.8l-6.9-3l-4.1-0.9l-5.6,3.2l-2.5,1l-5.5-0.4l-3.2-1.8l-0.1-2.2l-4.3-5.7l-2.5-3.6l-2.8-2.2
	l-4.6-1.7l-4.3-2.3l-5.8-3.7l-3.2-0.1l-7.9,5.6l-2.7,2.1l-4.2-0.9l-3.6-1.9l-3.8-5.6l-0.5-2.7l-0.5-3l-2.4-3.5l-5.7-3.4l-3.8-0.1
	l-1.3,1.6l-4.9-0.3l-5.5-1.1l-3.6-2.5l-2.1,0.8l-1.5,0.6l-3.8,0.9l-4.8-1.7l-5.8-1.7l-3-2.1l-3.1-1.1l-6.7,1.2l-4.8,2.1l-2.1,0.7
	l-3.9-2.4l-1.3-1.5l-3.9-1.8l-5.5-1.9l-5.9-0.6l-2.8,1.2l-6.2,0.8h-0.4l-0.9-0.2l-11.6-2.5l-10.4-4l-4.8-2.6l-1.8-1l-5.8-4.6
	l-4.8-6.4l-3.2-6l-5.8-1.6l-9.9,1.2l-5.4,1.4l-5.3-0.4l-5.5,1.1l-6.5-1.2l-7.1-2.3l-2.5-2.2l-2.9-5.7l-2.6-5.7l-3.2-2.1l-5.9-4.4
	l-2.7,0.3l-1.9-0.8l-5.8-5.6l-4.1-5.7l-4.3-2.9l-0.9-0.6l-3.1-2l-4.4-1.8l-0.8-1.4l-2.4-3.3l-1.5-3.1l-0.3-0.6l-6-1.9l-7.3-1.6
	l-2.4,1l-2.3-1.4l-5.5-4l-6.8-1.8l-5.2,0.4l-7.5,1.8l-3.1,0.2l-5.9-0.4l-1.1-0.1l-7.1-3.5l-11-4.8l-3.2,1.2l-11.4-3.8l-4.2-0.7
	l-0.8,0.2l-4.6,1.4l-5.5,3.3l-3.5,0.1l-1.1-0.2l-4.2-0.8l-11.7-7.3l-2.6-0.2l-1.7,0.3l-1.7,1.1l-1.6,2.3l-1.3,4l-1,2.3l-1.7,2.1
	l-4.1,2.7l-2.2,0.5l-3.5-1.4l-1.9-1.4l-2.1-3.5l-1.3-2.1l-3-4.4l-2.8-2l-2.5-0.8l-8-1.2l-5,0L1811-9l-5.4,2.5l-7.2,2.7l-1.2,0.4
	l-6.2,2.4l-11.4,2.7"/>
</svg>
