<?xml version="1.0" encoding="UTF-8" standalone="no"?>
<!-- Created with Inkscape (http://www.inkscape.org/) -->

<svg
   xmlns:dc="http://purl.org/dc/elements/1.1/"
   xmlns:cc="http://creativecommons.org/ns#"
   xmlns:rdf="http://www.w3.org/1999/02/22-rdf-syntax-ns#"
   xmlns:svg="http://www.w3.org/2000/svg"
   xmlns="http://www.w3.org/2000/svg"
   xmlns:sodipodi="http://sodipodi.sourceforge.net/DTD/sodipodi-0.dtd"
   xmlns:inkscape="http://www.inkscape.org/namespaces/inkscape"
   width="210mm"
   height="297mm"
   viewBox="0 0 744.09448819 1052.3622047"
   id="svg64771"
   version="1.1"
   inkscape:version="0.91pre4 r13712"
   sodipodi:docname="1.svg">
  <defs
     id="defs64773" />
  <sodipodi:namedview
     id="base"
     pagecolor="#ffffff"
     bordercolor="#666666"
     borderopacity="1.0"
     inkscape:pageopacity="0.0"
     inkscape:pageshadow="2"
     inkscape:zoom="0.35"
     inkscape:cx="375"
     inkscape:cy="520"
     inkscape:document-units="px"
     inkscape:current-layer="layer1"
     showgrid="false"
     inkscape:window-width="1366"
     inkscape:window-height="706"
     inkscape:window-x="-8"
     inkscape:window-y="-8"
     inkscape:window-maximized="1" />
  <metadata
     id="metadata64776">
    <rdf:RDF>
      <cc:Work
         rdf:about="">
        <dc:format>image/svg+xml</dc:format>
        <dc:type
           rdf:resource="http://purl.org/dc/dcmitype/StillImage" />
        <dc:title></dc:title>
      </cc:Work>
    </rdf:RDF>
  </metadata>
  <g
     inkscape:label="Layer 1"
     inkscape:groupmode="layer"
     id="layer1">
    <path
       inkscape:connector-curvature="0"
       style="fill:none;stroke:#ab45ab;stroke-width:1.875;stroke-linecap:butt;stroke-linejoin:miter;stroke-miterlimit:4;stroke-dasharray:6.25, 2.5;stroke-opacity:1"
       d="m 371.86218,145.66943 0.50293,0.64454 0.84962,1.68456 0.72753,0.98145 0.89355,0.20508 1.08399,0.0635 0.72754,0.0635 0.93261,0.78613 0.78614,1.97265 1.3623,3.93555 -0.1709,0.67872 -0.27344,0.44922 -3.38379,2.16796 -0.55175,0.65918 0.0635,0.80567 1.70899,1.87988 0.54199,0.73731 1.13281,1.58691 0.84473,1.08887 3.30566,2.62695 0.19531,0.41503 0.23926,0.2588 -0.61035,1.61133 -0.95703,1.71386 -0.69337,2.04101 -1.10838,1.17677 -0.75197,0.38086 -1.04491,0.15625 -0.66406,0.26855 -0.55665,0.48829 -0.73241,0.66406 -0.93263,0.53222 -1.6455,0.0927 -2.79786,-0.73242 -0.97656,-0.11225 -0.92773,0.7666 -1.95312,0.67871 -0.72754,1.43066 -0.77149,2.08984 1.54785,2.11426 1.31348,1.5918 0.95703,0.97657 -0.29786,1.06445 -0.15625,0.4541 -0.0489,0.65917 1.20606,1.52344 0.79589,1.12305 0.3711,0.87891 -0.3711,0.85938 0.83496,0.9082 0.0684,1.15722 -0.13671,0.97656 1.1621,2.07032 0.18555,1.50878 0.11713,2.1582 -0.60547,1.50879 -0.17578,1.5088 0.0244,0.92773 -0.0489,0.94727 0.21483,1.4746 0.42969,1.63575 -0.5957,0.38085 -1.42577,0.0489 -2.04103,-0.0244 -0.49804,0.0244 -0.38086,-0.76172 -0.80566,-0.21484 -2.13868,0.66406 -0.59082,0.68848 -1.04491,3.98925 -1.66017,1.4795 -1.3623,0.72753 -0.9668,0.11713 -0.43945,0.92284 0.0976,2.42676 -2.76855,2.81738 -2.95898,1.40625 -2.1582,1.6504 -0.48829,0.92285 -0.86914,2.0166 -0.5957,1.33789 -0.22461,0.64941 -2.90039,0.86426 -0.7959,0.57129 -2.50489,0.4248 -1.58691,5.4834 0.81544,0.79101 0.15136,1.56739 0.62011,1.80664 0.0976,1.31836 0,0.5957 -2.75391,1.68457 -1.82617,1.35743 -0.28321,0.52734 0.0292,0.52735 0.9082,1.16698 1.167,1.2793 1.76758,2.41699 0.85448,1.33789 1.1963,1.35255 0.21973,0.80077 -0.26368,0.50782 -0.85937,0.78613 -0.77636,0.9082 -1.08888,2.23145 -0.71289,1.02539 -0.63965,0.63965 -0.6543,0.19531 -2.08496,-0.55176 -0.21972,0.0146 -1.26465,1.60645 0.21973,1.07421 -0.85937,2.08007 0.16112,0.42969 0.76173,-0.0733 1.30859,-1.01074 1.02538,-0.6836 0.74219,-0.40038 1.19141,-0.2832 0.2832,0 0.42969,-0.0146 2.01173,0.41504 0.5957,-0.044 1.67968,-0.99609 0.9375,-0.50781 1.88965,-0.0293 0.68359,-0.0586 0.28321,0 1.2207,-0.13671 0.71289,-0.0292 4.89746,0.0781 0.70313,0 1.32324,0.32226 0.95703,0.75684 0.72754,0.0781 0.70313,-0.57616 1.20117,-1.9043 0.57616,-0.84961 0.53224,-0.69824 0.66894,-1.17188 0.6836,-0.58106 1.38671,-0.19531 1.80664,-1.29394 3.56934,0.21973 0.7129,0.54198 1.37206,2.16309 0.89844,1.04004 0.49805,0.3418 4.34082,1.04492 1.08398,1.18164 0.7959,0.95215 1.66992,3.48144 0.28809,0.83009 -0.28809,1.50878 -0.0635,0.88868 0.1416,0.96191 0.22949,1.70898 -0.20996,1.26465 -0.27832,1.04003 0,0.87892 0.0635,1.10351 1.9043,1.75781 0.18067,2.71485 -0.3711,3.66699 0.23437,1.26465 0.41504,0.41504 0.47852,0.49805 1.79688,1.18163 0.20019,0.49805 -0.18554,0.47852 -0.49805,0.88378 -0.89844,1.4795 -0.61035,1.70898 -0.26856,1.19629 -0.18066,1.66016 -0.81543,0.63476 -0.62989,0.36133 -0.19531,0.58593 -0.0489,1.40625 0.26855,1.97267 1.52833,1.56237 0.67871,0.64463 0.12212,0.86912 0.039,1.582 -0.59081,2.25588 0.19043,0.669 0.90332,-0.025 0.54199,-0.52238 0.84961,-0.625 1.30371,-0.015 0.9375,0.0825 1.50879,0.1075 1.97754,0.48338 1.82617,0.57625 1.45997,0.67375 1.7334,1.94825 2.20213,2.70512 2.75392,1.82613 0.84961,0.96187 0.10737,0.30275 -0.20995,1.1525 -0.42968,1.245 0.039,0.29788 2.34375,1.45987 1.25487,0.91313 0.36621,0.542 1.17677,1.14262 1.1084,1.4745 0.3662,0.97663 0.16113,0.7275 0.0341,1.2695 -0.16112,1.5235 -0.16601,1.1475 -0.39063,1.60162 -0.23926,2.13388 0.0538,0.92762 0.20507,0.82038 0.47852,0.70312 0.9668,0.23925 2.06055,0.1855 3.08105,0.27838 0.6836,0.0588 0.82031,0.371 0.62987,0.669 0.33204,0.84962 0.66894,1.41113 0.0733,1.11325 0.0586,2.24612 0,0.53713 0.63477,1.875 0.71777,1.11812 1.86036,2.124 1.17675,1.19638 0.72266,0.77637 3.14453,1.65038 1.80663,0.60537 1.9336,0.4395 1.0791,-0.02 0.89355,-0.57137 1.34767,-1.55263 1.23046,-2.07037 0.36134,-1.25 0.49316,-1.74313 0.0586,-0.55175 1.33301,-0.1465 0.83008,0.0587 0.039,1.54775 -0.0195,1.72863 -0.24903,3.9745 0.0976,1.3965 -0.11713,0.65925 -0.47362,2.86125 -0.21973,2.21687 0.25879,2.81738 1.06934,2.22162 2.93456,2.837 2.85645,0.61025 3.07129,0.25888 3.1543,-0.337 1.1084,-0.15625 2.02147,-0.1075 1.45996,0.97162 1.11329,1.19638 2.40234,3.15912 0.8252,1.01563 0.33202,0.415 0.12697,0.76662 -0.14649,0.68363 -1.26465,0.8105 -1.4209,0.879 -0.12695,0.63475 1.18652,0.53225 0.21484,1.2695 0.38086,1.99212 0.63477,2.18263 0.48828,1.92875 0.57129,0.63475 1.67969,1.07912 0.82031,0.86913 0.97656,0.64937 0.69337,0.15138 0.58105,-0.26363 0.8252,-0.498 0.7373,-0.0637 1.88476,0.86913 3.42285,-0.86913 1.64551,0.0437 1.58203,0.21488 0.60547,0.0437 2.03614,-0.90825 1.05956,-0.4785 2.61719,-1.90438 0.53222,-0.37587 1.04004,-0.13188 1.06446,0 1.05957,-0.82037 1.84082,-1.44038 2.19239,-0.6885 2.2998,-0.43937 1.02051,0 0.708,0.7275 1.08399,1.7725 0.62011,0.37587 1.39649,0.46875 1.39649,0.8985 1.17675,0.835 0.83985,-0.42975 0.81055,-0.5225 1.33788,-0.8105 0.5664,-0.34175 1.63087,-0.13675 6.74316,-1.10837 3.08106,-0.45413 0.52246,-0.0875 0.38085,-0.4785 0.47853,-0.20025 0.33691,0.18063 0.13671,1.19637 0.29298,1.40625 0.99609,3.32513 0.59082,1.11337 0.15625,0.2685 -0.044,0.791 -0.40527,2.334 -0.23438,1.48925 0.32715,3.125 0.0195,0.8105 -0.60059,1.18175 -0.9961,1.20113 -1.41112,1.04 -1.31836,1.0205 -0.57618,0.0437 -1.3916,-0.02 -1.66504,-0.0487 -0.43945,0.25387 -0.54687,1.1035 -0.87403,1.20613 -0.78125,1.87012 0.25879,2.22163 0.75684,2.15337 0.90331,1.27925 0.49318,1.15725 0.19042,0.38088 -0.33204,2.08 0.5713,0.94737 0.44433,0.84463 0.14161,1.18162 -0.23926,1.504 -0.58105,1.6455 -0.4834,2.17288 -0.99121,4.25775 -0.39063,2.01175 -0.4834,1.83587 0.13671,0.86913 0.0976,0.22462 2.42187,0.64463 5.01953,1.25975 2.35352,1.08887 1.21094,0.96188 1.30859,1.50875 1.18652,1.709 1.11329,1.28425 0.96679,0.44425 2.05079,1.08887 1.74805,1.25 0.83495,1.05963 1.31348,0.83487 0.98633,0.90825 1.08886,1.08888 0.88379,0.3565 2.55371,-0.03 3.94531,0.25387 1.23535,0.4835 9.2041,-0.459 4.41895,-0.82525 1.62598,-0.33687 16.50879,-4.30175 3.81347,8.71575 2.18263,13.08112 7.08496,3.2715 8.7207,7.08488 16.89452,1.08887 16.89454,8.72075 14.71191,11.44525 10.81055,2.39263 6.03515,-12.88088 11.57228,-13.2275 -5.37599,-11.15725 2.89551,-11.15724 -18.35448,-13.03713 -20.06837,-1.372 6.43067,-16.8115 -3.70605,-11.87988 5.77636,-8.39362 2.33399,-8.18363 2.9248,-15.19525 4.67773,-15.78125 1.24024,-16.85062 6.59179,-6.71388 -4.9414,-6.03025 -3.88184,0.87888 -9.78027,-4.55563 -8.4082,6.52838 -4.3457,-0.57138 -1.85548,-6.30362 -2.1582,-1.211 -2.49024,-0.87888 -2.29492,-4.98537 -1.21094,-1.1475 -1.94824,-4.94138 2.95899,-4.29687 2.1582,-0.40038 3.10059,-2.90037 0.40527,-2.49513 -0.47363,-3.36912 2.83203,-3.97959 -1.34766,-4.64844 2.7832,-2.81739 0.31739,-15.4541 2.49024,-0.80566 0.27343,-3.57421 -1.48437,-4.74121 -8.69629,-9.75098 -1.75294,-0.33691 -5.7959,-0.542 0.31739,-2.87598 -1.39649,-1.64062 6.13282,-8.89649 0.16602,-1.80664 0.91308,-2.70996 1.8213,-1.75292 8.42285,0.34667 2.05566,-0.38574 1.44042,-4.38476 0.58107,-12.74902 -5.2588,-3.21778 -4.78027,-4.49707 -0.89843,-6.05468 4.91698,-2.46582 6.66993,-6.07911 2.35351,-7.56347 0.0292,-2.07519 0.10738,-3.45215 0.40527,-0.94726 3.4375,-0.40528 1.14259,-0.87402 2.1289,-3.25684 0.4541,-2.56836 -1.57226,-0.37598 -2.62695,0.26855 -1.2793,-0.5371 -1.82618,-4.40919 -1.97754,-3.33007 -9.67773,-5.06836 2.67578,-8.77442 -3.3545,-5.57617 -1.06445,1.48437 -4.05761,1.26954 -5.13672,0.0341 -17.39258,5.62989 -4.50684,4.56055 -2.2168,0.4248 -1.48925,-0.70801 -4.49218,-5.12207 -3.18848,-3.20312 -2.9004,-3.16406 -1.68456,-1.0791 -0.87403,-0.0146 -0.81055,0.75195 -1.48437,0.13672 -2.48046,0.39063 -0.75197,-0.72755 -1.01073,-0.26855 -5.33692,0.49805 -2.41698,-3.06153 -0.81055,-0.26855 -0.75684,0.2246 -1.60156,1.28906 -1.98243,0.96192 -0.91796,-1.65527 -3.78906,-1.45508 -2.77833,1.89941 -2.21191,4.17969 -0.71778,1.44531 -0.67382,0.72266 -1.08399,0.20508 -1.44531,-0.30762 -1.55274,-0.83007 -0.41015,0.77636 -0.77637,0.62011 -0.98144,0.87892 -0.30763,2.32421 -0.83007,1.65527 -0.30761,1.54785 -1.24024,0.20509 -1.96289,-0.62012 -1.44531,-0.66894 -1.03516,0.25879 -0.82519,1.34277 -0.62013,1.54785 -0.67382,1.49903 -1.28906,1.03515 -1.24024,0.56641 -1.60156,0.41504 -0.93262,1.13281 -0.62011,0.83007 -0.77149,0.15137 -0.3125,-1.7041 -0.62012,-1.49903 -0.92773,-1.96289 -0.51758,-0.72265 -1.60157,-0.77148 -1.80663,-1.03517 -0.20997,-1.54785 0.3125,-1.60156 0.1025,-0.83007 0.72267,-2.11914 0.25878,-2.27051 -1.03515,-0.51758 -0.66895,-0.92774 -0.62011,-2.43163 -0.36134,-1.49414 -0.8789,0.62011 -1.39648,0.5664 -0.98145,0.51759 -2.84179,0.77147 -2.89063,0.15625 -3.56446,-0.72265 -0.5664,-1.65527 -0.41504,-1.75293 -0.41503,-2.11915 -0.36134,-0.51757 -2.06543,-0.92774 -0.98145,-0.3125 -0.77636,-0.92772 -0.20507,-1.34278 -0.46388,-1.49902 -1.65526,-1.29395 -2.37794,-1.34278 -1.49414,-1.08397 -1.81152,-1.18653 -1.28906,-1.19141 -1.96289,-0.15136 -2.27539,-0.51758 -1.90919,-0.36134 -4.28711,-0.46386 -0.93261,0.62011 -1.1377,0.30763 -1.65039,-0.30763 -0.98144,0.30763 -1.19141,-0.62013 -0.92774,-1.34276 -0.20507,-1.29395 -0.20996,-0.66895 -2.37305,0.56641 -2.0166,0.25879 -2.22168,0.98145 -0.77636,0.98144 -0.92774,0.1025 -0.72266,-0.2539 -0.82519,-0.51758 -0.83009,-0.98145 -1.3916,-0.67382 -1.86035,-0.92774 -0.25878,-0.93261 -0.8789,-0.92774 -1.39649,-1.03516 -1.34278,-0.62011 -0.56641,-1.18653 -0.15625,-1.39649 -0.0538,-1.13281 -0.25391,-1.1914 -0.98145,-1.44531 -0.67383,0.1025 -0.1025,1.60156 -0.36132,1.7041 -0.8252,0.57129 -1.08886,0.41016 -1.03028,0.25879 -1.34277,1.18652 -0.77637,0.72754 -1.18652,0.30761 -1.96289,0.1025 -0.98145,0 -0.25879,1.81153 -0.41503,1.65039 -0.98145,1.34277 -1.44532,1.1377 -1.39649,0.8252 -1.24022,0.51758 -1.75782,0.82518 -1.08398,0.3125 -0.77149,3.61329 -1.39649,0.72754 -2.48046,0.5127 -0.41504,0.72265 0.51758,2.11914 0,1.4502 -0.62012,1.7041 -0.36133,1.65038 -1.80664,1.44532 -1.55274,1.19141 -1.90917,0.51757 -1.44532,0 -1.75781,-0.62011 -0.56641,-1.19141 -1.60156,-1.80664 -0.98144,-1.03515 -1.34766,-0.66895 -1.54785,0.0489 -1.65039,-1.7041 -0.93261,-2.11914 -1.28907,-1.13281 -1.49902,-1.86035 -1.9629,-2.42676 -1.39648,-0.72754 -1.54785,-0.0489 -2.79297,0.36133 -2.37305,-0.20508 -2.37793,-0.46875 -0.8252,-0.30762 -0.15625,-0.62012 0.20509,-1.18652 -0.15625,-1.1914 -0.72266,-1.34278 0,-1.1377 -0.2539,-1.65038 -0.20996,-1.54785 -0.25879,-1.24024 -0.62013,-1.65528 -0.98143,-0.77636 -0.46388,1.45019 -0.66894,1.28906 -0.98633,0.51759 -1.08398,0.77636 0.51758,1.03028 0.36132,1.44531 0.0537,1.13769 0,0.87891 -0.25879,1.75781 -0.3125,0.77149 -0.20507,1.60156 -0.87891,0.8789 -0.66895,0.46875 -0.72754,0.25391 -0.15136,0.62012 0.41015,0.87891 0.36621,0.62011 0.0489,1.29395 -0.62013,1.28906 -0.5664,1.03515 -1.39648,0 -1.60157,0.51758 -1.44531,0.36134 -1.4209,0.2539 -0.93261,0.3418 -0.44434,0.95215 -1.12305,0.59081 -1.4502,0.45899"
       id="path58560" />
  </g>
</svg>
